<svg height="504" version="1.1" width="765" xmlns="http://www.w3.org/2000/svg" xml:space="preserve" style="overflow: hidden; position: relative; left: -0.5px;"><rect x="0" y="0" width="100%" height="100%" r="0" rx="0" ry="0" fill="#ffffff" stroke="#888888" stroke-width="1" style="-webkit-tap-highlight-color: rgba(0, 0, 0, 0);"></rect><desc style="-webkit-tap-highlight-color: rgba(0, 0, 0, 0);">Created with Raphaël 2.1.0</desc><defs style="-webkit-tap-highlight-color: rgba(0, 0, 0, 0);"></defs><text x="50" y="50" text-anchor="start" font="10px &quot;Arial&quot;" stroke="none" fill="#3b5998" font-size="25px" font-family="verdana" transform="matrix(1,0,0,1,-20,-26)" fill-opacity="1" style="-webkit-tap-highlight-color: rgba(0, 0, 0, 0); text-anchor: start; font-style: normal; font-variant: normal; font-weight: normal; font-size: 25px; line-height: normal; font-family: verdana; cursor: pointer; fill-opacity: 1;"><tspan dy="10.5" style="-webkit-tap-highlight-color: rgba(0, 0, 0, 0);">Rectangle</tspan></text><rect x="100" y="80" width="10" height="10" r="0" rx="0" ry="0" fill="#77bb44" stroke="#77bb44" opacity="0" style="-webkit-tap-highlight-color: rgba(0, 0, 0, 0); opacity: 0; cursor: nw-resize;"></rect><text x="50" y="50" text-anchor="start" font="10px &quot;Arial&quot;" stroke="none" fill="#000000" font-size="13px" font-family="verdana" transform="matrix(1,0,0,1,-23,25)" style="-webkit-tap-highlight-color: rgba(0, 0, 0, 0); text-anchor: start; font-style: normal; font-variant: normal; font-weight: normal; font-size: 13px; line-height: normal; font-family: verdana; cursor: pointer;"><tspan dy="-2.8046875" style="-webkit-tap-highlight-color: rgba(0, 0, 0, 0);">Every quadrilateral has four sides and four interior angles. The measures of</tspan><tspan dy="15.6" x="50" style="-webkit-tap-highlight-color: rgba(0, 0, 0, 0);">the interior angles add up to 360⁰</tspan></text><rect x="100" y="80" width="10" height="10" r="0" rx="0" ry="0" fill="#77bb44" stroke="#77bb44" opacity="0" style="-webkit-tap-highlight-color: rgba(0, 0, 0, 0); opacity: 0; cursor: nw-resize;"></rect><path fill="none" stroke="#77bb44" d="M75.5,75LNaN,75" stroke-dasharray="4,3" opacity="0" style="-webkit-tap-highlight-color: rgba(0, 0, 0, 0); opacity: 0;"></path><circle cx="NaN" cy="75" r="0" fill="#77bb44" stroke="#77bb44" style="-webkit-tap-highlight-color: rgba(0, 0, 0, 0);"></circle><path fill="none" stroke="#77bb44" d="M75.5,75LNaN,85.4" stroke-dasharray="4,3" opacity="0" style="-webkit-tap-highlight-color: rgba(0, 0, 0, 0); opacity: 0;"></path><circle cx="NaN" cy="85.4" r="0" fill="#77bb44" stroke="#77bb44" style="-webkit-tap-highlight-color: rgba(0, 0, 0, 0);"></circle><circle cx="75.5" cy="75" r="0" fill="#77bb44" stroke="#77bb44" style="-webkit-tap-highlight-color: rgba(0, 0, 0, 0);"></circle><text x="50" y="50" text-anchor="start" font="10px &quot;Arial&quot;" stroke="none" fill="#000000" font-size="13px" font-family="verdana" transform="matrix(1,0,0,1,-20,67)" style="-webkit-tap-highlight-color: rgba(0, 0, 0, 0); text-anchor: start; font-style: normal; font-variant: normal; font-weight: normal; font-size: 13px; line-height: normal; font-family: verdana; cursor: pointer;"><tspan dy="5" style="-webkit-tap-highlight-color: rgba(0, 0, 0, 0);">A quadrilateral with four right angles(90⁰) is called a rectangle</tspan></text><rect x="100" y="80" width="10" height="10" r="0" rx="0" ry="0" fill="#77bb44" stroke="#77bb44" opacity="0" style="-webkit-tap-highlight-color: rgba(0, 0, 0, 0); opacity: 0; cursor: nw-resize;"></rect><path fill="none" stroke="#77bb44" d="M78.5,117LNaN,117" stroke-dasharray="4,3" opacity="0" style="-webkit-tap-highlight-color: rgba(0, 0, 0, 0); opacity: 0;"></path><circle cx="NaN" cy="117" r="0" fill="#77bb44" stroke="#77bb44" style="-webkit-tap-highlight-color: rgba(0, 0, 0, 0);"></circle><path fill="none" stroke="#77bb44" d="M78.5,117LNaN,127.4" stroke-dasharray="4,3" opacity="0" style="-webkit-tap-highlight-color: rgba(0, 0, 0, 0); opacity: 0;"></path><circle cx="NaN" cy="127.4" r="0" fill="#77bb44" stroke="#77bb44" style="-webkit-tap-highlight-color: rgba(0, 0, 0, 0);"></circle><circle cx="78.5" cy="117" r="0" fill="#77bb44" stroke="#77bb44" style="-webkit-tap-highlight-color: rgba(0, 0, 0, 0);"></circle><text x="50" y="50" text-anchor="start" font="10px &quot;Arial&quot;" stroke="none" fill="#000000" font-size="13px" font-family="verdana" transform="matrix(1,0,0,1,443,182)" style="-webkit-tap-highlight-color: rgba(0, 0, 0, 0); text-anchor: start; font-style: normal; font-variant: normal; font-weight: normal; font-size: 13px; line-height: normal; font-family: verdana; cursor: pointer;"><tspan dy="5" style="-webkit-tap-highlight-color: rgba(0, 0, 0, 0);">AB = DC and BC =AD</tspan></text><rect x="100" y="80" width="10" height="10" r="0" rx="0" ry="0" fill="#77bb44" stroke="#77bb44" opacity="0" style="-webkit-tap-highlight-color: rgba(0, 0, 0, 0); opacity: 0; cursor: nw-resize;"></rect><text x="50" y="50" text-anchor="start" font="10px &quot;Arial&quot;" stroke="none" fill="#000000" font-size="13px" font-family="verdana" transform="matrix(1,0,0,1,295,109)" style="-webkit-tap-highlight-color: rgba(0, 0, 0, 0); text-anchor: start; font-style: normal; font-variant: normal; font-weight: normal; font-size: 13px; line-height: normal; font-family: verdana; cursor: pointer;"><tspan dy="5" style="-webkit-tap-highlight-color: rgba(0, 0, 0, 0);">Opposite sides of a rectangle are parallel and equal in length</tspan></text><rect x="100" y="80" width="10" height="10" r="0" rx="0" ry="0" fill="#77bb44" stroke="#77bb44" opacity="0" style="-webkit-tap-highlight-color: rgba(0, 0, 0, 0); opacity: 0; cursor: nw-resize;"></rect><text x="50" y="50" text-anchor="start" font="10px &quot;Arial&quot;" stroke="none" fill="#000000" font-size="13px" font-family="verdana" transform="matrix(1,0,0,1,428,150)" style="-webkit-tap-highlight-color: rgba(0, 0, 0, 0); text-anchor: start; font-style: normal; font-variant: normal; font-weight: normal; font-size: 13px; line-height: normal; font-family: verdana; cursor: pointer;"><tspan dy="5" style="-webkit-tap-highlight-color: rgba(0, 0, 0, 0);">AB || DC and BC || AD</tspan></text><rect x="100" y="80" width="10" height="10" r="0" rx="0" ry="0" fill="#77bb44" stroke="#77bb44" opacity="0" style="-webkit-tap-highlight-color: rgba(0, 0, 0, 0); opacity: 0; cursor: nw-resize;"></rect><text x="50" y="50" text-anchor="start" font="10px &quot;Arial&quot;" stroke="none" fill="#000000" font-size="13px" font-family="verdana" transform="matrix(1,0,0,1,346,308)" style="-webkit-tap-highlight-color: rgba(0, 0, 0, 0); text-anchor: start; font-style: normal; font-variant: normal; font-weight: normal; font-size: 13px; line-height: normal; font-family: verdana; cursor: pointer;"><tspan dy="-2.8046875" style="-webkit-tap-highlight-color: rgba(0, 0, 0, 0);">The perimeter of the rectangle is the sum</tspan><tspan dy="15.6" x="50" style="-webkit-tap-highlight-color: rgba(0, 0, 0, 0);">of the length of its sides i.e AB +BC +CD +DA</tspan></text><rect x="100" y="80" width="10" height="10" r="0" rx="0" ry="0" fill="#77bb44" stroke="#77bb44" opacity="0" style="-webkit-tap-highlight-color: rgba(0, 0, 0, 0); opacity: 0; cursor: nw-resize;"></rect><text x="50" y="50" text-anchor="start" font="10px &quot;Arial&quot;" stroke="none" fill="#000000" font-size="13px" font-family="verdana" transform="matrix(1,0,0,1,370,220)" style="-webkit-tap-highlight-color: rgba(0, 0, 0, 0); text-anchor: start; font-style: normal; font-variant: normal; font-weight: normal; font-size: 13px; line-height: normal; font-family: verdana; cursor: pointer;"><tspan dy="5" style="-webkit-tap-highlight-color: rgba(0, 0, 0, 0);">The two diagonals are also equal in length</tspan></text><rect x="100" y="80" width="10" height="10" r="0" rx="0" ry="0" fill="#77bb44" stroke="#77bb44" opacity="0" style="-webkit-tap-highlight-color: rgba(0, 0, 0, 0); opacity: 0; cursor: nw-resize;"></rect><text x="50" y="50" text-anchor="start" font="10px &quot;Arial&quot;" stroke="none" fill="#000000" font-size="13px" font-family="verdana" transform="matrix(1,0,0,1,496,259)" style="-webkit-tap-highlight-color: rgba(0, 0, 0, 0); text-anchor: start; font-style: normal; font-variant: normal; font-weight: normal; font-size: 13px; line-height: normal; font-family: verdana; cursor: pointer;"><tspan dy="5" style="-webkit-tap-highlight-color: rgba(0, 0, 0, 0);">AC = BD</tspan></text><rect x="100" y="80" width="10" height="10" r="0" rx="0" ry="0" fill="#77bb44" stroke="#77bb44" opacity="0" style="-webkit-tap-highlight-color: rgba(0, 0, 0, 0); opacity: 0; cursor: nw-resize;"></rect><text x="50" y="50" text-anchor="start" font="10px &quot;Arial&quot;" stroke="none" fill="#000000" font-size="13px" font-family="verdana" transform="matrix(1,0,0,1,96,367)" style="-webkit-tap-highlight-color: rgba(0, 0, 0, 0); text-anchor: start; font-style: normal; font-variant: normal; font-weight: normal; font-size: 13px; line-height: normal; font-family: verdana; cursor: pointer;"><tspan dy="5" style="-webkit-tap-highlight-color: rgba(0, 0, 0, 0);">if AB = CD = b = breadth and BC = AD = l = length ..The Perimeter is 2(l + b)</tspan></text><rect x="100" y="80" width="10" height="10" r="0" rx="0" ry="0" fill="#77bb44" stroke="#77bb44" opacity="0" style="-webkit-tap-highlight-color: rgba(0, 0, 0, 0); opacity: 0; cursor: nw-resize;"></rect><path fill="none" stroke="#77bb44" d="M393.5,159LNaN,159" stroke-dasharray="4,3" opacity="0" style="-webkit-tap-highlight-color: rgba(0, 0, 0, 0); opacity: 0;"></path><circle cx="NaN" cy="159" r="0" fill="#77bb44" stroke="#77bb44" style="-webkit-tap-highlight-color: rgba(0, 0, 0, 0);"></circle><path fill="none" stroke="#77bb44" d="M393.5,159LNaN,169.4" stroke-dasharray="4,3" opacity="0" style="-webkit-tap-highlight-color: rgba(0, 0, 0, 0); opacity: 0;"></path><circle cx="NaN" cy="169.4" r="0" fill="#77bb44" stroke="#77bb44" style="-webkit-tap-highlight-color: rgba(0, 0, 0, 0);"></circle><circle cx="393.5" cy="159" r="0" fill="#77bb44" stroke="#77bb44" style="-webkit-tap-highlight-color: rgba(0, 0, 0, 0);"></circle><path fill="none" stroke="#77bb44" d="M526.5,200LNaN,200" stroke-dasharray="4,3" opacity="0" style="-webkit-tap-highlight-color: rgba(0, 0, 0, 0); opacity: 0;"></path><circle cx="NaN" cy="200" r="0" fill="#77bb44" stroke="#77bb44" style="-webkit-tap-highlight-color: rgba(0, 0, 0, 0);"></circle><path fill="none" stroke="#77bb44" d="M526.5,200LNaN,210.4" stroke-dasharray="4,3" opacity="0" style="-webkit-tap-highlight-color: rgba(0, 0, 0, 0); opacity: 0;"></path><circle cx="NaN" cy="210.4" r="0" fill="#77bb44" stroke="#77bb44" style="-webkit-tap-highlight-color: rgba(0, 0, 0, 0);"></circle><circle cx="526.5" cy="200" r="0" fill="#77bb44" stroke="#77bb44" style="-webkit-tap-highlight-color: rgba(0, 0, 0, 0);"></circle><path fill="none" stroke="#77bb44" d="M541.5,232LNaN,232" stroke-dasharray="4,3" opacity="0" style="-webkit-tap-highlight-color: rgba(0, 0, 0, 0); opacity: 0;"></path><circle cx="NaN" cy="232" r="0" fill="#77bb44" stroke="#77bb44" style="-webkit-tap-highlight-color: rgba(0, 0, 0, 0);"></circle><path fill="none" stroke="#77bb44" d="M541.5,232LNaN,242.4" stroke-dasharray="4,3" opacity="0" style="-webkit-tap-highlight-color: rgba(0, 0, 0, 0); opacity: 0;"></path><circle cx="NaN" cy="242.4" r="0" fill="#77bb44" stroke="#77bb44" style="-webkit-tap-highlight-color: rgba(0, 0, 0, 0);"></circle><circle cx="541.5" cy="232" r="0" fill="#77bb44" stroke="#77bb44" style="-webkit-tap-highlight-color: rgba(0, 0, 0, 0);"></circle><text x="50" y="50" text-anchor="start" font="10px &quot;Arial&quot;" stroke="none" fill="#000000" font-size="13px" font-family="verdana" transform="matrix(1,0,0,1,312,415)" style="-webkit-tap-highlight-color: rgba(0, 0, 0, 0); text-anchor: start; font-style: normal; font-variant: normal; font-weight: normal; font-size: 13px; line-height: normal; font-family: verdana; cursor: pointer;"><tspan dy="5" style="-webkit-tap-highlight-color: rgba(0, 0, 0, 0);"> Area = l*b.</tspan></text><rect x="100" y="80" width="10" height="10" r="0" rx="0" ry="0" fill="#77bb44" stroke="#77bb44" opacity="0" style="-webkit-tap-highlight-color: rgba(0, 0, 0, 0); opacity: 0; cursor: nw-resize;"></rect><path fill="none" stroke="#77bb44" d="M410.5,465LNaN,465" stroke-dasharray="4,3" opacity="0" style="-webkit-tap-highlight-color: rgba(0, 0, 0, 0); opacity: 0;"></path><circle cx="NaN" cy="465" r="0" fill="#77bb44" stroke="#77bb44" style="-webkit-tap-highlight-color: rgba(0, 0, 0, 0);"></circle><path fill="none" stroke="#77bb44" d="M410.5,465LNaN,475.4" stroke-dasharray="4,3" opacity="0" style="-webkit-tap-highlight-color: rgba(0, 0, 0, 0); opacity: 0;"></path><circle cx="NaN" cy="475.4" r="0" fill="#77bb44" stroke="#77bb44" style="-webkit-tap-highlight-color: rgba(0, 0, 0, 0);"></circle><circle cx="410.5" cy="465" r="0" fill="#77bb44" stroke="#77bb44" style="-webkit-tap-highlight-color: rgba(0, 0, 0, 0);"></circle><path fill="none" stroke="#77bb44" d="M594.5,309LNaN,309" stroke-dasharray="4,3" opacity="0" style="-webkit-tap-highlight-color: rgba(0, 0, 0, 0); opacity: 0;"></path><circle cx="NaN" cy="309" r="0" fill="#77bb44" stroke="#77bb44" style="-webkit-tap-highlight-color: rgba(0, 0, 0, 0);"></circle><path fill="none" stroke="#77bb44" d="M594.5,309LNaN,319.4" stroke-dasharray="4,3" opacity="0" style="-webkit-tap-highlight-color: rgba(0, 0, 0, 0); opacity: 0;"></path><circle cx="NaN" cy="319.4" r="0" fill="#77bb44" stroke="#77bb44" style="-webkit-tap-highlight-color: rgba(0, 0, 0, 0);"></circle><circle cx="594.5" cy="309" r="0" fill="#77bb44" stroke="#77bb44" style="-webkit-tap-highlight-color: rgba(0, 0, 0, 0);"></circle><path fill="none" stroke="#77bb44" d="M468.5,270LNaN,270" stroke-dasharray="4,3" opacity="0" style="-webkit-tap-highlight-color: rgba(0, 0, 0, 0); opacity: 0;"></path><circle cx="NaN" cy="270" r="0" fill="#77bb44" stroke="#77bb44" style="-webkit-tap-highlight-color: rgba(0, 0, 0, 0);"></circle><path fill="none" stroke="#77bb44" d="M468.5,270LNaN,280.4" stroke-dasharray="4,3" opacity="0" style="-webkit-tap-highlight-color: rgba(0, 0, 0, 0); opacity: 0;"></path><circle cx="NaN" cy="280.4" r="0" fill="#77bb44" stroke="#77bb44" style="-webkit-tap-highlight-color: rgba(0, 0, 0, 0);"></circle><circle cx="468.5" cy="270" r="0" fill="#77bb44" stroke="#77bb44" style="-webkit-tap-highlight-color: rgba(0, 0, 0, 0);"></circle><path fill="none" stroke="#77bb44" d="M444.5,358LNaN,358" stroke-dasharray="4,3" opacity="0" style="-webkit-tap-highlight-color: rgba(0, 0, 0, 0); opacity: 0;"></path><circle cx="NaN" cy="358" r="0" fill="#77bb44" stroke="#77bb44" style="-webkit-tap-highlight-color: rgba(0, 0, 0, 0);"></circle><path fill="none" stroke="#77bb44" d="M444.5,358LNaN,368.4" stroke-dasharray="4,3" opacity="0" style="-webkit-tap-highlight-color: rgba(0, 0, 0, 0); opacity: 0;"></path><circle cx="NaN" cy="368.4" r="0" fill="#77bb44" stroke="#77bb44" style="-webkit-tap-highlight-color: rgba(0, 0, 0, 0);"></circle><circle cx="444.5" cy="358" r="0" fill="#77bb44" stroke="#77bb44" style="-webkit-tap-highlight-color: rgba(0, 0, 0, 0);"></circle><path fill="none" stroke="#77bb44" d="M194.5,417LNaN,417" stroke-dasharray="4,3" opacity="0" style="-webkit-tap-highlight-color: rgba(0, 0, 0, 0); opacity: 0;"></path><circle cx="NaN" cy="417" r="0" fill="#77bb44" stroke="#77bb44" style="-webkit-tap-highlight-color: rgba(0, 0, 0, 0);"></circle><path fill="none" stroke="#77bb44" d="M194.5,417LNaN,427.4" stroke-dasharray="4,3" opacity="0" style="-webkit-tap-highlight-color: rgba(0, 0, 0, 0); opacity: 0;"></path><circle cx="NaN" cy="427.4" r="0" fill="#77bb44" stroke="#77bb44" style="-webkit-tap-highlight-color: rgba(0, 0, 0, 0);"></circle><circle cx="194.5" cy="417" r="0" fill="#77bb44" stroke="#77bb44" style="-webkit-tap-highlight-color: rgba(0, 0, 0, 0);"></circle><rect x="200" y="200" width="100" height="100" r="0" rx="0" ry="0" fill="#ffffff" stroke="#000000" fill-opacity="1" stroke-width="0.47619047619047616" transform="matrix(2.1,0,0,1.29,-361,-43)" style="-webkit-tap-highlight-color: rgba(0, 0, 0, 0); fill-opacity: 1;"></rect><text x="50" y="50" text-anchor="start" font="10px &quot;Arial&quot;" stroke="none" fill="#000000" font-size="13px" font-family="verdana" transform="matrix(1,0,0,1,-4,142)" style="-webkit-tap-highlight-color: rgba(0, 0, 0, 0); text-anchor: start; font-style: normal; font-variant: normal; font-weight: normal; font-size: 13px; line-height: normal; font-family: verdana; cursor: pointer;"><tspan dy="5" style="-webkit-tap-highlight-color: rgba(0, 0, 0, 0);">A</tspan></text><rect x="100" y="80" width="10" height="10" r="0" rx="0" ry="0" fill="#77bb44" stroke="#77bb44" opacity="0" style="-webkit-tap-highlight-color: rgba(0, 0, 0, 0); opacity: 0; cursor: nw-resize;"></rect><text x="50" y="50" text-anchor="start" font="10px &quot;Arial&quot;" stroke="none" fill="#000000" font-size="13px" font-family="verdana" transform="matrix(1,0,0,1,4,317)" style="-webkit-tap-highlight-color: rgba(0, 0, 0, 0); text-anchor: start; font-style: normal; font-variant: normal; font-weight: normal; font-size: 13px; line-height: normal; font-family: verdana; cursor: pointer;"><tspan dy="5" style="-webkit-tap-highlight-color: rgba(0, 0, 0, 0);">B</tspan></text><rect x="100" y="80" width="10" height="10" r="0" rx="0" ry="0" fill="#77bb44" stroke="#77bb44" opacity="0" style="-webkit-tap-highlight-color: rgba(0, 0, 0, 0); opacity: 0; cursor: nw-resize;"></rect><text x="50" y="50" text-anchor="start" font="10px &quot;Arial&quot;" stroke="none" fill="#000000" font-size="13px" font-family="verdana" transform="matrix(1,0,0,1,234,320)" style="-webkit-tap-highlight-color: rgba(0, 0, 0, 0); text-anchor: start; font-style: normal; font-variant: normal; font-weight: normal; font-size: 13px; line-height: normal; font-family: verdana; cursor: pointer;"><tspan dy="5" style="-webkit-tap-highlight-color: rgba(0, 0, 0, 0);">C</tspan></text><rect x="100" y="80" width="10" height="10" r="0" rx="0" ry="0" fill="#77bb44" stroke="#77bb44" opacity="0" style="-webkit-tap-highlight-color: rgba(0, 0, 0, 0); opacity: 0; cursor: nw-resize;"></rect><text x="50" y="50" text-anchor="start" font="10px &quot;Arial&quot;" stroke="none" fill="#000000" font-size="13px" font-family="verdana" transform="matrix(1,0,0,1,223,143)" style="-webkit-tap-highlight-color: rgba(0, 0, 0, 0); text-anchor: start; font-style: normal; font-variant: normal; font-weight: normal; font-size: 13px; line-height: normal; font-family: verdana; cursor: pointer;"><tspan dy="5" style="-webkit-tap-highlight-color: rgba(0, 0, 0, 0);">D</tspan></text><rect x="100" y="80" width="10" height="10" r="0" rx="0" ry="0" fill="#77bb44" stroke="#77bb44" opacity="0" style="-webkit-tap-highlight-color: rgba(0, 0, 0, 0); opacity: 0; cursor: nw-resize;"></rect><path fill="none" stroke="#77bb44" d="M102.5,367LNaN,367" stroke-dasharray="4,3" opacity="0" style="-webkit-tap-highlight-color: rgba(0, 0, 0, 0); opacity: 0;"></path><circle cx="NaN" cy="367" r="0" fill="#77bb44" stroke="#77bb44" style="-webkit-tap-highlight-color: rgba(0, 0, 0, 0);"></circle><path fill="none" stroke="#77bb44" d="M102.5,367LNaN,377.4" stroke-dasharray="4,3" opacity="0" style="-webkit-tap-highlight-color: rgba(0, 0, 0, 0); opacity: 0;"></path><circle cx="NaN" cy="377.4" r="0" fill="#77bb44" stroke="#77bb44" style="-webkit-tap-highlight-color: rgba(0, 0, 0, 0);"></circle><circle cx="102.5" cy="367" r="0" fill="#77bb44" stroke="#77bb44" style="-webkit-tap-highlight-color: rgba(0, 0, 0, 0);"></circle><path fill="none" stroke="#77bb44" d="M332.5,370LNaN,370" stroke-dasharray="4,3" opacity="0" style="-webkit-tap-highlight-color: rgba(0, 0, 0, 0); opacity: 0;"></path><circle cx="NaN" cy="370" r="0" fill="#77bb44" stroke="#77bb44" style="-webkit-tap-highlight-color: rgba(0, 0, 0, 0);"></circle><path fill="none" stroke="#77bb44" d="M332.5,370LNaN,380.4" stroke-dasharray="4,3" opacity="0" style="-webkit-tap-highlight-color: rgba(0, 0, 0, 0); opacity: 0;"></path><circle cx="NaN" cy="380.4" r="0" fill="#77bb44" stroke="#77bb44" style="-webkit-tap-highlight-color: rgba(0, 0, 0, 0);"></circle><circle cx="332.5" cy="370" r="0" fill="#77bb44" stroke="#77bb44" style="-webkit-tap-highlight-color: rgba(0, 0, 0, 0);"></circle><path fill="none" stroke="#77bb44" d="M321.5,193LNaN,193" stroke-dasharray="4,3" opacity="0" style="-webkit-tap-highlight-color: rgba(0, 0, 0, 0); opacity: 0;"></path><circle cx="NaN" cy="193" r="0" fill="#77bb44" stroke="#77bb44" style="-webkit-tap-highlight-color: rgba(0, 0, 0, 0);"></circle><path fill="none" stroke="#77bb44" d="M321.5,193LNaN,203.4" stroke-dasharray="4,3" opacity="0" style="-webkit-tap-highlight-color: rgba(0, 0, 0, 0); opacity: 0;"></path><circle cx="NaN" cy="203.4" r="0" fill="#77bb44" stroke="#77bb44" style="-webkit-tap-highlight-color: rgba(0, 0, 0, 0);"></circle><circle cx="321.5" cy="193" r="0" fill="#77bb44" stroke="#77bb44" style="-webkit-tap-highlight-color: rgba(0, 0, 0, 0);"></circle><path fill="none" stroke="#77bb44" d="M94.5,192LNaN,192" stroke-dasharray="4,3" opacity="0" style="-webkit-tap-highlight-color: rgba(0, 0, 0, 0); opacity: 0;"></path><circle cx="NaN" cy="192" r="0" fill="#77bb44" stroke="#77bb44" style="-webkit-tap-highlight-color: rgba(0, 0, 0, 0);"></circle><path fill="none" stroke="#77bb44" d="M94.5,192LNaN,202.4" stroke-dasharray="4,3" opacity="0" style="-webkit-tap-highlight-color: rgba(0, 0, 0, 0); opacity: 0;"></path><circle cx="NaN" cy="202.4" r="0" fill="#77bb44" stroke="#77bb44" style="-webkit-tap-highlight-color: rgba(0, 0, 0, 0);"></circle><circle cx="94.5" cy="192" r="0" fill="#77bb44" stroke="#77bb44" style="-webkit-tap-highlight-color: rgba(0, 0, 0, 0);"></circle><rect x="200" y="200" width="100" height="100" r="0" rx="0" ry="0" fill="#ffffff" stroke="#000000" fill-opacity="0.5" stroke-width="6.25" transform="matrix(0.16,0,0,0.16,27,296)" style="-webkit-tap-highlight-color: rgba(0, 0, 0, 0); fill-opacity: 0.5;"></rect><rect x="200" y="200" width="100" height="100" r="0" rx="0" ry="0" fill="#ffffff" stroke="#000000" fill-opacity="0.5" stroke-width="5.88235294117647" transform="matrix(0.16,0,0,0.17,27,181)" style="-webkit-tap-highlight-color: rgba(0, 0, 0, 0); fill-opacity: 0.5;"></rect><rect x="200" y="200" width="100" height="100" r="0" rx="0" ry="0" fill="#ffffff" stroke="#000000" fill-opacity="0.5" stroke-width="6.25" transform="matrix(0.14,0,0,0.16,225,183)" style="-webkit-tap-highlight-color: rgba(0, 0, 0, 0); fill-opacity: 0.5;"></rect><rect x="200" y="200" width="100" height="100" r="0" rx="0" ry="0" fill="#ffffff" stroke="#000000" fill-opacity="0.5" stroke-width="5.88235294117647" transform="matrix(0.17,0,0,0.17,217,293)" style="-webkit-tap-highlight-color: rgba(0, 0, 0, 0); fill-opacity: 0.5;"></rect><circle cx="100" cy="100" r="50" fill="#ffffff" stroke="#000000" fill-opacity="0.5" stroke-width="1" transform="matrix(0.8702,0,0,1,736.4806,-100)" style="-webkit-tap-highlight-color: rgba(0, 0, 0, 0); fill-opacity: 0.5;"></circle><path fill="#ffffff" stroke="#000000" d="M61,214L61,214L270,345L270,345L270,345" fill-opacity="0" style="-webkit-tap-highlight-color: rgba(0, 0, 0, 0); fill-opacity: 0;"></path><path fill="#ffffff" stroke="#000000" d="M59,343L59,343L270,217L270,217L270,217" fill-opacity="0" style="-webkit-tap-highlight-color: rgba(0, 0, 0, 0); fill-opacity: 0;"></path><rect x="200" y="200" width="100" height="100" r="0" rx="0" ry="0" fill="#ffffff" stroke="#000000" fill-opacity="0.5" stroke-width="1" transform="matrix(1,0,0,1,596,-250)" style="-webkit-tap-highlight-color: rgba(0, 0, 0, 0); fill-opacity: 0.5;"></rect><path fill="none" stroke="#77bb44" d="M78.5,24LNaN,24" stroke-dasharray="4,3" opacity="0" style="-webkit-tap-highlight-color: rgba(0, 0, 0, 0); opacity: 0;"></path><circle cx="NaN" cy="24" r="0" fill="#77bb44" stroke="#77bb44" style="-webkit-tap-highlight-color: rgba(0, 0, 0, 0);"></circle><path fill="none" stroke="#77bb44" d="M78.5,24LNaN,34.4" stroke-dasharray="4,3" opacity="0" style="-webkit-tap-highlight-color: rgba(0, 0, 0, 0); opacity: 0;"></path><circle cx="NaN" cy="34.4" r="0" fill="#77bb44" stroke="#77bb44" style="-webkit-tap-highlight-color: rgba(0, 0, 0, 0);"></circle><circle cx="78.5" cy="24" r="0" fill="#77bb44" stroke="#77bb44" style="-webkit-tap-highlight-color: rgba(0, 0, 0, 0);"></circle><path fill="none" stroke="#000000" d="M164,279.5LNaN,279.5" stroke-dasharray="4,3" opacity="0" style="-webkit-tap-highlight-color: rgba(0, 0, 0, 0); opacity: 0;"></path><circle cx="NaN" cy="279.5" r="0" fill="#ffffff" stroke="#000000" stroke-width="1" style="-webkit-tap-highlight-color: rgba(0, 0, 0, 0);"></circle><path fill="none" stroke="#000000" d="M164,279.5LNaN,363.35" stroke-dasharray="4,3" opacity="0" style="-webkit-tap-highlight-color: rgba(0, 0, 0, 0); opacity: 0;"></path><circle cx="NaN" cy="363.35" r="0" fill="#ffffff" stroke="#000000" stroke-width="1" style="-webkit-tap-highlight-color: rgba(0, 0, 0, 0);"></circle><path fill="none" stroke="#000000" d="M58.99999999999999,215L269,215L269,344L59.00000000000001,344L58.99999999999999,215" stroke-dasharray="4,3" opacity="0" style="-webkit-tap-highlight-color: rgba(0, 0, 0, 0); opacity: 0;"></path><rect x="58.99999999999999" y="215" width="0" height="0" r="0" rx="0" ry="0" fill="#ffffff" stroke="#000000" stroke-width="1" transform="matrix(1,0,0,1,0,0)" style="-webkit-tap-highlight-color: rgba(0, 0, 0, 0);"></rect><rect x="269" y="215" width="0" height="0" r="0" rx="0" ry="0" fill="#ffffff" stroke="#000000" stroke-width="1" transform="matrix(1,0,0,1,0,0)" style="-webkit-tap-highlight-color: rgba(0, 0, 0, 0);"></rect><rect x="269" y="344" width="0" height="0" r="0" rx="0" ry="0" fill="#ffffff" stroke="#000000" stroke-width="1" transform="matrix(1,0,0,1,0,0)" style="-webkit-tap-highlight-color: rgba(0, 0, 0, 0);"></rect><rect x="59.00000000000001" y="344" width="0" height="0" r="0" rx="0" ry="0" fill="#ffffff" stroke="#000000" stroke-width="1" transform="matrix(1,0,0,1,0,0)" style="-webkit-tap-highlight-color: rgba(0, 0, 0, 0);"></rect><circle cx="164" cy="279.5" r="0" fill="#ffffff" stroke="#000000" stroke-width="1" style="-webkit-tap-highlight-color: rgba(0, 0, 0, 0);"></circle><path fill="none" stroke="#000000" d="M67,336LNaN,336" stroke-dasharray="4,3" opacity="0" style="-webkit-tap-highlight-color: rgba(0, 0, 0, 0); opacity: 0;"></path><circle cx="NaN" cy="336" r="0" fill="#ffffff" stroke="#000000" stroke-width="1" style="-webkit-tap-highlight-color: rgba(0, 0, 0, 0);"></circle><path fill="none" stroke="#000000" d="M67,336LNaN,346.4" stroke-dasharray="4,3" opacity="0" style="-webkit-tap-highlight-color: rgba(0, 0, 0, 0); opacity: 0;"></path><circle cx="NaN" cy="346.4" r="0" fill="#ffffff" stroke="#000000" stroke-width="1" style="-webkit-tap-highlight-color: rgba(0, 0, 0, 0);"></circle><path fill="none" stroke="#000000" d="M59,328L75,328L75,344L59,344L59,328" stroke-dasharray="4,3" opacity="0" style="-webkit-tap-highlight-color: rgba(0, 0, 0, 0); opacity: 0;"></path><rect x="59" y="328" width="0" height="0" r="0" rx="0" ry="0" fill="#ffffff" stroke="#000000" stroke-width="1" transform="matrix(1,0,0,1,0,0)" style="-webkit-tap-highlight-color: rgba(0, 0, 0, 0);"></rect><rect x="75" y="328" width="0" height="0" r="0" rx="0" ry="0" fill="#ffffff" stroke="#000000" stroke-width="1" transform="matrix(1,0,0,1,0,0)" style="-webkit-tap-highlight-color: rgba(0, 0, 0, 0);"></rect><rect x="75" y="344" width="0" height="0" r="0" rx="0" ry="0" fill="#ffffff" stroke="#000000" stroke-width="1" transform="matrix(1,0,0,1,0,0)" style="-webkit-tap-highlight-color: rgba(0, 0, 0, 0);"></rect><rect x="59" y="344" width="0" height="0" r="0" rx="0" ry="0" fill="#ffffff" stroke="#000000" stroke-width="1" transform="matrix(1,0,0,1,0,0)" style="-webkit-tap-highlight-color: rgba(0, 0, 0, 0);"></rect><circle cx="67" cy="336" r="0" fill="#ffffff" stroke="#000000" stroke-width="1" style="-webkit-tap-highlight-color: rgba(0, 0, 0, 0);"></circle><path fill="none" stroke="#000000" d="M67,223.5LNaN,223.5" stroke-dasharray="4,3" opacity="0" style="-webkit-tap-highlight-color: rgba(0, 0, 0, 0); opacity: 0;"></path><circle cx="NaN" cy="223.5" r="0" fill="#ffffff" stroke="#000000" stroke-width="1" style="-webkit-tap-highlight-color: rgba(0, 0, 0, 0);"></circle><path fill="none" stroke="#000000" d="M67,223.5LNaN,234.55" stroke-dasharray="4,3" opacity="0" style="-webkit-tap-highlight-color: rgba(0, 0, 0, 0); opacity: 0;"></path><circle cx="NaN" cy="234.55" r="0" fill="#ffffff" stroke="#000000" stroke-width="1" style="-webkit-tap-highlight-color: rgba(0, 0, 0, 0);"></circle><path fill="none" stroke="#000000" d="M59,215L75,215L75,232L59,232L59,215" stroke-dasharray="4,3" opacity="0" style="-webkit-tap-highlight-color: rgba(0, 0, 0, 0); opacity: 0;"></path><rect x="59" y="215" width="0" height="0" r="0" rx="0" ry="0" fill="#ffffff" stroke="#000000" stroke-width="1" transform="matrix(1,0,0,1,0,0)" style="-webkit-tap-highlight-color: rgba(0, 0, 0, 0);"></rect><rect x="75" y="215" width="0" height="0" r="0" rx="0" ry="0" fill="#ffffff" stroke="#000000" stroke-width="1" transform="matrix(1,0,0,1,0,0)" style="-webkit-tap-highlight-color: rgba(0, 0, 0, 0);"></rect><rect x="75" y="232" width="0" height="0" r="0" rx="0" ry="0" fill="#ffffff" stroke="#000000" stroke-width="1" transform="matrix(1,0,0,1,0,0)" style="-webkit-tap-highlight-color: rgba(0, 0, 0, 0);"></rect><rect x="59" y="232" width="0" height="0" r="0" rx="0" ry="0" fill="#ffffff" stroke="#000000" stroke-width="1" transform="matrix(1,0,0,1,0,0)" style="-webkit-tap-highlight-color: rgba(0, 0, 0, 0);"></rect><circle cx="67" cy="223.5" r="0" fill="#ffffff" stroke="#000000" stroke-width="1" style="-webkit-tap-highlight-color: rgba(0, 0, 0, 0);"></circle><path fill="none" stroke="#000000" d="M260,223LNaN,223" stroke-dasharray="4,3" opacity="0" style="-webkit-tap-highlight-color: rgba(0, 0, 0, 0); opacity: 0;"></path><circle cx="NaN" cy="223" r="0" fill="#ffffff" stroke="#000000" stroke-width="1" style="-webkit-tap-highlight-color: rgba(0, 0, 0, 0);"></circle><path fill="none" stroke="#000000" d="M260,223LNaN,233.4" stroke-dasharray="4,3" opacity="0" style="-webkit-tap-highlight-color: rgba(0, 0, 0, 0); opacity: 0;"></path><circle cx="NaN" cy="233.4" r="0" fill="#ffffff" stroke="#000000" stroke-width="1" style="-webkit-tap-highlight-color: rgba(0, 0, 0, 0);"></circle><path fill="none" stroke="#000000" d="M253,215L267,215L267,231L253,231L253,215" stroke-dasharray="4,3" opacity="0" style="-webkit-tap-highlight-color: rgba(0, 0, 0, 0); opacity: 0;"></path><rect x="253" y="215" width="0" height="0" r="0" rx="0" ry="0" fill="#ffffff" stroke="#000000" stroke-width="1" transform="matrix(1,0,0,1,0,0)" style="-webkit-tap-highlight-color: rgba(0, 0, 0, 0);"></rect><rect x="267" y="215" width="0" height="0" r="0" rx="0" ry="0" fill="#ffffff" stroke="#000000" stroke-width="1" transform="matrix(1,0,0,1,0,0)" style="-webkit-tap-highlight-color: rgba(0, 0, 0, 0);"></rect><rect x="267" y="231" width="0" height="0" r="0" rx="0" ry="0" fill="#ffffff" stroke="#000000" stroke-width="1" transform="matrix(1,0,0,1,0,0)" style="-webkit-tap-highlight-color: rgba(0, 0, 0, 0);"></rect><rect x="253" y="231" width="0" height="0" r="0" rx="0" ry="0" fill="#ffffff" stroke="#000000" stroke-width="1" transform="matrix(1,0,0,1,0,0)" style="-webkit-tap-highlight-color: rgba(0, 0, 0, 0);"></rect><circle cx="260" cy="223" r="0" fill="#ffffff" stroke="#000000" stroke-width="1" style="-webkit-tap-highlight-color: rgba(0, 0, 0, 0);"></circle><path fill="none" stroke="#000000" d="M259.5,335.5LNaN,335.5" stroke-dasharray="4,3" opacity="0" style="-webkit-tap-highlight-color: rgba(0, 0, 0, 0); opacity: 0;"></path><circle cx="NaN" cy="335.5" r="0" fill="#ffffff" stroke="#000000" stroke-width="1" style="-webkit-tap-highlight-color: rgba(0, 0, 0, 0);"></circle><path fill="none" stroke="#000000" d="M259.5,335.5LNaN,346.55" stroke-dasharray="4,3" opacity="0" style="-webkit-tap-highlight-color: rgba(0, 0, 0, 0); opacity: 0;"></path><circle cx="NaN" cy="346.55" r="0" fill="#ffffff" stroke="#000000" stroke-width="1" style="-webkit-tap-highlight-color: rgba(0, 0, 0, 0);"></circle><path fill="none" stroke="#000000" d="M251,327L268,327L268,344L251,344L251,327" stroke-dasharray="4,3" opacity="0" style="-webkit-tap-highlight-color: rgba(0, 0, 0, 0); opacity: 0;"></path><rect x="251" y="327" width="0" height="0" r="0" rx="0" ry="0" fill="#ffffff" stroke="#000000" stroke-width="1" transform="matrix(1,0,0,1,0,0)" style="-webkit-tap-highlight-color: rgba(0, 0, 0, 0);"></rect><rect x="268" y="327" width="0" height="0" r="0" rx="0" ry="0" fill="#ffffff" stroke="#000000" stroke-width="1" transform="matrix(1,0,0,1,0,0)" style="-webkit-tap-highlight-color: rgba(0, 0, 0, 0);"></rect><rect x="268" y="344" width="0" height="0" r="0" rx="0" ry="0" fill="#ffffff" stroke="#000000" stroke-width="1" transform="matrix(1,0,0,1,0,0)" style="-webkit-tap-highlight-color: rgba(0, 0, 0, 0);"></rect><rect x="251" y="344" width="0" height="0" r="0" rx="0" ry="0" fill="#ffffff" stroke="#000000" stroke-width="1" transform="matrix(1,0,0,1,0,0)" style="-webkit-tap-highlight-color: rgba(0, 0, 0, 0);"></rect><circle cx="259.5" cy="335.5" r="0" fill="#ffffff" stroke="#000000" stroke-width="1" style="-webkit-tap-highlight-color: rgba(0, 0, 0, 0);"></circle><path fill="none" stroke="#000000" d="M823.5,0LNaN,0" stroke-dasharray="4,3" opacity="0" style="-webkit-tap-highlight-color: rgba(0, 0, 0, 0); opacity: 0;"></path><circle cx="NaN" cy="0" r="0" fill="#ffffff" stroke="#000000" stroke-width="1" style="-webkit-tap-highlight-color: rgba(0, 0, 0, 0);"></circle><path fill="none" stroke="#000000" d="M823.5,0LNaN,65" stroke-dasharray="4,3" opacity="0" style="-webkit-tap-highlight-color: rgba(0, 0, 0, 0); opacity: 0;"></path><circle cx="NaN" cy="65" r="0" fill="#ffffff" stroke="#000000" stroke-width="1" style="-webkit-tap-highlight-color: rgba(0, 0, 0, 0);"></circle><path fill="none" stroke="#000000" d="M779.9254053848429,-50L867.0745946151571,-50L867.0745946151571,50L779.9254053848429,50L779.9254053848429,-50" stroke-dasharray="4,3" opacity="0" style="-webkit-tap-highlight-color: rgba(0, 0, 0, 0); opacity: 0;"></path><rect x="779.9254053848429" y="-50" width="0" height="0" r="0" rx="0" ry="0" fill="#ffffff" stroke="#000000" stroke-width="1" transform="matrix(1,0,0,1,0,0)" style="-webkit-tap-highlight-color: rgba(0, 0, 0, 0);"></rect><rect x="867.0745946151571" y="-50" width="0" height="0" r="0" rx="0" ry="0" fill="#ffffff" stroke="#000000" stroke-width="1" transform="matrix(1,0,0,1,0,0)" style="-webkit-tap-highlight-color: rgba(0, 0, 0, 0);"></rect><rect x="867.0745946151571" y="50" width="0" height="0" r="0" rx="0" ry="0" fill="#ffffff" stroke="#000000" stroke-width="1" transform="matrix(1,0,0,1,0,0)" style="-webkit-tap-highlight-color: rgba(0, 0, 0, 0);"></rect><rect x="779.9254053848429" y="50" width="0" height="0" r="0" rx="0" ry="0" fill="#ffffff" stroke="#000000" stroke-width="1" transform="matrix(1,0,0,1,0,0)" style="-webkit-tap-highlight-color: rgba(0, 0, 0, 0);"></rect><circle cx="823.5" cy="0" r="0" fill="#ffffff" stroke="#000000" stroke-width="1" style="-webkit-tap-highlight-color: rgba(0, 0, 0, 0);"></circle><path fill="none" stroke="#000000" d="M165.5,279.5LNaN,279.5" stroke-dasharray="4,3" opacity="0" style="-webkit-tap-highlight-color: rgba(0, 0, 0, 0); opacity: 0;"></path><circle cx="NaN" cy="279.5" r="0" fill="#ffffff" stroke="#000000" stroke-width="1" style="-webkit-tap-highlight-color: rgba(0, 0, 0, 0);"></circle><path fill="none" stroke="#000000" d="M165.5,279.5LNaN,364.65" stroke-dasharray="4,3" opacity="0" style="-webkit-tap-highlight-color: rgba(0, 0, 0, 0); opacity: 0;"></path><circle cx="NaN" cy="364.65" r="0" fill="#ffffff" stroke="#000000" stroke-width="1" style="-webkit-tap-highlight-color: rgba(0, 0, 0, 0);"></circle><path fill="none" stroke="#000000" d="M60.99999999999999,214L270,214L270,345L61.00000000000001,345L60.99999999999999,214" stroke-dasharray="4,3" opacity="0" style="-webkit-tap-highlight-color: rgba(0, 0, 0, 0); opacity: 0;"></path><rect x="60.99999999999999" y="214" width="0" height="0" r="0" rx="0" ry="0" fill="#ffffff" stroke="#000000" stroke-width="1" transform="matrix(1,0,0,1,0,0)" style="-webkit-tap-highlight-color: rgba(0, 0, 0, 0);"></rect><rect x="270" y="214" width="0" height="0" r="0" rx="0" ry="0" fill="#ffffff" stroke="#000000" stroke-width="1" transform="matrix(1,0,0,1,0,0)" style="-webkit-tap-highlight-color: rgba(0, 0, 0, 0);"></rect><rect x="270" y="345" width="0" height="0" r="0" rx="0" ry="0" fill="#ffffff" stroke="#000000" stroke-width="1" transform="matrix(1,0,0,1,0,0)" style="-webkit-tap-highlight-color: rgba(0, 0, 0, 0);"></rect><rect x="61.00000000000001" y="345" width="0" height="0" r="0" rx="0" ry="0" fill="#ffffff" stroke="#000000" stroke-width="1" transform="matrix(1,0,0,1,0,0)" style="-webkit-tap-highlight-color: rgba(0, 0, 0, 0);"></rect><circle cx="165.5" cy="279.5" r="0" fill="#ffffff" stroke="#000000" stroke-width="1" style="-webkit-tap-highlight-color: rgba(0, 0, 0, 0);"></circle><path fill="none" stroke="#000000" d="M164.5,280LNaN,280" stroke-dasharray="4,3" opacity="0" style="-webkit-tap-highlight-color: rgba(0, 0, 0, 0); opacity: 0;"></path><circle cx="NaN" cy="280" r="0" fill="#ffffff" stroke="#000000" stroke-width="1" style="-webkit-tap-highlight-color: rgba(0, 0, 0, 0);"></circle><path fill="none" stroke="#000000" d="M164.5,280LNaN,361.9" stroke-dasharray="4,3" opacity="0" style="-webkit-tap-highlight-color: rgba(0, 0, 0, 0); opacity: 0;"></path><circle cx="NaN" cy="361.9" r="0" fill="#ffffff" stroke="#000000" stroke-width="1" style="-webkit-tap-highlight-color: rgba(0, 0, 0, 0);"></circle><path fill="none" stroke="#000000" d="M58.99999999999999,217L270,217L270,343L59.00000000000001,343L58.99999999999999,217" stroke-dasharray="4,3" opacity="0" style="-webkit-tap-highlight-color: rgba(0, 0, 0, 0); opacity: 0;"></path><rect x="58.99999999999999" y="217" width="0" height="0" r="0" rx="0" ry="0" fill="#ffffff" stroke="#000000" stroke-width="1" transform="matrix(1,0,0,1,0,0)" style="-webkit-tap-highlight-color: rgba(0, 0, 0, 0);"></rect><rect x="270" y="217" width="0" height="0" r="0" rx="0" ry="0" fill="#ffffff" stroke="#000000" stroke-width="1" transform="matrix(1,0,0,1,0,0)" style="-webkit-tap-highlight-color: rgba(0, 0, 0, 0);"></rect><rect x="270" y="343" width="0" height="0" r="0" rx="0" ry="0" fill="#ffffff" stroke="#000000" stroke-width="1" transform="matrix(1,0,0,1,0,0)" style="-webkit-tap-highlight-color: rgba(0, 0, 0, 0);"></rect><rect x="59.00000000000001" y="343" width="0" height="0" r="0" rx="0" ry="0" fill="#ffffff" stroke="#000000" stroke-width="1" transform="matrix(1,0,0,1,0,0)" style="-webkit-tap-highlight-color: rgba(0, 0, 0, 0);"></rect><circle cx="164.5" cy="280" r="0" fill="#ffffff" stroke="#000000" stroke-width="1" style="-webkit-tap-highlight-color: rgba(0, 0, 0, 0);"></circle><path fill="none" stroke="#000000" d="M846,0LNaN,0" stroke-dasharray="4,3" opacity="0" style="-webkit-tap-highlight-color: rgba(0, 0, 0, 0); opacity: 0;"></path><circle cx="NaN" cy="0" r="0" fill="#ffffff" stroke="#000000" stroke-width="1" style="-webkit-tap-highlight-color: rgba(0, 0, 0, 0);"></circle><path fill="none" stroke="#000000" d="M846,0LNaN,65" stroke-dasharray="4,3" opacity="0" style="-webkit-tap-highlight-color: rgba(0, 0, 0, 0); opacity: 0;"></path><circle cx="NaN" cy="65" r="0" fill="#ffffff" stroke="#000000" stroke-width="1" style="-webkit-tap-highlight-color: rgba(0, 0, 0, 0);"></circle><path fill="none" stroke="#000000" d="M796,-50L896,-50L896,50L796,50L796,-50" stroke-dasharray="4,3" opacity="0" style="-webkit-tap-highlight-color: rgba(0, 0, 0, 0); opacity: 0;"></path><rect x="796" y="-50" width="0" height="0" r="0" rx="0" ry="0" fill="#ffffff" stroke="#000000" stroke-width="1" transform="matrix(1,0,0,1,0,0)" style="-webkit-tap-highlight-color: rgba(0, 0, 0, 0);"></rect><rect x="896" y="-50" width="0" height="0" r="0" rx="0" ry="0" fill="#ffffff" stroke="#000000" stroke-width="1" transform="matrix(1,0,0,1,0,0)" style="-webkit-tap-highlight-color: rgba(0, 0, 0, 0);"></rect><rect x="896" y="50" width="0" height="0" r="0" rx="0" ry="0" fill="#ffffff" stroke="#000000" stroke-width="1" transform="matrix(1,0,0,1,0,0)" style="-webkit-tap-highlight-color: rgba(0, 0, 0, 0);"></rect><rect x="796" y="50" width="0" height="0" r="0" rx="0" ry="0" fill="#ffffff" stroke="#000000" stroke-width="1" transform="matrix(1,0,0,1,0,0)" style="-webkit-tap-highlight-color: rgba(0, 0, 0, 0);"></rect><circle cx="846" cy="0" r="0" fill="#ffffff" stroke="#000000" stroke-width="1" style="-webkit-tap-highlight-color: rgba(0, 0, 0, 0);"></circle><circle cx="100" cy="100" r="50" fill="#ffffff" stroke="#000000" fill-opacity="0.5" stroke-width="1" transform="matrix(1,0,0,1,748,-100)" style="-webkit-tap-highlight-color: rgba(0, 0, 0, 0); fill-opacity: 0.5;"></circle><path fill="none" stroke="#000000" d="M848,0LNaN,0" stroke-dasharray="4,3" opacity="0" style="-webkit-tap-highlight-color: rgba(0, 0, 0, 0); opacity: 0;"></path><circle cx="NaN" cy="0" r="0" fill="#ffffff" stroke="#000000" stroke-width="1" style="-webkit-tap-highlight-color: rgba(0, 0, 0, 0);"></circle><path fill="none" stroke="#000000" d="M848,0LNaN,65" stroke-dasharray="4,3" opacity="0" style="-webkit-tap-highlight-color: rgba(0, 0, 0, 0); opacity: 0;"></path><circle cx="NaN" cy="65" r="0" fill="#ffffff" stroke="#000000" stroke-width="1" style="-webkit-tap-highlight-color: rgba(0, 0, 0, 0);"></circle><path fill="none" stroke="#000000" d="M797.9254053848429,-50L898.0745946151571,-50L898.0745946151571,50L797.9254053848429,50L797.9254053848429,-50" stroke-dasharray="4,3" opacity="0" style="-webkit-tap-highlight-color: rgba(0, 0, 0, 0); opacity: 0;"></path><rect x="793.9254053848429" y="-54" width="8" height="8" r="0" rx="0" ry="0" fill="#ffffff" stroke="#000000" stroke-width="1" transform="matrix(1,0,0,1,0,0)" style="-webkit-tap-highlight-color: rgba(0, 0, 0, 0);"></rect><rect x="894.0745946151571" y="-54" width="8" height="8" r="0" rx="0" ry="0" fill="#ffffff" stroke="#000000" stroke-width="1" transform="matrix(1,0,0,1,0,0)" style="-webkit-tap-highlight-color: rgba(0, 0, 0, 0);"></rect><rect x="894.0745946151571" y="46" width="8" height="8" r="0" rx="0" ry="0" fill="#ffffff" stroke="#000000" stroke-width="1" transform="matrix(1,0,0,1,0,0)" style="-webkit-tap-highlight-color: rgba(0, 0, 0, 0);"></rect><rect x="793.9254053848429" y="46" width="8" height="8" r="0" rx="0" ry="0" fill="#ffffff" stroke="#000000" stroke-width="1" transform="matrix(1,0,0,1,0,0)" style="-webkit-tap-highlight-color: rgba(0, 0, 0, 0);"></rect><circle cx="848" cy="0" r="0" fill="#ffffff" stroke="#000000" stroke-width="1" style="-webkit-tap-highlight-color: rgba(0, 0, 0, 0);"></circle></svg>
