<svg style="overflow: hidden; position: relative;" height="500" version="1.1" width="950" xmlns="http://www.w3.org/2000/svg"><rect style="-webkit-tap-highlight-color: rgba(0, 0, 0, 0);" x="0" y="0" width="100%" height="100%" r="0" rx="0" ry="0" fill="#ffffff" stroke="#eeeeee" stroke-width="1"></rect><desc style="-webkit-tap-highlight-color: rgba(0, 0, 0, 0);">Created with Raphaël 2.1.0</desc><defs style="-webkit-tap-highlight-color: rgba(0, 0, 0, 0);"></defs><rect style="-webkit-tap-highlight-color: rgba(0, 0, 0, 0);" x="5" y="25" width="99%" height="0.5" r="0" rx="0" ry="0" fill="none" stroke="#eeeeee"></rect><rect style="-webkit-tap-highlight-color: rgba(0, 0, 0, 0);" x="5" y="50" width="99%" height="0.5" r="0" rx="0" ry="0" fill="none" stroke="#eeeeee"></rect><rect style="-webkit-tap-highlight-color: rgba(0, 0, 0, 0);" x="5" y="75" width="99%" height="0.5" r="0" rx="0" ry="0" fill="none" stroke="#eeeeee"></rect><rect style="-webkit-tap-highlight-color: rgba(0, 0, 0, 0);" x="5" y="100" width="99%" height="0.5" r="0" rx="0" ry="0" fill="none" stroke="#eeeeee"></rect><rect style="-webkit-tap-highlight-color: rgba(0, 0, 0, 0);" x="5" y="125" width="99%" height="0.5" r="0" rx="0" ry="0" fill="none" stroke="#eeeeee"></rect><rect style="-webkit-tap-highlight-color: rgba(0, 0, 0, 0);" x="5" y="150" width="99%" height="0.5" r="0" rx="0" ry="0" fill="none" stroke="#eeeeee"></rect><rect style="-webkit-tap-highlight-color: rgba(0, 0, 0, 0);" x="5" y="175" width="99%" height="0.5" r="0" rx="0" ry="0" fill="none" stroke="#eeeeee"></rect><rect style="-webkit-tap-highlight-color: rgba(0, 0, 0, 0);" x="5" y="200" width="99%" height="0.5" r="0" rx="0" ry="0" fill="none" stroke="#eeeeee"></rect><rect style="-webkit-tap-highlight-color: rgba(0, 0, 0, 0);" x="5" y="225" width="99%" height="0.5" r="0" rx="0" ry="0" fill="none" stroke="#eeeeee"></rect><rect style="-webkit-tap-highlight-color: rgba(0, 0, 0, 0);" x="5" y="250" width="99%" height="0.5" r="0" rx="0" ry="0" fill="none" stroke="#eeeeee"></rect><rect style="-webkit-tap-highlight-color: rgba(0, 0, 0, 0);" x="5" y="275" width="99%" height="0.5" r="0" rx="0" ry="0" fill="none" stroke="#eeeeee"></rect><rect style="-webkit-tap-highlight-color: rgba(0, 0, 0, 0);" x="5" y="300" width="99%" height="0.5" r="0" rx="0" ry="0" fill="none" stroke="#eeeeee"></rect><rect style="-webkit-tap-highlight-color: rgba(0, 0, 0, 0);" x="5" y="325" width="99%" height="0.5" r="0" rx="0" ry="0" fill="none" stroke="#eeeeee"></rect><rect style="-webkit-tap-highlight-color: rgba(0, 0, 0, 0);" x="5" y="350" width="99%" height="0.5" r="0" rx="0" ry="0" fill="none" stroke="#eeeeee"></rect><rect style="-webkit-tap-highlight-color: rgba(0, 0, 0, 0);" x="5" y="375" width="99%" height="0.5" r="0" rx="0" ry="0" fill="none" stroke="#eeeeee"></rect><rect style="-webkit-tap-highlight-color: rgba(0, 0, 0, 0);" x="5" y="400" width="99%" height="0.5" r="0" rx="0" ry="0" fill="none" stroke="#eeeeee"></rect><rect style="-webkit-tap-highlight-color: rgba(0, 0, 0, 0);" x="5" y="425" width="99%" height="0.5" r="0" rx="0" ry="0" fill="none" stroke="#eeeeee"></rect><rect style="-webkit-tap-highlight-color: rgba(0, 0, 0, 0);" x="5" y="450" width="99%" height="0.5" r="0" rx="0" ry="0" fill="none" stroke="#eeeeee"></rect><rect style="-webkit-tap-highlight-color: rgba(0, 0, 0, 0);" x="5" y="475" width="99%" height="0.5" r="0" rx="0" ry="0" fill="none" stroke="#eeeeee"></rect><rect style="-webkit-tap-highlight-color: rgba(0, 0, 0, 0);" x="5" y="500" width="99%" height="0.5" r="0" rx="0" ry="0" fill="none" stroke="#eeeeee"></rect><rect style="-webkit-tap-highlight-color: rgba(0, 0, 0, 0); font-size: 14px;" x="50" y="0" width="0.5" height="100%" r="0" rx="0" ry="0" fill="none" stroke="#ff0000" font-size="14px"></rect><rect style="-webkit-tap-highlight-color: rgba(0, 0, 0, 0); font-size: 14px;" x="55" y="0" width="0.5" height="100%" r="0" rx="0" ry="0" fill="none" stroke="#ff0000" font-size="14px"></rect><text style="-webkit-tap-highlight-color: rgba(0, 0, 0, 0); text-anchor: middle; font-style: normal; font-variant: normal; font-weight: normal; font-size: 40px; line-height: normal; font-family: Verdana, Helvetica, sans-serif; cursor: pointer;" x="400" y="100" text-anchor="middle" font="10px &quot;Arial&quot;" stroke="none" fill="#77bb44" font-size="40px" font-family="Verdana, Helvetica, sans-serif" transform="matrix(1,0,0,1,-266,-65)"><tspan style="-webkit-tap-highlight-color: rgba(0, 0, 0, 0);" dy="16">MODE</tspan></text><rect style="-webkit-tap-highlight-color: rgba(0, 0, 0, 0); opacity: 0; cursor: nw-resize;" x="100" y="80" width="10" height="10" r="0" rx="0" ry="0" fill="#77bb44" stroke="#77bb44" opacity="0"></rect><path style="-webkit-tap-highlight-color: rgba(0, 0, 0, 0); opacity: 0;" fill="none" stroke="#000000" d="M134,35LNaN,35" stroke-dasharray="4,3" opacity="0"></path><circle style="-webkit-tap-highlight-color: rgba(0, 0, 0, 0);" cx="NaN" cy="35" r="0" fill="#ffffff" stroke="#000000"></circle><path style="-webkit-tap-highlight-color: rgba(0, 0, 0, 0); opacity: 0;" fill="none" stroke="#000000" d="M134,35LNaN,44.1" stroke-dasharray="4,3" opacity="0"></path><circle style="-webkit-tap-highlight-color: rgba(0, 0, 0, 0);" cx="NaN" cy="44.1" r="0" fill="#ffffff" stroke="#000000"></circle><path style="-webkit-tap-highlight-color: rgba(0, 0, 0, 0); opacity: 0;" fill="none" stroke="#000000" d="M-196,28L464,28L464,42L-196,42L-196,28" stroke-dasharray="4,3" opacity="0"></path><rect style="-webkit-tap-highlight-color: rgba(0, 0, 0, 0);" x="-196" y="28" width="0" height="0" r="0" rx="0" ry="0" fill="#ffffff" stroke="#000000" transform="matrix(1,0,0,1,0,0)"></rect><rect style="-webkit-tap-highlight-color: rgba(0, 0, 0, 0);" x="464" y="28" width="0" height="0" r="0" rx="0" ry="0" fill="#ffffff" stroke="#000000" transform="matrix(1,0,0,1,0,0)"></rect><rect style="-webkit-tap-highlight-color: rgba(0, 0, 0, 0);" x="464" y="42" width="0" height="0" r="0" rx="0" ry="0" fill="#ffffff" stroke="#000000" transform="matrix(1,0,0,1,0,0)"></rect><rect style="-webkit-tap-highlight-color: rgba(0, 0, 0, 0);" x="-196" y="42" width="0" height="0" r="0" rx="0" ry="0" fill="#ffffff" stroke="#000000" transform="matrix(1,0,0,1,0,0)"></rect><circle style="-webkit-tap-highlight-color: rgba(0, 0, 0, 0);" cx="134" cy="35" r="0" fill="#ffffff" stroke="#000000"></circle><text style="-webkit-tap-highlight-color: rgba(0, 0, 0, 0); text-anchor: middle; font-style: normal; font-variant: normal; font-weight: normal; font-size: 14px; line-height: normal; font-family: Verdana, Helvetica, sans-serif; cursor: pointer;" x="400" y="100" text-anchor="middle" font="10px &quot;Arial&quot;" stroke="none" fill="#000000" font-size="14px" font-family="Verdana, Helvetica, sans-serif" transform="matrix(1,0,0,1,-21,11)"><tspan style="-webkit-tap-highlight-color: rgba(0, 0, 0, 0);" dy="5.5">The mode of a list of numbers is the number that occurs most frequently in the list</tspan></text><rect style="-webkit-tap-highlight-color: rgba(0, 0, 0, 0); opacity: 0; cursor: nw-resize;" x="100" y="80" width="10" height="10" r="0" rx="0" ry="0" fill="#77bb44" stroke="#77bb44" opacity="0"></rect><text style="-webkit-tap-highlight-color: rgba(0, 0, 0, 0); text-anchor: middle; font-style: normal; font-variant: normal; font-weight: normal; font-size: 14px; line-height: normal; font-family: Verdana, Helvetica, sans-serif; cursor: pointer;" x="400" y="100" text-anchor="middle" font="10px &quot;Arial&quot;" stroke="none" fill="#000000" font-size="14px" font-family="Verdana, Helvetica, sans-serif" transform="matrix(1,0,0,1,-120,63)"><tspan style="-webkit-tap-highlight-color: rgba(0, 0, 0, 0);" dy="5.5">The mode of the numbers in the list 1, 7, 6, 4, 7, 5 is 7</tspan></text><rect style="-webkit-tap-highlight-color: rgba(0, 0, 0, 0); opacity: 0; cursor: nw-resize;" x="100" y="80" width="10" height="10" r="0" rx="0" ry="0" fill="#77bb44" stroke="#77bb44" opacity="0"></rect><text style="-webkit-tap-highlight-color: rgba(0, 0, 0, 0); text-anchor: middle; font-style: normal; font-variant: normal; font-weight: normal; font-size: 14px; line-height: normal; font-family: Verdana, Helvetica, sans-serif; cursor: pointer;" x="400" y="100" text-anchor="middle" font="10px &quot;Arial&quot;" stroke="none" fill="#000000" font-size="14px" font-family="Verdana, Helvetica, sans-serif" transform="matrix(1,0,0,1,58,110)"><tspan style="-webkit-tap-highlight-color: rgba(0, 0, 0, 0);" dy="5.5">A list of numbers may have more than one mode. For example, the list 1, 2, 3, 3, 3, 5, 7, 10, 10, 10, 20 </tspan></text><rect style="-webkit-tap-highlight-color: rgba(0, 0, 0, 0); opacity: 0; cursor: nw-resize;" x="100" y="80" width="10" height="10" r="0" rx="0" ry="0" fill="#77bb44" stroke="#77bb44" opacity="0"></rect><text style="-webkit-tap-highlight-color: rgba(0, 0, 0, 0); text-anchor: middle; font-style: normal; font-variant: normal; font-weight: normal; font-size: 15px; line-height: normal; font-family: Verdana, Helvetica, sans-serif; cursor: pointer;" x="400" y="100" text-anchor="middle" font="10px &quot;Arial&quot;" stroke="none" fill="#000000" font-size="15px" font-family="Verdana, Helvetica, sans-serif" transform="matrix(1,0,0,1,-213,139)"><tspan style="-webkit-tap-highlight-color: rgba(0, 0, 0, 0);" dy="6">has two modes, 3 and 10.</tspan></text><rect style="-webkit-tap-highlight-color: rgba(0, 0, 0, 0); opacity: 0; cursor: nw-resize;" x="100" y="80" width="10" height="10" r="0" rx="0" ry="0" fill="#77bb44" stroke="#77bb44" opacity="0"></rect><path style="-webkit-tap-highlight-color: rgba(0, 0, 0, 0); opacity: 0;" fill="none" stroke="#000000" d="M379,111LNaN,111" stroke-dasharray="4,3" opacity="0"></path><circle style="-webkit-tap-highlight-color: rgba(0, 0, 0, 0);" cx="NaN" cy="111" r="0" fill="#ffffff" stroke="#000000"></circle><path style="-webkit-tap-highlight-color: rgba(0, 0, 0, 0); opacity: 0;" fill="none" stroke="#000000" d="M379,111LNaN,120.1" stroke-dasharray="4,3" opacity="0"></path><circle style="-webkit-tap-highlight-color: rgba(0, 0, 0, 0);" cx="NaN" cy="120.1" r="0" fill="#ffffff" stroke="#000000"></circle><path style="-webkit-tap-highlight-color: rgba(0, 0, 0, 0); opacity: 0;" fill="none" stroke="#000000" d="M49,104L709,104L709,118L49,118L49,104" stroke-dasharray="4,3" opacity="0"></path><rect style="-webkit-tap-highlight-color: rgba(0, 0, 0, 0);" x="49" y="104" width="0" height="0" r="0" rx="0" ry="0" fill="#ffffff" stroke="#000000" transform="matrix(1,0,0,1,0,0)"></rect><rect style="-webkit-tap-highlight-color: rgba(0, 0, 0, 0);" x="709" y="104" width="0" height="0" r="0" rx="0" ry="0" fill="#ffffff" stroke="#000000" transform="matrix(1,0,0,1,0,0)"></rect><rect style="-webkit-tap-highlight-color: rgba(0, 0, 0, 0);" x="709" y="118" width="0" height="0" r="0" rx="0" ry="0" fill="#ffffff" stroke="#000000" transform="matrix(1,0,0,1,0,0)"></rect><rect style="-webkit-tap-highlight-color: rgba(0, 0, 0, 0);" x="49" y="118" width="0" height="0" r="0" rx="0" ry="0" fill="#ffffff" stroke="#000000" transform="matrix(1,0,0,1,0,0)"></rect><circle style="-webkit-tap-highlight-color: rgba(0, 0, 0, 0);" cx="379" cy="111" r="0" fill="#ffffff" stroke="#000000"></circle><path style="-webkit-tap-highlight-color: rgba(0, 0, 0, 0); opacity: 0;" fill="none" stroke="#000000" d="M280,163LNaN,163" stroke-dasharray="4,3" opacity="0"></path><circle style="-webkit-tap-highlight-color: rgba(0, 0, 0, 0);" cx="NaN" cy="163" r="0" fill="#ffffff" stroke="#000000"></circle><path style="-webkit-tap-highlight-color: rgba(0, 0, 0, 0); opacity: 0;" fill="none" stroke="#000000" d="M280,163LNaN,172.1" stroke-dasharray="4,3" opacity="0"></path><circle style="-webkit-tap-highlight-color: rgba(0, 0, 0, 0);" cx="NaN" cy="172.1" r="0" fill="#ffffff" stroke="#000000"></circle><path style="-webkit-tap-highlight-color: rgba(0, 0, 0, 0); opacity: 0;" fill="none" stroke="#000000" d="M-50,156L610,156L610,170L-50,170L-50,156" stroke-dasharray="4,3" opacity="0"></path><rect style="-webkit-tap-highlight-color: rgba(0, 0, 0, 0);" x="-50" y="156" width="0" height="0" r="0" rx="0" ry="0" fill="#ffffff" stroke="#000000" transform="matrix(1,0,0,1,0,0)"></rect><rect style="-webkit-tap-highlight-color: rgba(0, 0, 0, 0);" x="610" y="156" width="0" height="0" r="0" rx="0" ry="0" fill="#ffffff" stroke="#000000" transform="matrix(1,0,0,1,0,0)"></rect><rect style="-webkit-tap-highlight-color: rgba(0, 0, 0, 0);" x="610" y="170" width="0" height="0" r="0" rx="0" ry="0" fill="#ffffff" stroke="#000000" transform="matrix(1,0,0,1,0,0)"></rect><rect style="-webkit-tap-highlight-color: rgba(0, 0, 0, 0);" x="-50" y="170" width="0" height="0" r="0" rx="0" ry="0" fill="#ffffff" stroke="#000000" transform="matrix(1,0,0,1,0,0)"></rect><circle style="-webkit-tap-highlight-color: rgba(0, 0, 0, 0);" cx="280" cy="163" r="0" fill="#ffffff" stroke="#000000"></circle><path style="-webkit-tap-highlight-color: rgba(0, 0, 0, 0); opacity: 0;" fill="none" stroke="#000000" d="M458,210LNaN,210" stroke-dasharray="4,3" opacity="0"></path><circle style="-webkit-tap-highlight-color: rgba(0, 0, 0, 0);" cx="NaN" cy="210" r="0" fill="#ffffff" stroke="#000000"></circle><path style="-webkit-tap-highlight-color: rgba(0, 0, 0, 0); opacity: 0;" fill="none" stroke="#000000" d="M458,210LNaN,219.1" stroke-dasharray="4,3" opacity="0"></path><circle style="-webkit-tap-highlight-color: rgba(0, 0, 0, 0);" cx="NaN" cy="219.1" r="0" fill="#ffffff" stroke="#000000"></circle><path style="-webkit-tap-highlight-color: rgba(0, 0, 0, 0); opacity: 0;" fill="none" stroke="#000000" d="M128,203L788,203L788,217L128,217L128,203" stroke-dasharray="4,3" opacity="0"></path><rect style="-webkit-tap-highlight-color: rgba(0, 0, 0, 0);" x="128" y="203" width="0" height="0" r="0" rx="0" ry="0" fill="#ffffff" stroke="#000000" transform="matrix(1,0,0,1,0,0)"></rect><rect style="-webkit-tap-highlight-color: rgba(0, 0, 0, 0);" x="788" y="203" width="0" height="0" r="0" rx="0" ry="0" fill="#ffffff" stroke="#000000" transform="matrix(1,0,0,1,0,0)"></rect><rect style="-webkit-tap-highlight-color: rgba(0, 0, 0, 0);" x="788" y="217" width="0" height="0" r="0" rx="0" ry="0" fill="#ffffff" stroke="#000000" transform="matrix(1,0,0,1,0,0)"></rect><rect style="-webkit-tap-highlight-color: rgba(0, 0, 0, 0);" x="128" y="217" width="0" height="0" r="0" rx="0" ry="0" fill="#ffffff" stroke="#000000" transform="matrix(1,0,0,1,0,0)"></rect><circle style="-webkit-tap-highlight-color: rgba(0, 0, 0, 0);" cx="458" cy="210" r="0" fill="#ffffff" stroke="#000000"></circle><path style="-webkit-tap-highlight-color: rgba(0, 0, 0, 0); opacity: 0;" fill="none" stroke="#000000" d="M187,239LNaN,239" stroke-dasharray="4,3" opacity="0"></path><circle style="-webkit-tap-highlight-color: rgba(0, 0, 0, 0);" cx="NaN" cy="239" r="0" fill="#ffffff" stroke="#000000"></circle><path style="-webkit-tap-highlight-color: rgba(0, 0, 0, 0); opacity: 0;" fill="none" stroke="#000000" d="M187,239LNaN,248.1" stroke-dasharray="4,3" opacity="0"></path><circle style="-webkit-tap-highlight-color: rgba(0, 0, 0, 0);" cx="NaN" cy="248.1" r="0" fill="#ffffff" stroke="#000000"></circle><path style="-webkit-tap-highlight-color: rgba(0, 0, 0, 0); opacity: 0;" fill="none" stroke="#000000" d="M-143,232L517,232L517,246L-143,246L-143,232" stroke-dasharray="4,3" opacity="0"></path><rect style="-webkit-tap-highlight-color: rgba(0, 0, 0, 0);" x="-143" y="232" width="0" height="0" r="0" rx="0" ry="0" fill="#ffffff" stroke="#000000" transform="matrix(1,0,0,1,0,0)"></rect><rect style="-webkit-tap-highlight-color: rgba(0, 0, 0, 0);" x="517" y="232" width="0" height="0" r="0" rx="0" ry="0" fill="#ffffff" stroke="#000000" transform="matrix(1,0,0,1,0,0)"></rect><rect style="-webkit-tap-highlight-color: rgba(0, 0, 0, 0);" x="517" y="246" width="0" height="0" r="0" rx="0" ry="0" fill="#ffffff" stroke="#000000" transform="matrix(1,0,0,1,0,0)"></rect><rect style="-webkit-tap-highlight-color: rgba(0, 0, 0, 0);" x="-143" y="246" width="0" height="0" r="0" rx="0" ry="0" fill="#ffffff" stroke="#000000" transform="matrix(1,0,0,1,0,0)"></rect><circle style="-webkit-tap-highlight-color: rgba(0, 0, 0, 0);" cx="187" cy="239" r="0" fill="#ffffff" stroke="#000000"></circle></svg>
