<svg style="overflow: hidden; position: relative;" height="500" version="1.1" width="950" xmlns="http://www.w3.org/2000/svg"><rect style="-webkit-tap-highlight-color: rgba(0, 0, 0, 0);" x="0" y="0" width="100%" height="100%" r="0" rx="0" ry="0" fill="#ffffff" stroke="#888888" stroke-width="1"></rect><desc style="-webkit-tap-highlight-color: rgba(0, 0, 0, 0);">Created with Raphaël 2.1.0</desc><defs style="-webkit-tap-highlight-color: rgba(0, 0, 0, 0);"></defs><text style="-webkit-tap-highlight-color: rgba(0, 0, 0, 0); text-anchor: middle; font-style: normal; font-variant: normal; font-weight: normal; font-size: 25px; line-height: normal; font-family: Verdana, Helvetica, sans-serif; cursor: pointer;" x="420" y="50" text-anchor="middle" font="10px &quot;Arial&quot;" stroke="none" fill="#000000" font-size="25px" font-family="Verdana, Helvetica, sans-serif" transform="matrix(1,0,0,1,-363,-18)"><tspan style="-webkit-tap-highlight-color: rgba(0, 0, 0, 0);" dy="10.5">Lists</tspan></text><rect style="-webkit-tap-highlight-color: rgba(0, 0, 0, 0); opacity: 0; cursor: nw-resize;" x="100" y="80" width="10" height="10" r="0" rx="0" ry="0" fill="#77bb44" stroke="#77bb44" opacity="0"></rect><path style="-webkit-tap-highlight-color: rgba(0, 0, 0, 0); opacity: 0;" fill="none" stroke="#000000" d="M57,32LNaN,32" stroke-dasharray="4,3" opacity="0"></path><circle style="-webkit-tap-highlight-color: rgba(0, 0, 0, 0);" cx="NaN" cy="32" r="0" fill="#ffffff" stroke="#000000"></circle><path style="-webkit-tap-highlight-color: rgba(0, 0, 0, 0); opacity: 0;" fill="none" stroke="#000000" d="M57,32LNaN,42.4" stroke-dasharray="4,3" opacity="0"></path><circle style="-webkit-tap-highlight-color: rgba(0, 0, 0, 0);" cx="NaN" cy="42.4" r="0" fill="#ffffff" stroke="#000000"></circle><path style="-webkit-tap-highlight-color: rgba(0, 0, 0, 0); opacity: 0;" fill="none" stroke="#000000" d="M-23,24L137,24L137,40L-23,40L-23,24" stroke-dasharray="4,3" opacity="0"></path><rect style="-webkit-tap-highlight-color: rgba(0, 0, 0, 0);" x="-23" y="24" width="0" height="0" r="0" rx="0" ry="0" fill="#ffffff" stroke="#000000" transform="matrix(1,0,0,1,0,0)"></rect><rect style="-webkit-tap-highlight-color: rgba(0, 0, 0, 0);" x="137" y="24" width="0" height="0" r="0" rx="0" ry="0" fill="#ffffff" stroke="#000000" transform="matrix(1,0,0,1,0,0)"></rect><rect style="-webkit-tap-highlight-color: rgba(0, 0, 0, 0);" x="137" y="40" width="0" height="0" r="0" rx="0" ry="0" fill="#ffffff" stroke="#000000" transform="matrix(1,0,0,1,0,0)"></rect><rect style="-webkit-tap-highlight-color: rgba(0, 0, 0, 0);" x="-23" y="40" width="0" height="0" r="0" rx="0" ry="0" fill="#ffffff" stroke="#000000" transform="matrix(1,0,0,1,0,0)"></rect><circle style="-webkit-tap-highlight-color: rgba(0, 0, 0, 0);" cx="57" cy="32" r="0" fill="#ffffff" stroke="#000000"></circle><text style="-webkit-tap-highlight-color: rgba(0, 0, 0, 0); text-anchor: middle; font-style: normal; font-variant: normal; font-weight: normal; font-size: 13px; line-height: normal; font-family: Verdana, Helvetica, sans-serif; cursor: pointer;" x="420" y="50" text-anchor="middle" font="10px &quot;Arial&quot;" stroke="none" fill="#000000" font-size="13px" font-family="Verdana, Helvetica, sans-serif" transform="matrix(1,0,0,1,-190,24)"><tspan style="-webkit-tap-highlight-color: rgba(0, 0, 0, 0);" dy="5">A list is like a finite set, having members that can all be listed</tspan></text><rect style="-webkit-tap-highlight-color: rgba(0, 0, 0, 0); opacity: 0; cursor: nw-resize;" x="100" y="80" width="10" height="10" r="0" rx="0" ry="0" fill="#77bb44" stroke="#77bb44" opacity="0"></rect><text style="-webkit-tap-highlight-color: rgba(0, 0, 0, 0); text-anchor: middle; font-style: normal; font-variant: normal; font-weight: normal; font-size: 13px; line-height: normal; font-family: Verdana, Helvetica, sans-serif; cursor: pointer;" x="420" y="50" text-anchor="middle" font="10px &quot;Arial&quot;" stroke="none" fill="#000000" font-size="13px" font-family="Verdana, Helvetica, sans-serif" transform="matrix(1,0,0,1,-31,65)"><tspan style="-webkit-tap-highlight-color: rgba(0, 0, 0, 0);" dy="5">In a list, the members are ordered; that is, rearranging the members of a list makes it a different list</tspan></text><rect style="-webkit-tap-highlight-color: rgba(0, 0, 0, 0); opacity: 0; cursor: nw-resize;" x="100" y="80" width="10" height="10" r="0" rx="0" ry="0" fill="#77bb44" stroke="#77bb44" opacity="0"></rect><text style="-webkit-tap-highlight-color: rgba(0, 0, 0, 0); text-anchor: middle; font-style: normal; font-variant: normal; font-weight: normal; font-size: 13px; line-height: normal; font-family: Verdana, Helvetica, sans-serif; cursor: pointer;" x="420" y="50" text-anchor="middle" font="10px &quot;Arial&quot;" stroke="none" fill="#000000" font-size="13px" font-family="Verdana, Helvetica, sans-serif" transform="matrix(1,0,0,1,-113,99)"><tspan style="-webkit-tap-highlight-color: rgba(0, 0, 0, 0);" dy="5">Thus, the terms “first element,” “second element,” etc., make sense in a list</tspan></text><rect style="-webkit-tap-highlight-color: rgba(0, 0, 0, 0); opacity: 0; cursor: nw-resize;" x="100" y="80" width="10" height="10" r="0" rx="0" ry="0" fill="#77bb44" stroke="#77bb44" opacity="0"></rect><text style="-webkit-tap-highlight-color: rgba(0, 0, 0, 0); text-anchor: middle; font-style: normal; font-variant: normal; font-weight: normal; font-size: 13px; line-height: normal; font-family: Verdana, Helvetica, sans-serif; cursor: pointer;" x="420" y="50" text-anchor="middle" font="10px &quot;Arial&quot;" stroke="none" fill="#000000" font-size="13px" font-family="Verdana, Helvetica, sans-serif" transform="matrix(1,0,0,1,-147,147)"><tspan style="-webkit-tap-highlight-color: rgba(0, 0, 0, 0);" dy="5">Also, elements can be repeated in a list and the repetitions matter</tspan></text><rect style="-webkit-tap-highlight-color: rgba(0, 0, 0, 0); opacity: 0; cursor: nw-resize;" x="100" y="80" width="10" height="10" r="0" rx="0" ry="0" fill="#77bb44" stroke="#77bb44" opacity="0"></rect><text style="-webkit-tap-highlight-color: rgba(0, 0, 0, 0); text-anchor: middle; font-style: normal; font-variant: normal; font-weight: normal; font-size: 13px; line-height: normal; font-family: Verdana, Helvetica, sans-serif; cursor: pointer;" x="420" y="50" text-anchor="middle" font="10px &quot;Arial&quot;" stroke="none" fill="#000000" font-size="13px" font-family="Verdana, Helvetica, sans-serif" transform="matrix(1,0,0,1,-55,185)"><tspan style="-webkit-tap-highlight-color: rgba(0, 0, 0, 0);" dy="5">For example, the lists 1, 2, 3, 2 and 1, 2, 2, 3 are different lists, each with four elements, and </tspan><tspan style="-webkit-tap-highlight-color: rgba(0, 0, 0, 0);" dy="15.6" x="420"></tspan><tspan style="-webkit-tap-highlight-color: rgba(0, 0, 0, 0);" dy="15.6" x="420"></tspan></text><rect style="-webkit-tap-highlight-color: rgba(0, 0, 0, 0); opacity: 0; cursor: nw-resize;" x="100" y="80" width="10" height="10" r="0" rx="0" ry="0" fill="#77bb44" stroke="#77bb44" opacity="0"></rect><text style="-webkit-tap-highlight-color: rgba(0, 0, 0, 0); text-anchor: middle; font-style: normal; font-variant: normal; font-weight: normal; font-size: 13px; line-height: normal; font-family: Verdana, Helvetica, sans-serif; cursor: pointer;" x="420" y="50" text-anchor="middle" font="10px &quot;Arial&quot;" stroke="none" fill="#000000" font-size="13px" font-family="Verdana, Helvetica, sans-serif" transform="matrix(1,0,0,1,-135,215)"><tspan style="-webkit-tap-highlight-color: rgba(0, 0, 0, 0);" dy="5">they are both different from the list 1, 2, 3, which has three elements.</tspan></text><rect style="-webkit-tap-highlight-color: rgba(0, 0, 0, 0); opacity: 0; cursor: nw-resize;" x="100" y="80" width="10" height="10" r="0" rx="0" ry="0" fill="#77bb44" stroke="#77bb44" opacity="0"></rect><text style="-webkit-tap-highlight-color: rgba(0, 0, 0, 0); text-anchor: middle; font-style: normal; font-variant: normal; font-weight: normal; font-size: 13px; line-height: normal; font-family: Verdana, Helvetica, sans-serif; cursor: pointer;" x="420" y="50" text-anchor="middle" font="10px &quot;Arial&quot;" stroke="none" fill="#000000" font-size="13px" font-family="Verdana, Helvetica, sans-serif" transform="matrix(1,0,0,1,-390,66)"><tspan style="-webkit-tap-highlight-color: rgba(0, 0, 0, 0);" dy="5">1 )</tspan></text><rect style="-webkit-tap-highlight-color: rgba(0, 0, 0, 0); opacity: 0; cursor: nw-resize;" x="100" y="80" width="10" height="10" r="0" rx="0" ry="0" fill="#77bb44" stroke="#77bb44" opacity="0"></rect><path style="-webkit-tap-highlight-color: rgba(0, 0, 0, 0); opacity: 0;" fill="none" stroke="#000000" d="M30,116LNaN,116" stroke-dasharray="4,3" opacity="0"></path><circle style="-webkit-tap-highlight-color: rgba(0, 0, 0, 0);" cx="NaN" cy="116" r="0" fill="#ffffff" stroke="#000000"></circle><path style="-webkit-tap-highlight-color: rgba(0, 0, 0, 0); opacity: 0;" fill="none" stroke="#000000" d="M30,116LNaN,126.4" stroke-dasharray="4,3" opacity="0"></path><circle style="-webkit-tap-highlight-color: rgba(0, 0, 0, 0);" cx="NaN" cy="126.4" r="0" fill="#ffffff" stroke="#000000"></circle><path style="-webkit-tap-highlight-color: rgba(0, 0, 0, 0); opacity: 0;" fill="none" stroke="#000000" d="M-50,108L110,108L110,124L-50,124L-50,108" stroke-dasharray="4,3" opacity="0"></path><rect style="-webkit-tap-highlight-color: rgba(0, 0, 0, 0);" x="-50" y="108" width="0" height="0" r="0" rx="0" ry="0" fill="#ffffff" stroke="#000000" transform="matrix(1,0,0,1,0,0)"></rect><rect style="-webkit-tap-highlight-color: rgba(0, 0, 0, 0);" x="110" y="108" width="0" height="0" r="0" rx="0" ry="0" fill="#ffffff" stroke="#000000" transform="matrix(1,0,0,1,0,0)"></rect><rect style="-webkit-tap-highlight-color: rgba(0, 0, 0, 0);" x="110" y="124" width="0" height="0" r="0" rx="0" ry="0" fill="#ffffff" stroke="#000000" transform="matrix(1,0,0,1,0,0)"></rect><rect style="-webkit-tap-highlight-color: rgba(0, 0, 0, 0);" x="-50" y="124" width="0" height="0" r="0" rx="0" ry="0" fill="#ffffff" stroke="#000000" transform="matrix(1,0,0,1,0,0)"></rect><circle style="-webkit-tap-highlight-color: rgba(0, 0, 0, 0);" cx="30" cy="116" r="0" fill="#ffffff" stroke="#000000"></circle><text style="-webkit-tap-highlight-color: rgba(0, 0, 0, 0); text-anchor: middle; font-style: normal; font-variant: normal; font-weight: normal; font-size: 13px; line-height: normal; font-family: Verdana, Helvetica, sans-serif; cursor: pointer;" x="420" y="50" text-anchor="middle" font="10px &quot;Arial&quot;" stroke="none" fill="#000000" font-size="13px" font-family="Verdana, Helvetica, sans-serif" transform="matrix(1,0,0,1,-391,101)"><tspan style="-webkit-tap-highlight-color: rgba(0, 0, 0, 0);" dy="5">2 )</tspan></text><rect style="-webkit-tap-highlight-color: rgba(0, 0, 0, 0); opacity: 0; cursor: nw-resize;" x="100" y="80" width="10" height="10" r="0" rx="0" ry="0" fill="#77bb44" stroke="#77bb44" opacity="0"></rect><path style="-webkit-tap-highlight-color: rgba(0, 0, 0, 0); opacity: 0;" fill="none" stroke="#000000" d="M29,151LNaN,151" stroke-dasharray="4,3" opacity="0"></path><circle style="-webkit-tap-highlight-color: rgba(0, 0, 0, 0);" cx="NaN" cy="151" r="0" fill="#ffffff" stroke="#000000"></circle><path style="-webkit-tap-highlight-color: rgba(0, 0, 0, 0); opacity: 0;" fill="none" stroke="#000000" d="M29,151LNaN,161.4" stroke-dasharray="4,3" opacity="0"></path><circle style="-webkit-tap-highlight-color: rgba(0, 0, 0, 0);" cx="NaN" cy="161.4" r="0" fill="#ffffff" stroke="#000000"></circle><path style="-webkit-tap-highlight-color: rgba(0, 0, 0, 0); opacity: 0;" fill="none" stroke="#000000" d="M-51,143L109,143L109,159L-51,159L-51,143" stroke-dasharray="4,3" opacity="0"></path><rect style="-webkit-tap-highlight-color: rgba(0, 0, 0, 0);" x="-51" y="143" width="0" height="0" r="0" rx="0" ry="0" fill="#ffffff" stroke="#000000" transform="matrix(1,0,0,1,0,0)"></rect><rect style="-webkit-tap-highlight-color: rgba(0, 0, 0, 0);" x="109" y="143" width="0" height="0" r="0" rx="0" ry="0" fill="#ffffff" stroke="#000000" transform="matrix(1,0,0,1,0,0)"></rect><rect style="-webkit-tap-highlight-color: rgba(0, 0, 0, 0);" x="109" y="159" width="0" height="0" r="0" rx="0" ry="0" fill="#ffffff" stroke="#000000" transform="matrix(1,0,0,1,0,0)"></rect><rect style="-webkit-tap-highlight-color: rgba(0, 0, 0, 0);" x="-51" y="159" width="0" height="0" r="0" rx="0" ry="0" fill="#ffffff" stroke="#000000" transform="matrix(1,0,0,1,0,0)"></rect><circle style="-webkit-tap-highlight-color: rgba(0, 0, 0, 0);" cx="29" cy="151" r="0" fill="#ffffff" stroke="#000000"></circle><path style="-webkit-tap-highlight-color: rgba(0, 0, 0, 0); opacity: 0;" fill="none" stroke="#000000" d="M230,74LNaN,74" stroke-dasharray="4,3" opacity="0"></path><circle style="-webkit-tap-highlight-color: rgba(0, 0, 0, 0);" cx="NaN" cy="74" r="0" fill="#ffffff" stroke="#000000"></circle><path style="-webkit-tap-highlight-color: rgba(0, 0, 0, 0); opacity: 0;" fill="none" stroke="#000000" d="M230,74LNaN,84.4" stroke-dasharray="4,3" opacity="0"></path><circle style="-webkit-tap-highlight-color: rgba(0, 0, 0, 0);" cx="NaN" cy="84.4" r="0" fill="#ffffff" stroke="#000000"></circle><path style="-webkit-tap-highlight-color: rgba(0, 0, 0, 0); opacity: 0;" fill="none" stroke="#000000" d="M150,66L310,66L310,82L150,82L150,66" stroke-dasharray="4,3" opacity="0"></path><rect style="-webkit-tap-highlight-color: rgba(0, 0, 0, 0);" x="150" y="66" width="0" height="0" r="0" rx="0" ry="0" fill="#ffffff" stroke="#000000" transform="matrix(1,0,0,1,0,0)"></rect><rect style="-webkit-tap-highlight-color: rgba(0, 0, 0, 0);" x="310" y="66" width="0" height="0" r="0" rx="0" ry="0" fill="#ffffff" stroke="#000000" transform="matrix(1,0,0,1,0,0)"></rect><rect style="-webkit-tap-highlight-color: rgba(0, 0, 0, 0);" x="310" y="82" width="0" height="0" r="0" rx="0" ry="0" fill="#ffffff" stroke="#000000" transform="matrix(1,0,0,1,0,0)"></rect><rect style="-webkit-tap-highlight-color: rgba(0, 0, 0, 0);" x="150" y="82" width="0" height="0" r="0" rx="0" ry="0" fill="#ffffff" stroke="#000000" transform="matrix(1,0,0,1,0,0)"></rect><circle style="-webkit-tap-highlight-color: rgba(0, 0, 0, 0);" cx="230" cy="74" r="0" fill="#ffffff" stroke="#000000"></circle><path style="-webkit-tap-highlight-color: rgba(0, 0, 0, 0); opacity: 0;" fill="none" stroke="#000000" d="M389,115LNaN,115" stroke-dasharray="4,3" opacity="0"></path><circle style="-webkit-tap-highlight-color: rgba(0, 0, 0, 0);" cx="NaN" cy="115" r="0" fill="#ffffff" stroke="#000000"></circle><path style="-webkit-tap-highlight-color: rgba(0, 0, 0, 0); opacity: 0;" fill="none" stroke="#000000" d="M389,115LNaN,125.4" stroke-dasharray="4,3" opacity="0"></path><circle style="-webkit-tap-highlight-color: rgba(0, 0, 0, 0);" cx="NaN" cy="125.4" r="0" fill="#ffffff" stroke="#000000"></circle><path style="-webkit-tap-highlight-color: rgba(0, 0, 0, 0); opacity: 0;" fill="none" stroke="#000000" d="M309,107L469,107L469,123L309,123L309,107" stroke-dasharray="4,3" opacity="0"></path><rect style="-webkit-tap-highlight-color: rgba(0, 0, 0, 0);" x="309" y="107" width="0" height="0" r="0" rx="0" ry="0" fill="#ffffff" stroke="#000000" transform="matrix(1,0,0,1,0,0)"></rect><rect style="-webkit-tap-highlight-color: rgba(0, 0, 0, 0);" x="469" y="107" width="0" height="0" r="0" rx="0" ry="0" fill="#ffffff" stroke="#000000" transform="matrix(1,0,0,1,0,0)"></rect><rect style="-webkit-tap-highlight-color: rgba(0, 0, 0, 0);" x="469" y="123" width="0" height="0" r="0" rx="0" ry="0" fill="#ffffff" stroke="#000000" transform="matrix(1,0,0,1,0,0)"></rect><rect style="-webkit-tap-highlight-color: rgba(0, 0, 0, 0);" x="309" y="123" width="0" height="0" r="0" rx="0" ry="0" fill="#ffffff" stroke="#000000" transform="matrix(1,0,0,1,0,0)"></rect><circle style="-webkit-tap-highlight-color: rgba(0, 0, 0, 0);" cx="389" cy="115" r="0" fill="#ffffff" stroke="#000000"></circle><path style="-webkit-tap-highlight-color: rgba(0, 0, 0, 0); opacity: 0;" fill="none" stroke="#000000" d="M307,149LNaN,149" stroke-dasharray="4,3" opacity="0"></path><circle style="-webkit-tap-highlight-color: rgba(0, 0, 0, 0);" cx="NaN" cy="149" r="0" fill="#ffffff" stroke="#000000"></circle><path style="-webkit-tap-highlight-color: rgba(0, 0, 0, 0); opacity: 0;" fill="none" stroke="#000000" d="M307,149LNaN,159.4" stroke-dasharray="4,3" opacity="0"></path><circle style="-webkit-tap-highlight-color: rgba(0, 0, 0, 0);" cx="NaN" cy="159.4" r="0" fill="#ffffff" stroke="#000000"></circle><path style="-webkit-tap-highlight-color: rgba(0, 0, 0, 0); opacity: 0;" fill="none" stroke="#000000" d="M227,141L387,141L387,157L227,157L227,141" stroke-dasharray="4,3" opacity="0"></path><rect style="-webkit-tap-highlight-color: rgba(0, 0, 0, 0);" x="227" y="141" width="0" height="0" r="0" rx="0" ry="0" fill="#ffffff" stroke="#000000" transform="matrix(1,0,0,1,0,0)"></rect><rect style="-webkit-tap-highlight-color: rgba(0, 0, 0, 0);" x="387" y="141" width="0" height="0" r="0" rx="0" ry="0" fill="#ffffff" stroke="#000000" transform="matrix(1,0,0,1,0,0)"></rect><rect style="-webkit-tap-highlight-color: rgba(0, 0, 0, 0);" x="387" y="157" width="0" height="0" r="0" rx="0" ry="0" fill="#ffffff" stroke="#000000" transform="matrix(1,0,0,1,0,0)"></rect><rect style="-webkit-tap-highlight-color: rgba(0, 0, 0, 0);" x="227" y="157" width="0" height="0" r="0" rx="0" ry="0" fill="#ffffff" stroke="#000000" transform="matrix(1,0,0,1,0,0)"></rect><circle style="-webkit-tap-highlight-color: rgba(0, 0, 0, 0);" cx="307" cy="149" r="0" fill="#ffffff" stroke="#000000"></circle><path style="-webkit-tap-highlight-color: rgba(0, 0, 0, 0); opacity: 0;" fill="none" stroke="#000000" d="M365,235LNaN,235" stroke-dasharray="4,3" opacity="0"></path><circle style="-webkit-tap-highlight-color: rgba(0, 0, 0, 0);" cx="NaN" cy="235" r="0" fill="#ffffff" stroke="#000000"></circle><path style="-webkit-tap-highlight-color: rgba(0, 0, 0, 0); opacity: 0;" fill="none" stroke="#000000" d="M365,235LNaN,245.4" stroke-dasharray="4,3" opacity="0"></path><circle style="-webkit-tap-highlight-color: rgba(0, 0, 0, 0);" cx="NaN" cy="245.4" r="0" fill="#ffffff" stroke="#000000"></circle><path style="-webkit-tap-highlight-color: rgba(0, 0, 0, 0); opacity: 0;" fill="none" stroke="#000000" d="M285,227L445,227L445,243L285,243L285,227" stroke-dasharray="4,3" opacity="0"></path><rect style="-webkit-tap-highlight-color: rgba(0, 0, 0, 0);" x="285" y="227" width="0" height="0" r="0" rx="0" ry="0" fill="#ffffff" stroke="#000000" transform="matrix(1,0,0,1,0,0)"></rect><rect style="-webkit-tap-highlight-color: rgba(0, 0, 0, 0);" x="445" y="227" width="0" height="0" r="0" rx="0" ry="0" fill="#ffffff" stroke="#000000" transform="matrix(1,0,0,1,0,0)"></rect><rect style="-webkit-tap-highlight-color: rgba(0, 0, 0, 0);" x="445" y="243" width="0" height="0" r="0" rx="0" ry="0" fill="#ffffff" stroke="#000000" transform="matrix(1,0,0,1,0,0)"></rect><rect style="-webkit-tap-highlight-color: rgba(0, 0, 0, 0);" x="285" y="243" width="0" height="0" r="0" rx="0" ry="0" fill="#ffffff" stroke="#000000" transform="matrix(1,0,0,1,0,0)"></rect><circle style="-webkit-tap-highlight-color: rgba(0, 0, 0, 0);" cx="365" cy="235" r="0" fill="#ffffff" stroke="#000000"></circle><path style="-webkit-tap-highlight-color: rgba(0, 0, 0, 0); opacity: 0;" fill="none" stroke="#000000" d="M285,265LNaN,265" stroke-dasharray="4,3" opacity="0"></path><circle style="-webkit-tap-highlight-color: rgba(0, 0, 0, 0);" cx="NaN" cy="265" r="0" fill="#ffffff" stroke="#000000"></circle><path style="-webkit-tap-highlight-color: rgba(0, 0, 0, 0); opacity: 0;" fill="none" stroke="#000000" d="M285,265LNaN,275.4" stroke-dasharray="4,3" opacity="0"></path><circle style="-webkit-tap-highlight-color: rgba(0, 0, 0, 0);" cx="NaN" cy="275.4" r="0" fill="#ffffff" stroke="#000000"></circle><path style="-webkit-tap-highlight-color: rgba(0, 0, 0, 0); opacity: 0;" fill="none" stroke="#000000" d="M205,257L365,257L365,273L205,273L205,257" stroke-dasharray="4,3" opacity="0"></path><rect style="-webkit-tap-highlight-color: rgba(0, 0, 0, 0);" x="205" y="257" width="0" height="0" r="0" rx="0" ry="0" fill="#ffffff" stroke="#000000" transform="matrix(1,0,0,1,0,0)"></rect><rect style="-webkit-tap-highlight-color: rgba(0, 0, 0, 0);" x="365" y="257" width="0" height="0" r="0" rx="0" ry="0" fill="#ffffff" stroke="#000000" transform="matrix(1,0,0,1,0,0)"></rect><rect style="-webkit-tap-highlight-color: rgba(0, 0, 0, 0);" x="365" y="273" width="0" height="0" r="0" rx="0" ry="0" fill="#ffffff" stroke="#000000" transform="matrix(1,0,0,1,0,0)"></rect><rect style="-webkit-tap-highlight-color: rgba(0, 0, 0, 0);" x="205" y="273" width="0" height="0" r="0" rx="0" ry="0" fill="#ffffff" stroke="#000000" transform="matrix(1,0,0,1,0,0)"></rect><circle style="-webkit-tap-highlight-color: rgba(0, 0, 0, 0);" cx="285" cy="265" r="0" fill="#ffffff" stroke="#000000"></circle><text style="-webkit-tap-highlight-color: rgba(0, 0, 0, 0); text-anchor: middle; font-style: normal; font-variant: normal; font-weight: normal; font-size: 13px; line-height: normal; font-family: Verdana, Helvetica, sans-serif; cursor: pointer;" x="420" y="50" text-anchor="middle" font="10px &quot;Arial&quot;" stroke="none" fill="#000000" font-size="13px" font-family="Verdana, Helvetica, sans-serif" transform="matrix(1,0,0,1,34,297)"><tspan style="-webkit-tap-highlight-color: rgba(0, 0, 0, 0);" dy="15.8125"> </tspan></text><rect style="-webkit-tap-highlight-color: rgba(0, 0, 0, 0); opacity: 0; cursor: nw-resize;" x="100" y="80" width="10" height="10" r="0" rx="0" ry="0" fill="#77bb44" stroke="#77bb44" opacity="0"></rect><rect style="-webkit-tap-highlight-color: rgba(0, 0, 0, 0); fill-opacity: 1;" x="200" y="200" width="100" height="100" r="0" rx="0" ry="0" fill="#c80000" stroke="#000000" fill-opacity="1" stroke-width="0.1126126126126126" transform="matrix(8.88,0,0,1.26,-1741,80)"></rect><text style="-webkit-tap-highlight-color: rgba(0, 0, 0, 0); text-anchor: middle; font-style: normal; font-variant: normal; font-weight: normal; font-size: 15px; line-height: normal; font-family: Verdana, Helvetica, sans-serif; cursor: pointer; fill-opacity: 1;" x="420" y="50" text-anchor="middle" font="10px &quot;Arial&quot;" stroke="none" fill="#ffffff" font-size="15px" font-family="Verdana, Helvetica, sans-serif" transform="matrix(1,0,0,1,62,322)" fill-opacity="1"><tspan style="-webkit-tap-highlight-color: rgba(0, 0, 0, 0);" dy="-3">In contrast to a list, when the elements of a set are given, repetitions are not counted as additional elements and </tspan><tspan style="-webkit-tap-highlight-color: rgba(0, 0, 0, 0);" dy="18" x="420">the order of the elements does not matter</tspan></text><rect style="-webkit-tap-highlight-color: rgba(0, 0, 0, 0); opacity: 0; cursor: nw-resize;" x="100" y="80" width="10" height="10" r="0" rx="0" ry="0" fill="#77bb44" stroke="#77bb44" opacity="0"></rect><path style="-webkit-tap-highlight-color: rgba(0, 0, 0, 0); opacity: 0;" fill="none" stroke="#000000" d="M454,347LNaN,347" stroke-dasharray="4,3" opacity="0"></path><circle style="-webkit-tap-highlight-color: rgba(0, 0, 0, 0);" cx="NaN" cy="347" r="0" fill="#ffffff" stroke="#000000"></circle><path style="-webkit-tap-highlight-color: rgba(0, 0, 0, 0); opacity: 0;" fill="none" stroke="#000000" d="M454,347LNaN,357.4" stroke-dasharray="4,3" opacity="0"></path><circle style="-webkit-tap-highlight-color: rgba(0, 0, 0, 0);" cx="NaN" cy="357.4" r="0" fill="#ffffff" stroke="#000000"></circle><path style="-webkit-tap-highlight-color: rgba(0, 0, 0, 0); opacity: 0;" fill="none" stroke="#000000" d="M374,339L534,339L534,355L374,355L374,339" stroke-dasharray="4,3" opacity="0"></path><rect style="-webkit-tap-highlight-color: rgba(0, 0, 0, 0);" x="374" y="339" width="0" height="0" r="0" rx="0" ry="0" fill="#ffffff" stroke="#000000" transform="matrix(1,0,0,1,0,0)"></rect><rect style="-webkit-tap-highlight-color: rgba(0, 0, 0, 0);" x="534" y="339" width="0" height="0" r="0" rx="0" ry="0" fill="#ffffff" stroke="#000000" transform="matrix(1,0,0,1,0,0)"></rect><rect style="-webkit-tap-highlight-color: rgba(0, 0, 0, 0);" x="534" y="355" width="0" height="0" r="0" rx="0" ry="0" fill="#ffffff" stroke="#000000" transform="matrix(1,0,0,1,0,0)"></rect><rect style="-webkit-tap-highlight-color: rgba(0, 0, 0, 0);" x="374" y="355" width="0" height="0" r="0" rx="0" ry="0" fill="#ffffff" stroke="#000000" transform="matrix(1,0,0,1,0,0)"></rect><circle style="-webkit-tap-highlight-color: rgba(0, 0, 0, 0);" cx="454" cy="347" r="0" fill="#ffffff" stroke="#000000"></circle><text style="-webkit-tap-highlight-color: rgba(0, 0, 0, 0); text-anchor: middle; font-style: normal; font-variant: normal; font-weight: normal; font-size: 15px; line-height: normal; font-family: Verdana, Helvetica, sans-serif; cursor: pointer;" x="420" y="50" text-anchor="middle" font="10px &quot;Arial&quot;" stroke="none" fill="#ffffff" font-size="15px" font-family="Verdana, Helvetica, sans-serif" transform="matrix(1,0,0,1,21,369)"><tspan style="-webkit-tap-highlight-color: rgba(0, 0, 0, 0);" dy="6">For example, the sets {1,2,3,2} and {3,1,2 } are the same set, which has three elements.</tspan></text><rect style="-webkit-tap-highlight-color: rgba(0, 0, 0, 0); opacity: 0; cursor: nw-resize;" x="100" y="80" width="10" height="10" r="0" rx="0" ry="0" fill="#77bb44" stroke="#77bb44" opacity="0"></rect><path style="-webkit-tap-highlight-color: rgba(0, 0, 0, 0); opacity: 0;" fill="none" stroke="#000000" d="M441,419LNaN,419" stroke-dasharray="4,3" opacity="0"></path><circle style="-webkit-tap-highlight-color: rgba(0, 0, 0, 0);" cx="NaN" cy="419" r="0" fill="#ffffff" stroke="#000000"></circle><path style="-webkit-tap-highlight-color: rgba(0, 0, 0, 0); opacity: 0;" fill="none" stroke="#000000" d="M441,419LNaN,429.4" stroke-dasharray="4,3" opacity="0"></path><circle style="-webkit-tap-highlight-color: rgba(0, 0, 0, 0);" cx="NaN" cy="429.4" r="0" fill="#ffffff" stroke="#000000"></circle><path style="-webkit-tap-highlight-color: rgba(0, 0, 0, 0); opacity: 0;" fill="none" stroke="#000000" d="M361,411L521,411L521,427L361,427L361,411" stroke-dasharray="4,3" opacity="0"></path><rect style="-webkit-tap-highlight-color: rgba(0, 0, 0, 0);" x="361" y="411" width="0" height="0" r="0" rx="0" ry="0" fill="#ffffff" stroke="#000000" transform="matrix(1,0,0,1,0,0)"></rect><rect style="-webkit-tap-highlight-color: rgba(0, 0, 0, 0);" x="521" y="411" width="0" height="0" r="0" rx="0" ry="0" fill="#ffffff" stroke="#000000" transform="matrix(1,0,0,1,0,0)"></rect><rect style="-webkit-tap-highlight-color: rgba(0, 0, 0, 0);" x="521" y="427" width="0" height="0" r="0" rx="0" ry="0" fill="#ffffff" stroke="#000000" transform="matrix(1,0,0,1,0,0)"></rect><rect style="-webkit-tap-highlight-color: rgba(0, 0, 0, 0);" x="361" y="427" width="0" height="0" r="0" rx="0" ry="0" fill="#ffffff" stroke="#000000" transform="matrix(1,0,0,1,0,0)"></rect><circle style="-webkit-tap-highlight-color: rgba(0, 0, 0, 0);" cx="441" cy="419" r="0" fill="#ffffff" stroke="#000000"></circle><path style="-webkit-tap-highlight-color: rgba(0, 0, 0, 0); opacity: 0;" fill="none" stroke="#000000" d="M482,372LNaN,372" stroke-dasharray="4,3" opacity="0"></path><circle style="-webkit-tap-highlight-color: rgba(0, 0, 0, 0);" cx="NaN" cy="372" r="0" fill="#ffffff" stroke="#000000"></circle><path style="-webkit-tap-highlight-color: rgba(0, 0, 0, 0); opacity: 0;" fill="none" stroke="#000000" d="M482,372LNaN,382.4" stroke-dasharray="4,3" opacity="0"></path><circle style="-webkit-tap-highlight-color: rgba(0, 0, 0, 0);" cx="NaN" cy="382.4" r="0" fill="#ffffff" stroke="#000000"></circle><path style="-webkit-tap-highlight-color: rgba(0, 0, 0, 0); opacity: 0;" fill="none" stroke="#000000" d="M402,364L562,364L562,380L402,380L402,364" stroke-dasharray="4,3" opacity="0"></path><rect style="-webkit-tap-highlight-color: rgba(0, 0, 0, 0);" x="402" y="364" width="0" height="0" r="0" rx="0" ry="0" fill="#ffffff" stroke="#000000" transform="matrix(1,0,0,1,0,0)"></rect><rect style="-webkit-tap-highlight-color: rgba(0, 0, 0, 0);" x="562" y="364" width="0" height="0" r="0" rx="0" ry="0" fill="#ffffff" stroke="#000000" transform="matrix(1,0,0,1,0,0)"></rect><rect style="-webkit-tap-highlight-color: rgba(0, 0, 0, 0);" x="562" y="380" width="0" height="0" r="0" rx="0" ry="0" fill="#ffffff" stroke="#000000" transform="matrix(1,0,0,1,0,0)"></rect><rect style="-webkit-tap-highlight-color: rgba(0, 0, 0, 0);" x="402" y="380" width="0" height="0" r="0" rx="0" ry="0" fill="#ffffff" stroke="#000000" transform="matrix(1,0,0,1,0,0)"></rect><circle style="-webkit-tap-highlight-color: rgba(0, 0, 0, 0);" cx="482" cy="372" r="0" fill="#ffffff" stroke="#000000"></circle><path style="-webkit-tap-highlight-color: rgba(0, 0, 0, 0); opacity: 0;" fill="none" stroke="#000000" d="M273,197LNaN,197" stroke-dasharray="4,3" opacity="0"></path><circle style="-webkit-tap-highlight-color: rgba(0, 0, 0, 0);" cx="NaN" cy="197" r="0" fill="#ffffff" stroke="#000000"></circle><path style="-webkit-tap-highlight-color: rgba(0, 0, 0, 0); opacity: 0;" fill="none" stroke="#000000" d="M273,197LNaN,207.4" stroke-dasharray="4,3" opacity="0"></path><circle style="-webkit-tap-highlight-color: rgba(0, 0, 0, 0);" cx="NaN" cy="207.4" r="0" fill="#ffffff" stroke="#000000"></circle><path style="-webkit-tap-highlight-color: rgba(0, 0, 0, 0); opacity: 0;" fill="none" stroke="#000000" d="M193,189L353,189L353,205L193,205L193,189" stroke-dasharray="4,3" opacity="0"></path><rect style="-webkit-tap-highlight-color: rgba(0, 0, 0, 0);" x="193" y="189" width="0" height="0" r="0" rx="0" ry="0" fill="#ffffff" stroke="#000000" transform="matrix(1,0,0,1,0,0)"></rect><rect style="-webkit-tap-highlight-color: rgba(0, 0, 0, 0);" x="353" y="189" width="0" height="0" r="0" rx="0" ry="0" fill="#ffffff" stroke="#000000" transform="matrix(1,0,0,1,0,0)"></rect><rect style="-webkit-tap-highlight-color: rgba(0, 0, 0, 0);" x="353" y="205" width="0" height="0" r="0" rx="0" ry="0" fill="#ffffff" stroke="#000000" transform="matrix(1,0,0,1,0,0)"></rect><rect style="-webkit-tap-highlight-color: rgba(0, 0, 0, 0);" x="193" y="205" width="0" height="0" r="0" rx="0" ry="0" fill="#ffffff" stroke="#000000" transform="matrix(1,0,0,1,0,0)"></rect><circle style="-webkit-tap-highlight-color: rgba(0, 0, 0, 0);" cx="273" cy="197" r="0" fill="#ffffff" stroke="#000000"></circle><path style="-webkit-tap-highlight-color: rgba(0, 0, 0, 0); opacity: 0;" fill="none" stroke="#000000" d="M479,395LNaN,395" stroke-dasharray="4,3" opacity="0"></path><circle style="-webkit-tap-highlight-color: rgba(0, 0, 0, 0);" cx="NaN" cy="395" r="0" fill="#ffffff" stroke="#000000" stroke-width="1"></circle><path style="-webkit-tap-highlight-color: rgba(0, 0, 0, 0); opacity: 0;" fill="none" stroke="#000000" d="M479,395LNaN,476.9" stroke-dasharray="4,3" opacity="0"></path><circle style="-webkit-tap-highlight-color: rgba(0, 0, 0, 0);" cx="NaN" cy="476.9" r="0" fill="#ffffff" stroke="#000000" stroke-width="1"></circle><path style="-webkit-tap-highlight-color: rgba(0, 0, 0, 0); opacity: 0;" fill="none" stroke="#000000" d="M34.999999999999936,332L923,332L923,458L34.99999999999995,458L34.999999999999936,332" stroke-dasharray="4,3" opacity="0"></path><rect style="-webkit-tap-highlight-color: rgba(0, 0, 0, 0);" x="34.999999999999936" y="332" width="0" height="0" r="0" rx="0" ry="0" fill="#ffffff" stroke="#000000" stroke-width="1" transform="matrix(1,0,0,1,0,0)"></rect><rect style="-webkit-tap-highlight-color: rgba(0, 0, 0, 0);" x="923" y="332" width="0" height="0" r="0" rx="0" ry="0" fill="#ffffff" stroke="#000000" stroke-width="1" transform="matrix(1,0,0,1,0,0)"></rect><rect style="-webkit-tap-highlight-color: rgba(0, 0, 0, 0);" x="923" y="458" width="0" height="0" r="0" rx="0" ry="0" fill="#ffffff" stroke="#000000" stroke-width="1" transform="matrix(1,0,0,1,0,0)"></rect><rect style="-webkit-tap-highlight-color: rgba(0, 0, 0, 0);" x="34.99999999999995" y="458" width="0" height="0" r="0" rx="0" ry="0" fill="#ffffff" stroke="#000000" stroke-width="1" transform="matrix(1,0,0,1,0,0)"></rect><circle style="-webkit-tap-highlight-color: rgba(0, 0, 0, 0);" cx="479" cy="395" r="0" fill="#ffffff" stroke="#000000" stroke-width="1"></circle></svg>
