<svg height="506" version="1.1" width="100%" xmlns="http://www.w3.org/2000/svg" xml:space="preserve" style="overflow: hidden; position: relative;"><rect x="0" y="0" width="100%" height="100%" r="0" rx="0" ry="0" fill="#ffffff" stroke="#eeeeee" stroke-width="1" style="-webkit-tap-highlight-color: rgba(0, 0, 0, 0);"></rect><desc style="-webkit-tap-highlight-color: rgba(0, 0, 0, 0);">Created with Raphaël 2.1.0</desc><defs style="-webkit-tap-highlight-color: rgba(0, 0, 0, 0);"></defs><path fill="none" stroke="#000000" d="M297,54L297,58L297,75L297,86L298,99L302,107L311,113L328,116L353,114L364,109L364,107L364,106L364,105L359,104L336,102L303,102L242,102L203,102L200,102L200,102L200,102L200,102L200,102L200,102L330,104L327,114L320,128L309,140L301,147L275,156L254,156L243,156L229,156L216,152L197,136L197,130L212,130L251,136L279,149L286,159L284,167L267,177L240,185L244,185L256,181L284,179L333,179L383,179L393,178L395,177L395,175L395,169L399,164L421,157L443,150L471,140L493,133L520,125L524,120L524,119L498,110L448,104L406,103L400,103L400,103L469,103L512,103L512,103L507,104" stroke-width="1" style="-webkit-tap-highlight-color: rgba(0, 0, 0, 0);"></path></svg>
