<svg height="479" version="1.1" width="100%" xmlns="http://www.w3.org/2000/svg" style="overflow: hidden; position: relative;" xml:space="preserve"><rect x="0" y="0" width="100%" height="100%" r="0" rx="0" ry="0" fill="#ffffff" stroke="#888888" stroke-width="1" style="-webkit-tap-highlight-color: rgba(0, 0, 0, 0);"></rect><desc style="-webkit-tap-highlight-color: rgba(0, 0, 0, 0);">Created with Raphaël 2.1.0</desc><defs style="-webkit-tap-highlight-color: rgba(0, 0, 0, 0);"></defs><text x="50" y="50" text-anchor="start" font="10px &quot;Arial&quot;" stroke="none" fill="#000000" style="-webkit-tap-highlight-color: rgba(0, 0, 0, 0); text-anchor: start; font-style: normal; font-variant: normal; font-weight: normal; font-size: 15px; line-height: normal; font-family: Georgia; cursor: pointer;" font-size="15px" font-family="Georgia" transform="matrix(1,0,0,1,-47,-32)"><tspan style="-webkit-tap-highlight-color: rgba(0, 0, 0, 0);" dy="6">Since it is a multiple choice question, it is best to check option</tspan><tspan dy="18" x="50" style="-webkit-tap-highlight-color: rgba(0, 0, 0, 0);"></tspan><tspan dy="18" x="50" style="-webkit-tap-highlight-color: rgba(0, 0, 0, 0);">                     </tspan><tspan dy="18" x="50" style="-webkit-tap-highlight-color: rgba(0, 0, 0, 0);"></tspan><tspan dy="18" x="50" style="-webkit-tap-highlight-color: rgba(0, 0, 0, 0);"></tspan></text><rect x="100" y="80" width="10" height="10" r="0" rx="0" ry="0" fill="#ffffff" stroke="#ffffff" opacity="0" style="-webkit-tap-highlight-color: rgba(0, 0, 0, 0); opacity: 0; cursor: nw-resize;"></rect><rect x="200" y="200" width="100" height="100" r="0" rx="0" ry="0" fill="#77bb44" stroke="#000000" fill-opacity="1" stroke-width="0.12468827930174564" style="-webkit-tap-highlight-color: rgba(0, 0, 0, 0); fill-opacity: 1;" transform="matrix(8.02,0,0,0.45,-1605,-19)"></rect><text x="50" y="50" text-anchor="start" font="10px &quot;Arial&quot;" stroke="none" fill="#000000" style="-webkit-tap-highlight-color: rgba(0, 0, 0, 0); text-anchor: start; font-style: normal; font-variant: normal; font-weight: normal; font-size: 15px; line-height: normal; font-family: Georgia; cursor: pointer;" font-size="15px" font-family="Georgia" transform="matrix(1,0,0,1,-48,3)"><tspan style="-webkit-tap-highlight-color: rgba(0, 0, 0, 0);" dy="6">A) ab + bc + ca = odd*odd + odd*odd + odd*odd  = odd + odd + odd = odd</tspan><tspan dy="18" x="50" style="-webkit-tap-highlight-color: rgba(0, 0, 0, 0);"></tspan></text><rect x="100" y="80" width="10" height="10" r="0" rx="0" ry="0" fill="#ffffff" stroke="#ffffff" opacity="0" style="-webkit-tap-highlight-color: rgba(0, 0, 0, 0); opacity: 0; cursor: nw-resize;"></rect><path fill="none" stroke="#000000" d="M52,18LNaN,18" stroke-dasharray="4,3" opacity="0" style="-webkit-tap-highlight-color: rgba(0, 0, 0, 0); opacity: 0;"></path><circle cx="NaN" cy="18" r="0" fill="#ffffff" stroke="#000000" style="-webkit-tap-highlight-color: rgba(0, 0, 0, 0);"></circle><path fill="none" stroke="#000000" d="M52,18LNaN,29.700000000000003" stroke-dasharray="4,3" opacity="0" style="-webkit-tap-highlight-color: rgba(0, 0, 0, 0); opacity: 0;"></path><circle cx="NaN" cy="29.700000000000003" r="0" fill="#ffffff" stroke="#000000" style="-webkit-tap-highlight-color: rgba(0, 0, 0, 0);"></circle><path fill="none" stroke="#000000" d="M2.9999999999999996,9L101,9L101,27L3.0000000000000004,27L2.9999999999999996,9" stroke-dasharray="4,3" opacity="0" style="-webkit-tap-highlight-color: rgba(0, 0, 0, 0); opacity: 0;"></path><rect x="2.9999999999999996" y="9" width="0" height="0" r="0" rx="0" ry="0" fill="#ffffff" stroke="#000000" transform="matrix(1,0,0,1,0,0)" style="-webkit-tap-highlight-color: rgba(0, 0, 0, 0);"></rect><rect x="101" y="9" width="0" height="0" r="0" rx="0" ry="0" fill="#ffffff" stroke="#000000" transform="matrix(1,0,0,1,0,0)" style="-webkit-tap-highlight-color: rgba(0, 0, 0, 0);"></rect><rect x="101" y="27" width="0" height="0" r="0" rx="0" ry="0" fill="#ffffff" stroke="#000000" transform="matrix(1,0,0,1,0,0)" style="-webkit-tap-highlight-color: rgba(0, 0, 0, 0);"></rect><rect x="3.0000000000000004" y="27" width="0" height="0" r="0" rx="0" ry="0" fill="#ffffff" stroke="#000000" transform="matrix(1,0,0,1,0,0)" style="-webkit-tap-highlight-color: rgba(0, 0, 0, 0);"></rect><circle cx="52" cy="18" r="0" fill="#ffffff" stroke="#000000" style="-webkit-tap-highlight-color: rgba(0, 0, 0, 0);"></circle><text x="50" y="50" text-anchor="start" font="10px &quot;Arial&quot;" stroke="none" fill="#000000" style="-webkit-tap-highlight-color: rgba(0, 0, 0, 0); text-anchor: start; font-style: normal; font-variant: normal; font-weight: normal; font-size: 15px; line-height: normal; font-family: Georgia; cursor: pointer;" font-size="15px" font-family="Georgia" transform="matrix(1,0,0,1,-42,45)"><tspan style="-webkit-tap-highlight-color: rgba(0, 0, 0, 0);" dy="-3">1)Product of two odd numbers is odd </tspan><tspan dy="18" x="50" style="-webkit-tap-highlight-color: rgba(0, 0, 0, 0);">2)Sum or difference of 3 odd numbers is odd</tspan></text><rect x="100" y="80" width="10" height="10" r="0" rx="0" ry="0" fill="#ffffff" stroke="#ffffff" opacity="0" style="-webkit-tap-highlight-color: rgba(0, 0, 0, 0); opacity: 0; cursor: nw-resize;"></rect><path fill="none" stroke="#000000" d="M57,95LNaN,95" stroke-dasharray="4,3" opacity="0" style="-webkit-tap-highlight-color: rgba(0, 0, 0, 0); opacity: 0;"></path><circle cx="NaN" cy="95" r="0" fill="#ffffff" stroke="#000000" style="-webkit-tap-highlight-color: rgba(0, 0, 0, 0);"></circle><path fill="none" stroke="#000000" d="M57,95LNaN,106.7" stroke-dasharray="4,3" opacity="0" style="-webkit-tap-highlight-color: rgba(0, 0, 0, 0); opacity: 0;"></path><circle cx="NaN" cy="106.7" r="0" fill="#ffffff" stroke="#000000" style="-webkit-tap-highlight-color: rgba(0, 0, 0, 0);"></circle><path fill="none" stroke="#000000" d="M7.999999999999999,86L106,86L106,104L8,104L7.999999999999999,86" stroke-dasharray="4,3" opacity="0" style="-webkit-tap-highlight-color: rgba(0, 0, 0, 0); opacity: 0;"></path><rect x="7.999999999999999" y="86" width="0" height="0" r="0" rx="0" ry="0" fill="#ffffff" stroke="#000000" transform="matrix(1,0,0,1,0,0)" style="-webkit-tap-highlight-color: rgba(0, 0, 0, 0);"></rect><rect x="106" y="86" width="0" height="0" r="0" rx="0" ry="0" fill="#ffffff" stroke="#000000" transform="matrix(1,0,0,1,0,0)" style="-webkit-tap-highlight-color: rgba(0, 0, 0, 0);"></rect><rect x="106" y="104" width="0" height="0" r="0" rx="0" ry="0" fill="#ffffff" stroke="#000000" transform="matrix(1,0,0,1,0,0)" style="-webkit-tap-highlight-color: rgba(0, 0, 0, 0);"></rect><rect x="8" y="104" width="0" height="0" r="0" rx="0" ry="0" fill="#ffffff" stroke="#000000" transform="matrix(1,0,0,1,0,0)" style="-webkit-tap-highlight-color: rgba(0, 0, 0, 0);"></rect><circle cx="57" cy="95" r="0" fill="#ffffff" stroke="#000000" style="-webkit-tap-highlight-color: rgba(0, 0, 0, 0);"></circle><path fill="none" stroke="#000000" d="M51,53LNaN,53" stroke-dasharray="4,3" opacity="0" style="-webkit-tap-highlight-color: rgba(0, 0, 0, 0); opacity: 0;"></path><circle cx="NaN" cy="53" r="0" fill="#ffffff" stroke="#000000" style="-webkit-tap-highlight-color: rgba(0, 0, 0, 0);"></circle><path fill="none" stroke="#000000" d="M51,53LNaN,64.7" stroke-dasharray="4,3" opacity="0" style="-webkit-tap-highlight-color: rgba(0, 0, 0, 0); opacity: 0;"></path><circle cx="NaN" cy="64.7" r="0" fill="#ffffff" stroke="#000000" style="-webkit-tap-highlight-color: rgba(0, 0, 0, 0);"></circle><path fill="none" stroke="#000000" d="M1.9999999999999996,44L100,44L100,62L2.0000000000000004,62L1.9999999999999996,44" stroke-dasharray="4,3" opacity="0" style="-webkit-tap-highlight-color: rgba(0, 0, 0, 0); opacity: 0;"></path><rect x="1.9999999999999996" y="44" width="0" height="0" r="0" rx="0" ry="0" fill="#ffffff" stroke="#000000" transform="matrix(1,0,0,1,0,0)" style="-webkit-tap-highlight-color: rgba(0, 0, 0, 0);"></rect><rect x="100" y="44" width="0" height="0" r="0" rx="0" ry="0" fill="#ffffff" stroke="#000000" transform="matrix(1,0,0,1,0,0)" style="-webkit-tap-highlight-color: rgba(0, 0, 0, 0);"></rect><rect x="100" y="62" width="0" height="0" r="0" rx="0" ry="0" fill="#ffffff" stroke="#000000" transform="matrix(1,0,0,1,0,0)" style="-webkit-tap-highlight-color: rgba(0, 0, 0, 0);"></rect><rect x="2.0000000000000004" y="62" width="0" height="0" r="0" rx="0" ry="0" fill="#ffffff" stroke="#000000" transform="matrix(1,0,0,1,0,0)" style="-webkit-tap-highlight-color: rgba(0, 0, 0, 0);"></rect><circle cx="51" cy="53" r="0" fill="#ffffff" stroke="#000000" style="-webkit-tap-highlight-color: rgba(0, 0, 0, 0);"></circle><text x="50" y="50" text-anchor="start" font="10px &quot;Arial&quot;" stroke="none" fill="#000000" style="-webkit-tap-highlight-color: rgba(0, 0, 0, 0); text-anchor: start; font-style: normal; font-variant: normal; font-weight: normal; font-size: 15px; line-height: normal; font-family: Georgia; cursor: pointer;" font-size="15px" font-family="Georgia" transform="matrix(1,0,0,1,-48,86)"><tspan style="-webkit-tap-highlight-color: rgba(0, 0, 0, 0);" dy="6">B) a + b + c = odd + odd + odd = odd</tspan><tspan dy="18" x="50" style="-webkit-tap-highlight-color: rgba(0, 0, 0, 0);"></tspan></text><rect x="100" y="80" width="10" height="10" r="0" rx="0" ry="0" fill="#ffffff" stroke="#ffffff" opacity="0" style="-webkit-tap-highlight-color: rgba(0, 0, 0, 0); opacity: 0; cursor: nw-resize;"></rect><path fill="none" stroke="#000000" d="M51,136LNaN,136" stroke-dasharray="4,3" opacity="0" style="-webkit-tap-highlight-color: rgba(0, 0, 0, 0); opacity: 0;"></path><circle cx="NaN" cy="136" r="0" fill="#ffffff" stroke="#000000" style="-webkit-tap-highlight-color: rgba(0, 0, 0, 0);"></circle><path fill="none" stroke="#000000" d="M51,136LNaN,147.7" stroke-dasharray="4,3" opacity="0" style="-webkit-tap-highlight-color: rgba(0, 0, 0, 0); opacity: 0;"></path><circle cx="NaN" cy="147.7" r="0" fill="#ffffff" stroke="#000000" style="-webkit-tap-highlight-color: rgba(0, 0, 0, 0);"></circle><path fill="none" stroke="#000000" d="M1.9999999999999996,127L100,127L100,145L2.0000000000000004,145L1.9999999999999996,127" stroke-dasharray="4,3" opacity="0" style="-webkit-tap-highlight-color: rgba(0, 0, 0, 0); opacity: 0;"></path><rect x="1.9999999999999996" y="127" width="0" height="0" r="0" rx="0" ry="0" fill="#ffffff" stroke="#000000" transform="matrix(1,0,0,1,0,0)" style="-webkit-tap-highlight-color: rgba(0, 0, 0, 0);"></rect><rect x="100" y="127" width="0" height="0" r="0" rx="0" ry="0" fill="#ffffff" stroke="#000000" transform="matrix(1,0,0,1,0,0)" style="-webkit-tap-highlight-color: rgba(0, 0, 0, 0);"></rect><rect x="100" y="145" width="0" height="0" r="0" rx="0" ry="0" fill="#ffffff" stroke="#000000" transform="matrix(1,0,0,1,0,0)" style="-webkit-tap-highlight-color: rgba(0, 0, 0, 0);"></rect><rect x="2.0000000000000004" y="145" width="0" height="0" r="0" rx="0" ry="0" fill="#ffffff" stroke="#000000" transform="matrix(1,0,0,1,0,0)" style="-webkit-tap-highlight-color: rgba(0, 0, 0, 0);"></rect><circle cx="51" cy="136" r="0" fill="#ffffff" stroke="#000000" style="-webkit-tap-highlight-color: rgba(0, 0, 0, 0);"></circle><rect x="200" y="200" width="100" height="100" r="0" rx="0" ry="0" fill="#77bb44" stroke="#000000" fill-opacity="1" stroke-width="0.12531328320802004" style="-webkit-tap-highlight-color: rgba(0, 0, 0, 0); fill-opacity: 1;" transform="matrix(7.98,0,0,0.38,-1594,79)"></rect><text x="50" y="50" text-anchor="start" font="10px &quot;Arial&quot;" stroke="none" fill="#000000" style="-webkit-tap-highlight-color: rgba(0, 0, 0, 0); text-anchor: start; font-style: normal; font-variant: normal; font-weight: normal; font-size: 15px; line-height: normal; font-family: Georgia; cursor: pointer;" font-size="15px" font-family="Georgia" transform="matrix(1,0,0,1,-39,118)"><tspan style="-webkit-tap-highlight-color: rgba(0, 0, 0, 0);" dy="6">Sum or difference of 3 odd numbers is odd</tspan></text><rect x="100" y="80" width="10" height="10" r="0" rx="0" ry="0" fill="#ffffff" stroke="#ffffff" opacity="0" style="-webkit-tap-highlight-color: rgba(0, 0, 0, 0); opacity: 0; cursor: nw-resize;"></rect><text x="50" y="50" text-anchor="start" font="10px &quot;Arial&quot;" stroke="none" fill="#000000" style="-webkit-tap-highlight-color: rgba(0, 0, 0, 0); text-anchor: start; font-style: normal; font-variant: normal; font-weight: normal; font-size: 15px; line-height: normal; font-family: Georgia; cursor: pointer;" font-size="15px" font-family="Georgia" transform="matrix(1,0,0,1,-48,158)"><tspan style="-webkit-tap-highlight-color: rgba(0, 0, 0, 0);" dy="6">C) a + b - c = odd + odd - odd = odd</tspan></text><rect x="100" y="80" width="10" height="10" r="0" rx="0" ry="0" fill="#ffffff" stroke="#ffffff" opacity="0" style="-webkit-tap-highlight-color: rgba(0, 0, 0, 0); opacity: 0; cursor: nw-resize;"></rect><path fill="none" stroke="#000000" d="M51,208LNaN,208" stroke-dasharray="4,3" opacity="0" style="-webkit-tap-highlight-color: rgba(0, 0, 0, 0); opacity: 0;"></path><circle cx="NaN" cy="208" r="0" fill="#ffffff" stroke="#000000" style="-webkit-tap-highlight-color: rgba(0, 0, 0, 0);"></circle><path fill="none" stroke="#000000" d="M51,208LNaN,219.7" stroke-dasharray="4,3" opacity="0" style="-webkit-tap-highlight-color: rgba(0, 0, 0, 0); opacity: 0;"></path><circle cx="NaN" cy="219.7" r="0" fill="#ffffff" stroke="#000000" style="-webkit-tap-highlight-color: rgba(0, 0, 0, 0);"></circle><path fill="none" stroke="#000000" d="M1.9999999999999996,199L100,199L100,217L2.0000000000000004,217L1.9999999999999996,199" stroke-dasharray="4,3" opacity="0" style="-webkit-tap-highlight-color: rgba(0, 0, 0, 0); opacity: 0;"></path><rect x="1.9999999999999996" y="199" width="0" height="0" r="0" rx="0" ry="0" fill="#ffffff" stroke="#000000" transform="matrix(1,0,0,1,0,0)" style="-webkit-tap-highlight-color: rgba(0, 0, 0, 0);"></rect><rect x="100" y="199" width="0" height="0" r="0" rx="0" ry="0" fill="#ffffff" stroke="#000000" transform="matrix(1,0,0,1,0,0)" style="-webkit-tap-highlight-color: rgba(0, 0, 0, 0);"></rect><rect x="100" y="217" width="0" height="0" r="0" rx="0" ry="0" fill="#ffffff" stroke="#000000" transform="matrix(1,0,0,1,0,0)" style="-webkit-tap-highlight-color: rgba(0, 0, 0, 0);"></rect><rect x="2.0000000000000004" y="217" width="0" height="0" r="0" rx="0" ry="0" fill="#ffffff" stroke="#000000" transform="matrix(1,0,0,1,0,0)" style="-webkit-tap-highlight-color: rgba(0, 0, 0, 0);"></rect><circle cx="51" cy="208" r="0" fill="#ffffff" stroke="#000000" style="-webkit-tap-highlight-color: rgba(0, 0, 0, 0);"></circle><rect x="200" y="200" width="100" height="100" r="0" rx="0" ry="0" fill="#77bb44" stroke="#000000" fill-opacity="1" stroke-width="0.12484394506866417" style="-webkit-tap-highlight-color: rgba(0, 0, 0, 0); fill-opacity: 1;" transform="matrix(8.01,0,0,0.43,-1603,135)"></rect><text x="50" y="50" text-anchor="start" font="10px &quot;Arial&quot;" stroke="none" fill="#000000" style="-webkit-tap-highlight-color: rgba(0, 0, 0, 0); text-anchor: start; font-style: normal; font-variant: normal; font-weight: normal; font-size: 15px; line-height: normal; font-family: Georgia; cursor: pointer;" font-size="15px" font-family="Georgia" transform="matrix(1,0,0,1,-48,187)"><tspan style="-webkit-tap-highlight-color: rgba(0, 0, 0, 0);" dy="6">Sum or difference of 3 odd numbers is odd</tspan></text><rect x="100" y="80" width="10" height="10" r="0" rx="0" ry="0" fill="#ffffff" stroke="#ffffff" opacity="0" style="-webkit-tap-highlight-color: rgba(0, 0, 0, 0); opacity: 0; cursor: nw-resize;"></rect><path fill="none" stroke="#000000" d="M51,237LNaN,237" stroke-dasharray="4,3" opacity="0" style="-webkit-tap-highlight-color: rgba(0, 0, 0, 0); opacity: 0;"></path><circle cx="NaN" cy="237" r="0" fill="#ffffff" stroke="#000000" style="-webkit-tap-highlight-color: rgba(0, 0, 0, 0);"></circle><path fill="none" stroke="#000000" d="M51,237LNaN,248.7" stroke-dasharray="4,3" opacity="0" style="-webkit-tap-highlight-color: rgba(0, 0, 0, 0); opacity: 0;"></path><circle cx="NaN" cy="248.7" r="0" fill="#ffffff" stroke="#000000" style="-webkit-tap-highlight-color: rgba(0, 0, 0, 0);"></circle><path fill="none" stroke="#000000" d="M1.9999999999999996,228L100,228L100,246L2.0000000000000004,246L1.9999999999999996,228" stroke-dasharray="4,3" opacity="0" style="-webkit-tap-highlight-color: rgba(0, 0, 0, 0); opacity: 0;"></path><rect x="1.9999999999999996" y="228" width="0" height="0" r="0" rx="0" ry="0" fill="#ffffff" stroke="#000000" transform="matrix(1,0,0,1,0,0)" style="-webkit-tap-highlight-color: rgba(0, 0, 0, 0);"></rect><rect x="100" y="228" width="0" height="0" r="0" rx="0" ry="0" fill="#ffffff" stroke="#000000" transform="matrix(1,0,0,1,0,0)" style="-webkit-tap-highlight-color: rgba(0, 0, 0, 0);"></rect><rect x="100" y="246" width="0" height="0" r="0" rx="0" ry="0" fill="#ffffff" stroke="#000000" transform="matrix(1,0,0,1,0,0)" style="-webkit-tap-highlight-color: rgba(0, 0, 0, 0);"></rect><rect x="2.0000000000000004" y="246" width="0" height="0" r="0" rx="0" ry="0" fill="#ffffff" stroke="#000000" transform="matrix(1,0,0,1,0,0)" style="-webkit-tap-highlight-color: rgba(0, 0, 0, 0);"></rect><circle cx="51" cy="237" r="0" fill="#ffffff" stroke="#000000" style="-webkit-tap-highlight-color: rgba(0, 0, 0, 0);"></circle><text x="50" y="50" text-anchor="start" font="10px &quot;Arial&quot;" stroke="none" fill="#000000" style="-webkit-tap-highlight-color: rgba(0, 0, 0, 0); text-anchor: start; font-style: normal; font-variant: normal; font-weight: normal; font-size: 15px; line-height: normal; font-family: Georgia; cursor: pointer;" font-size="15px" font-family="Georgia" transform="matrix(1,0,0,1,-50,230)"><tspan style="-webkit-tap-highlight-color: rgba(0, 0, 0, 0);" dy="6">D) a(b+c) = odd*(odd+odd) = odd* even = even</tspan></text><rect x="100" y="80" width="10" height="10" r="0" rx="0" ry="0" fill="#ffffff" stroke="#ffffff" opacity="0" style="-webkit-tap-highlight-color: rgba(0, 0, 0, 0); opacity: 0; cursor: nw-resize;"></rect><rect x="200" y="200" width="100" height="100" r="0" rx="0" ry="0" fill="#77bb44" stroke="#000000" fill-opacity="1" stroke-width="0.12468827930174564" style="-webkit-tap-highlight-color: rgba(0, 0, 0, 0); fill-opacity: 1;" transform="matrix(8.02,0,0,0.35,-1604,226)"></rect><text x="50" y="50" text-anchor="start" font="10px &quot;Arial&quot;" stroke="none" fill="#000000" style="-webkit-tap-highlight-color: rgba(0, 0, 0, 0); text-anchor: start; font-style: normal; font-variant: normal; font-weight: normal; font-size: 15px; line-height: normal; font-family: Georgia; cursor: pointer;" font-size="15px" font-family="Georgia" transform="matrix(1,0,0,1,-44,262)"><tspan style="-webkit-tap-highlight-color: rgba(0, 0, 0, 0);" dy="-3">1) Sum of two odd numbers is even </tspan><tspan dy="18" x="50" style="-webkit-tap-highlight-color: rgba(0, 0, 0, 0);">2) Product of an odd number and an even number is even</tspan></text><rect x="100" y="80" width="10" height="10" r="0" rx="0" ry="0" fill="#ffffff" stroke="#ffffff" opacity="0" style="-webkit-tap-highlight-color: rgba(0, 0, 0, 0); opacity: 0; cursor: nw-resize;"></rect><text x="50" y="50" text-anchor="start" font="10px &quot;Arial&quot;" stroke="none" fill="#000000" style="-webkit-tap-highlight-color: rgba(0, 0, 0, 0); text-anchor: start; font-style: normal; font-variant: normal; font-weight: normal; font-size: 15px; line-height: normal; font-family: Georgia; cursor: pointer;" font-size="15px" font-family="Georgia" transform="matrix(1,0,0,1,-49,294)"><tspan style="-webkit-tap-highlight-color: rgba(0, 0, 0, 0);" dy="6">E) a + bc = odd + odd*odd = odd + odd = even</tspan></text><rect x="100" y="80" width="10" height="10" r="0" rx="0" ry="0" fill="#ffffff" stroke="#ffffff" opacity="0" style="-webkit-tap-highlight-color: rgba(0, 0, 0, 0); opacity: 0; cursor: nw-resize;"></rect><rect x="200" y="200" width="100" height="100" r="0" rx="0" ry="0" fill="#77bb44" stroke="#000000" fill-opacity="1" stroke-width="0.125" style="-webkit-tap-highlight-color: rgba(0, 0, 0, 0); fill-opacity: 1;" transform="matrix(8,0,0,0.39,-1600,282)"></rect><text x="50" y="50" text-anchor="start" font="10px &quot;Arial&quot;" stroke="none" fill="#000000" style="-webkit-tap-highlight-color: rgba(0, 0, 0, 0); text-anchor: start; font-style: normal; font-variant: normal; font-weight: normal; font-size: 15px; line-height: normal; font-family: Georgia; cursor: pointer;" font-size="15px" font-family="Georgia" transform="matrix(1,0,0,1,-43,327)"><tspan style="-webkit-tap-highlight-color: rgba(0, 0, 0, 0);" dy="-3">1)Product of two odd numbers is odd</tspan><tspan dy="18" x="50" style="-webkit-tap-highlight-color: rgba(0, 0, 0, 0);">2) Sum of two odd numbers is even</tspan></text><rect x="100" y="80" width="10" height="10" r="0" rx="0" ry="0" fill="#ffffff" stroke="#ffffff" opacity="0" style="-webkit-tap-highlight-color: rgba(0, 0, 0, 0); opacity: 0; cursor: nw-resize;"></rect><path fill="none" stroke="#000000" d="M56,377LNaN,377" stroke-dasharray="4,3" opacity="0" style="-webkit-tap-highlight-color: rgba(0, 0, 0, 0); opacity: 0;"></path><circle cx="NaN" cy="377" r="0" fill="#ffffff" stroke="#000000" style="-webkit-tap-highlight-color: rgba(0, 0, 0, 0);"></circle><path fill="none" stroke="#000000" d="M56,377LNaN,388.7" stroke-dasharray="4,3" opacity="0" style="-webkit-tap-highlight-color: rgba(0, 0, 0, 0); opacity: 0;"></path><circle cx="NaN" cy="388.7" r="0" fill="#ffffff" stroke="#000000" style="-webkit-tap-highlight-color: rgba(0, 0, 0, 0);"></circle><path fill="none" stroke="#000000" d="M6.999999999999999,368L105,368L105,386L7.000000000000001,386L6.999999999999999,368" stroke-dasharray="4,3" opacity="0" style="-webkit-tap-highlight-color: rgba(0, 0, 0, 0); opacity: 0;"></path><rect x="6.999999999999999" y="368" width="0" height="0" r="0" rx="0" ry="0" fill="#ffffff" stroke="#000000" transform="matrix(1,0,0,1,0,0)" style="-webkit-tap-highlight-color: rgba(0, 0, 0, 0);"></rect><rect x="105" y="368" width="0" height="0" r="0" rx="0" ry="0" fill="#ffffff" stroke="#000000" transform="matrix(1,0,0,1,0,0)" style="-webkit-tap-highlight-color: rgba(0, 0, 0, 0);"></rect><rect x="105" y="386" width="0" height="0" r="0" rx="0" ry="0" fill="#ffffff" stroke="#000000" transform="matrix(1,0,0,1,0,0)" style="-webkit-tap-highlight-color: rgba(0, 0, 0, 0);"></rect><rect x="7.000000000000001" y="386" width="0" height="0" r="0" rx="0" ry="0" fill="#ffffff" stroke="#000000" transform="matrix(1,0,0,1,0,0)" style="-webkit-tap-highlight-color: rgba(0, 0, 0, 0);"></rect><circle cx="56" cy="377" r="0" fill="#ffffff" stroke="#000000" style="-webkit-tap-highlight-color: rgba(0, 0, 0, 0);"></circle><path fill="none" stroke="#000000" d="M60,168LNaN,168" stroke-dasharray="4,3" opacity="0" style="-webkit-tap-highlight-color: rgba(0, 0, 0, 0); opacity: 0;"></path><circle cx="NaN" cy="168" r="0" fill="#ffffff" stroke="#000000" style="-webkit-tap-highlight-color: rgba(0, 0, 0, 0);"></circle><path fill="none" stroke="#000000" d="M60,168LNaN,179.7" stroke-dasharray="4,3" opacity="0" style="-webkit-tap-highlight-color: rgba(0, 0, 0, 0); opacity: 0;"></path><circle cx="NaN" cy="179.7" r="0" fill="#ffffff" stroke="#000000" style="-webkit-tap-highlight-color: rgba(0, 0, 0, 0);"></circle><path fill="none" stroke="#000000" d="M11,159L109,159L109,177L11,177L11,159" stroke-dasharray="4,3" opacity="0" style="-webkit-tap-highlight-color: rgba(0, 0, 0, 0); opacity: 0;"></path><rect x="11" y="159" width="0" height="0" r="0" rx="0" ry="0" fill="#ffffff" stroke="#000000" transform="matrix(1,0,0,1,0,0)" style="-webkit-tap-highlight-color: rgba(0, 0, 0, 0);"></rect><rect x="109" y="159" width="0" height="0" r="0" rx="0" ry="0" fill="#ffffff" stroke="#000000" transform="matrix(1,0,0,1,0,0)" style="-webkit-tap-highlight-color: rgba(0, 0, 0, 0);"></rect><rect x="109" y="177" width="0" height="0" r="0" rx="0" ry="0" fill="#ffffff" stroke="#000000" transform="matrix(1,0,0,1,0,0)" style="-webkit-tap-highlight-color: rgba(0, 0, 0, 0);"></rect><rect x="11" y="177" width="0" height="0" r="0" rx="0" ry="0" fill="#ffffff" stroke="#000000" transform="matrix(1,0,0,1,0,0)" style="-webkit-tap-highlight-color: rgba(0, 0, 0, 0);"></rect><circle cx="60" cy="168" r="0" fill="#ffffff" stroke="#000000" style="-webkit-tap-highlight-color: rgba(0, 0, 0, 0);"></circle><path fill="none" stroke="#000000" d="M55,312LNaN,312" stroke-dasharray="4,3" opacity="0" style="-webkit-tap-highlight-color: rgba(0, 0, 0, 0); opacity: 0;"></path><circle cx="NaN" cy="312" r="0" fill="#ffffff" stroke="#000000" style="-webkit-tap-highlight-color: rgba(0, 0, 0, 0);"></circle><path fill="none" stroke="#000000" d="M55,312LNaN,323.7" stroke-dasharray="4,3" opacity="0" style="-webkit-tap-highlight-color: rgba(0, 0, 0, 0); opacity: 0;"></path><circle cx="NaN" cy="323.7" r="0" fill="#ffffff" stroke="#000000" style="-webkit-tap-highlight-color: rgba(0, 0, 0, 0);"></circle><path fill="none" stroke="#000000" d="M5.999999999999999,303L104,303L104,321L6.000000000000001,321L5.999999999999999,303" stroke-dasharray="4,3" opacity="0" style="-webkit-tap-highlight-color: rgba(0, 0, 0, 0); opacity: 0;"></path><rect x="5.999999999999999" y="303" width="0" height="0" r="0" rx="0" ry="0" fill="#ffffff" stroke="#000000" transform="matrix(1,0,0,1,0,0)" style="-webkit-tap-highlight-color: rgba(0, 0, 0, 0);"></rect><rect x="104" y="303" width="0" height="0" r="0" rx="0" ry="0" fill="#ffffff" stroke="#000000" transform="matrix(1,0,0,1,0,0)" style="-webkit-tap-highlight-color: rgba(0, 0, 0, 0);"></rect><rect x="104" y="321" width="0" height="0" r="0" rx="0" ry="0" fill="#ffffff" stroke="#000000" transform="matrix(1,0,0,1,0,0)" style="-webkit-tap-highlight-color: rgba(0, 0, 0, 0);"></rect><rect x="6.000000000000001" y="321" width="0" height="0" r="0" rx="0" ry="0" fill="#ffffff" stroke="#000000" transform="matrix(1,0,0,1,0,0)" style="-webkit-tap-highlight-color: rgba(0, 0, 0, 0);"></rect><circle cx="55" cy="312" r="0" fill="#ffffff" stroke="#000000" style="-webkit-tap-highlight-color: rgba(0, 0, 0, 0);"></circle><text x="50" y="50" text-anchor="start" font="10px &quot;Arial&quot;" stroke="none" fill="#000000" style="-webkit-tap-highlight-color: rgba(0, 0, 0, 0); text-anchor: start; font-style: normal; font-variant: normal; font-weight: normal; font-size: 15px; line-height: normal; font-family: Georgia; cursor: pointer; fill-opacity: 1;" font-size="15px" font-family="Georgia" transform="matrix(1,0,0,1,180,365)" fill-opacity="1"><tspan style="-webkit-tap-highlight-color: rgba(0, 0, 0, 0);" dy="6">Therefore, the answers are D and E</tspan></text><rect x="100" y="80" width="10" height="10" r="0" rx="0" ry="0" fill="#ffffff" stroke="#ffffff" opacity="0" style="-webkit-tap-highlight-color: rgba(0, 0, 0, 0); opacity: 0; cursor: nw-resize;"></rect><rect x="200" y="200" width="100" height="100" r="0" rx="0" ry="0" fill="#77bb44" stroke="#000000" fill-opacity="1" stroke-width="0.12531328320802004" style="-webkit-tap-highlight-color: rgba(0, 0, 0, 0); fill-opacity: 1;" transform="matrix(7.98,0,0,0.69,-1595,307)"></rect><text x="50" y="50" text-anchor="start" font="10px &quot;Arial&quot;" stroke="none" fill="#000000" style="-webkit-tap-highlight-color: rgba(0, 0, 0, 0); text-anchor: start; font-style: normal; font-variant: normal; font-weight: normal; font-size: 15px; line-height: normal; font-family: Georgia; cursor: pointer;" font-size="15px" font-family="Georgia" transform="matrix(1,0,0,1,-41,411)"><tspan style="-webkit-tap-highlight-color: rgba(0, 0, 0, 0);" dy="6">Tip: Substitution is the fastest method. Ex: Substitute a =1, b = 1 and C= 1 and see the magic!!</tspan></text><rect x="100" y="80" width="10" height="10" r="0" rx="0" ry="0" fill="#ffffff" stroke="#ffffff" opacity="0" style="-webkit-tap-highlight-color: rgba(0, 0, 0, 0); opacity: 0; cursor: nw-resize;"></rect><path fill="none" stroke="#000000" d="M58,461LNaN,461" stroke-dasharray="4,3" opacity="0" style="-webkit-tap-highlight-color: rgba(0, 0, 0, 0); opacity: 0;"></path><circle cx="NaN" cy="461" r="0" fill="#ffffff" stroke="#000000" style="-webkit-tap-highlight-color: rgba(0, 0, 0, 0);"></circle><path fill="none" stroke="#000000" d="M58,461LNaN,472.7" stroke-dasharray="4,3" opacity="0" style="-webkit-tap-highlight-color: rgba(0, 0, 0, 0); opacity: 0;"></path><circle cx="NaN" cy="472.7" r="0" fill="#ffffff" stroke="#000000" style="-webkit-tap-highlight-color: rgba(0, 0, 0, 0);"></circle><path fill="none" stroke="#000000" d="M9,452L107,452L107,470L9,470L9,452" stroke-dasharray="4,3" opacity="0" style="-webkit-tap-highlight-color: rgba(0, 0, 0, 0); opacity: 0;"></path><rect x="9" y="452" width="0" height="0" r="0" rx="0" ry="0" fill="#ffffff" stroke="#000000" transform="matrix(1,0,0,1,0,0)" style="-webkit-tap-highlight-color: rgba(0, 0, 0, 0);"></rect><rect x="107" y="452" width="0" height="0" r="0" rx="0" ry="0" fill="#ffffff" stroke="#000000" transform="matrix(1,0,0,1,0,0)" style="-webkit-tap-highlight-color: rgba(0, 0, 0, 0);"></rect><rect x="107" y="470" width="0" height="0" r="0" rx="0" ry="0" fill="#ffffff" stroke="#000000" transform="matrix(1,0,0,1,0,0)" style="-webkit-tap-highlight-color: rgba(0, 0, 0, 0);"></rect><rect x="9" y="470" width="0" height="0" r="0" rx="0" ry="0" fill="#ffffff" stroke="#000000" transform="matrix(1,0,0,1,0,0)" style="-webkit-tap-highlight-color: rgba(0, 0, 0, 0);"></rect><circle cx="58" cy="461" r="0" fill="#ffffff" stroke="#000000" style="-webkit-tap-highlight-color: rgba(0, 0, 0, 0);"></circle><path fill="none" stroke="#000000" d="M400,93.5LNaN,93.5" stroke-dasharray="4,3" opacity="0" style="-webkit-tap-highlight-color: rgba(0, 0, 0, 0); opacity: 0;"></path><circle cx="NaN" cy="93.5" r="0" fill="#ffffff" stroke="#000000" stroke-width="1" style="-webkit-tap-highlight-color: rgba(0, 0, 0, 0);"></circle><path fill="none" stroke="#000000" d="M400,93.5LNaN,122.75" stroke-dasharray="4,3" opacity="0" style="-webkit-tap-highlight-color: rgba(0, 0, 0, 0); opacity: 0;"></path><circle cx="NaN" cy="122.75" r="0" fill="#ffffff" stroke="#000000" stroke-width="1" style="-webkit-tap-highlight-color: rgba(0, 0, 0, 0);"></circle><path fill="none" stroke="#000000" d="M-1.0000000000000013,71L801,71L801,116L-0.9999999999999987,116L-1.0000000000000013,71" stroke-dasharray="4,3" opacity="0" style="-webkit-tap-highlight-color: rgba(0, 0, 0, 0); opacity: 0;"></path><rect x="-1.0000000000000013" y="71" width="0" height="0" r="0" rx="0" ry="0" fill="#ffffff" stroke="#000000" stroke-width="1" transform="matrix(1,0,0,1,0,0)" style="-webkit-tap-highlight-color: rgba(0, 0, 0, 0);"></rect><rect x="801" y="71" width="0" height="0" r="0" rx="0" ry="0" fill="#ffffff" stroke="#000000" stroke-width="1" transform="matrix(1,0,0,1,0,0)" style="-webkit-tap-highlight-color: rgba(0, 0, 0, 0);"></rect><rect x="801" y="116" width="0" height="0" r="0" rx="0" ry="0" fill="#ffffff" stroke="#000000" stroke-width="1" transform="matrix(1,0,0,1,0,0)" style="-webkit-tap-highlight-color: rgba(0, 0, 0, 0);"></rect><rect x="-0.9999999999999987" y="116" width="0" height="0" r="0" rx="0" ry="0" fill="#ffffff" stroke="#000000" stroke-width="1" transform="matrix(1,0,0,1,0,0)" style="-webkit-tap-highlight-color: rgba(0, 0, 0, 0);"></rect><circle cx="400" cy="93.5" r="0" fill="#ffffff" stroke="#000000" stroke-width="1" style="-webkit-tap-highlight-color: rgba(0, 0, 0, 0);"></circle><path fill="none" stroke="#000000" d="M401,174LNaN,174" stroke-dasharray="4,3" opacity="0" style="-webkit-tap-highlight-color: rgba(0, 0, 0, 0); opacity: 0;"></path><circle cx="NaN" cy="174" r="0" fill="#ffffff" stroke="#000000" stroke-width="1" style="-webkit-tap-highlight-color: rgba(0, 0, 0, 0);"></circle><path fill="none" stroke="#000000" d="M401,174LNaN,198.7" stroke-dasharray="4,3" opacity="0" style="-webkit-tap-highlight-color: rgba(0, 0, 0, 0); opacity: 0;"></path><circle cx="NaN" cy="198.7" r="0" fill="#ffffff" stroke="#000000" stroke-width="1" style="-webkit-tap-highlight-color: rgba(0, 0, 0, 0);"></circle><path fill="none" stroke="#000000" d="M1.999999999999999,155L800,155L800,193L2.0000000000000013,193L1.999999999999999,155" stroke-dasharray="4,3" opacity="0" style="-webkit-tap-highlight-color: rgba(0, 0, 0, 0); opacity: 0;"></path><rect x="1.999999999999999" y="155" width="0" height="0" r="0" rx="0" ry="0" fill="#ffffff" stroke="#000000" stroke-width="1" transform="matrix(1,0,0,1,0,0)" style="-webkit-tap-highlight-color: rgba(0, 0, 0, 0);"></rect><rect x="800" y="155" width="0" height="0" r="0" rx="0" ry="0" fill="#ffffff" stroke="#000000" stroke-width="1" transform="matrix(1,0,0,1,0,0)" style="-webkit-tap-highlight-color: rgba(0, 0, 0, 0);"></rect><rect x="800" y="193" width="0" height="0" r="0" rx="0" ry="0" fill="#ffffff" stroke="#000000" stroke-width="1" transform="matrix(1,0,0,1,0,0)" style="-webkit-tap-highlight-color: rgba(0, 0, 0, 0);"></rect><rect x="2.0000000000000013" y="193" width="0" height="0" r="0" rx="0" ry="0" fill="#ffffff" stroke="#000000" stroke-width="1" transform="matrix(1,0,0,1,0,0)" style="-webkit-tap-highlight-color: rgba(0, 0, 0, 0);"></rect><circle cx="401" cy="174" r="0" fill="#ffffff" stroke="#000000" stroke-width="1" style="-webkit-tap-highlight-color: rgba(0, 0, 0, 0);"></circle><path fill="none" stroke="#000000" d="M399.5,242.5LNaN,242.5" stroke-dasharray="4,3" opacity="0" style="-webkit-tap-highlight-color: rgba(0, 0, 0, 0); opacity: 0;"></path><circle cx="NaN" cy="242.5" r="0" fill="#ffffff" stroke="#000000" stroke-width="1" style="-webkit-tap-highlight-color: rgba(0, 0, 0, 0);"></circle><path fill="none" stroke="#000000" d="M399.5,242.5LNaN,270.45" stroke-dasharray="4,3" opacity="0" style="-webkit-tap-highlight-color: rgba(0, 0, 0, 0); opacity: 0;"></path><circle cx="NaN" cy="270.45" r="0" fill="#ffffff" stroke="#000000" stroke-width="1" style="-webkit-tap-highlight-color: rgba(0, 0, 0, 0);"></circle><path fill="none" stroke="#000000" d="M-1.0000000000000013,221L800,221L800,264L-0.9999999999999987,264L-1.0000000000000013,221" stroke-dasharray="4,3" opacity="0" style="-webkit-tap-highlight-color: rgba(0, 0, 0, 0); opacity: 0;"></path><rect x="-1.0000000000000013" y="221" width="0" height="0" r="0" rx="0" ry="0" fill="#ffffff" stroke="#000000" stroke-width="1" transform="matrix(1,0,0,1,0,0)" style="-webkit-tap-highlight-color: rgba(0, 0, 0, 0);"></rect><rect x="800" y="221" width="0" height="0" r="0" rx="0" ry="0" fill="#ffffff" stroke="#000000" stroke-width="1" transform="matrix(1,0,0,1,0,0)" style="-webkit-tap-highlight-color: rgba(0, 0, 0, 0);"></rect><rect x="800" y="264" width="0" height="0" r="0" rx="0" ry="0" fill="#ffffff" stroke="#000000" stroke-width="1" transform="matrix(1,0,0,1,0,0)" style="-webkit-tap-highlight-color: rgba(0, 0, 0, 0);"></rect><rect x="-0.9999999999999987" y="264" width="0" height="0" r="0" rx="0" ry="0" fill="#ffffff" stroke="#000000" stroke-width="1" transform="matrix(1,0,0,1,0,0)" style="-webkit-tap-highlight-color: rgba(0, 0, 0, 0);"></rect><circle cx="399.5" cy="242.5" r="0" fill="#ffffff" stroke="#000000" stroke-width="1" style="-webkit-tap-highlight-color: rgba(0, 0, 0, 0);"></circle><path fill="none" stroke="#000000" d="M401,313.5LNaN,313.5" stroke-dasharray="4,3" opacity="0" style="-webkit-tap-highlight-color: rgba(0, 0, 0, 0); opacity: 0;"></path><circle cx="NaN" cy="313.5" r="0" fill="#ffffff" stroke="#000000" stroke-width="1" style="-webkit-tap-highlight-color: rgba(0, 0, 0, 0);"></circle><path fill="none" stroke="#000000" d="M401,313.5LNaN,336.25" stroke-dasharray="4,3" opacity="0" style="-webkit-tap-highlight-color: rgba(0, 0, 0, 0); opacity: 0;"></path><circle cx="NaN" cy="336.25" r="0" fill="#ffffff" stroke="#000000" stroke-width="1" style="-webkit-tap-highlight-color: rgba(0, 0, 0, 0);"></circle><path fill="none" stroke="#000000" d="M-1.0715305595945801e-15,296L802,296L802,331L1.0715305595945801e-15,331L-1.0715305595945801e-15,296" stroke-dasharray="4,3" opacity="0" style="-webkit-tap-highlight-color: rgba(0, 0, 0, 0); opacity: 0;"></path><rect x="-1.0715305595945801e-15" y="296" width="0" height="0" r="0" rx="0" ry="0" fill="#ffffff" stroke="#000000" stroke-width="1" transform="matrix(1,0,0,1,0,0)" style="-webkit-tap-highlight-color: rgba(0, 0, 0, 0);"></rect><rect x="802" y="296" width="0" height="0" r="0" rx="0" ry="0" fill="#ffffff" stroke="#000000" stroke-width="1" transform="matrix(1,0,0,1,0,0)" style="-webkit-tap-highlight-color: rgba(0, 0, 0, 0);"></rect><rect x="802" y="331" width="0" height="0" r="0" rx="0" ry="0" fill="#ffffff" stroke="#000000" stroke-width="1" transform="matrix(1,0,0,1,0,0)" style="-webkit-tap-highlight-color: rgba(0, 0, 0, 0);"></rect><rect x="1.0715305595945801e-15" y="331" width="0" height="0" r="0" rx="0" ry="0" fill="#ffffff" stroke="#000000" stroke-width="1" transform="matrix(1,0,0,1,0,0)" style="-webkit-tap-highlight-color: rgba(0, 0, 0, 0);"></rect><circle cx="401" cy="313.5" r="0" fill="#ffffff" stroke="#000000" stroke-width="1" style="-webkit-tap-highlight-color: rgba(0, 0, 0, 0);"></circle><path fill="none" stroke="#000000" d="M400,379.5LNaN,379.5" stroke-dasharray="4,3" opacity="0" style="-webkit-tap-highlight-color: rgba(0, 0, 0, 0); opacity: 0;"></path><circle cx="NaN" cy="379.5" r="0" fill="#ffffff" stroke="#000000" stroke-width="1" style="-webkit-tap-highlight-color: rgba(0, 0, 0, 0);"></circle><path fill="none" stroke="#000000" d="M400,379.5LNaN,404.85" stroke-dasharray="4,3" opacity="0" style="-webkit-tap-highlight-color: rgba(0, 0, 0, 0); opacity: 0;"></path><circle cx="NaN" cy="404.85" r="0" fill="#ffffff" stroke="#000000" stroke-width="1" style="-webkit-tap-highlight-color: rgba(0, 0, 0, 0);"></circle><path fill="none" stroke="#000000" d="M-1.1939911949768178e-15,360L800,360L800,399L1.1939911949768178e-15,399L-1.1939911949768178e-15,360" stroke-dasharray="4,3" opacity="0" style="-webkit-tap-highlight-color: rgba(0, 0, 0, 0); opacity: 0;"></path><rect x="-1.1939911949768178e-15" y="360" width="0" height="0" r="0" rx="0" ry="0" fill="#ffffff" stroke="#000000" stroke-width="1" transform="matrix(1,0,0,1,0,0)" style="-webkit-tap-highlight-color: rgba(0, 0, 0, 0);"></rect><rect x="800" y="360" width="0" height="0" r="0" rx="0" ry="0" fill="#ffffff" stroke="#000000" stroke-width="1" transform="matrix(1,0,0,1,0,0)" style="-webkit-tap-highlight-color: rgba(0, 0, 0, 0);"></rect><rect x="800" y="399" width="0" height="0" r="0" rx="0" ry="0" fill="#ffffff" stroke="#000000" stroke-width="1" transform="matrix(1,0,0,1,0,0)" style="-webkit-tap-highlight-color: rgba(0, 0, 0, 0);"></rect><rect x="1.1939911949768178e-15" y="399" width="0" height="0" r="0" rx="0" ry="0" fill="#ffffff" stroke="#000000" stroke-width="1" transform="matrix(1,0,0,1,0,0)" style="-webkit-tap-highlight-color: rgba(0, 0, 0, 0);"></rect><circle cx="400" cy="379.5" r="0" fill="#ffffff" stroke="#000000" stroke-width="1" style="-webkit-tap-highlight-color: rgba(0, 0, 0, 0);"></circle><path fill="none" stroke="#000000" d="M400,479.5LNaN,479.5" stroke-dasharray="4,3" opacity="0" style="-webkit-tap-highlight-color: rgba(0, 0, 0, 0); opacity: 0;"></path><circle cx="NaN" cy="479.5" r="0" fill="#ffffff" stroke="#000000" stroke-width="1" style="-webkit-tap-highlight-color: rgba(0, 0, 0, 0);"></circle><path fill="none" stroke="#000000" d="M400,479.5LNaN,509" stroke-dasharray="4,3" opacity="0" style="-webkit-tap-highlight-color: rgba(0, 0, 0, 0); opacity: 0;"></path><circle cx="NaN" cy="509" r="0" fill="#ffffff" stroke="#000000" stroke-width="1" style="-webkit-tap-highlight-color: rgba(0, 0, 0, 0);"></circle><path fill="none" stroke="#000000" d="M0.9999999999999979,445L799,445L799,514L1.0000000000000022,514L0.9999999999999979,445" stroke-dasharray="4,3" opacity="0" style="-webkit-tap-highlight-color: rgba(0, 0, 0, 0); opacity: 0;"></path><rect x="-3.000000000000002" y="441" width="8" height="8" r="0" rx="0" ry="0" fill="#ffffff" stroke="#000000" stroke-width="1" transform="matrix(1,0,0,1,0,0)" style="-webkit-tap-highlight-color: rgba(0, 0, 0, 0);"></rect><rect x="795" y="441" width="8" height="8" r="0" rx="0" ry="0" fill="#ffffff" stroke="#000000" stroke-width="1" transform="matrix(1,0,0,1,0,0)" style="-webkit-tap-highlight-color: rgba(0, 0, 0, 0);"></rect><rect x="795" y="510" width="8" height="8" r="0" rx="0" ry="0" fill="#ffffff" stroke="#000000" stroke-width="1" transform="matrix(1,0,0,1,0,0)" style="-webkit-tap-highlight-color: rgba(0, 0, 0, 0);"></rect><rect x="-2.999999999999998" y="510" width="8" height="8" r="0" rx="0" ry="0" fill="#ffffff" stroke="#000000" stroke-width="1" transform="matrix(1,0,0,1,0,0)" style="-webkit-tap-highlight-color: rgba(0, 0, 0, 0);"></rect><circle cx="400" cy="479.5" r="0" fill="#ffffff" stroke="#000000" stroke-width="1" style="-webkit-tap-highlight-color: rgba(0, 0, 0, 0);"></circle><path fill="none" stroke="#000000" d="M279,415LNaN,415" stroke-dasharray="4,3" opacity="0" style="-webkit-tap-highlight-color: rgba(0, 0, 0, 0); opacity: 0;"></path><circle cx="NaN" cy="415" r="0" fill="#ffffff" stroke="#000000" style="-webkit-tap-highlight-color: rgba(0, 0, 0, 0);"></circle><path fill="none" stroke="#000000" d="M279,415LNaN,426.7" stroke-dasharray="4,3" opacity="0" style="-webkit-tap-highlight-color: rgba(0, 0, 0, 0); opacity: 0;"></path><circle cx="NaN" cy="426.7" r="0" fill="#ffffff" stroke="#000000" style="-webkit-tap-highlight-color: rgba(0, 0, 0, 0);"></circle><path fill="none" stroke="#000000" d="M230,406L328,406L328,424L230,424L230,406" stroke-dasharray="4,3" opacity="0" style="-webkit-tap-highlight-color: rgba(0, 0, 0, 0); opacity: 0;"></path><rect x="230" y="406" width="0" height="0" r="0" rx="0" ry="0" fill="#ffffff" stroke="#000000" transform="matrix(1,0,0,1,0,0)" style="-webkit-tap-highlight-color: rgba(0, 0, 0, 0);"></rect><rect x="328" y="406" width="0" height="0" r="0" rx="0" ry="0" fill="#ffffff" stroke="#000000" transform="matrix(1,0,0,1,0,0)" style="-webkit-tap-highlight-color: rgba(0, 0, 0, 0);"></rect><rect x="328" y="424" width="0" height="0" r="0" rx="0" ry="0" fill="#ffffff" stroke="#000000" transform="matrix(1,0,0,1,0,0)" style="-webkit-tap-highlight-color: rgba(0, 0, 0, 0);"></rect><rect x="230" y="424" width="0" height="0" r="0" rx="0" ry="0" fill="#ffffff" stroke="#000000" transform="matrix(1,0,0,1,0,0)" style="-webkit-tap-highlight-color: rgba(0, 0, 0, 0);"></rect><circle cx="279" cy="415" r="0" fill="#ffffff" stroke="#000000" style="-webkit-tap-highlight-color: rgba(0, 0, 0, 0);"></circle><path fill="none" stroke="#000000" d="M50,344LNaN,344" stroke-dasharray="4,3" opacity="0" style="-webkit-tap-highlight-color: rgba(0, 0, 0, 0); opacity: 0;"></path><circle cx="NaN" cy="344" r="0" fill="#ffffff" stroke="#000000" style="-webkit-tap-highlight-color: rgba(0, 0, 0, 0);"></circle><path fill="none" stroke="#000000" d="M50,344LNaN,355.7" stroke-dasharray="4,3" opacity="0" style="-webkit-tap-highlight-color: rgba(0, 0, 0, 0); opacity: 0;"></path><circle cx="NaN" cy="355.7" r="0" fill="#ffffff" stroke="#000000" style="-webkit-tap-highlight-color: rgba(0, 0, 0, 0);"></circle><path fill="none" stroke="#000000" d="M0.9999999999999994,335L99,335L99,353L1.0000000000000004,353L0.9999999999999994,335" stroke-dasharray="4,3" opacity="0" style="-webkit-tap-highlight-color: rgba(0, 0, 0, 0); opacity: 0;"></path><rect x="0.9999999999999994" y="335" width="0" height="0" r="0" rx="0" ry="0" fill="#ffffff" stroke="#000000" transform="matrix(1,0,0,1,0,0)" style="-webkit-tap-highlight-color: rgba(0, 0, 0, 0);"></rect><rect x="99" y="335" width="0" height="0" r="0" rx="0" ry="0" fill="#ffffff" stroke="#000000" transform="matrix(1,0,0,1,0,0)" style="-webkit-tap-highlight-color: rgba(0, 0, 0, 0);"></rect><rect x="99" y="353" width="0" height="0" r="0" rx="0" ry="0" fill="#ffffff" stroke="#000000" transform="matrix(1,0,0,1,0,0)" style="-webkit-tap-highlight-color: rgba(0, 0, 0, 0);"></rect><rect x="1.0000000000000004" y="353" width="0" height="0" r="0" rx="0" ry="0" fill="#ffffff" stroke="#000000" transform="matrix(1,0,0,1,0,0)" style="-webkit-tap-highlight-color: rgba(0, 0, 0, 0);"></rect><circle cx="50" cy="344" r="0" fill="#ffffff" stroke="#000000" style="-webkit-tap-highlight-color: rgba(0, 0, 0, 0);"></circle><path fill="none" stroke="#000000" d="M49,280LNaN,280" stroke-dasharray="4,3" opacity="0" style="-webkit-tap-highlight-color: rgba(0, 0, 0, 0); opacity: 0;"></path><circle cx="NaN" cy="280" r="0" fill="#ffffff" stroke="#000000" style="-webkit-tap-highlight-color: rgba(0, 0, 0, 0);"></circle><path fill="none" stroke="#000000" d="M49,280LNaN,291.7" stroke-dasharray="4,3" opacity="0" style="-webkit-tap-highlight-color: rgba(0, 0, 0, 0); opacity: 0;"></path><circle cx="NaN" cy="291.7" r="0" fill="#ffffff" stroke="#000000" style="-webkit-tap-highlight-color: rgba(0, 0, 0, 0);"></circle><path fill="none" stroke="#000000" d="M-5.510728592200698e-16,271L98,271L98,289L5.510728592200698e-16,289L-5.510728592200698e-16,271" stroke-dasharray="4,3" opacity="0" style="-webkit-tap-highlight-color: rgba(0, 0, 0, 0); opacity: 0;"></path><rect x="-5.510728592200698e-16" y="271" width="0" height="0" r="0" rx="0" ry="0" fill="#ffffff" stroke="#000000" transform="matrix(1,0,0,1,0,0)" style="-webkit-tap-highlight-color: rgba(0, 0, 0, 0);"></rect><rect x="98" y="271" width="0" height="0" r="0" rx="0" ry="0" fill="#ffffff" stroke="#000000" transform="matrix(1,0,0,1,0,0)" style="-webkit-tap-highlight-color: rgba(0, 0, 0, 0);"></rect><rect x="98" y="289" width="0" height="0" r="0" rx="0" ry="0" fill="#ffffff" stroke="#000000" transform="matrix(1,0,0,1,0,0)" style="-webkit-tap-highlight-color: rgba(0, 0, 0, 0);"></rect><rect x="5.510728592200698e-16" y="289" width="0" height="0" r="0" rx="0" ry="0" fill="#ffffff" stroke="#000000" transform="matrix(1,0,0,1,0,0)" style="-webkit-tap-highlight-color: rgba(0, 0, 0, 0);"></rect><circle cx="49" cy="280" r="0" fill="#ffffff" stroke="#000000" style="-webkit-tap-highlight-color: rgba(0, 0, 0, 0);"></circle></svg>
