<svg height="124" version="1.1" width="100%" xmlns="http://www.w3.org/2000/svg" xml:space="preserve" style="overflow: hidden; position: relative;"><rect x="0" y="0" width="100%" height="100%" r="0" rx="0" ry="0" fill="#ffffff" stroke="#eeeeee" stroke-width="1" style="-webkit-tap-highlight-color: rgba(0, 0, 0, 0);"></rect><desc style="-webkit-tap-highlight-color: rgba(0, 0, 0, 0);">Created with Raphaël 2.1.0</desc><defs style="-webkit-tap-highlight-color: rgba(0, 0, 0, 0);"></defs><path fill="none" stroke="#000000" d="M677,24L676,24L675,24L674,24L674,25L673,25L672,25L672,26L671,26L670,26L670,27L669,27L668,27L668,28L668,29L667,29L667,30L666,30L665,30L665,31L664,32L664,33L664,34L663,34L663,35L663,36L662,36L662,37L661,37L660,37L660,38L660,39L660,40L659,40L659,41L658,41L658,42L658,43L658,44L658,45L657,45L657,46L657,47L657,48L657,49L657,50L657,51L656,51L656,52L656,53L656,54L656,55L656,56L656,57L656,58L656,59L656,60L656,61L657,61L657,62L657,63L657,64L658,65L658,66L658,67L658,68L658,69L658,70L659,70L659,71L659,72L659,73L660,74L660,75L660,76L661,76L662,76L662,77L663,78L663,79L664,80L664,81L664,82L665,82L666,82L666,83L666,84L667,84L667,85L667,86L668,86L669,87L669,88L670,88L670,89L671,89L671,90L672,90L673,90L673,91L674,91L674,92L675,92L675,93L676,93L676,94L677,94L677,95L678,95L678,96L679,96L680,96L681,96L681,97L682,97L683,97L684,97L685,97L685,98L686,98L687,98L688,98L688,99L689,100L690,100L690,101L691,101L692,101L693,101L694,101L695,101L695,102L696,102L697,102L698,102L699,102L700,102L701,102L702,102L703,102L704,102L705,102L706,102L707,102L708,102L708,103L709,103L710,103L711,103L712,102L713,102L714,102L715,102L715,101L716,101L717,101L717,100L718,99L719,99L720,99L721,98L722,98L723,98L723,97L724,97L725,97L725,96L726,96L726,95L727,95L727,94L728,94L729,94L729,93L730,92L731,91L732,91L733,91L733,90L733,89L734,88L734,87L735,87L735,86L736,86L736,85L738,84L738,83L739,83L740,82L740,81L741,81L741,80L742,80L742,79L742,78L742,77L743,77L744,77L744,76L744,75L744,74L744,73L745,73L745,72L745,71L745,70L746,70L746,69L747,69L747,68L747,67L747,66L747,65L748,64L748,63L748,62L748,61L748,60L748,59L748,58L749,57L749,56L749,55L749,54L749,53L749,52L749,51L749,50L749,49L749,48L749,47L749,46L749,45L749,44L749,43L749,42L749,41L748,41L748,40L748,39L747,39L746,39L746,38L745,37L745,36L744,36L743,36L743,35L742,34L742,33L741,33L741,32L741,31L740,31L740,30L740,29L739,29L739,28L739,27L738,27L738,26L737,26L736,25L735,25L734,24L734,23L732,23L732,22L731,22L731,21L730,21L730,20L729,20L728,20L728,19L727,18L726,18L725,18L725,17L724,17L724,16L723,15L723,14L722,14L721,14L720,14L719,14L718,14L717,14L716,14L714,14L713,14L712,14L711,14L710,13L709,13L708,13L707,13L706,13L705,13L704,13L703,13L702,13L701,13L700,13L699,13L698,13L697,13L696,13L695,13L694,13L693,13L692,13L690,13L689,13L688,13L687,13L686,13L685,13L684,14L683,14L682,14L682,15L682,16L681,16L680,17L679,17L679,18L678,19L678,20L677,21L676,21L676,22L675,22L675,23L674,23L674,23L673,24L672,24L672,24L671,25L671,25L671,25L671,25L669,28" stroke-width="1" style="-webkit-tap-highlight-color: rgba(0, 0, 0, 0);"></path><path fill="none" stroke="#000000" d="M663,32L663,32L665,32L666,32L667,32L668,32L669,32L670,32L671,32L672,32L673,32L674,32L675,32L676,32L677,32L678,33L679,33L680,33L681,33L681,34L682,34L683,34L684,34L685,34L686,34L687,34L688,34L689,34L690,34L691,34L692,34L693,34L694,34L695,34L697,34L698,34L699,34L701,34L703,34L704,34L706,34L708,34L709,34L710,34L711,34L712,34L713,34L714,34L715,34L716,34L717,34L718,34L720,34L721,34L722,34L723,34L724,34L725,34L726,34L727,33L728,33L729,33L730,33L731,33L732,33L733,33L734,33L735,33L736,33L737,33L737,32L738,32L739,32L740,32L740,32L742,32" stroke-width="1" style="-webkit-tap-highlight-color: rgba(0, 0, 0, 0);"></path><path fill="none" stroke="#000000" d="M664,31L664,31L664,31L664,31L664,35L664,36L664,37L664,38L664,39L664,40L664,41L664,42L664,43L664,44L664,45L664,46L664,47L664,48L663,48L663,49L663,50L663,51L663,52L663,53L663,54L662,54L662,55L662,56L662,57L662,58L662,59L662,60L662,61L662,62L662,63L662,64L662,65L662,66L662,67L662,68L662,69L662,70L662,71L662,72L662,73L662,74L662,75L662,75" stroke-width="1" style="-webkit-tap-highlight-color: rgba(0, 0, 0, 0);"></path><path fill="none" stroke="#000000" d="M661,71L661,71L664,71L664,70L665,70L666,70L667,70L668,70L669,70L670,70L671,70L671,71L672,71L673,71L673,72L674,72L675,72L676,72L677,72L679,72L681,72L682,72L684,72L685,72L686,72L687,72L690,72L692,72L696,72L697,72L698,72L699,72L700,72L701,72L703,72L704,72L704,73L705,73L706,73L707,73L708,73L709,73L710,73L711,73L712,73L713,73L714,73L715,73L716,73L718,73L719,73L720,73L721,73L722,73L723,73L724,73L725,73L727,73L728,73L729,73L730,73L731,73L731,74L732,74L733,74L733,75L734,75L735,75L736,75L737,75L738,75L738,76L739,76L740,76L741,76L742,76L743,76L746,71" stroke-width="1" style="-webkit-tap-highlight-color: rgba(0, 0, 0, 0);"></path><path fill="none" stroke="#000000" d="M738,31L738,31L738,33L738,34L738,35L738,36L738,37L738,38L738,39L738,40L738,41L738,42L738,43L738,44L739,44L739,45L739,46L739,47L739,48L739,49L740,50L740,51L740,52L740,53L740,54L740,55L740,56L740,57L740,58L740,59L740,60L740,61L740,62L740,63L740,64L740,65L740,66L740,67L740,68L740,69L740,70L740,71L740,72L740,73L740,74" stroke-width="1" style="-webkit-tap-highlight-color: rgba(0, 0, 0, 0);"></path><path fill="none" stroke="#000000" d="M663,33L663,33L663,33L665,34L666,34L667,34L668,34L669,34L670,34L672,34L673,35L674,36L675,36L676,36L677,36L678,36L678,37L679,37L680,37L681,38L682,38L683,38L683,39L684,39L684,40L685,41L688,45L690,48L692,49L692,50L693,51L695,51L696,52L698,53L699,53L700,54L701,55L701,56L702,56L703,56L704,57L705,57L707,57L708,57L709,58L709,59L710,59L711,60L712,60L713,61L714,61L715,61L716,61L717,61L718,62L719,62L720,63L722,63L723,63L724,63L725,63L725,64L726,64L727,64L728,65L729,65L729,66L732,66L733,67L734,67L735,68L736,70L736,71L736,72L736,73L737,73L738,73L739,73" stroke-width="1" style="-webkit-tap-highlight-color: rgba(0, 0, 0, 0);"></path><path fill="none" stroke="#000000" d="M657,69L659,68L659,67L660,67L661,67L661,66L661,66L663,66L664,66L664,65L665,65L666,64L666,63L667,63L668,63L668,62L669,62L670,62L672,61L673,61L673,60L674,60L675,59L676,59L677,59L677,58L678,58L679,57L679,56L681,56L682,56L685,55L686,55L688,53L689,53L690,52L691,52L692,52L692,51L692,51L693,50L694,50L695,50L696,50L697,50L697,49L698,49L700,48L702,47L704,47L706,47L707,47L708,46L709,46L710,46L711,46L712,46L712,45L713,45L713,44L714,44L715,44L716,44L717,44L718,44L718,43L719,43L720,43L721,43L722,43L722,42L723,42L723,41L724,41L724,40L725,40L725,39L726,39L727,39L728,39L728,38L729,38L729,37L730,37L730,36L731,36L732,36L733,35L734,35L735,34L735,34L735,34L736,32L736,32L737,31L737,31L739,31" stroke-width="1" style="-webkit-tap-highlight-color: rgba(0, 0, 0, 0);"></path><path fill="none" stroke="#000000" d="M692,47L691,47L691,47L692,48L693,48L693,48L693,48L693,48L693,48L694,48L695,48L694,49L693,49L693,49L693,49L691,50L691,51L691,51L691,51L691,51L691,51L691,51L691,51L691,51" stroke-width="1" style="-webkit-tap-highlight-color: rgba(0, 0, 0, 0);"></path><text x="50" y="50" text-anchor="start" font="10px &quot;Arial&quot;" stroke="none" fill="#000000" font-size="13px" font-family="verdana" transform="matrix(1,0,0,1,-39,7)" style="-webkit-tap-highlight-color: rgba(0, 0, 0, 0); text-anchor: start; font-style: normal; font-variant: normal; font-weight: normal; font-size: 13px; line-height: normal; font-family: verdana; cursor: pointer;"><tspan dy="-34" style="-webkit-tap-highlight-color: rgba(0, 0, 0, 0); white-space: pre; line-height: 10;">Theory: For a rectangle inscribed in a circle, </tspan><tspan dy="15.6" x="50" style="-webkit-tap-highlight-color: rgba(0, 0, 0, 0); white-space: pre; line-height: 10;">the center of the circle is the same as the intersection point of diagonals of the rectangle </tspan><tspan dy="15.6" x="50" style="-webkit-tap-highlight-color: rgba(0, 0, 0, 0); white-space: pre; line-height: 10;">=&gt; length of diagonal of the circle = length of the diameter of the circle</tspan><tspan dy="15.6" x="50" style="-webkit-tap-highlight-color: rgba(0, 0, 0, 0); white-space: pre; line-height: 10;">=&gt;length of the diagonal = square root(3^2 + 4^2) = sqrt(25) = 5</tspan><tspan dy="15.6" x="50" style="-webkit-tap-highlight-color: rgba(0, 0, 0, 0); white-space: pre; line-height: 10;">=&gt; circumference of the circle = 2*pi*radius = pi *diameter   (diameter = 2*radius)</tspan><tspan dy="15.6" x="50" style="-webkit-tap-highlight-color: rgba(0, 0, 0, 0); white-space: pre; line-height: 10;">                                         =5pi</tspan></text><rect x="100" y="80" width="10" height="10" r="0" rx="0" ry="0" fill="#77bb44" stroke="#77bb44" opacity="0" style="-webkit-tap-highlight-color: rgba(0, 0, 0, 0); opacity: 0; cursor: nw-resize;"></rect><path fill="none" stroke="#000000" d="M59.5,57L122.55000000000001,57" stroke-dasharray="1,3" opacity="0" style="-webkit-tap-highlight-color: rgba(0, 0, 0, 0); opacity: 0;"></path><circle cx="122.55000000000001" cy="57" r="0" fill="#ffffff" stroke="#000000" style="-webkit-tap-highlight-color: rgba(0, 0, 0, 0);"></circle><path fill="none" stroke="#000000" d="M59.5,57L59.5,67.4" stroke-dasharray="1,3" opacity="0" style="-webkit-tap-highlight-color: rgba(0, 0, 0, 0); opacity: 0;"></path><circle cx="59.5" cy="67.4" r="0" fill="#ffffff" stroke="#000000" style="-webkit-tap-highlight-color: rgba(0, 0, 0, 0);"></circle><circle cx="-0.5" cy="47" r="0" fill="#ffffff" stroke="#000000" style="-webkit-tap-highlight-color: rgba(0, 0, 0, 0);"></circle></svg>
