<svg style="overflow: hidden; position: relative;" height="500" version="1.1" width="1050" xmlns="http://www.w3.org/2000/svg"><rect style="-webkit-tap-highlight-color: rgba(0, 0, 0, 0);" x="0" y="0" width="100%" height="100%" r="0" rx="0" ry="0" fill="#c80000" stroke="#eeeeee" stroke-width="1"></rect><desc style="-webkit-tap-highlight-color: rgba(0, 0, 0, 0);">Created with Raphaël 2.1.0</desc><defs style="-webkit-tap-highlight-color: rgba(0, 0, 0, 0);"></defs><text style="-webkit-tap-highlight-color: rgba(0, 0, 0, 0); text-anchor: middle; font-style: normal; font-variant: normal; font-weight: normal; font-size: 15px; line-height: normal; font-family: Verdana; cursor: pointer;" x="400" y="100" text-anchor="middle" font="10px &quot;Arial&quot;" stroke="none" fill="#ffffff" font-size="15px" font-family="Verdana" transform="matrix(1,0,0,1,-5,-45)"><tspan style="-webkit-tap-highlight-color: rgba(0, 0, 0, 0);" dy="6">the probabilty that the jelly bean will be neither green nor orange will be  1 - 24/80 = 0.8</tspan></text><rect style="-webkit-tap-highlight-color: rgba(0, 0, 0, 0); opacity: 0; cursor: nw-resize;" x="100" y="80" width="10" height="10" r="0" rx="0" ry="0" fill="#77bb44" stroke="#77bb44" opacity="0"></rect><path style="-webkit-tap-highlight-color: rgba(0, 0, 0, 0); opacity: 0;" fill="none" stroke="#000000" d="M395,55L809.7,55" stroke-dasharray="4,3" opacity="0"></path><circle style="-webkit-tap-highlight-color: rgba(0, 0, 0, 0);" cx="809.7" cy="55" r="0" fill="#ffffff" stroke="#000000"></circle><path style="-webkit-tap-highlight-color: rgba(0, 0, 0, 0); opacity: 0;" fill="none" stroke="#000000" d="M395,55L395,64.1" stroke-dasharray="4,3" opacity="0"></path><circle style="-webkit-tap-highlight-color: rgba(0, 0, 0, 0);" cx="395" cy="64.1" r="0" fill="#ffffff" stroke="#000000"></circle><path style="-webkit-tap-highlight-color: rgba(0, 0, 0, 0); opacity: 0;" fill="none" stroke="#000000" d="M76,48L714,48L714,62L76,62L76,48" stroke-dasharray="4,3" opacity="0"></path><rect style="-webkit-tap-highlight-color: rgba(0, 0, 0, 0);" x="76" y="48" width="0" height="0" r="0" rx="0" ry="0" fill="#ffffff" stroke="#000000" transform="matrix(1,0,0,1,0,0)"></rect><rect style="-webkit-tap-highlight-color: rgba(0, 0, 0, 0);" x="714" y="48" width="0" height="0" r="0" rx="0" ry="0" fill="#ffffff" stroke="#000000" transform="matrix(1,0,0,1,0,0)"></rect><rect style="-webkit-tap-highlight-color: rgba(0, 0, 0, 0);" x="714" y="62" width="0" height="0" r="0" rx="0" ry="0" fill="#ffffff" stroke="#000000" transform="matrix(1,0,0,1,0,0)"></rect><rect style="-webkit-tap-highlight-color: rgba(0, 0, 0, 0);" x="76" y="62" width="0" height="0" r="0" rx="0" ry="0" fill="#ffffff" stroke="#000000" transform="matrix(1,0,0,1,0,0)"></rect><circle style="-webkit-tap-highlight-color: rgba(0, 0, 0, 0);" cx="395" cy="55" r="0" fill="#ffffff" stroke="#000000"></circle></svg>
