<svg style="overflow: hidden; position: relative;" height="500" version="1.1" width="100%" xmlns="http://www.w3.org/2000/svg"><rect style="-webkit-tap-highlight-color: rgba(0, 0, 0, 0);" x="0" y="0" width="100%" height="100%" r="0" rx="0" ry="0" fill="#3b5998" stroke="#eeeeee" stroke-width="1"></rect><desc style="-webkit-tap-highlight-color: rgba(0, 0, 0, 0);">Created with Raphaël 2.1.0</desc><defs style="-webkit-tap-highlight-color: rgba(0, 0, 0, 0);"></defs><text style="-webkit-tap-highlight-color: rgba(0, 0, 0, 0); text-anchor: middle; font-style: normal; font-variant: normal; font-weight: normal; font-size: 12px; line-height: normal; font-family: Verdana, Helvetica, sans-serif; cursor: pointer;" x="400" y="100" text-anchor="middle" font="10px &quot;Arial&quot;" stroke="none" fill="#000000" font-size="12px" font-family="Verdana, Helvetica, sans-serif" transform="matrix(1,0,0,1,10,39)"><tspan style="-webkit-tap-highlight-color: rgba(0, 0, 0, 0);" dy="5">Sreesanth to Chand, OUT, Chand's been bowled again, Sreesanth celebrates, Chand caught </tspan></text><rect style="-webkit-tap-highlight-color: rgba(0, 0, 0, 0); opacity: 0; cursor: nw-resize;" x="100" y="80" width="10" height="10" r="0" rx="0" ry="0" fill="#77bb44" stroke="#77bb44" opacity="0"></rect><path style="-webkit-tap-highlight-color: rgba(0, 0, 0, 0); opacity: 0;" fill="none" stroke="#000000" d="M410,139LNaN,139" stroke-dasharray="4,3" opacity="0"></path><circle style="-webkit-tap-highlight-color: rgba(0, 0, 0, 0);" cx="NaN" cy="139" r="0" fill="#ffffff" stroke="#000000"></circle><path style="-webkit-tap-highlight-color: rgba(0, 0, 0, 0); opacity: 0;" fill="none" stroke="#000000" d="M410,139LNaN,148.1" stroke-dasharray="4,3" opacity="0"></path><circle style="-webkit-tap-highlight-color: rgba(0, 0, 0, 0);" cx="NaN" cy="148.1" r="0" fill="#ffffff" stroke="#000000"></circle><path style="-webkit-tap-highlight-color: rgba(0, 0, 0, 0); opacity: 0;" fill="none" stroke="#000000" d="M80,132L740,132L740,146L80,146L80,132" stroke-dasharray="4,3" opacity="0"></path><rect style="-webkit-tap-highlight-color: rgba(0, 0, 0, 0);" x="80" y="132" width="0" height="0" r="0" rx="0" ry="0" fill="#ffffff" stroke="#000000" transform="matrix(1,0,0,1,0,0)"></rect><rect style="-webkit-tap-highlight-color: rgba(0, 0, 0, 0);" x="740" y="132" width="0" height="0" r="0" rx="0" ry="0" fill="#ffffff" stroke="#000000" transform="matrix(1,0,0,1,0,0)"></rect><rect style="-webkit-tap-highlight-color: rgba(0, 0, 0, 0);" x="740" y="146" width="0" height="0" r="0" rx="0" ry="0" fill="#ffffff" stroke="#000000" transform="matrix(1,0,0,1,0,0)"></rect><rect style="-webkit-tap-highlight-color: rgba(0, 0, 0, 0);" x="80" y="146" width="0" height="0" r="0" rx="0" ry="0" fill="#ffffff" stroke="#000000" transform="matrix(1,0,0,1,0,0)"></rect><circle style="-webkit-tap-highlight-color: rgba(0, 0, 0, 0);" cx="410" cy="139" r="0" fill="#ffffff" stroke="#000000"></circle><text style="-webkit-tap-highlight-color: rgba(0, 0, 0, 0); text-anchor: middle; font-style: normal; font-variant: normal; font-weight: normal; font-size: 12px; line-height: normal; font-family: Verdana, Helvetica, sans-serif; cursor: pointer;" x="400" y="100" text-anchor="middle" font="10px &quot;Arial&quot;" stroke="none" fill="#000000" font-size="12px" font-family="Verdana, Helvetica, sans-serif" transform="matrix(1,0,0,1,-48,66)"><tspan style="-webkit-tap-highlight-color: rgba(0, 0, 0, 0);" dy="5">on the crease to one that nips in from a length, has his stumps uprooted</tspan></text><rect style="-webkit-tap-highlight-color: rgba(0, 0, 0, 0); opacity: 0; cursor: nw-resize;" x="100" y="80" width="10" height="10" r="0" rx="0" ry="0" fill="#77bb44" stroke="#77bb44" opacity="0"></rect><path style="-webkit-tap-highlight-color: rgba(0, 0, 0, 0); opacity: 0;" fill="none" stroke="#000000" d="M352,166LNaN,166" stroke-dasharray="4,3" opacity="0"></path><circle style="-webkit-tap-highlight-color: rgba(0, 0, 0, 0);" cx="NaN" cy="166" r="0" fill="#ffffff" stroke="#000000"></circle><path style="-webkit-tap-highlight-color: rgba(0, 0, 0, 0); opacity: 0;" fill="none" stroke="#000000" d="M352,166LNaN,175.1" stroke-dasharray="4,3" opacity="0"></path><circle style="-webkit-tap-highlight-color: rgba(0, 0, 0, 0);" cx="NaN" cy="175.1" r="0" fill="#ffffff" stroke="#000000"></circle><path style="-webkit-tap-highlight-color: rgba(0, 0, 0, 0); opacity: 0;" fill="none" stroke="#000000" d="M22,159L682,159L682,173L22,173L22,159" stroke-dasharray="4,3" opacity="0"></path><rect style="-webkit-tap-highlight-color: rgba(0, 0, 0, 0);" x="22" y="159" width="0" height="0" r="0" rx="0" ry="0" fill="#ffffff" stroke="#000000" transform="matrix(1,0,0,1,0,0)"></rect><rect style="-webkit-tap-highlight-color: rgba(0, 0, 0, 0);" x="682" y="159" width="0" height="0" r="0" rx="0" ry="0" fill="#ffffff" stroke="#000000" transform="matrix(1,0,0,1,0,0)"></rect><rect style="-webkit-tap-highlight-color: rgba(0, 0, 0, 0);" x="682" y="173" width="0" height="0" r="0" rx="0" ry="0" fill="#ffffff" stroke="#000000" transform="matrix(1,0,0,1,0,0)"></rect><rect style="-webkit-tap-highlight-color: rgba(0, 0, 0, 0);" x="22" y="173" width="0" height="0" r="0" rx="0" ry="0" fill="#ffffff" stroke="#000000" transform="matrix(1,0,0,1,0,0)"></rect><circle style="-webkit-tap-highlight-color: rgba(0, 0, 0, 0);" cx="352" cy="166" r="0" fill="#ffffff" stroke="#000000"></circle></svg>
