<svg height="500" version="1.1" width="100%" xmlns="http://www.w3.org/2000/svg" style="overflow: hidden; position: relative; left: -0.5px;"><rect x="0" y="0" width="100%" height="100%" r="0" rx="0" ry="0" fill="#ffffff" stroke="#888888" stroke-width="1" style="-webkit-tap-highlight-color: rgba(0, 0, 0, 0);"></rect><desc style="-webkit-tap-highlight-color: rgba(0, 0, 0, 0);">Created with Raphaël 2.1.0</desc><defs style="-webkit-tap-highlight-color: rgba(0, 0, 0, 0);"></defs><text x="420" y="50" text-anchor="middle" font="10px &quot;Arial&quot;" stroke="none" fill="#000000" font-size="13px" font-family="Verdana, Helvetica, sans-serif" style="-webkit-tap-highlight-color: rgba(0, 0, 0, 0); text-anchor: middle; font-style: normal; font-variant: normal; font-weight: normal; font-size: 13px; line-height: normal; font-family: Verdana, Helvetica, sans-serif; cursor: pointer;"><tspan dy="5" style="-webkit-tap-highlight-color: rgba(0, 0, 0, 0);">Math has to be praticed</tspan></text><rect x="100" y="80" width="10" height="10" r="0" rx="0" ry="0" fill="#77bb44" stroke="#77bb44" opacity="0" style="-webkit-tap-highlight-color: rgba(0, 0, 0, 0); opacity: 0; cursor: nw-resize;"></rect><path fill="none" stroke="#000000" d="M420,50LNaN,50" stroke-dasharray="4,3" opacity="0" style="-webkit-tap-highlight-color: rgba(0, 0, 0, 0); opacity: 0;"></path><circle cx="NaN" cy="50" r="0" fill="#ffffff" stroke="#000000" style="-webkit-tap-highlight-color: rgba(0, 0, 0, 0);"></circle><path fill="none" stroke="#000000" d="M420,50LNaN,60.4" stroke-dasharray="4,3" opacity="0" style="-webkit-tap-highlight-color: rgba(0, 0, 0, 0); opacity: 0;"></path><circle cx="NaN" cy="60.4" r="0" fill="#ffffff" stroke="#000000" style="-webkit-tap-highlight-color: rgba(0, 0, 0, 0);"></circle><path fill="none" stroke="#000000" d="M340,42L500,42L500,58L340,58L340,42" stroke-dasharray="4,3" opacity="0" style="-webkit-tap-highlight-color: rgba(0, 0, 0, 0); opacity: 0;"></path><rect x="340" y="42" width="0" height="0" r="0" rx="0" ry="0" fill="#ffffff" stroke="#000000" transform="matrix(1,0,0,1,0,0)" style="-webkit-tap-highlight-color: rgba(0, 0, 0, 0);"></rect><rect x="500" y="42" width="0" height="0" r="0" rx="0" ry="0" fill="#ffffff" stroke="#000000" transform="matrix(1,0,0,1,0,0)" style="-webkit-tap-highlight-color: rgba(0, 0, 0, 0);"></rect><rect x="500" y="58" width="0" height="0" r="0" rx="0" ry="0" fill="#ffffff" stroke="#000000" transform="matrix(1,0,0,1,0,0)" style="-webkit-tap-highlight-color: rgba(0, 0, 0, 0);"></rect><rect x="340" y="58" width="0" height="0" r="0" rx="0" ry="0" fill="#ffffff" stroke="#000000" transform="matrix(1,0,0,1,0,0)" style="-webkit-tap-highlight-color: rgba(0, 0, 0, 0);"></rect><circle cx="420" cy="50" r="0" fill="#ffffff" stroke="#000000" style="-webkit-tap-highlight-color: rgba(0, 0, 0, 0);"></circle><path fill="#ffffff" stroke="#888888" d="M138,74L138,80L139,88L140,108L141,131L141,151L142,168L143,178L143,180L144,181L144,181L145,177L149,170L156,150L161,135L163,122L163,117L163,115L163,115L160,116L159,118L157,121L156,123L153,128L149,131L146,134L143,136L143,137L143,138L143,139L143,140L145,140L150,142L150,142L166,144L168,144L169,146L170,148L171,152L172,155L172,157L172,157L175,157L176,155L178,151L181,145L182,142L183,142L184,144L186,149L189,154L190,156L192,157L195,157L202,152L207,146L209,139L209,138L209,138L210,148L211,155L212,164L216,179L218,193L218,200L216,202L212,203L206,199L197,189L192,182L191,179L192,177L196,175L209,171L219,166L227,159L231,147L233,135L233,122L232,109L230,102L229,100L227,100L226,101L224,112L224,124L225,140L227,153L229,159L232,163L235,165L239,165L243,162L247,156L250,148L251,142L251,138L251,138L248,138L245,140L242,146L241,152L241,156L241,160L241,160L247,166L253,167L268,168L277,168L282,166L284,165L284,164L284,163L284,162L286,160L287,156L288,152L289,150L289,149L289,149L289,149L289,149L289,149L289,149L288,157L288,158L288,158L292,158L295,158L299,158L303,157L307,150L308,145L308,140L307,137L305,136L303,136L298,140L295,145L294,151L295,155L303,161L319,169L340,182L343,184L343,185L342,186L337,186L331,186L327,182L327,177L327,177L332,171L339,168L348,166L367,162L376,160L379,158L381,156L381,156L381,158L381,160L381,163L381,167L382,168L384,173L387,174L393,174L403,173L414,168L421,160L423,153L423,150L423,149L423,149L420,149L419,150L419,150L421,147L422,144L423,141L427,125L428,116L428,114L428,114L426,123L426,123L424,158L428,180L434,196L440,206L444,210L452,209L462,203L471,193L476,181L477,174L477,165L476,163L475,163L473,163L473,165L473,170L473,177L473,177L477,190L479,192L481,193L488,185L490,167L488,158L484,154L480,153L475,153L474,153L473,153L473,153L483,151L496,149L504,149L506,149L506,152L507,157L508,163L510,172L514,181L517,187L519,189L520,190L523,187L524,181L526,170L526,159L520,148L514,143L509,141L505,140L503,142L503,146L503,151L503,153L505,154L511,153L523,144L528,136L531,129L531,126L531,125L531,125L531,125L535,139L550,163L556,177L556,181L555,182L554,182L550,181L550,179L550,175L558,158L566,146L574,133L577,126L577,126L577,129L577,138L577,144L579,148L580,151L581,151L590,144L596,133L601,116L602,108L602,96L600,92L597,93L593,108L593,113L593,115L597,115L611,106L620,100L621,97L622,97L622,97L622,109L623,121L627,141L642,168L657,185L665,189L678,189L689,176" stroke-width="2" fill-opacity="0" style="-webkit-tap-highlight-color: rgba(0, 0, 0, 0); fill-opacity: 0;"></path><path fill="none" stroke="#000000" d="M413.5,142LNaN,142" stroke-dasharray="4,3" opacity="0" style="-webkit-tap-highlight-color: rgba(0, 0, 0, 0); opacity: 0;"></path><circle cx="NaN" cy="142" r="0" fill="#ffffff" stroke="#000000" stroke-width="1" style="-webkit-tap-highlight-color: rgba(0, 0, 0, 0);"></circle><path fill="none" stroke="#000000" d="M413.5,142LNaN,230.4" stroke-dasharray="4,3" opacity="0" style="-webkit-tap-highlight-color: rgba(0, 0, 0, 0); opacity: 0;"></path><circle cx="NaN" cy="230.4" r="0" fill="#ffffff" stroke="#000000" stroke-width="1" style="-webkit-tap-highlight-color: rgba(0, 0, 0, 0);"></circle><path fill="none" stroke="#000000" d="M138,74L689,74L689,210L138,210L138,74" stroke-dasharray="4,3" opacity="0" style="-webkit-tap-highlight-color: rgba(0, 0, 0, 0); opacity: 0;"></path><rect x="138" y="74" width="0" height="0" r="0" rx="0" ry="0" fill="#ffffff" stroke="#000000" stroke-width="1" transform="matrix(1,0,0,1,0,0)" style="-webkit-tap-highlight-color: rgba(0, 0, 0, 0);"></rect><rect x="689" y="74" width="0" height="0" r="0" rx="0" ry="0" fill="#ffffff" stroke="#000000" stroke-width="1" transform="matrix(1,0,0,1,0,0)" style="-webkit-tap-highlight-color: rgba(0, 0, 0, 0);"></rect><rect x="689" y="210" width="0" height="0" r="0" rx="0" ry="0" fill="#ffffff" stroke="#000000" stroke-width="1" transform="matrix(1,0,0,1,0,0)" style="-webkit-tap-highlight-color: rgba(0, 0, 0, 0);"></rect><rect x="138" y="210" width="0" height="0" r="0" rx="0" ry="0" fill="#ffffff" stroke="#000000" stroke-width="1" transform="matrix(1,0,0,1,0,0)" style="-webkit-tap-highlight-color: rgba(0, 0, 0, 0);"></rect><circle cx="413.5" cy="142" r="0" fill="#ffffff" stroke="#000000" stroke-width="1" style="-webkit-tap-highlight-color: rgba(0, 0, 0, 0);"></circle></svg>
