<svg style="overflow: hidden; position: relative;" height="500" version="1.1" width="100%" xmlns="http://www.w3.org/2000/svg"><rect style="-webkit-tap-highlight-color: rgba(0, 0, 0, 0);" x="0" y="0" width="100%" height="100%" r="0" rx="0" ry="0" fill="#ffffff" stroke="#eeeeee" stroke-width="1"></rect><desc style="-webkit-tap-highlight-color: rgba(0, 0, 0, 0);">Created with Raphaël 2.1.0</desc><defs style="-webkit-tap-highlight-color: rgba(0, 0, 0, 0);"></defs><text style="-webkit-tap-highlight-color: rgba(0, 0, 0, 0); text-anchor: middle; font-style: normal; font-variant: normal; font-weight: normal; font-size: 12px; line-height: normal; font-family: Verdana, Helvetica, sans-serif; cursor: pointer;" x="400" y="100" text-anchor="middle" font="10px &quot;Arial&quot;" stroke="none" fill="#000000" font-size="12px" font-family="Verdana, Helvetica, sans-serif"><tspan style="-webkit-tap-highlight-color: rgba(0, 0, 0, 0);" dy="5">you can drag this text....to edit this ...type in the text area above..click on the 'T' symbol to get new text.</tspan></text><rect style="-webkit-tap-highlight-color: rgba(0, 0, 0, 0); opacity: 0; cursor: nw-resize;" x="100" y="80" width="10" height="10" r="0" rx="0" ry="0" fill="#77bb44" stroke="#77bb44" opacity="0"></rect><path style="-webkit-tap-highlight-color: rgba(0, 0, 0, 0); opacity: 0;" fill="none" stroke="#000000" d="M400,100LNaN,100" stroke-dasharray="4,3" opacity="0"></path><circle style="-webkit-tap-highlight-color: rgba(0, 0, 0, 0);" cx="NaN" cy="100" r="0" fill="#ffffff" stroke="#000000"></circle><path style="-webkit-tap-highlight-color: rgba(0, 0, 0, 0); opacity: 0;" fill="none" stroke="#000000" d="M400,100LNaN,109.1" stroke-dasharray="4,3" opacity="0"></path><circle style="-webkit-tap-highlight-color: rgba(0, 0, 0, 0);" cx="NaN" cy="109.1" r="0" fill="#ffffff" stroke="#000000"></circle><path style="-webkit-tap-highlight-color: rgba(0, 0, 0, 0); opacity: 0;" fill="none" stroke="#000000" d="M70,93L730,93L730,107L70,107L70,93" stroke-dasharray="4,3" opacity="0"></path><rect style="-webkit-tap-highlight-color: rgba(0, 0, 0, 0);" x="70" y="93" width="0" height="0" r="0" rx="0" ry="0" fill="#ffffff" stroke="#000000" transform="matrix(1,0,0,1,0,0)"></rect><rect style="-webkit-tap-highlight-color: rgba(0, 0, 0, 0);" x="730" y="93" width="0" height="0" r="0" rx="0" ry="0" fill="#ffffff" stroke="#000000" transform="matrix(1,0,0,1,0,0)"></rect><rect style="-webkit-tap-highlight-color: rgba(0, 0, 0, 0);" x="730" y="107" width="0" height="0" r="0" rx="0" ry="0" fill="#ffffff" stroke="#000000" transform="matrix(1,0,0,1,0,0)"></rect><rect style="-webkit-tap-highlight-color: rgba(0, 0, 0, 0);" x="70" y="107" width="0" height="0" r="0" rx="0" ry="0" fill="#ffffff" stroke="#000000" transform="matrix(1,0,0,1,0,0)"></rect><circle style="-webkit-tap-highlight-color: rgba(0, 0, 0, 0);" cx="400" cy="100" r="0" fill="#ffffff" stroke="#000000"></circle><text style="-webkit-tap-highlight-color: rgba(0, 0, 0, 0); text-anchor: middle; font-style: normal; font-variant: normal; font-weight: normal; font-size: 12px; line-height: normal; font-family: Verdana, Helvetica, sans-serif; cursor: pointer;" x="400" y="100" text-anchor="middle" font="10px &quot;Arial&quot;" stroke="none" fill="#000000" font-size="12px" font-family="Verdana, Helvetica, sans-serif" transform="matrix(1,0,0,1,5,125)"><tspan style="-webkit-tap-highlight-color: rgba(0, 0, 0, 0);" dy="5">you can drag this text....to edit this ...type in the text area above..click on the 'T' symbol to get new text.</tspan></text><rect style="-webkit-tap-highlight-color: rgba(0, 0, 0, 0); opacity: 0; cursor: nw-resize;" x="100" y="80" width="10" height="10" r="0" rx="0" ry="0" fill="#77bb44" stroke="#77bb44" opacity="0"></rect><path style="-webkit-tap-highlight-color: rgba(0, 0, 0, 0); opacity: 0;" fill="none" stroke="#000000" d="M405,225LNaN,225" stroke-dasharray="4,3" opacity="0"></path><circle style="-webkit-tap-highlight-color: rgba(0, 0, 0, 0);" cx="NaN" cy="225" r="0" fill="#ffffff" stroke="#000000"></circle><path style="-webkit-tap-highlight-color: rgba(0, 0, 0, 0); opacity: 0;" fill="none" stroke="#000000" d="M405,225LNaN,234.1" stroke-dasharray="4,3" opacity="0"></path><circle style="-webkit-tap-highlight-color: rgba(0, 0, 0, 0);" cx="NaN" cy="234.1" r="0" fill="#ffffff" stroke="#000000"></circle><path style="-webkit-tap-highlight-color: rgba(0, 0, 0, 0); opacity: 0;" fill="none" stroke="#000000" d="M75,218L735,218L735,232L75,232L75,218" stroke-dasharray="4,3" opacity="0"></path><rect style="-webkit-tap-highlight-color: rgba(0, 0, 0, 0);" x="75" y="218" width="0" height="0" r="0" rx="0" ry="0" fill="#ffffff" stroke="#000000" transform="matrix(1,0,0,1,0,0)"></rect><rect style="-webkit-tap-highlight-color: rgba(0, 0, 0, 0);" x="735" y="218" width="0" height="0" r="0" rx="0" ry="0" fill="#ffffff" stroke="#000000" transform="matrix(1,0,0,1,0,0)"></rect><rect style="-webkit-tap-highlight-color: rgba(0, 0, 0, 0);" x="735" y="232" width="0" height="0" r="0" rx="0" ry="0" fill="#ffffff" stroke="#000000" transform="matrix(1,0,0,1,0,0)"></rect><rect style="-webkit-tap-highlight-color: rgba(0, 0, 0, 0);" x="75" y="232" width="0" height="0" r="0" rx="0" ry="0" fill="#ffffff" stroke="#000000" transform="matrix(1,0,0,1,0,0)"></rect><circle style="-webkit-tap-highlight-color: rgba(0, 0, 0, 0);" cx="405" cy="225" r="0" fill="#ffffff" stroke="#000000"></circle><path style="-webkit-tap-highlight-color: rgba(0, 0, 0, 0); font-size: 14px;" fill="none" stroke="#000000" d="M40,100L360,100" font-size="14px" transform="matrix(1,0,0,1,154,175)"></path><path style="-webkit-tap-highlight-color: rgba(0, 0, 0, 0); font-size: 14px;" fill="none" stroke="#000000" d="M200,90L200,110" font-size="14px" transform="matrix(1,0,0,1,154,175)"></path><path style="-webkit-tap-highlight-color: rgba(0, 0, 0, 0); font-size: 14px;" fill="none" stroke="#000000" d="M150,90L150,110" font-size="14px" transform="matrix(1,0,0,1,154,175)"></path><path style="-webkit-tap-highlight-color: rgba(0, 0, 0, 0); font-size: 14px;" fill="none" stroke="#000000" d="M100,90L100,110" font-size="14px" transform="matrix(1,0,0,1,154,175)"></path><path style="-webkit-tap-highlight-color: rgba(0, 0, 0, 0); font-size: 14px;" fill="none" stroke="#000000" d="M50,90L50,110" font-size="14px" transform="matrix(1,0,0,1,154,175)"></path><path style="-webkit-tap-highlight-color: rgba(0, 0, 0, 0); font-size: 14px;" fill="none" stroke="#000000" d="M250,90L250,110" font-size="14px" transform="matrix(1,0,0,1,154,175)"></path><path style="-webkit-tap-highlight-color: rgba(0, 0, 0, 0); font-size: 14px;" fill="none" stroke="#000000" d="M300,90L300,110" font-size="14px" transform="matrix(1,0,0,1,154,175)"></path><path style="-webkit-tap-highlight-color: rgba(0, 0, 0, 0); font-size: 14px;" fill="none" stroke="#000000" d="M350,90L350,110" font-size="14px" transform="matrix(1,0,0,1,154,175)"></path><text style="-webkit-tap-highlight-color: rgba(0, 0, 0, 0); text-anchor: middle; font-style: normal; font-variant: normal; font-weight: normal; font-size: 14px; line-height: normal; font-family: Arial;" x="200" y="120" text-anchor="middle" font="10px &quot;Arial&quot;" stroke="#000000" fill="#000000" font-size="14px" transform="matrix(1,0,0,1,154,175)"><tspan style="-webkit-tap-highlight-color: rgba(0, 0, 0, 0);" dy="5">0</tspan></text><text style="-webkit-tap-highlight-color: rgba(0, 0, 0, 0); text-anchor: middle; font-style: normal; font-variant: normal; font-weight: normal; font-size: 14px; line-height: normal; font-family: Arial;" x="150" y="120" text-anchor="middle" font="10px &quot;Arial&quot;" stroke="#000000" fill="#000000" font-size="14px" transform="matrix(1,0,0,1,154,175)"><tspan style="-webkit-tap-highlight-color: rgba(0, 0, 0, 0);" dy="5">-1</tspan></text><text style="-webkit-tap-highlight-color: rgba(0, 0, 0, 0); text-anchor: middle; font-style: normal; font-variant: normal; font-weight: normal; font-size: 14px; line-height: normal; font-family: Arial;" x="100" y="120" text-anchor="middle" font="10px &quot;Arial&quot;" stroke="#000000" fill="#000000" font-size="14px" transform="matrix(1,0,0,1,154,175)"><tspan style="-webkit-tap-highlight-color: rgba(0, 0, 0, 0);" dy="5">-2</tspan></text><text style="-webkit-tap-highlight-color: rgba(0, 0, 0, 0); text-anchor: middle; font-style: normal; font-variant: normal; font-weight: normal; font-size: 14px; line-height: normal; font-family: Arial;" x="50" y="120" text-anchor="middle" font="10px &quot;Arial&quot;" stroke="#000000" fill="#000000" font-size="14px" transform="matrix(1,0,0,1,154,175)"><tspan style="-webkit-tap-highlight-color: rgba(0, 0, 0, 0);" dy="5">-3</tspan></text><text style="-webkit-tap-highlight-color: rgba(0, 0, 0, 0); text-anchor: middle; font-style: normal; font-variant: normal; font-weight: normal; font-size: 14px; line-height: normal; font-family: Arial;" x="250" y="120" text-anchor="middle" font="10px &quot;Arial&quot;" stroke="#000000" fill="#000000" font-size="14px" transform="matrix(1,0,0,1,154,175)"><tspan style="-webkit-tap-highlight-color: rgba(0, 0, 0, 0);" dy="5">1</tspan></text><text style="-webkit-tap-highlight-color: rgba(0, 0, 0, 0); text-anchor: middle; font-style: normal; font-variant: normal; font-weight: normal; font-size: 14px; line-height: normal; font-family: Arial;" x="300" y="120" text-anchor="middle" font="10px &quot;Arial&quot;" stroke="#000000" fill="#000000" font-size="14px" transform="matrix(1,0,0,1,154,175)"><tspan style="-webkit-tap-highlight-color: rgba(0, 0, 0, 0);" dy="5">2</tspan></text><text style="-webkit-tap-highlight-color: rgba(0, 0, 0, 0); text-anchor: middle; font-style: normal; font-variant: normal; font-weight: normal; font-size: 14px; line-height: normal; font-family: Arial;" x="350" y="120" text-anchor="middle" font="10px &quot;Arial&quot;" stroke="#000000" fill="#000000" font-size="14px" transform="matrix(1,0,0,1,154,175)"><tspan style="-webkit-tap-highlight-color: rgba(0, 0, 0, 0);" dy="5">3</tspan></text><path style="-webkit-tap-highlight-color: rgba(0, 0, 0, 0); opacity: 0;" fill="none" stroke="#ffffff" d="M354,284LNaN,284" stroke-dasharray="4,3" opacity="0"></path><circle style="-webkit-tap-highlight-color: rgba(0, 0, 0, 0);" cx="NaN" cy="284" r="0" fill="#ffffff" stroke="#ffffff"></circle><path style="-webkit-tap-highlight-color: rgba(0, 0, 0, 0); opacity: 0;" fill="none" stroke="#ffffff" d="M354,284LNaN,308.7" stroke-dasharray="4,3" opacity="0"></path><circle style="-webkit-tap-highlight-color: rgba(0, 0, 0, 0);" cx="NaN" cy="308.7" r="0" fill="#ffffff" stroke="#ffffff"></circle><path style="-webkit-tap-highlight-color: rgba(0, 0, 0, 0); opacity: 0;" fill="none" stroke="#ffffff" d="M194,265L514,265L514,303L194,303L194,265" stroke-dasharray="4,3" opacity="0"></path><rect style="-webkit-tap-highlight-color: rgba(0, 0, 0, 0);" x="189" y="260" width="10" height="10" r="0" rx="0" ry="0" fill="#ffffff" stroke="#ffffff" transform="matrix(1,0,0,1,0,0)"></rect><rect style="-webkit-tap-highlight-color: rgba(0, 0, 0, 0);" x="509" y="260" width="10" height="10" r="0" rx="0" ry="0" fill="#ffffff" stroke="#ffffff" transform="matrix(1,0,0,1,0,0)"></rect><rect style="-webkit-tap-highlight-color: rgba(0, 0, 0, 0);" x="509" y="298" width="10" height="10" r="0" rx="0" ry="0" fill="#ffffff" stroke="#ffffff" transform="matrix(1,0,0,1,0,0)"></rect><rect style="-webkit-tap-highlight-color: rgba(0, 0, 0, 0);" x="189" y="298" width="10" height="10" r="0" rx="0" ry="0" fill="#ffffff" stroke="#ffffff" transform="matrix(1,0,0,1,0,0)"></rect><circle style="-webkit-tap-highlight-color: rgba(0, 0, 0, 0);" cx="354" cy="284" r="0" fill="#ffffff" stroke="#ffffff"></circle></svg>
