<svg style="overflow: hidden; position: relative;" height="500" version="1.1" width="1050" xmlns="http://www.w3.org/2000/svg"><rect style="-webkit-tap-highlight-color: rgba(0, 0, 0, 0);" x="0" y="0" width="100%" height="100%" r="0" rx="0" ry="0" fill="#ffffff" stroke="#eeeeee" stroke-width="1"></rect><desc style="-webkit-tap-highlight-color: rgba(0, 0, 0, 0);">Created with Raphaël 2.1.0</desc><defs style="-webkit-tap-highlight-color: rgba(0, 0, 0, 0);"></defs><rect style="-webkit-tap-highlight-color: rgba(0, 0, 0, 0);" x="5" y="25" width="99%" height="0.5" r="0" rx="0" ry="0" fill="none" stroke="#eeeeee"></rect><rect style="-webkit-tap-highlight-color: rgba(0, 0, 0, 0);" x="5" y="50" width="99%" height="0.5" r="0" rx="0" ry="0" fill="none" stroke="#eeeeee"></rect><rect style="-webkit-tap-highlight-color: rgba(0, 0, 0, 0);" x="5" y="75" width="99%" height="0.5" r="0" rx="0" ry="0" fill="none" stroke="#eeeeee"></rect><rect style="-webkit-tap-highlight-color: rgba(0, 0, 0, 0);" x="5" y="100" width="99%" height="0.5" r="0" rx="0" ry="0" fill="none" stroke="#eeeeee"></rect><rect style="-webkit-tap-highlight-color: rgba(0, 0, 0, 0);" x="5" y="125" width="99%" height="0.5" r="0" rx="0" ry="0" fill="none" stroke="#eeeeee"></rect><rect style="-webkit-tap-highlight-color: rgba(0, 0, 0, 0);" x="5" y="150" width="99%" height="0.5" r="0" rx="0" ry="0" fill="none" stroke="#eeeeee"></rect><rect style="-webkit-tap-highlight-color: rgba(0, 0, 0, 0);" x="5" y="175" width="99%" height="0.5" r="0" rx="0" ry="0" fill="none" stroke="#eeeeee"></rect><rect style="-webkit-tap-highlight-color: rgba(0, 0, 0, 0);" x="5" y="200" width="99%" height="0.5" r="0" rx="0" ry="0" fill="none" stroke="#eeeeee"></rect><rect style="-webkit-tap-highlight-color: rgba(0, 0, 0, 0);" x="5" y="225" width="99%" height="0.5" r="0" rx="0" ry="0" fill="none" stroke="#eeeeee"></rect><rect style="-webkit-tap-highlight-color: rgba(0, 0, 0, 0);" x="5" y="250" width="99%" height="0.5" r="0" rx="0" ry="0" fill="none" stroke="#eeeeee"></rect><rect style="-webkit-tap-highlight-color: rgba(0, 0, 0, 0);" x="5" y="275" width="99%" height="0.5" r="0" rx="0" ry="0" fill="none" stroke="#eeeeee"></rect><rect style="-webkit-tap-highlight-color: rgba(0, 0, 0, 0);" x="5" y="300" width="99%" height="0.5" r="0" rx="0" ry="0" fill="none" stroke="#eeeeee"></rect><rect style="-webkit-tap-highlight-color: rgba(0, 0, 0, 0);" x="5" y="325" width="99%" height="0.5" r="0" rx="0" ry="0" fill="none" stroke="#eeeeee"></rect><rect style="-webkit-tap-highlight-color: rgba(0, 0, 0, 0);" x="5" y="350" width="99%" height="0.5" r="0" rx="0" ry="0" fill="none" stroke="#eeeeee"></rect><rect style="-webkit-tap-highlight-color: rgba(0, 0, 0, 0);" x="5" y="375" width="99%" height="0.5" r="0" rx="0" ry="0" fill="none" stroke="#eeeeee"></rect><rect style="-webkit-tap-highlight-color: rgba(0, 0, 0, 0);" x="5" y="400" width="99%" height="0.5" r="0" rx="0" ry="0" fill="none" stroke="#eeeeee"></rect><rect style="-webkit-tap-highlight-color: rgba(0, 0, 0, 0);" x="5" y="425" width="99%" height="0.5" r="0" rx="0" ry="0" fill="none" stroke="#eeeeee"></rect><rect style="-webkit-tap-highlight-color: rgba(0, 0, 0, 0);" x="5" y="450" width="99%" height="0.5" r="0" rx="0" ry="0" fill="none" stroke="#eeeeee"></rect><rect style="-webkit-tap-highlight-color: rgba(0, 0, 0, 0);" x="5" y="475" width="99%" height="0.5" r="0" rx="0" ry="0" fill="none" stroke="#eeeeee"></rect><rect style="-webkit-tap-highlight-color: rgba(0, 0, 0, 0);" x="5" y="500" width="99%" height="0.5" r="0" rx="0" ry="0" fill="none" stroke="#eeeeee"></rect><rect style="-webkit-tap-highlight-color: rgba(0, 0, 0, 0);" x="5" y="525" width="99%" height="0.5" r="0" rx="0" ry="0" fill="none" stroke="#eeeeee"></rect><rect style="-webkit-tap-highlight-color: rgba(0, 0, 0, 0);" x="5" y="550" width="99%" height="0.5" r="0" rx="0" ry="0" fill="none" stroke="#eeeeee"></rect><rect style="-webkit-tap-highlight-color: rgba(0, 0, 0, 0);" x="5" y="575" width="99%" height="0.5" r="0" rx="0" ry="0" fill="none" stroke="#eeeeee"></rect><rect style="-webkit-tap-highlight-color: rgba(0, 0, 0, 0);" x="5" y="600" width="99%" height="0.5" r="0" rx="0" ry="0" fill="none" stroke="#eeeeee"></rect><rect style="-webkit-tap-highlight-color: rgba(0, 0, 0, 0);" x="5" y="625" width="99%" height="0.5" r="0" rx="0" ry="0" fill="none" stroke="#eeeeee"></rect><rect style="-webkit-tap-highlight-color: rgba(0, 0, 0, 0);" x="5" y="650" width="99%" height="0.5" r="0" rx="0" ry="0" fill="none" stroke="#eeeeee"></rect><rect style="-webkit-tap-highlight-color: rgba(0, 0, 0, 0);" x="5" y="675" width="99%" height="0.5" r="0" rx="0" ry="0" fill="none" stroke="#eeeeee"></rect><rect style="-webkit-tap-highlight-color: rgba(0, 0, 0, 0);" x="5" y="700" width="99%" height="0.5" r="0" rx="0" ry="0" fill="none" stroke="#eeeeee"></rect><rect style="-webkit-tap-highlight-color: rgba(0, 0, 0, 0);" x="5" y="725" width="99%" height="0.5" r="0" rx="0" ry="0" fill="none" stroke="#eeeeee"></rect><rect style="-webkit-tap-highlight-color: rgba(0, 0, 0, 0);" x="5" y="750" width="99%" height="0.5" r="0" rx="0" ry="0" fill="none" stroke="#eeeeee"></rect><rect style="-webkit-tap-highlight-color: rgba(0, 0, 0, 0);" x="5" y="775" width="99%" height="0.5" r="0" rx="0" ry="0" fill="none" stroke="#eeeeee"></rect><rect style="-webkit-tap-highlight-color: rgba(0, 0, 0, 0);" x="5" y="800" width="99%" height="0.5" r="0" rx="0" ry="0" fill="none" stroke="#eeeeee"></rect><rect style="-webkit-tap-highlight-color: rgba(0, 0, 0, 0);" x="5" y="825" width="99%" height="0.5" r="0" rx="0" ry="0" fill="none" stroke="#eeeeee"></rect><rect style="-webkit-tap-highlight-color: rgba(0, 0, 0, 0);" x="5" y="850" width="99%" height="0.5" r="0" rx="0" ry="0" fill="none" stroke="#eeeeee"></rect><rect style="-webkit-tap-highlight-color: rgba(0, 0, 0, 0);" x="5" y="875" width="99%" height="0.5" r="0" rx="0" ry="0" fill="none" stroke="#eeeeee"></rect><rect style="-webkit-tap-highlight-color: rgba(0, 0, 0, 0);" x="5" y="900" width="99%" height="0.5" r="0" rx="0" ry="0" fill="none" stroke="#eeeeee"></rect><rect style="-webkit-tap-highlight-color: rgba(0, 0, 0, 0);" x="5" y="925" width="99%" height="0.5" r="0" rx="0" ry="0" fill="none" stroke="#eeeeee"></rect><rect style="-webkit-tap-highlight-color: rgba(0, 0, 0, 0);" x="5" y="950" width="99%" height="0.5" r="0" rx="0" ry="0" fill="none" stroke="#eeeeee"></rect><rect style="-webkit-tap-highlight-color: rgba(0, 0, 0, 0);" x="5" y="975" width="99%" height="0.5" r="0" rx="0" ry="0" fill="none" stroke="#eeeeee"></rect><rect style="-webkit-tap-highlight-color: rgba(0, 0, 0, 0);" x="5" y="1000" width="99%" height="0.5" r="0" rx="0" ry="0" fill="none" stroke="#eeeeee"></rect><rect style="-webkit-tap-highlight-color: rgba(0, 0, 0, 0);" x="5" y="1025" width="99%" height="0.5" r="0" rx="0" ry="0" fill="none" stroke="#eeeeee"></rect><rect style="-webkit-tap-highlight-color: rgba(0, 0, 0, 0);" x="5" y="1050" width="99%" height="0.5" r="0" rx="0" ry="0" fill="none" stroke="#eeeeee"></rect><rect style="-webkit-tap-highlight-color: rgba(0, 0, 0, 0);" x="5" y="1075" width="99%" height="0.5" r="0" rx="0" ry="0" fill="none" stroke="#eeeeee"></rect><rect style="-webkit-tap-highlight-color: rgba(0, 0, 0, 0);" x="5" y="1100" width="99%" height="0.5" r="0" rx="0" ry="0" fill="none" stroke="#eeeeee"></rect><rect style="-webkit-tap-highlight-color: rgba(0, 0, 0, 0);" x="5" y="1125" width="99%" height="0.5" r="0" rx="0" ry="0" fill="none" stroke="#eeeeee"></rect><rect style="-webkit-tap-highlight-color: rgba(0, 0, 0, 0);" x="5" y="1150" width="99%" height="0.5" r="0" rx="0" ry="0" fill="none" stroke="#eeeeee"></rect><rect style="-webkit-tap-highlight-color: rgba(0, 0, 0, 0);" x="5" y="1175" width="99%" height="0.5" r="0" rx="0" ry="0" fill="none" stroke="#eeeeee"></rect><rect style="-webkit-tap-highlight-color: rgba(0, 0, 0, 0);" x="5" y="1200" width="99%" height="0.5" r="0" rx="0" ry="0" fill="none" stroke="#eeeeee"></rect><rect style="-webkit-tap-highlight-color: rgba(0, 0, 0, 0);" x="5" y="1225" width="99%" height="0.5" r="0" rx="0" ry="0" fill="none" stroke="#eeeeee"></rect><rect style="-webkit-tap-highlight-color: rgba(0, 0, 0, 0);" x="5" y="1250" width="99%" height="0.5" r="0" rx="0" ry="0" fill="none" stroke="#eeeeee"></rect><rect style="-webkit-tap-highlight-color: rgba(0, 0, 0, 0);" x="5" y="1275" width="99%" height="0.5" r="0" rx="0" ry="0" fill="none" stroke="#eeeeee"></rect><rect style="-webkit-tap-highlight-color: rgba(0, 0, 0, 0);" x="5" y="1300" width="99%" height="0.5" r="0" rx="0" ry="0" fill="none" stroke="#eeeeee"></rect><rect style="-webkit-tap-highlight-color: rgba(0, 0, 0, 0);" x="5" y="1325" width="99%" height="0.5" r="0" rx="0" ry="0" fill="none" stroke="#eeeeee"></rect><rect style="-webkit-tap-highlight-color: rgba(0, 0, 0, 0);" x="5" y="1350" width="99%" height="0.5" r="0" rx="0" ry="0" fill="none" stroke="#eeeeee"></rect><rect style="-webkit-tap-highlight-color: rgba(0, 0, 0, 0);" x="50" y="0" width="0.5" height="100%" r="0" rx="0" ry="0" fill="none" stroke="#ff0000"></rect><rect style="-webkit-tap-highlight-color: rgba(0, 0, 0, 0);" x="55" y="0" width="0.5" height="100%" r="0" rx="0" ry="0" fill="none" stroke="#ff0000"></rect><text style="-webkit-tap-highlight-color: rgba(0, 0, 0, 0); text-anchor: middle; font-style: normal; font-variant: normal; font-weight: normal; font-size: 12px; line-height: normal; font-family: Verdana, Helvetica, sans-serif; cursor: pointer;" x="400" y="100" text-anchor="middle" font="10px &quot;Arial&quot;" stroke="none" fill="#000000" font-size="12px" font-family="Verdana, Helvetica, sans-serif" transform="matrix(1,0,0,1,-90,-37)"><tspan style="-webkit-tap-highlight-color: rgba(0, 0, 0, 0);" dy="5">The number has to be leave the remainder zero when divided by 2 and 3</tspan></text><rect style="-webkit-tap-highlight-color: rgba(0, 0, 0, 0); opacity: 0; cursor: nw-resize;" x="100" y="80" width="10" height="10" r="0" rx="0" ry="0" fill="#77bb44" stroke="#77bb44" opacity="0"></rect><text style="-webkit-tap-highlight-color: rgba(0, 0, 0, 0); text-anchor: middle; font-style: normal; font-variant: normal; font-weight: normal; font-size: 12px; line-height: normal; font-family: Verdana, Helvetica, sans-serif; cursor: pointer;" x="400" y="100" text-anchor="middle" font="10px &quot;Arial&quot;" stroke="none" fill="#000000" font-size="12px" font-family="Verdana, Helvetica, sans-serif" transform="matrix(1,0,0,1,-43,10)"><tspan style="-webkit-tap-highlight-color: rgba(0, 0, 0, 0);" dy="5">As you can see 6 ,24 and 36 are the numebers that comply with this .... # Ans 6 ,24,36</tspan></text><rect style="-webkit-tap-highlight-color: rgba(0, 0, 0, 0); opacity: 0; cursor: nw-resize;" x="100" y="80" width="10" height="10" r="0" rx="0" ry="0" fill="#77bb44" stroke="#77bb44" opacity="0"></rect><path style="-webkit-tap-highlight-color: rgba(0, 0, 0, 0); opacity: 0;" fill="none" stroke="#000000" d="M357,110L771.7,110" stroke-dasharray="4,3" opacity="0"></path><circle style="-webkit-tap-highlight-color: rgba(0, 0, 0, 0);" cx="771.7" cy="110" r="0" fill="#ffffff" stroke="#000000"></circle><path style="-webkit-tap-highlight-color: rgba(0, 0, 0, 0); opacity: 0;" fill="none" stroke="#000000" d="M357,110L357,119.1" stroke-dasharray="4,3" opacity="0"></path><circle style="-webkit-tap-highlight-color: rgba(0, 0, 0, 0);" cx="357" cy="119.1" r="0" fill="#ffffff" stroke="#000000"></circle><path style="-webkit-tap-highlight-color: rgba(0, 0, 0, 0); opacity: 0;" fill="none" stroke="#000000" d="M38,103L676,103L676,117L38,117L38,103" stroke-dasharray="4,3" opacity="0"></path><rect style="-webkit-tap-highlight-color: rgba(0, 0, 0, 0);" x="38" y="103" width="0" height="0" r="0" rx="0" ry="0" fill="#ffffff" stroke="#000000" transform="matrix(1,0,0,1,0,0)"></rect><rect style="-webkit-tap-highlight-color: rgba(0, 0, 0, 0);" x="676" y="103" width="0" height="0" r="0" rx="0" ry="0" fill="#ffffff" stroke="#000000" transform="matrix(1,0,0,1,0,0)"></rect><rect style="-webkit-tap-highlight-color: rgba(0, 0, 0, 0);" x="676" y="117" width="0" height="0" r="0" rx="0" ry="0" fill="#ffffff" stroke="#000000" transform="matrix(1,0,0,1,0,0)"></rect><rect style="-webkit-tap-highlight-color: rgba(0, 0, 0, 0);" x="38" y="117" width="0" height="0" r="0" rx="0" ry="0" fill="#ffffff" stroke="#000000" transform="matrix(1,0,0,1,0,0)"></rect><circle style="-webkit-tap-highlight-color: rgba(0, 0, 0, 0);" cx="357" cy="110" r="0" fill="#ffffff" stroke="#000000"></circle><path style="-webkit-tap-highlight-color: rgba(0, 0, 0, 0); opacity: 0;" fill="none" stroke="#000000" d="M310,63L724.7,63" stroke-dasharray="4,3" opacity="0"></path><circle style="-webkit-tap-highlight-color: rgba(0, 0, 0, 0);" cx="724.7" cy="63" r="0" fill="#ffffff" stroke="#000000"></circle><path style="-webkit-tap-highlight-color: rgba(0, 0, 0, 0); opacity: 0;" fill="none" stroke="#000000" d="M310,63L310,72.1" stroke-dasharray="4,3" opacity="0"></path><circle style="-webkit-tap-highlight-color: rgba(0, 0, 0, 0);" cx="310" cy="72.1" r="0" fill="#ffffff" stroke="#000000"></circle><path style="-webkit-tap-highlight-color: rgba(0, 0, 0, 0); opacity: 0;" fill="none" stroke="#000000" d="M-9,56L629,56L629,70L-9,70L-9,56" stroke-dasharray="4,3" opacity="0"></path><rect style="-webkit-tap-highlight-color: rgba(0, 0, 0, 0);" x="-9" y="56" width="0" height="0" r="0" rx="0" ry="0" fill="#ffffff" stroke="#000000" transform="matrix(1,0,0,1,0,0)"></rect><rect style="-webkit-tap-highlight-color: rgba(0, 0, 0, 0);" x="629" y="56" width="0" height="0" r="0" rx="0" ry="0" fill="#ffffff" stroke="#000000" transform="matrix(1,0,0,1,0,0)"></rect><rect style="-webkit-tap-highlight-color: rgba(0, 0, 0, 0);" x="629" y="70" width="0" height="0" r="0" rx="0" ry="0" fill="#ffffff" stroke="#000000" transform="matrix(1,0,0,1,0,0)"></rect><rect style="-webkit-tap-highlight-color: rgba(0, 0, 0, 0);" x="-9" y="70" width="0" height="0" r="0" rx="0" ry="0" fill="#ffffff" stroke="#000000" transform="matrix(1,0,0,1,0,0)"></rect><circle style="-webkit-tap-highlight-color: rgba(0, 0, 0, 0);" cx="310" cy="63" r="0" fill="#ffffff" stroke="#000000"></circle></svg>
