<svg style="overflow: hidden; position: relative;" height="500" version="1.1" width="100%" xmlns="http://www.w3.org/2000/svg"><rect style="-webkit-tap-highlight-color: rgba(0, 0, 0, 0);" x="0" y="0" width="100%" height="100%" r="0" rx="0" ry="0" fill="#c80000" stroke="#eeeeee" stroke-width="1"></rect><desc style="-webkit-tap-highlight-color: rgba(0, 0, 0, 0);">Created with Raphaël 2.1.0</desc><defs style="-webkit-tap-highlight-color: rgba(0, 0, 0, 0);"></defs><text style="-webkit-tap-highlight-color: rgba(0, 0, 0, 0); text-anchor: middle; font-style: normal; font-variant: normal; font-weight: normal; font-size: 12px; line-height: normal; font-family: Verdana, Helvetica, sans-serif; cursor: pointer;" x="400" y="100" text-anchor="middle" font="10px &quot;Arial&quot;" stroke="none" fill="#000000" font-size="12px" font-family="Verdana, Helvetica, sans-serif" transform="matrix(1,0,0,1,59,86)"><tspan style="-webkit-tap-highlight-color: rgba(0, 0, 0, 0);" dy="5">you can drag this text....to edit this ...type in the text area above..click on the 'T' symbol to get new text.</tspan></text><rect style="-webkit-tap-highlight-color: rgba(0, 0, 0, 0); opacity: 0; cursor: nw-resize;" x="100" y="80" width="10" height="10" r="0" rx="0" ry="0" fill="#77bb44" stroke="#77bb44" opacity="0"></rect><path style="-webkit-tap-highlight-color: rgba(0, 0, 0, 0); opacity: 0;" fill="none" stroke="#000000" d="M459,186LNaN,186" stroke-dasharray="4,3" opacity="0"></path><circle style="-webkit-tap-highlight-color: rgba(0, 0, 0, 0);" cx="NaN" cy="186" r="0" fill="#ffffff" stroke="#000000"></circle><path style="-webkit-tap-highlight-color: rgba(0, 0, 0, 0); opacity: 0;" fill="none" stroke="#000000" d="M459,186LNaN,195.1" stroke-dasharray="4,3" opacity="0"></path><circle style="-webkit-tap-highlight-color: rgba(0, 0, 0, 0);" cx="NaN" cy="195.1" r="0" fill="#ffffff" stroke="#000000"></circle><path style="-webkit-tap-highlight-color: rgba(0, 0, 0, 0); opacity: 0;" fill="none" stroke="#000000" d="M129,179L789,179L789,193L129,193L129,179" stroke-dasharray="4,3" opacity="0"></path><rect style="-webkit-tap-highlight-color: rgba(0, 0, 0, 0);" x="129" y="179" width="0" height="0" r="0" rx="0" ry="0" fill="#ffffff" stroke="#000000" transform="matrix(1,0,0,1,0,0)"></rect><rect style="-webkit-tap-highlight-color: rgba(0, 0, 0, 0);" x="789" y="179" width="0" height="0" r="0" rx="0" ry="0" fill="#ffffff" stroke="#000000" transform="matrix(1,0,0,1,0,0)"></rect><rect style="-webkit-tap-highlight-color: rgba(0, 0, 0, 0);" x="789" y="193" width="0" height="0" r="0" rx="0" ry="0" fill="#ffffff" stroke="#000000" transform="matrix(1,0,0,1,0,0)"></rect><rect style="-webkit-tap-highlight-color: rgba(0, 0, 0, 0);" x="129" y="193" width="0" height="0" r="0" rx="0" ry="0" fill="#ffffff" stroke="#000000" transform="matrix(1,0,0,1,0,0)"></rect><circle style="-webkit-tap-highlight-color: rgba(0, 0, 0, 0);" cx="459" cy="186" r="0" fill="#ffffff" stroke="#000000"></circle><path style="-webkit-tap-highlight-color: rgba(0, 0, 0, 0); font-size: 14px;" fill="none" stroke="#000000" d="M40,100L360,100" font-size="14px" transform="matrix(2.2313,0,0,6,-49.25,-450)" stroke-width="0.16666666666666666"></path><path style="-webkit-tap-highlight-color: rgba(0, 0, 0, 0); font-size: 14px;" fill="none" stroke="#000000" d="M200,90L200,110" font-size="14px" transform="matrix(2.2313,0,0,6,-49.25,-450)" stroke-width="0.16666666666666666"></path><path style="-webkit-tap-highlight-color: rgba(0, 0, 0, 0); font-size: 14px;" fill="none" stroke="#000000" d="M150,90L150,110" font-size="14px" transform="matrix(2.2313,0,0,6,-49.25,-450)" stroke-width="0.16666666666666666"></path><path style="-webkit-tap-highlight-color: rgba(0, 0, 0, 0); font-size: 14px;" fill="none" stroke="#000000" d="M100,90L100,110" font-size="14px" transform="matrix(2.2313,0,0,6,-49.25,-450)" stroke-width="0.16666666666666666"></path><path style="-webkit-tap-highlight-color: rgba(0, 0, 0, 0); font-size: 14px;" fill="none" stroke="#000000" d="M50,90L50,110" font-size="14px" transform="matrix(2.2313,0,0,6,-49.25,-450)" stroke-width="0.16666666666666666"></path><path style="-webkit-tap-highlight-color: rgba(0, 0, 0, 0); font-size: 14px;" fill="none" stroke="#000000" d="M250,90L250,110" font-size="14px" transform="matrix(2.2313,0,0,6,-49.25,-450)" stroke-width="0.16666666666666666"></path><path style="-webkit-tap-highlight-color: rgba(0, 0, 0, 0); font-size: 14px;" fill="none" stroke="#000000" d="M300,90L300,110" font-size="14px" transform="matrix(2.2313,0,0,6,-49.25,-450)" stroke-width="0.16666666666666666"></path><path style="-webkit-tap-highlight-color: rgba(0, 0, 0, 0); font-size: 14px;" fill="none" stroke="#000000" d="M350,90L350,110" font-size="14px" transform="matrix(2.2313,0,0,6,-49.25,-450)" stroke-width="0.16666666666666666"></path><text style="-webkit-tap-highlight-color: rgba(0, 0, 0, 0); text-anchor: middle; font-style: normal; font-variant: normal; font-weight: normal; font-size: 14px; line-height: normal; font-family: Arial;" x="200" y="120" text-anchor="middle" font="10px &quot;Arial&quot;" stroke="#000000" fill="#000000" font-size="14px" transform="matrix(2.2313,0,0,6,-49.25,-450)" stroke-width="0.16666666666666666"><tspan style="-webkit-tap-highlight-color: rgba(0, 0, 0, 0);" dy="5">0</tspan></text><text style="-webkit-tap-highlight-color: rgba(0, 0, 0, 0); text-anchor: middle; font-style: normal; font-variant: normal; font-weight: normal; font-size: 14px; line-height: normal; font-family: Arial;" x="150" y="120" text-anchor="middle" font="10px &quot;Arial&quot;" stroke="#000000" fill="#000000" font-size="14px" transform="matrix(2.2313,0,0,6,-49.25,-450)" stroke-width="0.16666666666666666"><tspan style="-webkit-tap-highlight-color: rgba(0, 0, 0, 0);" dy="5">-1</tspan></text><text style="-webkit-tap-highlight-color: rgba(0, 0, 0, 0); text-anchor: middle; font-style: normal; font-variant: normal; font-weight: normal; font-size: 14px; line-height: normal; font-family: Arial;" x="100" y="120" text-anchor="middle" font="10px &quot;Arial&quot;" stroke="#000000" fill="#000000" font-size="14px" transform="matrix(2.2313,0,0,6,-49.25,-450)" stroke-width="0.16666666666666666"><tspan style="-webkit-tap-highlight-color: rgba(0, 0, 0, 0);" dy="5">-2</tspan></text><text style="-webkit-tap-highlight-color: rgba(0, 0, 0, 0); text-anchor: middle; font-style: normal; font-variant: normal; font-weight: normal; font-size: 14px; line-height: normal; font-family: Arial;" x="50" y="120" text-anchor="middle" font="10px &quot;Arial&quot;" stroke="#000000" fill="#000000" font-size="14px" transform="matrix(2.2313,0,0,6,-49.25,-450)" stroke-width="0.16666666666666666"><tspan style="-webkit-tap-highlight-color: rgba(0, 0, 0, 0);" dy="5">-3</tspan></text><text style="-webkit-tap-highlight-color: rgba(0, 0, 0, 0); text-anchor: middle; font-style: normal; font-variant: normal; font-weight: normal; font-size: 14px; line-height: normal; font-family: Arial;" x="250" y="120" text-anchor="middle" font="10px &quot;Arial&quot;" stroke="#000000" fill="#000000" font-size="14px" transform="matrix(2.2313,0,0,6,-49.25,-450)" stroke-width="0.16666666666666666"><tspan style="-webkit-tap-highlight-color: rgba(0, 0, 0, 0);" dy="5">1</tspan></text><text style="-webkit-tap-highlight-color: rgba(0, 0, 0, 0); text-anchor: middle; font-style: normal; font-variant: normal; font-weight: normal; font-size: 14px; line-height: normal; font-family: Arial;" x="300" y="120" text-anchor="middle" font="10px &quot;Arial&quot;" stroke="#000000" fill="#000000" font-size="14px" transform="matrix(2.2313,0,0,6,-49.25,-450)" stroke-width="0.16666666666666666"><tspan style="-webkit-tap-highlight-color: rgba(0, 0, 0, 0);" dy="5">2</tspan></text><text style="-webkit-tap-highlight-color: rgba(0, 0, 0, 0); text-anchor: middle; font-style: normal; font-variant: normal; font-weight: normal; font-size: 14px; line-height: normal; font-family: Arial;" x="350" y="120" text-anchor="middle" font="10px &quot;Arial&quot;" stroke="#000000" fill="#000000" font-size="14px" transform="matrix(2.2313,0,0,6,-49.25,-450)" stroke-width="0.16666666666666666"><tspan style="-webkit-tap-highlight-color: rgba(0, 0, 0, 0);" dy="5">3</tspan></text><path style="-webkit-tap-highlight-color: rgba(0, 0, 0, 0); opacity: 0;" fill="none" stroke="#ffffff" d="M397,204LNaN,204" stroke-dasharray="4,3" opacity="0"></path><circle style="-webkit-tap-highlight-color: rgba(0, 0, 0, 0);" cx="NaN" cy="204" r="0" fill="#ffffff" stroke="#ffffff"></circle><path style="-webkit-tap-highlight-color: rgba(0, 0, 0, 0); opacity: 0;" fill="none" stroke="#ffffff" d="M397,204LNaN,352.20000000000005" stroke-dasharray="4,3" opacity="0"></path><circle style="-webkit-tap-highlight-color: rgba(0, 0, 0, 0);" cx="NaN" cy="352.20000000000005" r="0" fill="#ffffff" stroke="#ffffff"></circle><path style="-webkit-tap-highlight-color: rgba(0, 0, 0, 0); opacity: 0;" fill="none" stroke="#ffffff" d="M39.99999999999999,90L754,90L754,318L40.00000000000001,318L39.99999999999999,90" stroke-dasharray="4,3" opacity="0"></path><rect style="-webkit-tap-highlight-color: rgba(0, 0, 0, 0);" x="34.99999999999999" y="85" width="10" height="10" r="0" rx="0" ry="0" fill="#ffffff" stroke="#ffffff" transform="matrix(1,0,0,1,0,0)"></rect><rect style="-webkit-tap-highlight-color: rgba(0, 0, 0, 0);" x="749" y="85" width="10" height="10" r="0" rx="0" ry="0" fill="#ffffff" stroke="#ffffff" transform="matrix(1,0,0,1,0,0)"></rect><rect style="-webkit-tap-highlight-color: rgba(0, 0, 0, 0);" x="749" y="313" width="10" height="10" r="0" rx="0" ry="0" fill="#ffffff" stroke="#ffffff" transform="matrix(1,0,0,1,0,0)"></rect><rect style="-webkit-tap-highlight-color: rgba(0, 0, 0, 0);" x="35.00000000000001" y="313" width="10" height="10" r="0" rx="0" ry="0" fill="#ffffff" stroke="#ffffff" transform="matrix(1,0,0,1,0,0)"></rect><circle style="-webkit-tap-highlight-color: rgba(0, 0, 0, 0);" cx="397" cy="204" r="0" fill="#ffffff" stroke="#ffffff"></circle></svg>
