<svg height="200" version="1.1" width="800" xmlns="http://www.w3.org/2000/svg" style="overflow: hidden; position: relative; left: -0.5px;"><rect x="0" y="0" width="100%" height="100%" r="0" rx="0" ry="0" fill="#ffffff" stroke="#eeeeee" stroke-width="1" style="-webkit-tap-highlight-color: rgba(0, 0, 0, 0);"></rect><desc style="-webkit-tap-highlight-color: rgba(0, 0, 0, 0);">Created with Raphaël 2.1.0</desc><defs style="-webkit-tap-highlight-color: rgba(0, 0, 0, 0);"></defs><rect x="5" y="25" width="99%" height="0.5" r="0" rx="0" ry="0" fill="none" stroke="#eeeeee" style="-webkit-tap-highlight-color: rgba(0, 0, 0, 0);"></rect><rect x="5" y="50" width="99%" height="0.5" r="0" rx="0" ry="0" fill="none" stroke="#eeeeee" style="-webkit-tap-highlight-color: rgba(0, 0, 0, 0);"></rect><rect x="5" y="75" width="99%" height="0.5" r="0" rx="0" ry="0" fill="none" stroke="#eeeeee" style="-webkit-tap-highlight-color: rgba(0, 0, 0, 0);"></rect><rect x="5" y="100" width="99%" height="0.5" r="0" rx="0" ry="0" fill="none" stroke="#eeeeee" style="-webkit-tap-highlight-color: rgba(0, 0, 0, 0);"></rect><rect x="5" y="125" width="99%" height="0.5" r="0" rx="0" ry="0" fill="none" stroke="#eeeeee" style="-webkit-tap-highlight-color: rgba(0, 0, 0, 0);"></rect><rect x="5" y="150" width="99%" height="0.5" r="0" rx="0" ry="0" fill="none" stroke="#eeeeee" style="-webkit-tap-highlight-color: rgba(0, 0, 0, 0);"></rect><rect x="5" y="175" width="99%" height="0.5" r="0" rx="0" ry="0" fill="none" stroke="#eeeeee" style="-webkit-tap-highlight-color: rgba(0, 0, 0, 0);"></rect><rect x="5" y="200" width="99%" height="0.5" r="0" rx="0" ry="0" fill="none" stroke="#eeeeee" style="-webkit-tap-highlight-color: rgba(0, 0, 0, 0);"></rect><rect x="5" y="225" width="99%" height="0.5" r="0" rx="0" ry="0" fill="none" stroke="#eeeeee" style="-webkit-tap-highlight-color: rgba(0, 0, 0, 0);"></rect><rect x="5" y="250" width="99%" height="0.5" r="0" rx="0" ry="0" fill="none" stroke="#eeeeee" style="-webkit-tap-highlight-color: rgba(0, 0, 0, 0);"></rect><rect x="5" y="275" width="99%" height="0.5" r="0" rx="0" ry="0" fill="none" stroke="#eeeeee" style="-webkit-tap-highlight-color: rgba(0, 0, 0, 0);"></rect><rect x="5" y="300" width="99%" height="0.5" r="0" rx="0" ry="0" fill="none" stroke="#eeeeee" style="-webkit-tap-highlight-color: rgba(0, 0, 0, 0);"></rect><rect x="5" y="325" width="99%" height="0.5" r="0" rx="0" ry="0" fill="none" stroke="#eeeeee" style="-webkit-tap-highlight-color: rgba(0, 0, 0, 0);"></rect><rect x="5" y="350" width="99%" height="0.5" r="0" rx="0" ry="0" fill="none" stroke="#eeeeee" style="-webkit-tap-highlight-color: rgba(0, 0, 0, 0);"></rect><rect x="5" y="375" width="99%" height="0.5" r="0" rx="0" ry="0" fill="none" stroke="#eeeeee" style="-webkit-tap-highlight-color: rgba(0, 0, 0, 0);"></rect><rect x="5" y="400" width="99%" height="0.5" r="0" rx="0" ry="0" fill="none" stroke="#eeeeee" style="-webkit-tap-highlight-color: rgba(0, 0, 0, 0);"></rect><rect x="5" y="425" width="99%" height="0.5" r="0" rx="0" ry="0" fill="none" stroke="#eeeeee" style="-webkit-tap-highlight-color: rgba(0, 0, 0, 0);"></rect><rect x="5" y="450" width="99%" height="0.5" r="0" rx="0" ry="0" fill="none" stroke="#eeeeee" style="-webkit-tap-highlight-color: rgba(0, 0, 0, 0);"></rect><rect x="5" y="475" width="99%" height="0.5" r="0" rx="0" ry="0" fill="none" stroke="#eeeeee" style="-webkit-tap-highlight-color: rgba(0, 0, 0, 0);"></rect><rect x="5" y="500" width="99%" height="0.5" r="0" rx="0" ry="0" fill="none" stroke="#eeeeee" style="-webkit-tap-highlight-color: rgba(0, 0, 0, 0);"></rect><rect x="50" y="0" width="0.5" height="100%" r="0" rx="0" ry="0" fill="none" stroke="#ff0000" font-size="14px" style="-webkit-tap-highlight-color: rgba(0, 0, 0, 0); font-size: 14px;"></rect><rect x="55" y="0" width="0.5" height="100%" r="0" rx="0" ry="0" fill="none" stroke="#ff0000" font-size="14px" style="-webkit-tap-highlight-color: rgba(0, 0, 0, 0); font-size: 14px;"></rect><text x="420" y="50" text-anchor="middle" font="10px &quot;Arial&quot;" stroke="none" fill="#000000" font-size="13px" font-family="Verdana, Helvetica, sans-serif" transform="matrix(1,0,0,1,-138,-14)" style="-webkit-tap-highlight-color: rgba(0, 0, 0, 0); text-anchor: middle; font-style: normal; font-variant: normal; font-weight: normal; font-size: 13px; line-height: normal; font-family: Verdana, Helvetica, sans-serif; cursor: pointer;"><tspan dy="5" style="-webkit-tap-highlight-color: rgba(0, 0, 0, 0);"> let the point between en A nad B be E and point between B and D</tspan></text><rect x="100" y="80" width="10" height="10" r="0" rx="0" ry="0" fill="#77bb44" stroke="#77bb44" opacity="0" style="-webkit-tap-highlight-color: rgba(0, 0, 0, 0); opacity: 0; cursor: nw-resize;"></rect><text x="420" y="50" text-anchor="middle" font="10px &quot;Arial&quot;" stroke="none" fill="#000000" font-size="13px" font-family="Verdana, Helvetica, sans-serif" transform="matrix(1,0,0,1,-68,13)" style="-webkit-tap-highlight-color: rgba(0, 0, 0, 0); text-anchor: middle; font-style: normal; font-variant: normal; font-weight: normal; font-size: 13px; line-height: normal; font-family: Verdana, Helvetica, sans-serif; cursor: pointer;"><tspan dy="5" style="-webkit-tap-highlight-color: rgba(0, 0, 0, 0);"> be F..now in the triangle AEC the sum of the unkinown angles is 90 as the other angle </tspan></text><rect x="100" y="80" width="10" height="10" r="0" rx="0" ry="0" fill="#77bb44" stroke="#77bb44" opacity="0" style="-webkit-tap-highlight-color: rgba(0, 0, 0, 0); opacity: 0; cursor: nw-resize;"></rect><text x="420" y="50" text-anchor="middle" font="10px &quot;Arial&quot;" stroke="none" fill="#000000" font-size="13px" font-family="Verdana, Helvetica, sans-serif" transform="matrix(1,0,0,1,-62,39)" style="-webkit-tap-highlight-color: rgba(0, 0, 0, 0); text-anchor: middle; font-style: normal; font-variant: normal; font-weight: normal; font-size: 13px; line-height: normal; font-family: Verdana, Helvetica, sans-serif; cursor: pointer;"><tspan dy="5" style="-webkit-tap-highlight-color: rgba(0, 0, 0, 0);">at A is 90...similarly in FCD the sum of unknown agles is 90...also in the third triangle EFB</tspan><tspan dy="15.6" x="420" style="-webkit-tap-highlight-color: rgba(0, 0, 0, 0);"></tspan></text><rect x="100" y="80" width="10" height="10" r="0" rx="0" ry="0" fill="#77bb44" stroke="#77bb44" opacity="0" style="-webkit-tap-highlight-color: rgba(0, 0, 0, 0); opacity: 0; cursor: nw-resize;"></rect><text x="420" y="50" text-anchor="middle" font="10px &quot;Arial&quot;" stroke="none" fill="#000000" font-size="13px" font-family="Verdana, Helvetica, sans-serif" transform="matrix(1,0,0,1,-146,65)" style="-webkit-tap-highlight-color: rgba(0, 0, 0, 0); text-anchor: middle; font-style: normal; font-variant: normal; font-weight: normal; font-size: 13px; line-height: normal; font-family: Verdana, Helvetica, sans-serif; cursor: pointer;"><tspan dy="5" style="-webkit-tap-highlight-color: rgba(0, 0, 0, 0);">the sum of the unkonow angles is 90....adding these we get 27</tspan></text><rect x="100" y="80" width="10" height="10" r="0" rx="0" ry="0" fill="#77bb44" stroke="#77bb44" opacity="0" style="-webkit-tap-highlight-color: rgba(0, 0, 0, 0); opacity: 0; cursor: nw-resize;"></rect><path fill="none" stroke="#000000" d="M352,63LNaN,NaN" stroke-dasharray="4,3" opacity="0" style="-webkit-tap-highlight-color: rgba(0, 0, 0, 0); opacity: 0;"></path><circle cx="NaN" cy="NaN" r="0" fill="#ffffff" stroke="#000000" style="-webkit-tap-highlight-color: rgba(0, 0, 0, 0);"></circle><path fill="none" stroke="#000000" d="M352,63LNaN,NaN" stroke-dasharray="4,3" opacity="0" style="-webkit-tap-highlight-color: rgba(0, 0, 0, 0); opacity: 0;"></path><circle cx="NaN" cy="NaN" r="0" fill="#ffffff" stroke="#000000" style="-webkit-tap-highlight-color: rgba(0, 0, 0, 0);"></circle><path fill="none" stroke="#000000" d="M272,55L432,55L432,71L272,71L272,55" stroke-dasharray="4,3" opacity="0" style="-webkit-tap-highlight-color: rgba(0, 0, 0, 0); opacity: 0;"></path><rect x="272" y="55" width="0" height="0" r="0" rx="0" ry="0" fill="#ffffff" stroke="#000000" transform="matrix(1,0,0,1,0,0)" style="-webkit-tap-highlight-color: rgba(0, 0, 0, 0);"></rect><rect x="432" y="55" width="0" height="0" r="0" rx="0" ry="0" fill="#ffffff" stroke="#000000" transform="matrix(1,0,0,1,0,0)" style="-webkit-tap-highlight-color: rgba(0, 0, 0, 0);"></rect><rect x="432" y="71" width="0" height="0" r="0" rx="0" ry="0" fill="#ffffff" stroke="#000000" transform="matrix(1,0,0,1,0,0)" style="-webkit-tap-highlight-color: rgba(0, 0, 0, 0);"></rect><rect x="272" y="71" width="0" height="0" r="0" rx="0" ry="0" fill="#ffffff" stroke="#000000" transform="matrix(1,0,0,1,0,0)" style="-webkit-tap-highlight-color: rgba(0, 0, 0, 0);"></rect><circle cx="352" cy="63" r="0" fill="#ffffff" stroke="#000000" style="-webkit-tap-highlight-color: rgba(0, 0, 0, 0);"></circle><path fill="none" stroke="#000000" d="M358,89LNaN,NaN" stroke-dasharray="4,3" opacity="0" style="-webkit-tap-highlight-color: rgba(0, 0, 0, 0); opacity: 0;"></path><circle cx="NaN" cy="NaN" r="0" fill="#ffffff" stroke="#000000" style="-webkit-tap-highlight-color: rgba(0, 0, 0, 0);"></circle><path fill="none" stroke="#000000" d="M358,89LNaN,NaN" stroke-dasharray="4,3" opacity="0" style="-webkit-tap-highlight-color: rgba(0, 0, 0, 0); opacity: 0;"></path><circle cx="NaN" cy="NaN" r="0" fill="#ffffff" stroke="#000000" style="-webkit-tap-highlight-color: rgba(0, 0, 0, 0);"></circle><path fill="none" stroke="#000000" d="M278,81L438,81L438,97L278,97L278,81" stroke-dasharray="4,3" opacity="0" style="-webkit-tap-highlight-color: rgba(0, 0, 0, 0); opacity: 0;"></path><rect x="278" y="81" width="0" height="0" r="0" rx="0" ry="0" fill="#ffffff" stroke="#000000" transform="matrix(1,0,0,1,0,0)" style="-webkit-tap-highlight-color: rgba(0, 0, 0, 0);"></rect><rect x="438" y="81" width="0" height="0" r="0" rx="0" ry="0" fill="#ffffff" stroke="#000000" transform="matrix(1,0,0,1,0,0)" style="-webkit-tap-highlight-color: rgba(0, 0, 0, 0);"></rect><rect x="438" y="97" width="0" height="0" r="0" rx="0" ry="0" fill="#ffffff" stroke="#000000" transform="matrix(1,0,0,1,0,0)" style="-webkit-tap-highlight-color: rgba(0, 0, 0, 0);"></rect><rect x="278" y="97" width="0" height="0" r="0" rx="0" ry="0" fill="#ffffff" stroke="#000000" transform="matrix(1,0,0,1,0,0)" style="-webkit-tap-highlight-color: rgba(0, 0, 0, 0);"></rect><circle cx="358" cy="89" r="0" fill="#ffffff" stroke="#000000" style="-webkit-tap-highlight-color: rgba(0, 0, 0, 0);"></circle><path fill="none" stroke="#000000" d="M274,115LNaN,NaN" stroke-dasharray="4,3" opacity="0" style="-webkit-tap-highlight-color: rgba(0, 0, 0, 0); opacity: 0;"></path><circle cx="NaN" cy="NaN" r="0" fill="#ffffff" stroke="#000000" style="-webkit-tap-highlight-color: rgba(0, 0, 0, 0);"></circle><path fill="none" stroke="#000000" d="M274,115LNaN,NaN" stroke-dasharray="4,3" opacity="0" style="-webkit-tap-highlight-color: rgba(0, 0, 0, 0); opacity: 0;"></path><circle cx="NaN" cy="NaN" r="0" fill="#ffffff" stroke="#000000" style="-webkit-tap-highlight-color: rgba(0, 0, 0, 0);"></circle><path fill="none" stroke="#000000" d="M194,107L354,107L354,123L194,123L194,107" stroke-dasharray="4,3" opacity="0" style="-webkit-tap-highlight-color: rgba(0, 0, 0, 0); opacity: 0;"></path><rect x="194" y="107" width="0" height="0" r="0" rx="0" ry="0" fill="#ffffff" stroke="#000000" transform="matrix(1,0,0,1,0,0)" style="-webkit-tap-highlight-color: rgba(0, 0, 0, 0);"></rect><rect x="354" y="107" width="0" height="0" r="0" rx="0" ry="0" fill="#ffffff" stroke="#000000" transform="matrix(1,0,0,1,0,0)" style="-webkit-tap-highlight-color: rgba(0, 0, 0, 0);"></rect><rect x="354" y="123" width="0" height="0" r="0" rx="0" ry="0" fill="#ffffff" stroke="#000000" transform="matrix(1,0,0,1,0,0)" style="-webkit-tap-highlight-color: rgba(0, 0, 0, 0);"></rect><rect x="194" y="123" width="0" height="0" r="0" rx="0" ry="0" fill="#ffffff" stroke="#000000" transform="matrix(1,0,0,1,0,0)" style="-webkit-tap-highlight-color: rgba(0, 0, 0, 0);"></rect><circle cx="274" cy="115" r="0" fill="#ffffff" stroke="#000000" style="-webkit-tap-highlight-color: rgba(0, 0, 0, 0);"></circle><path fill="none" stroke="#000000" d="M282,36LNaN,NaN" stroke-dasharray="4,3" opacity="0" style="-webkit-tap-highlight-color: rgba(0, 0, 0, 0); opacity: 0;"></path><circle cx="NaN" cy="NaN" r="0" fill="#ffffff" stroke="#000000" style="-webkit-tap-highlight-color: rgba(0, 0, 0, 0);"></circle><path fill="none" stroke="#000000" d="M282,36LNaN,NaN" stroke-dasharray="4,3" opacity="0" style="-webkit-tap-highlight-color: rgba(0, 0, 0, 0); opacity: 0;"></path><circle cx="NaN" cy="NaN" r="0" fill="#ffffff" stroke="#000000" style="-webkit-tap-highlight-color: rgba(0, 0, 0, 0);"></circle><path fill="none" stroke="#000000" d="M202,28L362,28L362,44L202,44L202,28" stroke-dasharray="4,3" opacity="0" style="-webkit-tap-highlight-color: rgba(0, 0, 0, 0); opacity: 0;"></path><rect x="202" y="28" width="0" height="0" r="0" rx="0" ry="0" fill="#ffffff" stroke="#000000" transform="matrix(1,0,0,1,0,0)" style="-webkit-tap-highlight-color: rgba(0, 0, 0, 0);"></rect><rect x="362" y="28" width="0" height="0" r="0" rx="0" ry="0" fill="#ffffff" stroke="#000000" transform="matrix(1,0,0,1,0,0)" style="-webkit-tap-highlight-color: rgba(0, 0, 0, 0);"></rect><rect x="362" y="44" width="0" height="0" r="0" rx="0" ry="0" fill="#ffffff" stroke="#000000" transform="matrix(1,0,0,1,0,0)" style="-webkit-tap-highlight-color: rgba(0, 0, 0, 0);"></rect><rect x="202" y="44" width="0" height="0" r="0" rx="0" ry="0" fill="#ffffff" stroke="#000000" transform="matrix(1,0,0,1,0,0)" style="-webkit-tap-highlight-color: rgba(0, 0, 0, 0);"></rect><circle cx="282" cy="36" r="0" fill="#ffffff" stroke="#000000" style="-webkit-tap-highlight-color: rgba(0, 0, 0, 0);"></circle></svg>
