<?xml version="1.0" encoding="UTF-8" standalone="no"?>
<!-- Created with Inkscape (http://www.inkscape.org/) -->

<svg
   xmlns:dc="http://purl.org/dc/elements/1.1/"
   xmlns:cc="http://creativecommons.org/ns#"
   xmlns:rdf="http://www.w3.org/1999/02/22-rdf-syntax-ns#"
   xmlns:svg="http://www.w3.org/2000/svg"
   xmlns="http://www.w3.org/2000/svg"
   xmlns:sodipodi="http://sodipodi.sourceforge.net/DTD/sodipodi-0.dtd"
   xmlns:inkscape="http://www.inkscape.org/namespaces/inkscape"
   id="svg2991"
   version="1.1"
   inkscape:version="0.48.4 r9939"
   width="128"
   height="146"
   sodipodi:docname="confusion.svg">
  <metadata
     id="metadata2997">
    <rdf:RDF>
      <cc:Work
         rdf:about="">
        <dc:format>image/svg+xml</dc:format>
        <dc:type
           rdf:resource="http://purl.org/dc/dcmitype/StillImage" />
        <dc:title></dc:title>
      </cc:Work>
    </rdf:RDF>
  </metadata>
  <defs
     id="defs2995" />
  <sodipodi:namedview
     pagecolor="#ffffff"
     bordercolor="#666666"
     borderopacity="1"
     objecttolerance="10"
     gridtolerance="10"
     guidetolerance="10"
     inkscape:pageopacity="0"
     inkscape:pageshadow="2"
     inkscape:window-width="1366"
     inkscape:window-height="716"
     id="namedview2993"
     showgrid="false"
     inkscape:zoom="2.1087891"
     inkscape:cx="31.023897"
     inkscape:cy="59.865913"
     inkscape:window-x="-8"
     inkscape:window-y="-8"
     inkscape:window-maximized="1"
     inkscape:current-layer="svg2991" />
  <path
     style="fill:#ffffff;fill-opacity:1"
     d="m 78.227606,146.00335 c -4.921867,-0.13291 -11.109185,-0.89737 -12.133583,-1.49916 -0.707596,-0.41565 1.088515,-0.60016 6.073008,-0.62384 8.095448,-0.0385 15.220257,0.71024 14.773178,1.55243 -0.293214,0.55232 -2.948827,0.72624 -8.712603,0.57059 z m -1.111865,-3.66033 c -1.335171,-0.0478 -3.367044,-0.19911 -4.515275,-0.3361 l -2.087705,-0.24903 2.666311,-1.98764 2.666309,-1.98762 14.865468,0.21493 c 16.860251,0.24376 21.744291,0.091 20.349461,-0.63654 -1.02517,-0.53473 -31.553844,-3.41641 -34.571673,-3.26331 -0.112562,0.006 -0.04697,-0.28676 0.145861,-0.64993 0.73649,-1.38735 35.276292,0.7712 46.964232,2.93502 0.83795,0.15512 1.2486,0.54852 1.02069,0.97783 -0.27619,0.52024 -5.06575,0.84746 -17.37233,1.18689 -9.345074,0.25774 -17.951398,0.3533 -19.125184,0.21239 -1.913631,-0.22977 -2.229538,-0.0547 -3.057536,1.69476 -0.980381,2.07142 -1.224861,2.12949 -7.948631,1.88835 z m -51.926891,1.55899 c -3.43421,-1.11509 -3.807062,-1.61666 -3.020854,-4.06358 0.368877,-1.14802 1.065327,-2.45385 1.547667,-2.90184 0.482342,-0.44799 0.706692,-0.97157 0.498557,-1.16354 -0.208126,-0.19197 0.195503,-1.82255 0.896967,-3.62356 2.244403,-5.76245 1.06547,-10.48014 -2.784783,-11.14375 -1.644869,-0.28352 -1.847343,-0.55854 -1.964561,-2.66867 -0.07187,-1.29392 -0.526684,-2.65523 -1.01069,-3.02513 -0.910056,-0.69552 -1.750229,-3.25012 -2.127968,-6.47026 -0.171041,-1.45799 0.05083,-1.90574 1.041795,-2.10274 0.96724,-0.19228 1.177406,-0.58472 0.906694,-1.69305 -0.392652,-1.60745 1.232786,-2.63981 3.284515,-2.08608 1.314827,0.35485 1.567514,-0.251 3.561952,-8.540296 1.610201,-6.69232 3.249458,-11.88867 3.894897,-12.34662 0.272096,-0.19306 -2.419104,-3.0178 -5.980455,-6.27718 l -6.475172,-5.92617 -3.940408,0.19989 c -6.4151486,0.32545 -10.9912449,-2.22524 -12.58745295,-7.01615 -1.60712996,-4.82367 -0.211121,-8.54642 3.89648505,-10.39081 2.1359487,-0.95907 5.2657879,-0.56859 9.1280489,1.13882 1.652762,0.73064 3.27349,1.13795 3.601612,0.90513 1.40742,-0.9986 2.588377,-6.08815 2.62932,-11.33157 0.03447,-4.41411 -0.258479,-6.45126 -1.486684,-10.33863 -0.841287,-2.66272 -1.631937,-4.93568 -1.756985,-5.05101 -0.125043,-0.11535 -1.480091,0.41992 -3.011187,1.18945 -4.1872727,2.10452 -4.6829289,1.98612 -3.699506,-0.88374 0.446774,-1.30379 1.570172,-3.45719 2.496437,-4.78531 1.538663,-2.2062 1.579317,-2.40945 0.470698,-2.35321 -0.667384,0.0338 -3.2251638,0.83273 -5.6839543,1.77527 -4.3355516,1.66196 -4.4725536,1.67736 -4.5374036,0.50991 -0.145386,-2.6172 2.8351601,-6.95023 6.1388596,-8.92451 2.2169563,-1.32484 7.1794663,-2.81956 9.8355813,-2.96247 2.144707,-0.11547 2.292669,-0.22226 1.421059,-1.02611 -0.535098,-0.4935 -2.74384,-1.17765 -4.908317,-1.52034 l -3.935419,-0.62307 1.991359,-1.4002904 c 3.817943,-2.684712 9.100303,-2.762215 14.648547,-0.21492 L 30.622696,7.892814 33.08984,5.5867396 c 4.109589,-3.841302 8.817083,-6.03946095 13.485603,-6.29709795 4.611483,-0.254485 6.425998,0.62566 4.520193,2.19256395 -3.792662,3.118228 -3.882503,2.995486 1.992981,2.722726 10.256677,-0.476153 20.948142,1.233377 27.194611,4.3483224 6.118833,3.05129 7.604437,5.0832 3.855574,5.27338 -2.443365,0.12395 -1.645,1.08531 1.205379,1.45148 7.054051,0.90618 17.197829,4.95621 21.436329,8.5587 2.34225,1.99078 6.22996,7.15982 5.41607,7.20111 -0.16631,0.008 -2.58817,-0.42263 -5.38191,-0.95793 -2.79375,-0.53531 -7.538659,-1.00329 -10.544251,-1.03997 -5.963166,-0.0728 -5.947828,-0.17712 -0.432402,2.94136 1.487589,0.84111 3.014014,2.05076 3.392033,2.68813 0.667423,1.1253 0.551287,1.14326 -4.010858,0.62056 -2.583986,-0.29606 -6.856296,-0.99385 -9.494013,-1.55064 -3.187911,-0.67293 -4.687786,-0.77477 -4.473537,-0.30374 0.17726,0.38973 1.925288,3.77188 3.884482,7.51589 3.480049,6.65035 3.608018,6.80496 5.550574,6.70642 1.093617,-0.0555 2.174852,0.17374 2.402742,0.50939 0.227874,0.33565 0.630961,0.45657 0.895728,0.26872 0.653773,-0.46389 1.347491,1.24855 0.980835,2.42115 -0.185778,0.5941 0.05761,0.92881 0.653304,0.89859 1.299794,-0.0659 2.42565,2.01602 2.082693,3.85135 -0.155397,0.83172 0.02159,1.68352 0.393333,1.89292 1.326161,0.74695 0.848954,3.2838 -0.94082,5.00137 -1.639956,1.57382 -1.718722,1.85565 -1.010525,3.61554 1.078271,2.67954 1.248687,7.65166 0.333923,9.74257 -2.992293,6.83948 -20.032568,17.46968 -28.286997,17.64622 -1.245757,0.0266 -5.078396,0.92118 -8.516985,1.98787 -10.229441,3.173307 -9.17804,2.253427 -8.723991,7.632556 0.216923,2.56945 0.716545,6.31761 1.110371,8.32926 0.589344,3.01036 0.557089,3.79977 -0.182226,4.46113 -0.807027,0.7219 -0.743439,1.20901 0.625968,4.79523 0.838334,2.19544 1.590224,5.17936 1.670859,6.63094 0.134188,2.41567 0.284457,2.64391 1.773735,2.69454 2.583591,0.0878 4.319995,1.45062 4.493091,3.52639 0.249288,2.98945 -1.338061,4.02663 -12.727531,8.3163 -5.138694,1.93541 -18.96868,3.17685 -22.525355,2.02198 z m 17.337644,-1.54438 c 5.143884,-1.21336 11.061687,-3.77005 11.00695,-4.75537 -0.0195,-0.35235 -0.610812,-0.41143 -1.370398,-0.13691 -8.845847,3.19664 -22.080288,5.18152 -26.256412,3.93789 -2.935594,-0.87421 -4.158376,-0.56242 -2.113263,0.53884 4.017626,2.16343 10.695235,2.31156 18.733123,0.41556 z m -4.818561,-4.42911 c 0.680029,-1.0594 0.967073,-1.91251 0.637872,-1.89582 -0.700029,0.0355 -2.923824,2.6343 -2.883,3.36914 0.05772,1.0392 1.050582,0.38765 2.245128,-1.47332 z m 3.018194,-0.46369 c 1.342812,-2.65886 0.459857,-2.89473 -1.465619,-0.39152 -1.573228,2.04529 -1.702894,2.72631 -0.507531,2.66565 0.465479,-0.0235 1.353395,-1.04696 1.97315,-2.27413 z m 10.832154,-1.29495 c 1.378396,-1.00295 1.37851,-1.00533 0.107269,-2.17774 -1.137047,-1.04867 -5.227078,-1.60209 -5.843136,-0.79063 -0.120658,0.15895 -0.03169,1.34277 0.197707,2.63071 0.40242,2.25956 0.482705,2.32422 2.287679,1.84174 1.028841,-0.27501 2.491577,-0.95183 3.250523,-1.50408 z m 7.202773,-0.069 c 0.405028,-0.38342 0.629942,-0.7953 0.499812,-0.91533 -0.328166,-0.30264 -4.549686,1.81102 -4.524448,2.26534 0.02923,0.52647 3.147174,-0.51942 4.024636,-1.35001 z M 58.414643,132.793 c -0.08849,-1.593 -2.681138,-2.28758 -4.846135,-1.29829 -1.595636,0.72912 -1.636673,0.84477 -0.65462,1.84487 0.576249,0.58685 1.065059,1.37887 1.086233,1.76007 0.0273,0.49138 0.684557,0.42561 2.258775,-0.22602 1.503073,-0.62219 2.199425,-1.29429 2.155747,-2.08063 z m -19.55673,1.60943 c 4.595137,-1.32208 5.886491,-2.37048 5.758471,-4.67507 -0.07306,-1.3154 -0.285096,-1.47277 -1.421402,-1.05501 -0.73453,0.27006 -2.18838,1.08425 -3.230768,1.80933 -2.598266,1.80728 -2.428275,1.03831 0.242019,-1.09489 l 2.174817,-1.73734 -1.793774,0.41922 c -0.986571,0.23057 -2.700857,0.65024 -3.809509,0.93258 -1.301382,0.33144 -1.894054,0.28416 -1.672374,-0.13342 0.188841,-0.35575 1.705549,-0.91011 3.37045,-1.23191 l 3.027098,-0.58512 -0.322821,-2.51248 c -0.20467,-1.59298 -0.659473,-2.58721 -1.242704,-2.71668 -0.817662,-0.18148 -0.815152,-0.13627 0.02252,0.40694 0.813284,0.52735 0.797667,0.61977 -0.11397,0.67423 -0.581032,0.0348 -1.079959,-0.28511 -1.108705,-0.71069 -0.03854,-0.56854 -0.159831,-0.57735 -0.457843,-0.0332 -0.223072,0.40732 -2.601892,1.18505 -5.28627,1.7283 l -4.880682,0.98769 -0.260393,2.893 c -0.143216,1.59114 -0.617251,3.7087 -1.053428,4.70565 -1.286118,2.93966 -0.561183,3.5522 3.934073,3.32414 2.187146,-0.11093 5.843443,-0.73883 8.125119,-1.39529 z m 13.344549,-4.01754 c 0.80946,-1.02272 0.88906,-1.83556 0.410372,-4.19036 -0.326645,-1.60684 -1.067844,-3.96383 -1.647122,-5.23779 -0.958737,-2.10848 -1.1181,-2.21402 -1.77647,-1.17642 -0.397779,0.62694 -0.924566,0.95418 -1.170637,0.72725 -0.246064,-0.22694 -0.03249,-0.88622 0.47478,-1.46509 1.199058,-1.36846 1.150582,-1.5488 -0.290847,-1.08216 -0.654484,0.21187 -1.162099,0.88697 -1.128034,1.50019 0.03406,0.61323 -0.227832,1.23093 -0.582005,1.37266 -0.412708,0.16515 -0.445304,1.08285 -0.09079,2.55564 0.537549,2.23316 0.614561,2.28596 2.730729,1.87215 l 2.177582,-0.42584 -2.329779,1.17257 -2.329784,1.17258 2.733721,0.64736 2.733727,0.64736 -3.18235,-0.0449 c -2.967311,-0.0419 -3.17704,0.0506 -3.103893,1.36738 0.125391,2.25728 4.714251,2.68032 6.3708,0.58731 z m -7.367058,-6.32808 c -0.0913,-0.93488 -0.394078,-2.52676 -0.672725,-3.53754 l -0.506647,-1.83774 -0.510429,1.88935 c -0.280726,1.03914 -0.442883,2.23532 -0.360357,2.65818 0.08252,0.42287 0.207247,1.18521 0.277174,1.69412 0.24219,1.76298 1.948434,0.92919 1.772984,-0.86637 z m -14.501598,-0.66194 c -0.01903,-0.34067 -0.729932,-0.58413 -1.580016,-0.54101 -0.876606,0.0445 -1.369142,0.33832 -1.13792,0.67889 0.224233,0.33026 0.935239,0.5737 1.580014,0.541 0.644786,-0.0327 1.156846,-0.3382 1.137922,-0.67888 z m 5.968651,-1.58807 c -2.123531,-0.52078 -4.739307,-0.43549 -5.058049,0.16495 -0.146001,0.275 1.277759,0.4351 3.163879,0.35577 2.384184,-0.10023 2.96145,-0.25898 1.894173,-0.5207 z m 9.868324,-3.39521 c -0.212121,-0.19563 -0.334559,0.17743 -0.272058,0.82908 0.06902,0.72011 0.220334,0.85962 0.385694,0.35572 0.149621,-0.456 0.09852,-0.98915 -0.113602,-1.1848 z m -17.319883,-3.59962 c 2.555138,-1.15081 3.703282,-3.19413 3.911064,-6.96043 0.107246,-1.94424 0.298968,-4.30894 0.426021,-5.25488 0.220219,-1.63965 0.121214,-1.71433 -2.122122,-1.60052 l -2.353124,0.11938 -0.568004,4.14835 c -0.557554,4.07204 -0.583368,4.11604 -1.402797,2.39254 -1.065007,-2.24008 -5.038462,-4.31591 -6.050473,-3.16092 -0.548277,0.62574 -0.09084,1.3809 2.155346,3.55805 1.568238,1.52006 2.145824,2.32949 1.283518,1.79877 -3.677006,-2.26314 -5.124944,-2.77384 -5.771668,-2.03575 -1.043444,1.19089 0.477551,2.70773 3.633742,3.62385 4.106088,1.19185 4.319861,1.74844 0.548889,1.42915 -2.581693,-0.21861 -3.198812,-0.10733 -2.95132,0.53228 0.687142,1.77573 6.48807,2.65903 9.260928,1.41013 z m 18.158518,-13.4793 c 1.988029,-0.85572 2.033279,-0.96107 1.853496,-4.314656 -0.101527,-1.89062 -0.07582,-4.47226 0.05675,-5.73696 0.232588,-2.2189 0.168976,-2.30934 -1.815718,-2.58168 -1.24785,-0.17123 -3.075113,0.14935 -4.646135,0.81475 -1.424159,0.60333 -3.360057,1.13606 -4.301999,1.18385 -1.538199,0.0781 -1.788183,0.41453 -2.454568,3.30386 -0.408064,1.76932 -0.845638,4.631207 -0.97237,6.359706 l -0.230428,3.14275 5.236598,-0.64725 c 2.88013,-0.35598 6.153604,-1.04195 7.274381,-1.52437 z M 29.270175,95.999134 c 1.268311,-4.44627 1.468691,-5.89302 0.8646,-6.2426 -1.246564,-0.72137 -1.964894,-0.1435 -2.072455,1.66719 -0.05881,0.99001 -0.371224,1.52285 -0.763367,1.30197 -0.384681,-0.21668 -0.518694,-0.0184 -0.318704,0.4715 0.189794,0.46497 -0.09826,2.33175 -0.640098,4.14842 -0.541862,1.816647 -0.799364,3.576706 -0.572238,3.911246 1.03165,1.51946 1.971535,0.10849 3.502262,-5.257726 z m 5.158946,-0.39711 1.249681,-4.66573 -1.318904,-0.29152 c -0.725394,-0.16032 -1.634295,-0.27934 -2.019776,-0.26445 -0.764784,0.0293 -3.435702,9.16868 -2.840107,9.717966 0.201304,0.18566 1.111521,0.29974 2.022708,0.25351 1.52185,-0.0771 1.758446,-0.463856 2.906398,-4.749776 z m 22.026238,-0.61067 c 0.386064,-0.43908 1.02131,-0.92612 1.411637,-1.08232 1.418866,-0.5678 -0.181252,-2.19229 -2.459847,-2.49731 -1.285379,-0.17208 -2.956961,-0.4324 -3.714614,-0.57848 -1.301726,-0.25101 -1.367126,-0.0781 -1.188231,3.14241 l 0.189306,3.40803 2.529889,-0.797 c 1.391448,-0.43836 2.84578,-1.15626 3.231849,-1.59533 z m 7.478228,-1.6497 c 3.195709,-0.71057 2.101995,-1.5734 -1.746904,-1.37815 -2.656132,0.13476 -3.192624,0.33626 -2.868042,1.07723 0.436889,0.99736 1.245648,1.0501 4.614946,0.30092 z m 9.491775,-2.00192 c 5.08929,-1.99253 13.209737,-6.98058 17.23779,-10.58845 5.477314,-4.90597 6.215654,-8.67266 3.310438,-16.88849 -0.849472,-2.40225 -1.453054,-3.20847 -2.572887,-3.43663 -0.889099,-0.18116 -2.017561,-1.25629 -2.876579,-2.74062 l -1.413548,-2.44252 1.400918,-1.59884 1.400911,-1.59884 -1.501461,0.0761 c -1.851002,0.0939 -2.650959,-1.48759 -1.447317,-2.8613 0.812237,-0.92699 0.494354,-1.72881 -3.4771,-8.77048 -4.30384,-7.63101 -4.410417,-7.75803 -6.929181,-8.25851 -1.406977,-0.27957 -3.510429,-0.72809 -4.674358,-0.99671 -1.163928,-0.26864 -2.216578,-0.3739 -2.33923,-0.23392 -0.122652,0.13997 0.994286,1.47184 2.482079,2.95968 l 2.705072,2.70519 -2.216336,0.11245 c -5.168754,0.2622 -18.357636,-2.72883 -28.179366,-6.39067 -2.750628,-1.02551 -5.108596,-1.85911 -5.239934,-1.85245 -0.131333,0.007 0.274277,0.72698 0.901368,1.6007 l 1.140161,1.5886 -2.229207,-0.25555 c -2.871572,-0.32917 -8.899128,-2.79003 -10.739851,-4.38473 -0.787079,-0.68189 -1.534106,-1.117 -1.660055,-0.96691 -0.125949,0.15007 0.111909,1.79294 0.52893,3.65078 0.873484,3.89294 0.80127,10.27656 -0.16278,14.38901 -0.77596,3.31011 -3.665789,10.30814 -5.166252,12.51063 -0.671597,0.98582 -0.882553,2.03999 -0.596506,2.98075 0.534641,1.75833 -0.618801,2.04823 -1.260884,0.3169 -1.33549,-3.60111 -9.149682,-6.99533 -13.5916191,-5.90373 -5.0584248,1.2431 -5.97902085,7.58964 -1.7689848,12.19534 2.5252975,2.76264 7.8719839,3.65593 13.5140949,2.25782 2.30724,-0.57172 2.476489,-0.52392 2.24829,0.63509 -0.305478,1.55145 6.118934,7.67622 11.66961,11.12531 5.056623,3.1421 14.632427,7.42667 19.676506,8.80399 2.284931,0.62392 4.048065,1.25767 3.91806,1.40832 -0.13001,0.15063 1.306265,0.27113 3.191711,0.26776 1.885436,-0.003 4.136983,0.10372 5.003435,0.23802 1.346847,0.20871 1.803201,-0.17482 3.146072,-2.64424 1.92467,-3.53932 2.475857,-3.40275 0.911794,0.22592 -2.00312,4.64727 -0.734809,5.26732 5.656189,2.76517 z m -1.997855,-2.32964 c -0.112123,-2.01817 4.904149,-5.21803 8.463113,-5.39857 2.305953,-0.11699 2.441723,-0.40851 1.355093,-2.90965 -0.392649,-0.90379 -0.585032,-1.79036 -0.427501,-1.97013 0.289803,-0.33076 3.032516,4.946 3.087767,5.94061 0.0165,0.29638 -1.293077,0.44593 -2.910077,0.33233 -4.424811,-0.31087 -10.895275,3.3117 -7.292762,4.08293 0.659967,0.14132 0.43517,0.28972 -0.584258,0.38577 -0.911335,0.0858 -1.672448,-0.12262 -1.691375,-0.46329 z m 14.452399,-14.09856 c 4.428565,-2.66916 6.392548,-6.99138 4.1265,-9.08129 -1.68308,-1.55223 -3.745024,-0.62091 -6.802559,3.07259 -3.146389,3.80083 -3.55132,3.98871 -2.266304,1.05154 3.036413,-6.94037 10.784461,-8.1312 11.141029,-1.71231 0.201189,3.62151 -3.937224,8.16414 -7.535767,8.27185 -1.081673,0.0324 -0.784651,-0.32357 1.337101,-1.60238 z m -37.684348,-0.69042 c -1.552263,-0.49292 -3.781538,-2.63414 -3.819496,-3.66864 -0.0301,-0.82214 0.07125,-0.8101 0.640002,0.0759 1.085154,1.6903 4.242219,2.83591 6.957908,2.52485 4.250205,-0.48685 7.258867,-2.76248 3.437503,-2.59999 -4.30963,0.18325 -10.164626,-4.17367 -12.876921,-9.58216 -1.227172,-2.44709 -1.592999,-4.21787 -1.904898,-9.22071 -0.21242,-3.40557 -0.172108,-6.76186 0.08937,-7.45839 0.261468,-0.69654 0.529488,-1.64884 0.595591,-2.11623 0.22414,-1.58487 2.672463,-3.96191 4.802368,-4.66252 5.592541,-1.83963 14.571237,3.33383 17.181436,9.8998 0.705805,1.77549 2.240177,2.78056 1.784623,1.169 -0.303301,-1.07288 5.344753,-6.722 6.870844,-6.87215 5.683282,-0.55914 7.412684,0.40812 9.004642,5.03637 2.365077,6.87591 1.532417,15.96768 -1.750945,19.11861 -3.346399,3.21143 -9.708409,3.41398 -13.385578,0.42616 -2.340923,-1.90205 -3.041578,-2.10233 -2.971982,-0.84949 0.06978,1.2563 -3.843857,6.8882 -4.52144,6.50655 -0.322657,-0.18172 -0.570735,-0.044 -0.551288,0.30609 0.0195,0.35009 -0.426813,0.48149 -0.991679,0.29199 -0.639677,-0.2146 -0.864618,-0.10532 -0.596403,0.2897 0.769371,1.13319 -5.413412,2.2047 -7.993649,1.38534 z m 11.545145,-5.81996 c 1.067038,-1.3665 1.06481,-1.37485 -0.235272,-0.88538 -2.163351,0.81446 -3.934372,-0.44657 -3.844431,-2.73738 0.05989,-1.52534 0.459546,-2.12978 1.770052,-2.67697 1.500145,-0.62638 1.859417,-0.51455 3.158268,0.98306 l 1.465559,1.68986 0.584987,-3.31848 c 1.296366,-7.35398 -0.47364,-14.57104 -4.559037,-18.58917 -2.158486,-2.12294 -7.322102,-4.34984 -9.811906,-4.23156 -4.678593,0.22224 -6.932652,5.42152 -5.987912,13.81186 0.952019,8.45502 4.256663,13.7425 10.110075,16.17625 3.897141,1.62037 5.959602,1.55805 7.349622,-0.22209 z m 17.773198,-3.09577 c 2.235706,-2.26243 3.315164,-6.51319 3.249402,-12.79588 -0.05681,-5.43305 -0.184638,-6.06294 -1.621298,-7.99277 -1.283189,-1.72368 -1.989498,-2.10579 -3.985677,-2.15625 -2.98151,-0.0754 -5.581675,1.76679 -8.318207,5.89329 -1.052331,1.58685 -2.126767,2.896 -2.387621,2.90924 -0.260873,0.0134 -0.686704,0.28928 -0.946299,0.61346 -0.27423,0.34243 -0.166029,0.38665 0.258224,0.10552 1.013793,-0.67176 1.247072,4.25016 0.353157,7.45022 -0.737021,2.63825 -0.541017,3.69686 0.982771,5.30805 1.403564,1.48406 1.896279,1.24801 1.424725,-0.68253 -0.391505,-1.60278 -0.359916,-1.63075 0.718509,-0.63616 0.880052,0.81165 1.305912,0.87193 1.937293,0.27427 1.042913,-0.98723 -0.268362,-2.64249 -1.610447,-2.0329 -0.685453,0.31131 -0.651283,0.0895 0.140337,-0.9106 1.252316,-1.58226 2.520283,-1.73359 4.402281,-0.52542 1.850271,1.18782 2.00113,4.04895 0.311275,5.90473 l -1.284431,1.41063 2.595149,-0.46855 c 1.427329,-0.2577 3.1287,-1.00846 3.780803,-1.66836 z m -19.148115,-1.29736 c -0.153125,-0.39614 -0.736553,-0.7874 -1.296478,-0.86945 -0.740566,-0.10851 -0.993591,0.2912 -0.9283,1.46654 0.07997,1.43968 0.22124,1.53442 1.296477,0.86945 0.663702,-0.41045 1.081433,-1.07039 0.928301,-1.46654 z m -41.30822,-0.1504 c -0.239142,-0.35222 -1.485034,-0.58713 -2.76864,-0.52202 -1.805991,0.0916 -2.782706,-0.29558 -4.3184825,-1.71196 -1.5521035,-1.43146 -2.372093,-1.75176 -3.762354,-1.46961 -2.0664734,0.41937 -2.4764944,-0.44718 -0.4928006,-1.04151 5.0039541,-1.49919 9.3627571,-0.37188 11.2475631,2.90895 0.99104,1.72508 1.070944,3.274 0.09502,1.83614 z m -1.637811,-1.7766 c -0.05038,-0.90686 -3.240108,-2.98649 -4.483887,-2.9234 -1.5790981,0.0802 -1.3505292,0.9978 0.600039,2.4091 1.710633,1.2377 3.940437,1.53296 3.883848,0.5143 z M 75.67455,40.074964 c -1.952502,-0.84229 -2.65592,-1.37847 -1.897401,-1.44632 1.156162,-0.10341 5.248696,1.80654 5.285366,2.46664 0.02518,0.45331 0.03464,0.45619 -3.387965,-1.02032 z m -33.996659,-2.79258 c -0.8738,-0.80587 -0.374209,-1.40575 1.238879,-1.48758 0.933093,-0.0473 2.20137,-0.52207 2.818413,-1.05496 0.617043,-0.53288 1.32525,-0.98809 1.573795,-1.01157 0.744505,-0.0703 0.570303,1.03595 -0.223864,1.42163 -0.405479,0.19692 -1.697914,0.84035 -2.872083,1.42984 -1.174167,0.5895 -2.314976,0.90569 -2.53513,0.70264 z m 54.960706,23.95338 c 2.120541,-2.18846 0.41939,-3.96249 -3.603962,-3.75838 -3.23086,0.16389 -2.696928,1.85702 0.621176,1.96978 1.630601,0.0554 2.135976,0.71206 0.921942,1.19788 -0.383579,0.15349 -0.478911,0.60092 -0.211865,0.99425 0.645224,0.95033 1.026477,0.88263 2.272709,-0.40353 z m 0.361677,-6.07524 c 0.364265,-1.1649 -1.604331,-2.77217 -3.290599,-2.68663 -1.69684,0.0861 -5.429768,1.90264 -5.389759,2.62282 0.06152,1.10689 0.963042,1.32868 4.642233,1.14203 2.673923,-0.13564 3.840816,-0.44722 4.038125,-1.07822 z m -75.874815,0.68206 c 0.298991,0.16842 0.722165,-0.03 0.940381,-0.44119 0.24779,-0.46679 0.144189,-0.56818 -0.275994,-0.27005 -0.958273,0.67992 -0.869059,0.25139 0.562603,-2.70233 0.696748,-1.43749 1.474113,-2.42242 1.727496,-2.18873 0.253372,0.23368 0.264082,-0.0238 0.02378,-0.57251 -0.240311,-0.54857 -0.153704,-1.62078 0.192416,-2.3827 1.329327,-2.92622 1.753931,-12.93146 0.780999,-18.40311 -0.505056,-2.84032 -1.087332,-5.55017 -1.29396,-6.02187 -0.206619,-0.47171 -0.05494,-1.08514 0.336788,-1.36317 0.414993,-0.29445 0.571633,-0.24019 0.375145,0.12991 -0.185546,0.34951 0.430386,1.15565 1.368722,1.79142 2.29298,1.55363 11.205563,6.46162 11.689292,6.43708 0.211957,-0.0107 -0.244132,-0.82946 -1.013532,-1.81935 -0.769404,-0.98989 -1.638081,-1.63011 -1.930396,-1.4227 -0.292324,0.20741 -0.40008,-0.0432 -0.239465,-0.55679 0.256861,-0.82144 0.598111,-0.84053 2.834297,-0.15866 1.398258,0.42643 2.90024,0.61275 3.337745,0.41404 0.437508,-0.19872 0.663793,-0.11327 0.502866,0.18985 -0.495392,0.9332 21.556393,7.9748 26.297088,8.39722 l 2.607028,0.2323 -1.547328,-1.24716 c -0.851023,-0.68595 -1.622532,-1.71452 -1.714455,-2.28573 -0.092,-0.5712 -0.394271,-1.51619 -0.67189,-2.09998 -0.624849,-1.31394 -0.74517,-1.3112 5.323774,-0.12133 8.459771,1.6586 23.938919,4.30935 24.098832,4.12684 0.08321,-0.095 -1.816021,-1.14835 -4.220517,-2.34084 -3.106747,-1.54078 -4.195289,-2.3695 -3.761787,-2.86394 0.902619,-1.02949 12.282813,-1.339 16.764113,-0.45593 2.10509,0.41483 3.81747,0.57482 3.80528,0.35556 -0.0582,-1.0484 -2.26482,-3.11084 -5.25695,-4.91351 -3.686105,-2.22077 -10.706378,-4.56254 -19.915345,-6.64319 -8.550242,-1.93182 -8.593165,-2.03588 -1.487796,-3.60729 2.207267,-0.48815 2.257012,-0.552 1.039267,-1.33376 -2.382655,-1.5295 -10.556268,-4.0903704 -15.659147,-4.9060604 -3.841135,-0.614 -7.974469,-0.65756 -16.971894,-0.17885 -6.541762,0.34808 -11.788405,0.4337 -11.659203,0.19032 0.129197,-0.24338 1.377414,-0.811738 2.773801,-1.263013 1.396388,-0.451273 3.850231,-1.746702 5.452994,-2.878733 L 49.2546,0.60642961 45.73102,1.1909356 c -5.628931,0.933752 -11.550057,3.924635 -10.584653,5.346528 0.246964,0.36375 0.124812,0.45789 -0.290528,0.22393 -0.397926,-0.22413 -1.391544,0.36665 -2.234293,1.3284604 -1.512598,1.7263102 -1.525145,1.7288602 -3.748237,0.76302 -3.327972,-1.4458804 -8.019584,-2.3650604 -11.079775,-2.1707604 -2.964582,0.18824 -3.127445,0.0549 2.568095,2.1019904 1.205743,0.43337 2.525446,1.27387 2.932688,1.86778 0.675859,0.98566 0.288767,1.1945 -4.43821,2.3945 -5.109519,1.29713 -10.6816608,3.80868 -12.1383422,5.47117 -0.4111161,0.46921 -1.0569597,1.53434 -1.4351997,2.36696 -0.625811,1.37758 -0.588697,1.46454 0.4122627,0.96596 3.4943899,-1.74055 10.9351162,-3.40473 10.9877362,-2.45749 0.0087,0.15401 -1.136314,2.18343 -2.544164,4.50982 -1.407847,2.32638 -2.420435,4.35824 -2.250196,4.51525 0.42327,0.39037 3.427882,-1.24926 3.120059,-1.70263 -0.135394,-0.19938 0.549168,-0.4029 1.521229,-0.45221 1.577378,-0.08 1.913443,0.25136 3.12603,3.08248 2.255214,5.26539 2.866186,11.91024 1.635992,17.79278 -0.574849,2.74883 -1.497412,5.86541 -2.050118,6.92574 -0.753617,1.44575 -0.822211,2.09342 -0.274291,2.58991 0.542334,0.49143 0.844545,0.43271 1.172683,-0.22784 0.24313,-0.48944 0.686691,-0.7521 0.985675,-0.58369 z m 72.213178,-3.97103 c 0.471119,-0.0239 0.825281,-0.60689 0.787026,-1.29556 -0.09563,-1.72137 -2.728873,-2.73553 -4.821636,-1.85698 -1.94372,0.81599 -2.026023,2.45238 -0.132305,2.63068 0.75348,0.0709 1.386026,0.41817 1.40566,0.7716 0.01976,0.35343 0.456211,0.4516 0.97019,0.21815 0.513965,-0.23344 1.319946,-0.444 1.791065,-0.4679 z m 33.427373,62.923876 c -0.0183,-0.32997 0.38328,-0.46021 0.89247,-0.2894 0.50918,0.17084 0.93187,0.42013 0.93931,0.55403 0.007,0.13389 -0.39418,0.2641 -0.89245,0.28938 -0.4983,0.0252 -0.92099,-0.22402 -0.93933,-0.55401 z m -1.29875,-1.57337 c -0.0285,-0.51263 1.12818,-0.86203 1.42186,-0.4295 0.19051,0.28061 -0.0493,0.53028 -0.53303,0.55482 -0.48367,0.0245 -0.88365,-0.032 -0.88883,-0.12533 z m 1.19963,-3.16446 c 0.18925,-0.21602 0.70897,-0.26444 1.15491,-0.10757 0.49279,0.17328 0.35784,0.32733 -0.34412,0.39274 -0.63521,0.0592 -1.00007,-0.0691 -0.81079,-0.28512 z m -1.20711,-4.94017 c 0.39949,-0.19042 1.2143,-0.2421 1.81067,-0.11497 0.59638,0.12724 0.26953,0.28303 -0.72636,0.34623 -0.99587,0.0632 -1.48382,-0.041 -1.08433,-0.23136 z m -0.48173,-8.671746 c 0.39951,-0.19041 1.21432,-0.2421 1.81068,-0.11492 0.5964,0.12724 0.26952,0.28303 -0.72635,0.34621 -0.99586,0.0632 -1.48382,-0.041 -1.08433,-0.23134 z m 0.48454,-8.06744 c 0.18925,-0.21601 0.70897,-0.26442 1.15492,-0.1076 0.4928,0.17328 0.35784,0.32733 -0.34413,0.39274 -0.6352,0.0592 -1.00006,-0.0691 -0.81079,-0.28511 z m -0.0688,-1.23881 c 0.18925,-0.21601 0.70897,-0.26443 1.15491,-0.1076 0.4928,0.17328 0.35784,0.32732 -0.34412,0.39273 -0.6352,0.0591 -1.00006,-0.0691 -0.81079,-0.28511 z m -0.58128,-11.14583 c -0.0542,-0.9753 0.69369,-1.20226 1.25199,-0.37995 0.20076,0.29565 0.0121,0.69786 -0.41933,0.89377 -0.43138,0.19595 -0.80608,-0.0353 -0.83266,-0.51382 z m 0.30475,-1.78304 c -0.008,-0.15021 0.24704,-0.4592 0.56754,-0.68661 0.3205,-0.22739 0.59912,-0.11823 0.61915,0.24252 0.02,0.36077 -0.23533,0.66974 -0.56754,0.68659 -0.33219,0.0169 -0.61081,-0.0923 -0.61915,-0.2425 z m -0.25339,-1.65377 c 0.38619,-0.4441 0.86297,-0.65914 1.05953,-0.47786 0.19654,0.18128 -0.1194,0.54462 -0.70216,0.80745 -0.84212,0.37981 -0.91545,0.31219 -0.35737,-0.32959 z m -0.42657,-3.31765 c -0.0247,-0.44606 0.32526,-0.68677 0.77786,-0.53493 0.45261,0.15183 0.82735,0.35579 0.83276,0.45322 0.005,0.0974 -0.34463,0.33816 -0.77786,0.53495 -0.43323,0.19676 -0.80799,-0.007 -0.83276,-0.45324 z m -1.4088,-3.68225 c -0.22592,-0.51572 -0.28348,-1.08294 -0.12793,-1.26045 0.15553,-0.17754 0.45936,0.23839 0.67516,0.92427 0.45835,1.45691 0.0528,1.70605 -0.54722,0.33618 z m 0.0915,-2.55934 c 0.39949,-0.19041 1.2143,-0.24212 1.81069,-0.11481 0.59637,0.12723 0.26951,0.28304 -0.72636,0.34621 -0.99588,0.0632 -1.48382,-0.041 -1.08433,-0.23134 z m 1.11602,-1.92401 c 0.40569,-0.19291 1.08518,-0.22738 1.50996,-0.0767 0.42479,0.15075 0.0928,0.30859 -0.73761,0.35072 -0.83049,0.0422 -1.17804,-0.0812 -0.77235,-0.27411 z m -1.88783,-8.8643 c -0.24376,-0.35904 -0.21288,-0.91565 0.0687,-1.23693 0.3027,-0.34545 0.53974,-0.0816 0.58015,0.64586 0.0782,1.40744 -0.0285,1.50462 -0.64875,0.59107 z m 0.86413,-7.96122 c -0.18683,-0.27521 0.0441,-0.51986 0.5131,-0.54365 0.46907,-0.0238 0.72578,0.19612 0.57044,0.48869 -0.15531,0.29258 -0.38619,0.53723 -0.51308,0.54365 -0.12688,0.006 -0.3836,-0.21346 -0.57046,-0.48869 z m -0.43359,-4.18373 c 0.18926,-0.21602 0.70897,-0.26444 1.15491,-0.10764 0.4928,0.17328 0.35784,0.32733 -0.34411,0.39275 -0.63521,0.0592 -1.00006,-0.0691 -0.8108,-0.28511 z m -0.0688,-1.23882 c 0.18927,-0.21599 0.70898,-0.26445 1.15493,-0.10763 0.4928,0.17328 0.35784,0.32732 -0.34412,0.39274 -0.63521,0.0592 -1.00006,-0.0691 -0.81081,-0.28511 z m -0.98247,-6.78287 c 0.18925,-0.21602 0.70898,-0.26444 1.15492,-0.10763 0.4928,0.17327 0.35784,0.32733 -0.34412,0.39274 -0.6352,0.0592 -1.00007,-0.0691 -0.8108,-0.28511 z m -0.62674,-3.85128 c -0.19184,-0.28255 0.32976,-0.41619 1.15911,-0.29697 0.82938,0.1192 1.51388,0.32364 1.52114,0.45426 0.0266,0.47927 -2.34246,0.34024 -2.68025,-0.15729 z m 0.52938,-3.327 c 0.33099,-0.37775 0.96508,-0.58302 1.40908,-0.45617 0.46095,0.13167 0.20275,0.42635 -0.60178,0.68681 -0.98968,0.32039 -1.22996,0.25175 -0.8073,-0.23064 z"
     id="path3001"
     inkscape:connector-curvature="0" />
</svg>
