<?xml version="1.0" encoding="UTF-8" standalone="no"?>
<!-- Created with Inkscape (http://www.inkscape.org/) -->

<svg
   xmlns:dc="http://purl.org/dc/elements/1.1/"
   xmlns:cc="http://creativecommons.org/ns#"
   xmlns:rdf="http://www.w3.org/1999/02/22-rdf-syntax-ns#"
   xmlns:svg="http://www.w3.org/2000/svg"
   xmlns="http://www.w3.org/2000/svg"
   xmlns:sodipodi="http://sodipodi.sourceforge.net/DTD/sodipodi-0.dtd"
   xmlns:inkscape="http://www.inkscape.org/namespaces/inkscape"
   width="198.09448819"
   height="194.3622047"
   id="svg2"
   version="1.1"
   inkscape:version="0.48.4 r9939"
   sodipodi:docname="think.svg">
  <defs
     id="defs4" />
  <sodipodi:namedview
     id="base"
     pagecolor="#ffffff"
     bordercolor="#666666"
     borderopacity="1.0"
     inkscape:pageopacity="0.0"
     inkscape:pageshadow="2"
     inkscape:zoom="0.53074441"
     inkscape:cx="375"
     inkscape:cy="400.01997"
     inkscape:document-units="px"
     inkscape:current-layer="layer1"
     showgrid="false"
     inkscape:window-width="1366"
     inkscape:window-height="716"
     inkscape:window-x="-8"
     inkscape:window-y="-8"
     inkscape:window-maximized="1" />
  <metadata
     id="metadata7">
    <rdf:RDF>
      <cc:Work
         rdf:about="">
        <dc:format>image/svg+xml</dc:format>
        <dc:type
           rdf:resource="http://purl.org/dc/dcmitype/StillImage" />
        <dc:title></dc:title>
      </cc:Work>
    </rdf:RDF>
  </metadata>
  <g
     inkscape:label="Layer 1"
     inkscape:groupmode="layer"
     id="layer1">
    <path
       style="fill:#000000"
       d="m 6.6574631,1044.7196 c -1.7320041,-1.5717 -2.2545448,-4.3802 -1.3312959,-7.1553 0.5700226,-1.7136 3.8844517,-3.5568 5.3322988,-2.9657 4.217486,1.7224 5.426017,6.6227 2.424558,9.8313 -2.138074,2.2856 -4.1268323,2.3755 -6.4255609,0.2897 z m 4.7503749,-4.341 c 0.271161,-2.1927 -1.5981267,-3.1014 -3.0159112,-1.4659 -0.8778429,1.0125 -0.9063507,1.408 -0.1748147,2.4247 1.1897284,1.6538 2.9324179,1.1298 3.1907259,-0.9588 z m 7.60741,-2.2213 c -2.156943,-0.5054 -4.757806,-3.8973 -5.234147,-6.8264 -1.598457,-9.8283 10.228153,-14.163 13.951078,-5.1131 1.05322,2.5601 1.08014,3.1815 0.254427,5.8747 -1.374447,4.4826 -5.06782,6.9796 -8.971358,6.0648 z m 4.865001,-4.9545 c 2.840791,-3.0785 1.218236,-8.2558 -2.587324,-8.2558 -4.078837,0 -5.99965,5.1074 -3.154919,8.3887 1.720315,1.9842 3.833525,1.9355 5.742243,-0.1322 z m 9.134563,-7.1696 c -2.980964,-1.7929 -4.359503,-3.4387 -5.699896,-6.8058 -1.602074,-4.0243 -1.55391,-7.5483 0.158949,-11.63 1.643584,-3.9162 5.06411,-6.78 8.942564,-7.4867 11.226486,-2.04585 18.07688,14.457 9.735567,23.4532 -3.492693,3.7668 -9.197158,4.8393 -13.137184,2.4693 z m 8.78697,-3.3684 c 3.769752,-1.9734 5.840253,-6.8372 4.802728,-11.2818 -2.714052,-11.62615 -17.215536,-9.4053 -17.224892,2.6383 -0.0027,3.689 2.302121,7.4414 5.584319,9.0902 2.69172,1.3527 3.502398,1.2997 6.837845,-0.4467 z m 66.984488,-8.4287 c -4.90927,-1.483 -9.582682,-3.7725 -14.052377,-6.8843 l -2.40864,-1.6769 -5.642233,2.7953 c -14.737435,7.3017 -29.934134,3.9849 -41.18032,-8.98744 -4.696601,-5.41761 -7.375502,-10.38443 -9.505378,-17.62304 l -1.121903,-3.81305 -6.550607,-0.4369 C 20.321658,977.07602 16.019455,974.98422 10.848334,969.1129 2.6372892,959.78966 0.71392203,946.09839 5.9432026,934.19652 c 1.7010441,-3.8716 6.5397844,-9.53587 10.6437894,-12.45971 2.282041,-1.62578 2.823919,-2.48648 3.205436,-5.09123 0.252517,-1.72409 1.48151,-5.49203 2.731091,-8.37321 4.329078,-9.98161 13.435735,-17.22005 22.892354,-18.19605 l 4.771246,-0.49242 0.501888,-4.19438 c 0.281249,-2.35046 1.677221,-6.95542 3.175493,-10.47512 3.674366,-8.63168 9.251483,-15.02091 16.955511,-19.42437 5.561599,-3.17892 5.934586,-3.27914 13.192453,-3.54491 6.139584,-0.2248 8.271924,0.008 11.979819,1.30695 8.614377,3.01817 17.322217,11.49674 21.827527,21.25285 l 2.16573,4.68985 3.12327,-1.04191 c 4.88009,-1.62792 11.37024,-2.1352 15.70092,-1.2272 8.85607,1.85678 18.25168,9.45331 22.63048,18.29721 l 2.02961,4.09921 6.42927,-0.14972 c 7.93244,-0.18464 12.87759,1.59159 18.77725,6.74422 17.22364,15.04272 16.49669,42.88038 -1.49259,57.15732 -4.41726,3.50572 -10.1611,5.43986 -16.15404,5.43986 l -5.15909,0 -0.83398,5.07123 c -1.84591,11.22447 -7.63718,22.55893 -15.27012,29.88621 -5.07779,4.8744 -13.58982,9.738 -19.56768,11.1809 -6.45474,1.558 -15.45735,1.3829 -21.41257,-0.416 z m 22.0737,-3.469 c 11.25994,-3.0881 22.14084,-13.21697 27.36653,-25.47577 1.72995,-4.05815 3.21304,-9.04868 3.96617,-13.34562 l 1.20294,-6.86342 6.54102,-0.0917 c 7.68939,-0.10884 12.34742,-1.80946 17.28568,-6.31318 3.87999,-3.53843 6.32756,-7.1844 8.63424,-12.86167 1.55939,-3.83797 1.77712,-5.31308 1.77712,-12.03955 0,-7.31543 -0.11281,-7.92897 -2.46912,-13.42846 -5.3583,-12.50603 -15.1519,-18.77766 -27.67086,-17.71993 l -5.67831,0.47974 -2.10212,-4.29646 c -4.34948,-8.8899 -11.11597,-15.20206 -18.90251,-17.63332 -5.09843,-1.59191 -13.39453,-1.23161 -18.39621,0.79901 -3.93015,1.59556 -4.37685,1.23695 -7.56784,-6.07544 -3.01317,-6.90496 -8.89264,-13.60892 -15.08688,-17.20262 l -4.600654,-2.66912 -9.266946,0 c -9.192679,0 -9.303373,0.0205 -13.81158,2.57919 -5.396527,3.0627 -12.445033,10.78764 -15.094502,16.54313 -2.013895,4.37484 -3.808462,11.61032 -3.808462,15.35531 0,2.4535 -0.06374,2.50891 -2.88483,2.50891 -13.761797,0 -25.040906,10.28084 -27.574164,25.13363 -0.687477,4.03075 -0.925199,4.41993 -3.759326,6.15422 -4.225156,2.5855 -9.2190564,8.42912 -10.886832,12.7393 -2.1268289,5.49633 -2.3706125,14.59102 -0.5410855,20.18569 1.9422826,5.93972 6.3693265,11.42359 11.6366075,14.41453 3.880487,2.20374 4.837202,2.42079 11.017611,2.50195 l 6.768129,0.0901 2.102142,6.75675 c 2.554128,8.2099 5.910578,14.0116 10.720857,18.53144 6.080122,5.71313 12.03208,8.44783 19.929037,9.15663 5.882409,0.5281 10.892715,-0.7461 18.15809,-4.6182 l 4.873971,-2.5977 2.421219,1.8978 c 10.665498,8.3599 22.939458,10.9061 35.700868,7.4068 z"
       id="path2996"
       inkscape:connector-curvature="0" />
  </g>
</svg>
