<svg style="overflow: hidden; position: relative;" height="500" version="1.1" width="1050" xmlns="http://www.w3.org/2000/svg"><rect style="-webkit-tap-highlight-color: rgba(0, 0, 0, 0);" x="0" y="0" width="100%" height="100%" r="0" rx="0" ry="0" fill="#ffffff" stroke="#eeeeee" stroke-width="1"></rect><desc style="-webkit-tap-highlight-color: rgba(0, 0, 0, 0);">Created with Raphaël 2.1.0</desc><defs style="-webkit-tap-highlight-color: rgba(0, 0, 0, 0);"></defs><rect style="-webkit-tap-highlight-color: rgba(0, 0, 0, 0);" x="5" y="25" width="99%" height="0.5" r="0" rx="0" ry="0" fill="none" stroke="#eeeeee"></rect><rect style="-webkit-tap-highlight-color: rgba(0, 0, 0, 0);" x="5" y="50" width="99%" height="0.5" r="0" rx="0" ry="0" fill="none" stroke="#eeeeee"></rect><rect style="-webkit-tap-highlight-color: rgba(0, 0, 0, 0);" x="5" y="75" width="99%" height="0.5" r="0" rx="0" ry="0" fill="none" stroke="#eeeeee"></rect><rect style="-webkit-tap-highlight-color: rgba(0, 0, 0, 0);" x="5" y="100" width="99%" height="0.5" r="0" rx="0" ry="0" fill="none" stroke="#eeeeee"></rect><rect style="-webkit-tap-highlight-color: rgba(0, 0, 0, 0);" x="5" y="125" width="99%" height="0.5" r="0" rx="0" ry="0" fill="none" stroke="#eeeeee"></rect><rect style="-webkit-tap-highlight-color: rgba(0, 0, 0, 0);" x="5" y="150" width="99%" height="0.5" r="0" rx="0" ry="0" fill="none" stroke="#eeeeee"></rect><rect style="-webkit-tap-highlight-color: rgba(0, 0, 0, 0);" x="5" y="175" width="99%" height="0.5" r="0" rx="0" ry="0" fill="none" stroke="#eeeeee"></rect><rect style="-webkit-tap-highlight-color: rgba(0, 0, 0, 0);" x="5" y="200" width="99%" height="0.5" r="0" rx="0" ry="0" fill="none" stroke="#eeeeee"></rect><rect style="-webkit-tap-highlight-color: rgba(0, 0, 0, 0);" x="5" y="225" width="99%" height="0.5" r="0" rx="0" ry="0" fill="none" stroke="#eeeeee"></rect><rect style="-webkit-tap-highlight-color: rgba(0, 0, 0, 0);" x="5" y="250" width="99%" height="0.5" r="0" rx="0" ry="0" fill="none" stroke="#eeeeee"></rect><rect style="-webkit-tap-highlight-color: rgba(0, 0, 0, 0);" x="5" y="275" width="99%" height="0.5" r="0" rx="0" ry="0" fill="none" stroke="#eeeeee"></rect><rect style="-webkit-tap-highlight-color: rgba(0, 0, 0, 0);" x="5" y="300" width="99%" height="0.5" r="0" rx="0" ry="0" fill="none" stroke="#eeeeee"></rect><rect style="-webkit-tap-highlight-color: rgba(0, 0, 0, 0);" x="5" y="325" width="99%" height="0.5" r="0" rx="0" ry="0" fill="none" stroke="#eeeeee"></rect><rect style="-webkit-tap-highlight-color: rgba(0, 0, 0, 0);" x="5" y="350" width="99%" height="0.5" r="0" rx="0" ry="0" fill="none" stroke="#eeeeee"></rect><rect style="-webkit-tap-highlight-color: rgba(0, 0, 0, 0);" x="5" y="375" width="99%" height="0.5" r="0" rx="0" ry="0" fill="none" stroke="#eeeeee"></rect><rect style="-webkit-tap-highlight-color: rgba(0, 0, 0, 0);" x="5" y="400" width="99%" height="0.5" r="0" rx="0" ry="0" fill="none" stroke="#eeeeee"></rect><rect style="-webkit-tap-highlight-color: rgba(0, 0, 0, 0);" x="5" y="425" width="99%" height="0.5" r="0" rx="0" ry="0" fill="none" stroke="#eeeeee"></rect><rect style="-webkit-tap-highlight-color: rgba(0, 0, 0, 0);" x="5" y="450" width="99%" height="0.5" r="0" rx="0" ry="0" fill="none" stroke="#eeeeee"></rect><rect style="-webkit-tap-highlight-color: rgba(0, 0, 0, 0);" x="5" y="475" width="99%" height="0.5" r="0" rx="0" ry="0" fill="none" stroke="#eeeeee"></rect><rect style="-webkit-tap-highlight-color: rgba(0, 0, 0, 0);" x="5" y="500" width="99%" height="0.5" r="0" rx="0" ry="0" fill="none" stroke="#eeeeee"></rect><rect style="-webkit-tap-highlight-color: rgba(0, 0, 0, 0); font-size: 14px;" x="50" y="0" width="0.5" height="100%" r="0" rx="0" ry="0" fill="none" stroke="#ff0000" font-size="14px"></rect><rect style="-webkit-tap-highlight-color: rgba(0, 0, 0, 0); font-size: 14px;" x="55" y="0" width="0.5" height="100%" r="0" rx="0" ry="0" fill="none" stroke="#ff0000" font-size="14px"></rect><text style="-webkit-tap-highlight-color: rgba(0, 0, 0, 0); text-anchor: middle; font-style: normal; font-variant: normal; font-weight: normal; font-size: 12px; line-height: normal; font-family: Verdana, Helvetica, sans-serif; cursor: pointer;" x="400" y="100" text-anchor="middle" font="10px &quot;Arial&quot;" stroke="none" fill="#000000" font-size="12px" font-family="Verdana, Helvetica, sans-serif" transform="matrix(1,0,0,1,92,-62)"><tspan style="-webkit-tap-highlight-color: rgba(0, 0, 0, 0);" dy="5">The integers are the numbers 1, 2, 3, and so on, together with their negatives -1,-2,-3 ....., and 0. Thus, the set of integers is</tspan><tspan style="-webkit-tap-highlight-color: rgba(0, 0, 0, 0);" dy="14.399999999999999" x="400">     </tspan><tspan style="-webkit-tap-highlight-color: rgba(0, 0, 0, 0);" dy="14.399999999999999" x="400">  </tspan><tspan style="-webkit-tap-highlight-color: rgba(0, 0, 0, 0);" dy="14.399999999999999" x="400"></tspan><tspan style="-webkit-tap-highlight-color: rgba(0, 0, 0, 0);" dy="14.399999999999999" x="400"></tspan></text><rect style="-webkit-tap-highlight-color: rgba(0, 0, 0, 0); opacity: 0; cursor: nw-resize;" x="100" y="80" width="10" height="10" r="0" rx="0" ry="0" fill="#77bb44" stroke="#77bb44" opacity="0"></rect><text style="-webkit-tap-highlight-color: rgba(0, 0, 0, 0); text-anchor: middle; font-style: normal; font-variant: normal; font-weight: normal; font-size: 16px; line-height: normal; font-family: 'Courier new'; cursor: pointer;" x="400" y="100" text-anchor="middle" font="10px &quot;Arial&quot;" stroke="none" fill="#000000" font-size="16px" font-family="Courier new" transform="matrix(1,0,0,1,36,-14)"><tspan style="-webkit-tap-highlight-color: rgba(0, 0, 0, 0);" dy="5"> { ...-3, -2, -1 , 0 ,1, 2, 3 ...} </tspan></text><rect style="-webkit-tap-highlight-color: rgba(0, 0, 0, 0); opacity: 0; cursor: nw-resize;" x="100" y="80" width="10" height="10" r="0" rx="0" ry="0" fill="#77bb44" stroke="#77bb44" opacity="0"></rect><path style="-webkit-tap-highlight-color: rgba(0, 0, 0, 0); opacity: 0;" fill="none" stroke="#000000" d="M436,86L850.7,86" stroke-dasharray="4,3" opacity="0"></path><circle style="-webkit-tap-highlight-color: rgba(0, 0, 0, 0);" cx="850.7" cy="86" r="0" fill="#ffffff" stroke="#000000"></circle><path style="-webkit-tap-highlight-color: rgba(0, 0, 0, 0); opacity: 0;" fill="none" stroke="#000000" d="M436,86L436,95.1" stroke-dasharray="4,3" opacity="0"></path><circle style="-webkit-tap-highlight-color: rgba(0, 0, 0, 0);" cx="436" cy="95.1" r="0" fill="#ffffff" stroke="#000000"></circle><path style="-webkit-tap-highlight-color: rgba(0, 0, 0, 0); opacity: 0;" fill="none" stroke="#000000" d="M117,79L755,79L755,93L117,93L117,79" stroke-dasharray="4,3" opacity="0"></path><rect style="-webkit-tap-highlight-color: rgba(0, 0, 0, 0);" x="117" y="79" width="0" height="0" r="0" rx="0" ry="0" fill="#ffffff" stroke="#000000" transform="matrix(1,0,0,1,0,0)"></rect><rect style="-webkit-tap-highlight-color: rgba(0, 0, 0, 0);" x="755" y="79" width="0" height="0" r="0" rx="0" ry="0" fill="#ffffff" stroke="#000000" transform="matrix(1,0,0,1,0,0)"></rect><rect style="-webkit-tap-highlight-color: rgba(0, 0, 0, 0);" x="755" y="93" width="0" height="0" r="0" rx="0" ry="0" fill="#ffffff" stroke="#000000" transform="matrix(1,0,0,1,0,0)"></rect><rect style="-webkit-tap-highlight-color: rgba(0, 0, 0, 0);" x="117" y="93" width="0" height="0" r="0" rx="0" ry="0" fill="#ffffff" stroke="#000000" transform="matrix(1,0,0,1,0,0)"></rect><circle style="-webkit-tap-highlight-color: rgba(0, 0, 0, 0);" cx="436" cy="86" r="0" fill="#ffffff" stroke="#000000"></circle><path style="-webkit-tap-highlight-color: rgba(0, 0, 0, 0); opacity: 0;" fill="none" stroke="#000000" d="M492,38L906.7,38" stroke-dasharray="4,3" opacity="0"></path><circle style="-webkit-tap-highlight-color: rgba(0, 0, 0, 0);" cx="906.7" cy="38" r="0" fill="#ffffff" stroke="#000000"></circle><path style="-webkit-tap-highlight-color: rgba(0, 0, 0, 0); opacity: 0;" fill="none" stroke="#000000" d="M492,38L492,47.1" stroke-dasharray="4,3" opacity="0"></path><circle style="-webkit-tap-highlight-color: rgba(0, 0, 0, 0);" cx="492" cy="47.1" r="0" fill="#ffffff" stroke="#000000"></circle><path style="-webkit-tap-highlight-color: rgba(0, 0, 0, 0); opacity: 0;" fill="none" stroke="#000000" d="M173,31L811,31L811,45L173,45L173,31" stroke-dasharray="4,3" opacity="0"></path><rect style="-webkit-tap-highlight-color: rgba(0, 0, 0, 0);" x="173" y="31" width="0" height="0" r="0" rx="0" ry="0" fill="#ffffff" stroke="#000000" transform="matrix(1,0,0,1,0,0)"></rect><rect style="-webkit-tap-highlight-color: rgba(0, 0, 0, 0);" x="811" y="31" width="0" height="0" r="0" rx="0" ry="0" fill="#ffffff" stroke="#000000" transform="matrix(1,0,0,1,0,0)"></rect><rect style="-webkit-tap-highlight-color: rgba(0, 0, 0, 0);" x="811" y="45" width="0" height="0" r="0" rx="0" ry="0" fill="#ffffff" stroke="#000000" transform="matrix(1,0,0,1,0,0)"></rect><rect style="-webkit-tap-highlight-color: rgba(0, 0, 0, 0);" x="173" y="45" width="0" height="0" r="0" rx="0" ry="0" fill="#ffffff" stroke="#000000" transform="matrix(1,0,0,1,0,0)"></rect><circle style="-webkit-tap-highlight-color: rgba(0, 0, 0, 0);" cx="492" cy="38" r="0" fill="#ffffff" stroke="#000000"></circle><text style="-webkit-tap-highlight-color: rgba(0, 0, 0, 0); text-anchor: middle; font-style: normal; font-variant: normal; font-weight: normal; font-size: 12px; line-height: normal; font-family: Verdana, Helvetica, sans-serif; cursor: pointer;" x="400" y="100" text-anchor="middle" font="10px &quot;Arial&quot;" stroke="none" fill="#000000" font-size="12px" font-family="Verdana, Helvetica, sans-serif" transform="matrix(1,0,0,1,76,62)"><tspan style="-webkit-tap-highlight-color: rgba(0, 0, 0, 0);" dy="5">The positive integers are greater than 0, the negative integers are less than 0, and  </tspan><tspan style="-webkit-tap-highlight-color: rgba(0, 0, 0, 0);" dy="14.399999999999999" x="400"></tspan></text><rect style="-webkit-tap-highlight-color: rgba(0, 0, 0, 0); opacity: 0; cursor: nw-resize;" x="100" y="80" width="10" height="10" r="0" rx="0" ry="0" fill="#77bb44" stroke="#77bb44" opacity="0"></rect><rect style="-webkit-tap-highlight-color: rgba(0, 0, 0, 0); fill-opacity: 1;" x="200" y="200" width="100" height="100" r="0" rx="0" ry="0" fill="#3b5998" stroke="#000000" fill-opacity="1" stroke-width="0.11574074074074073" transform="matrix(8.64,0,0,0.73,-1592,53)"></rect><text style="-webkit-tap-highlight-color: rgba(0, 0, 0, 0); text-anchor: middle; font-style: normal; font-variant: normal; font-weight: normal; font-size: 40px; line-height: normal; font-family: 'Courier new'; cursor: pointer; fill-opacity: 1;" x="400" y="100" text-anchor="middle" font="10px &quot;Arial&quot;" stroke="none" fill="#ffffff" font-size="40px" font-family="Courier new" transform="matrix(1,0,0,1,174,131)" fill-opacity="1"><tspan style="-webkit-tap-highlight-color: rgba(0, 0, 0, 0);" dy="16"> 0 is neither positive nor negative.</tspan></text><rect style="-webkit-tap-highlight-color: rgba(0, 0, 0, 0); opacity: 0; cursor: nw-resize;" x="100" y="80" width="10" height="10" r="0" rx="0" ry="0" fill="#77bb44" stroke="#77bb44" opacity="0"></rect><text style="-webkit-tap-highlight-color: rgba(0, 0, 0, 0); text-anchor: middle; font-style: normal; font-variant: normal; font-weight: normal; font-size: 12px; line-height: normal; font-family: Verdana, Helvetica, sans-serif; cursor: pointer;" x="400" y="100" text-anchor="middle" font="10px &quot;Arial&quot;" stroke="none" fill="#000000" font-size="12px" font-family="Verdana, Helvetica, sans-serif" transform="matrix(1,0,0,1,46,214)"><tspan style="-webkit-tap-highlight-color: rgba(0, 0, 0, 0);" dy="7"> </tspan></text><rect style="-webkit-tap-highlight-color: rgba(0, 0, 0, 0); opacity: 0; cursor: nw-resize;" x="100" y="80" width="10" height="10" r="0" rx="0" ry="0" fill="#77bb44" stroke="#77bb44" opacity="0"></rect><path style="-webkit-tap-highlight-color: rgba(0, 0, 0, 0); opacity: 0;" fill="none" stroke="#000000" d="M446,314L860.7,314" stroke-dasharray="4,3" opacity="0"></path><circle style="-webkit-tap-highlight-color: rgba(0, 0, 0, 0);" cx="860.7" cy="314" r="0" fill="#ffffff" stroke="#000000"></circle><path style="-webkit-tap-highlight-color: rgba(0, 0, 0, 0); opacity: 0;" fill="none" stroke="#000000" d="M446,314L446,323.1" stroke-dasharray="4,3" opacity="0"></path><circle style="-webkit-tap-highlight-color: rgba(0, 0, 0, 0);" cx="446" cy="323.1" r="0" fill="#ffffff" stroke="#000000"></circle><path style="-webkit-tap-highlight-color: rgba(0, 0, 0, 0); opacity: 0;" fill="none" stroke="#000000" d="M127,307L765,307L765,321L127,321L127,307" stroke-dasharray="4,3" opacity="0"></path><rect style="-webkit-tap-highlight-color: rgba(0, 0, 0, 0);" x="127" y="307" width="0" height="0" r="0" rx="0" ry="0" fill="#ffffff" stroke="#000000" transform="matrix(1,0,0,1,0,0)"></rect><rect style="-webkit-tap-highlight-color: rgba(0, 0, 0, 0);" x="765" y="307" width="0" height="0" r="0" rx="0" ry="0" fill="#ffffff" stroke="#000000" transform="matrix(1,0,0,1,0,0)"></rect><rect style="-webkit-tap-highlight-color: rgba(0, 0, 0, 0);" x="765" y="321" width="0" height="0" r="0" rx="0" ry="0" fill="#ffffff" stroke="#000000" transform="matrix(1,0,0,1,0,0)"></rect><rect style="-webkit-tap-highlight-color: rgba(0, 0, 0, 0);" x="127" y="321" width="0" height="0" r="0" rx="0" ry="0" fill="#ffffff" stroke="#000000" transform="matrix(1,0,0,1,0,0)"></rect><circle style="-webkit-tap-highlight-color: rgba(0, 0, 0, 0);" cx="446" cy="314" r="0" fill="#ffffff" stroke="#000000"></circle><path style="-webkit-tap-highlight-color: rgba(0, 0, 0, 0); opacity: 0;" fill="none" stroke="#000000" d="M476,162L890.7,162" stroke-dasharray="4,3" opacity="0"></path><circle style="-webkit-tap-highlight-color: rgba(0, 0, 0, 0);" cx="890.7" cy="162" r="0" fill="#ffffff" stroke="#000000"></circle><path style="-webkit-tap-highlight-color: rgba(0, 0, 0, 0); opacity: 0;" fill="none" stroke="#000000" d="M476,162L476,171.1" stroke-dasharray="4,3" opacity="0"></path><circle style="-webkit-tap-highlight-color: rgba(0, 0, 0, 0);" cx="476" cy="171.1" r="0" fill="#ffffff" stroke="#000000"></circle><path style="-webkit-tap-highlight-color: rgba(0, 0, 0, 0); opacity: 0;" fill="none" stroke="#000000" d="M157,155L795,155L795,169L157,169L157,155" stroke-dasharray="4,3" opacity="0"></path><rect style="-webkit-tap-highlight-color: rgba(0, 0, 0, 0);" x="157" y="155" width="0" height="0" r="0" rx="0" ry="0" fill="#ffffff" stroke="#000000" transform="matrix(1,0,0,1,0,0)"></rect><rect style="-webkit-tap-highlight-color: rgba(0, 0, 0, 0);" x="795" y="155" width="0" height="0" r="0" rx="0" ry="0" fill="#ffffff" stroke="#000000" transform="matrix(1,0,0,1,0,0)"></rect><rect style="-webkit-tap-highlight-color: rgba(0, 0, 0, 0);" x="795" y="169" width="0" height="0" r="0" rx="0" ry="0" fill="#ffffff" stroke="#000000" transform="matrix(1,0,0,1,0,0)"></rect><rect style="-webkit-tap-highlight-color: rgba(0, 0, 0, 0);" x="157" y="169" width="0" height="0" r="0" rx="0" ry="0" fill="#ffffff" stroke="#000000" transform="matrix(1,0,0,1,0,0)"></rect><circle style="-webkit-tap-highlight-color: rgba(0, 0, 0, 0);" cx="476" cy="162" r="0" fill="#ffffff" stroke="#000000"></circle><path style="-webkit-tap-highlight-color: rgba(0, 0, 0, 0); opacity: 0;" fill="none" stroke="#000000" d="M574,231L988.7,231" stroke-dasharray="4,3" opacity="0"></path><circle style="-webkit-tap-highlight-color: rgba(0, 0, 0, 0);" cx="988.7" cy="231" r="0" fill="#ffffff" stroke="#000000"></circle><path style="-webkit-tap-highlight-color: rgba(0, 0, 0, 0); opacity: 0;" fill="none" stroke="#000000" d="M574,231L574,240.1" stroke-dasharray="4,3" opacity="0"></path><circle style="-webkit-tap-highlight-color: rgba(0, 0, 0, 0);" cx="574" cy="240.1" r="0" fill="#ffffff" stroke="#000000"></circle><path style="-webkit-tap-highlight-color: rgba(0, 0, 0, 0); opacity: 0;" fill="none" stroke="#000000" d="M255,224L893,224L893,238L255,238L255,224" stroke-dasharray="4,3" opacity="0"></path><rect style="-webkit-tap-highlight-color: rgba(0, 0, 0, 0);" x="255" y="224" width="0" height="0" r="0" rx="0" ry="0" fill="#ffffff" stroke="#000000" transform="matrix(1,0,0,1,0,0)"></rect><rect style="-webkit-tap-highlight-color: rgba(0, 0, 0, 0);" x="893" y="224" width="0" height="0" r="0" rx="0" ry="0" fill="#ffffff" stroke="#000000" transform="matrix(1,0,0,1,0,0)"></rect><rect style="-webkit-tap-highlight-color: rgba(0, 0, 0, 0);" x="893" y="238" width="0" height="0" r="0" rx="0" ry="0" fill="#ffffff" stroke="#000000" transform="matrix(1,0,0,1,0,0)"></rect><rect style="-webkit-tap-highlight-color: rgba(0, 0, 0, 0);" x="255" y="238" width="0" height="0" r="0" rx="0" ry="0" fill="#ffffff" stroke="#000000" transform="matrix(1,0,0,1,0,0)"></rect><circle style="-webkit-tap-highlight-color: rgba(0, 0, 0, 0);" cx="574" cy="231" r="0" fill="#ffffff" stroke="#000000"></circle><path style="-webkit-tap-highlight-color: rgba(0, 0, 0, 0); opacity: 0;" fill="none" stroke="#000000" d="M568,235.5L1050,235.5" stroke-dasharray="4,3" opacity="0"></path><circle style="-webkit-tap-highlight-color: rgba(0, 0, 0, 0);" cx="1050" cy="235.5" r="0" fill="#ffffff" stroke="#000000" stroke-width="1"></circle><path style="-webkit-tap-highlight-color: rgba(0, 0, 0, 0); opacity: 0;" fill="none" stroke="#000000" d="M568,235.5L568,282.95" stroke-dasharray="4,3" opacity="0"></path><circle style="-webkit-tap-highlight-color: rgba(0, 0, 0, 0);" cx="568" cy="282.95" r="0" fill="#ffffff" stroke="#000000" stroke-width="1"></circle><path style="-webkit-tap-highlight-color: rgba(0, 0, 0, 0); opacity: 0;" fill="none" stroke="#000000" d="M136,199L1000,199L1000,272L136,272L136,199" stroke-dasharray="4,3" opacity="0"></path><rect style="-webkit-tap-highlight-color: rgba(0, 0, 0, 0);" x="136" y="199" width="0" height="0" r="0" rx="0" ry="0" fill="#ffffff" stroke="#000000" stroke-width="1" transform="matrix(1,0,0,1,0,0)"></rect><rect style="-webkit-tap-highlight-color: rgba(0, 0, 0, 0);" x="1000" y="199" width="0" height="0" r="0" rx="0" ry="0" fill="#ffffff" stroke="#000000" stroke-width="1" transform="matrix(1,0,0,1,0,0)"></rect><rect style="-webkit-tap-highlight-color: rgba(0, 0, 0, 0);" x="1000" y="272" width="0" height="0" r="0" rx="0" ry="0" fill="#ffffff" stroke="#000000" stroke-width="1" transform="matrix(1,0,0,1,0,0)"></rect><rect style="-webkit-tap-highlight-color: rgba(0, 0, 0, 0);" x="136" y="272" width="0" height="0" r="0" rx="0" ry="0" fill="#ffffff" stroke="#000000" stroke-width="1" transform="matrix(1,0,0,1,0,0)"></rect><circle style="-webkit-tap-highlight-color: rgba(0, 0, 0, 0);" cx="568" cy="235.5" r="0" fill="#ffffff" stroke="#000000" stroke-width="1"></circle></svg>
