<svg style="overflow: hidden; position: relative;" height="500" version="1.1" width="900" xmlns="http://www.w3.org/2000/svg"><rect style="-webkit-tap-highlight-color: rgba(0, 0, 0, 0);" x="0" y="0" width="100%" height="100%" r="0" rx="0" ry="0" fill="#ffffff" stroke="#888888" stroke-width="1"></rect><desc style="-webkit-tap-highlight-color: rgba(0, 0, 0, 0);">Created with Raphaël 2.1.0</desc><defs style="-webkit-tap-highlight-color: rgba(0, 0, 0, 0);"></defs><text style="-webkit-tap-highlight-color: rgba(0, 0, 0, 0); text-anchor: middle; font-style: normal; font-variant: normal; font-weight: normal; font-size: 30px; line-height: normal; font-family: Verdana, Helvetica, sans-serif; cursor: pointer;" x="420" y="50" text-anchor="middle" font="10px &quot;Arial&quot;" stroke="none" fill="#008080" font-size="30px" font-family="Verdana, Helvetica, sans-serif" transform="matrix(1,0,0,1,-146,-20)"><tspan style="-webkit-tap-highlight-color: rgba(0, 0, 0, 0);" dy="12">Converting Decimals to Fractions</tspan></text><rect style="-webkit-tap-highlight-color: rgba(0, 0, 0, 0); opacity: 0; cursor: nw-resize;" x="100" y="80" width="10" height="10" r="0" rx="0" ry="0" fill="#77bb44" stroke="#77bb44" opacity="0"></rect><text style="-webkit-tap-highlight-color: rgba(0, 0, 0, 0); text-anchor: middle; font-style: normal; font-variant: normal; font-weight: normal; font-size: 13px; line-height: normal; font-family: Verdana, Helvetica, sans-serif; cursor: pointer;" x="420" y="50" text-anchor="middle" font="10px &quot;Arial&quot;" stroke="none" fill="#000000" font-size="13px" font-family="Verdana, Helvetica, sans-serif" transform="matrix(1,0,0,1,-151,79)"><tspan style="-webkit-tap-highlight-color: rgba(0, 0, 0, 0);" dy="5">2) Remove the decimal point and make the decimal number the numerator.</tspan><tspan style="-webkit-tap-highlight-color: rgba(0, 0, 0, 0);" dy="15.6" x="420"></tspan><tspan style="-webkit-tap-highlight-color: rgba(0, 0, 0, 0);" dy="15.6" x="420"></tspan></text><rect style="-webkit-tap-highlight-color: rgba(0, 0, 0, 0); opacity: 0; cursor: nw-resize;" x="100" y="80" width="10" height="10" r="0" rx="0" ry="0" fill="#77bb44" stroke="#77bb44" opacity="0"></rect><text style="-webkit-tap-highlight-color: rgba(0, 0, 0, 0); text-anchor: middle; font-style: normal; font-variant: normal; font-weight: normal; font-size: 13px; line-height: normal; font-family: Verdana, Helvetica, sans-serif; cursor: pointer;" x="420" y="50" text-anchor="middle" font="10px &quot;Arial&quot;" stroke="none" fill="#000000" font-size="13px" font-family="Verdana, Helvetica, sans-serif" transform="matrix(1,0,0,1,21,48)"><tspan style="-webkit-tap-highlight-color: rgba(0, 0, 0, 0);" dy="5">1)  Let the denominator be the number 1 followed by as many zeros as there are decimal places in the original decimal number.</tspan></text><rect style="-webkit-tap-highlight-color: rgba(0, 0, 0, 0); opacity: 0; cursor: nw-resize;" x="100" y="80" width="10" height="10" r="0" rx="0" ry="0" fill="#77bb44" stroke="#77bb44" opacity="0"></rect><text style="-webkit-tap-highlight-color: rgba(0, 0, 0, 0); text-anchor: middle; font-style: normal; font-variant: normal; font-weight: normal; font-size: 13px; line-height: normal; font-family: Verdana, Helvetica, sans-serif; cursor: pointer;" x="420" y="50" text-anchor="middle" font="10px &quot;Arial&quot;" stroke="none" fill="#000000" font-size="13px" font-family="Verdana, Helvetica, sans-serif" transform="matrix(1,0,0,1,-285,111)"><tspan style="-webkit-tap-highlight-color: rgba(0, 0, 0, 0);" dy="5">3) Reduce this fraction if possible.</tspan></text><rect style="-webkit-tap-highlight-color: rgba(0, 0, 0, 0); opacity: 0; cursor: nw-resize;" x="100" y="80" width="10" height="10" r="0" rx="0" ry="0" fill="#77bb44" stroke="#77bb44" opacity="0"></rect><text style="-webkit-tap-highlight-color: rgba(0, 0, 0, 0); text-anchor: middle; font-style: normal; font-variant: normal; font-weight: normal; font-size: 13px; line-height: normal; font-family: Verdana, Helvetica, sans-serif; cursor: pointer;" x="420" y="50" text-anchor="middle" font="10px &quot;Arial&quot;" stroke="none" fill="#000000" font-size="13px" font-family="Verdana, Helvetica, sans-serif" transform="matrix(1,0,0,1,-3,169)"><tspan style="-webkit-tap-highlight-color: rgba(0, 0, 0, 0);" dy="5">To convert .3475 into a fraction, first eliminate the decimal point and place 3475 as the numerator</tspan></text><rect style="-webkit-tap-highlight-color: rgba(0, 0, 0, 0); opacity: 0; cursor: nw-resize;" x="100" y="80" width="10" height="10" r="0" rx="0" ry="0" fill="#77bb44" stroke="#77bb44" opacity="0"></rect><path style="-webkit-tap-highlight-color: rgba(0, 0, 0, 0); opacity: 0;" fill="none" stroke="#000000" d="M441,98LNaN,98" stroke-dasharray="4,3" opacity="0"></path><circle style="-webkit-tap-highlight-color: rgba(0, 0, 0, 0);" cx="NaN" cy="98" r="0" fill="#ffffff" stroke="#000000"></circle><path style="-webkit-tap-highlight-color: rgba(0, 0, 0, 0); opacity: 0;" fill="none" stroke="#000000" d="M441,98LNaN,108.4" stroke-dasharray="4,3" opacity="0"></path><circle style="-webkit-tap-highlight-color: rgba(0, 0, 0, 0);" cx="NaN" cy="108.4" r="0" fill="#ffffff" stroke="#000000"></circle><path style="-webkit-tap-highlight-color: rgba(0, 0, 0, 0); opacity: 0;" fill="none" stroke="#000000" d="M361,90L521,90L521,106L361,106L361,90" stroke-dasharray="4,3" opacity="0"></path><rect style="-webkit-tap-highlight-color: rgba(0, 0, 0, 0);" x="361" y="90" width="0" height="0" r="0" rx="0" ry="0" fill="#ffffff" stroke="#000000" transform="matrix(1,0,0,1,0,0)"></rect><rect style="-webkit-tap-highlight-color: rgba(0, 0, 0, 0);" x="521" y="90" width="0" height="0" r="0" rx="0" ry="0" fill="#ffffff" stroke="#000000" transform="matrix(1,0,0,1,0,0)"></rect><rect style="-webkit-tap-highlight-color: rgba(0, 0, 0, 0);" x="521" y="106" width="0" height="0" r="0" rx="0" ry="0" fill="#ffffff" stroke="#000000" transform="matrix(1,0,0,1,0,0)"></rect><rect style="-webkit-tap-highlight-color: rgba(0, 0, 0, 0);" x="361" y="106" width="0" height="0" r="0" rx="0" ry="0" fill="#ffffff" stroke="#000000" transform="matrix(1,0,0,1,0,0)"></rect><circle style="-webkit-tap-highlight-color: rgba(0, 0, 0, 0);" cx="441" cy="98" r="0" fill="#ffffff" stroke="#000000"></circle><path style="-webkit-tap-highlight-color: rgba(0, 0, 0, 0); opacity: 0;" fill="none" stroke="#000000" d="M269,129LNaN,129" stroke-dasharray="4,3" opacity="0"></path><circle style="-webkit-tap-highlight-color: rgba(0, 0, 0, 0);" cx="NaN" cy="129" r="0" fill="#ffffff" stroke="#000000"></circle><path style="-webkit-tap-highlight-color: rgba(0, 0, 0, 0); opacity: 0;" fill="none" stroke="#000000" d="M269,129LNaN,139.4" stroke-dasharray="4,3" opacity="0"></path><circle style="-webkit-tap-highlight-color: rgba(0, 0, 0, 0);" cx="NaN" cy="139.4" r="0" fill="#ffffff" stroke="#000000"></circle><path style="-webkit-tap-highlight-color: rgba(0, 0, 0, 0); opacity: 0;" fill="none" stroke="#000000" d="M189,121L349,121L349,137L189,137L189,121" stroke-dasharray="4,3" opacity="0"></path><rect style="-webkit-tap-highlight-color: rgba(0, 0, 0, 0);" x="189" y="121" width="0" height="0" r="0" rx="0" ry="0" fill="#ffffff" stroke="#000000" transform="matrix(1,0,0,1,0,0)"></rect><rect style="-webkit-tap-highlight-color: rgba(0, 0, 0, 0);" x="349" y="121" width="0" height="0" r="0" rx="0" ry="0" fill="#ffffff" stroke="#000000" transform="matrix(1,0,0,1,0,0)"></rect><rect style="-webkit-tap-highlight-color: rgba(0, 0, 0, 0);" x="349" y="137" width="0" height="0" r="0" rx="0" ry="0" fill="#ffffff" stroke="#000000" transform="matrix(1,0,0,1,0,0)"></rect><rect style="-webkit-tap-highlight-color: rgba(0, 0, 0, 0);" x="189" y="137" width="0" height="0" r="0" rx="0" ry="0" fill="#ffffff" stroke="#000000" transform="matrix(1,0,0,1,0,0)"></rect><circle style="-webkit-tap-highlight-color: rgba(0, 0, 0, 0);" cx="269" cy="129" r="0" fill="#ffffff" stroke="#000000"></circle><path style="-webkit-tap-highlight-color: rgba(0, 0, 0, 0); opacity: 0;" fill="none" stroke="#000000" d="M135,161LNaN,161" stroke-dasharray="4,3" opacity="0"></path><circle style="-webkit-tap-highlight-color: rgba(0, 0, 0, 0);" cx="NaN" cy="161" r="0" fill="#ffffff" stroke="#000000"></circle><path style="-webkit-tap-highlight-color: rgba(0, 0, 0, 0); opacity: 0;" fill="none" stroke="#000000" d="M135,161LNaN,171.4" stroke-dasharray="4,3" opacity="0"></path><circle style="-webkit-tap-highlight-color: rgba(0, 0, 0, 0);" cx="NaN" cy="171.4" r="0" fill="#ffffff" stroke="#000000"></circle><path style="-webkit-tap-highlight-color: rgba(0, 0, 0, 0); opacity: 0;" fill="none" stroke="#000000" d="M55,153L215,153L215,169L55,169L55,153" stroke-dasharray="4,3" opacity="0"></path><rect style="-webkit-tap-highlight-color: rgba(0, 0, 0, 0);" x="55" y="153" width="0" height="0" r="0" rx="0" ry="0" fill="#ffffff" stroke="#000000" transform="matrix(1,0,0,1,0,0)"></rect><rect style="-webkit-tap-highlight-color: rgba(0, 0, 0, 0);" x="215" y="153" width="0" height="0" r="0" rx="0" ry="0" fill="#ffffff" stroke="#000000" transform="matrix(1,0,0,1,0,0)"></rect><rect style="-webkit-tap-highlight-color: rgba(0, 0, 0, 0);" x="215" y="169" width="0" height="0" r="0" rx="0" ry="0" fill="#ffffff" stroke="#000000" transform="matrix(1,0,0,1,0,0)"></rect><rect style="-webkit-tap-highlight-color: rgba(0, 0, 0, 0);" x="55" y="169" width="0" height="0" r="0" rx="0" ry="0" fill="#ffffff" stroke="#000000" transform="matrix(1,0,0,1,0,0)"></rect><circle style="-webkit-tap-highlight-color: rgba(0, 0, 0, 0);" cx="135" cy="161" r="0" fill="#ffffff" stroke="#000000"></circle><path style="-webkit-tap-highlight-color: rgba(0, 0, 0, 0); opacity: 0;" fill="none" stroke="#000000" d="M417,219LNaN,219" stroke-dasharray="4,3" opacity="0"></path><circle style="-webkit-tap-highlight-color: rgba(0, 0, 0, 0);" cx="NaN" cy="219" r="0" fill="#ffffff" stroke="#000000"></circle><path style="-webkit-tap-highlight-color: rgba(0, 0, 0, 0); opacity: 0;" fill="none" stroke="#000000" d="M417,219LNaN,229.4" stroke-dasharray="4,3" opacity="0"></path><circle style="-webkit-tap-highlight-color: rgba(0, 0, 0, 0);" cx="NaN" cy="229.4" r="0" fill="#ffffff" stroke="#000000"></circle><path style="-webkit-tap-highlight-color: rgba(0, 0, 0, 0); opacity: 0;" fill="none" stroke="#000000" d="M337,211L497,211L497,227L337,227L337,211" stroke-dasharray="4,3" opacity="0"></path><rect style="-webkit-tap-highlight-color: rgba(0, 0, 0, 0);" x="337" y="211" width="0" height="0" r="0" rx="0" ry="0" fill="#ffffff" stroke="#000000" transform="matrix(1,0,0,1,0,0)"></rect><rect style="-webkit-tap-highlight-color: rgba(0, 0, 0, 0);" x="497" y="211" width="0" height="0" r="0" rx="0" ry="0" fill="#ffffff" stroke="#000000" transform="matrix(1,0,0,1,0,0)"></rect><rect style="-webkit-tap-highlight-color: rgba(0, 0, 0, 0);" x="497" y="227" width="0" height="0" r="0" rx="0" ry="0" fill="#ffffff" stroke="#000000" transform="matrix(1,0,0,1,0,0)"></rect><rect style="-webkit-tap-highlight-color: rgba(0, 0, 0, 0);" x="337" y="227" width="0" height="0" r="0" rx="0" ry="0" fill="#ffffff" stroke="#000000" transform="matrix(1,0,0,1,0,0)"></rect><circle style="-webkit-tap-highlight-color: rgba(0, 0, 0, 0);" cx="417" cy="219" r="0" fill="#ffffff" stroke="#000000"></circle><text style="-webkit-tap-highlight-color: rgba(0, 0, 0, 0); text-anchor: middle; font-style: normal; font-variant: normal; font-weight: normal; font-size: 13px; line-height: normal; font-family: Verdana, Helvetica, sans-serif; cursor: pointer;" x="420" y="50" text-anchor="middle" font="10px &quot;Arial&quot;" stroke="none" fill="#000000" font-size="13px" font-family="Verdana, Helvetica, sans-serif" transform="matrix(1,0,0,1,-239,236)"><tspan style="-webkit-tap-highlight-color: rgba(0, 0, 0, 0);" dy="5">.3475 = </tspan></text><rect style="-webkit-tap-highlight-color: rgba(0, 0, 0, 0); opacity: 0; cursor: nw-resize;" x="100" y="80" width="10" height="10" r="0" rx="0" ry="0" fill="#77bb44" stroke="#77bb44" opacity="0"></rect><text style="-webkit-tap-highlight-color: rgba(0, 0, 0, 0); text-anchor: middle; font-style: normal; font-variant: normal; font-weight: normal; font-size: 13px; line-height: normal; font-family: Verdana, Helvetica, sans-serif; cursor: pointer;" x="420" y="50" text-anchor="middle" font="10px &quot;Arial&quot;" stroke="none" fill="#000000" font-size="13px" font-family="Verdana, Helvetica, sans-serif" transform="matrix(1,0,0,1,-169,220)"><tspan style="-webkit-tap-highlight-color: rgba(0, 0, 0, 0);" dy="5">3475</tspan></text><rect style="-webkit-tap-highlight-color: rgba(0, 0, 0, 0); opacity: 0; cursor: nw-resize;" x="100" y="80" width="10" height="10" r="0" rx="0" ry="0" fill="#77bb44" stroke="#77bb44" opacity="0"></rect><path style="-webkit-tap-highlight-color: rgba(0, 0, 0, 0); opacity: 0;" fill="none" stroke="#000000" d="M251,270LNaN,270" stroke-dasharray="4,3" opacity="0"></path><circle style="-webkit-tap-highlight-color: rgba(0, 0, 0, 0);" cx="NaN" cy="270" r="0" fill="#ffffff" stroke="#000000"></circle><path style="-webkit-tap-highlight-color: rgba(0, 0, 0, 0); opacity: 0;" fill="none" stroke="#000000" d="M251,270LNaN,280.4" stroke-dasharray="4,3" opacity="0"></path><circle style="-webkit-tap-highlight-color: rgba(0, 0, 0, 0);" cx="NaN" cy="280.4" r="0" fill="#ffffff" stroke="#000000"></circle><path style="-webkit-tap-highlight-color: rgba(0, 0, 0, 0); opacity: 0;" fill="none" stroke="#000000" d="M171,262L331,262L331,278L171,278L171,262" stroke-dasharray="4,3" opacity="0"></path><rect style="-webkit-tap-highlight-color: rgba(0, 0, 0, 0);" x="171" y="262" width="0" height="0" r="0" rx="0" ry="0" fill="#ffffff" stroke="#000000" transform="matrix(1,0,0,1,0,0)"></rect><rect style="-webkit-tap-highlight-color: rgba(0, 0, 0, 0);" x="331" y="262" width="0" height="0" r="0" rx="0" ry="0" fill="#ffffff" stroke="#000000" transform="matrix(1,0,0,1,0,0)"></rect><rect style="-webkit-tap-highlight-color: rgba(0, 0, 0, 0);" x="331" y="278" width="0" height="0" r="0" rx="0" ry="0" fill="#ffffff" stroke="#000000" transform="matrix(1,0,0,1,0,0)"></rect><rect style="-webkit-tap-highlight-color: rgba(0, 0, 0, 0);" x="171" y="278" width="0" height="0" r="0" rx="0" ry="0" fill="#ffffff" stroke="#000000" transform="matrix(1,0,0,1,0,0)"></rect><circle style="-webkit-tap-highlight-color: rgba(0, 0, 0, 0);" cx="251" cy="270" r="0" fill="#ffffff" stroke="#000000"></circle><path style="-webkit-tap-highlight-color: rgba(0, 0, 0, 0); fill-opacity: 0;" fill="#ffffff" stroke="#000000" d="M222,284L222,284L286,283L286,283L286,283" fill-opacity="0"></path><text style="-webkit-tap-highlight-color: rgba(0, 0, 0, 0); text-anchor: middle; font-style: normal; font-variant: normal; font-weight: normal; font-size: 13px; line-height: normal; font-family: Verdana, Helvetica, sans-serif; cursor: pointer;" x="420" y="50" text-anchor="middle" font="10px &quot;Arial&quot;" stroke="none" fill="#000000" font-size="13px" font-family="Verdana, Helvetica, sans-serif" transform="matrix(1,0,0,1,-171,248)"><tspan style="-webkit-tap-highlight-color: rgba(0, 0, 0, 0);" dy="5">?</tspan></text><rect style="-webkit-tap-highlight-color: rgba(0, 0, 0, 0); opacity: 0; cursor: nw-resize;" x="100" y="80" width="10" height="10" r="0" rx="0" ry="0" fill="#77bb44" stroke="#77bb44" opacity="0"></rect><path style="-webkit-tap-highlight-color: rgba(0, 0, 0, 0); opacity: 0;" fill="none" stroke="#000000" d="M249,298LNaN,298" stroke-dasharray="4,3" opacity="0"></path><circle style="-webkit-tap-highlight-color: rgba(0, 0, 0, 0);" cx="NaN" cy="298" r="0" fill="#ffffff" stroke="#000000"></circle><path style="-webkit-tap-highlight-color: rgba(0, 0, 0, 0); opacity: 0;" fill="none" stroke="#000000" d="M249,298LNaN,308.4" stroke-dasharray="4,3" opacity="0"></path><circle style="-webkit-tap-highlight-color: rgba(0, 0, 0, 0);" cx="NaN" cy="308.4" r="0" fill="#ffffff" stroke="#000000"></circle><path style="-webkit-tap-highlight-color: rgba(0, 0, 0, 0); opacity: 0;" fill="none" stroke="#000000" d="M169,290L329,290L329,306L169,306L169,290" stroke-dasharray="4,3" opacity="0"></path><rect style="-webkit-tap-highlight-color: rgba(0, 0, 0, 0);" x="169" y="290" width="0" height="0" r="0" rx="0" ry="0" fill="#ffffff" stroke="#000000" transform="matrix(1,0,0,1,0,0)"></rect><rect style="-webkit-tap-highlight-color: rgba(0, 0, 0, 0);" x="329" y="290" width="0" height="0" r="0" rx="0" ry="0" fill="#ffffff" stroke="#000000" transform="matrix(1,0,0,1,0,0)"></rect><rect style="-webkit-tap-highlight-color: rgba(0, 0, 0, 0);" x="329" y="306" width="0" height="0" r="0" rx="0" ry="0" fill="#ffffff" stroke="#000000" transform="matrix(1,0,0,1,0,0)"></rect><rect style="-webkit-tap-highlight-color: rgba(0, 0, 0, 0);" x="169" y="306" width="0" height="0" r="0" rx="0" ry="0" fill="#ffffff" stroke="#000000" transform="matrix(1,0,0,1,0,0)"></rect><circle style="-webkit-tap-highlight-color: rgba(0, 0, 0, 0);" cx="249" cy="298" r="0" fill="#ffffff" stroke="#000000"></circle><text style="-webkit-tap-highlight-color: rgba(0, 0, 0, 0); text-anchor: middle; font-style: normal; font-variant: normal; font-weight: normal; font-size: 13px; line-height: normal; font-family: Verdana, Helvetica, sans-serif; cursor: pointer;" x="420" y="50" text-anchor="middle" font="10px &quot;Arial&quot;" stroke="none" fill="#000000" font-size="13px" font-family="Verdana, Helvetica, sans-serif" transform="matrix(1,0,0,1,17,295)"><tspan style="-webkit-tap-highlight-color: rgba(0, 0, 0, 0);" dy="5">Since .3475 has four digits after the decimal point, put four zeros in the denominator following the number 1:</tspan></text><rect style="-webkit-tap-highlight-color: rgba(0, 0, 0, 0); opacity: 0; cursor: nw-resize;" x="100" y="80" width="10" height="10" r="0" rx="0" ry="0" fill="#77bb44" stroke="#77bb44" opacity="0"></rect><path style="-webkit-tap-highlight-color: rgba(0, 0, 0, 0); opacity: 0;" fill="none" stroke="#000000" d="M181,286LNaN,286" stroke-dasharray="4,3" opacity="0"></path><circle style="-webkit-tap-highlight-color: rgba(0, 0, 0, 0);" cx="NaN" cy="286" r="0" fill="#ffffff" stroke="#000000"></circle><path style="-webkit-tap-highlight-color: rgba(0, 0, 0, 0); opacity: 0;" fill="none" stroke="#000000" d="M181,286LNaN,296.4" stroke-dasharray="4,3" opacity="0"></path><circle style="-webkit-tap-highlight-color: rgba(0, 0, 0, 0);" cx="NaN" cy="296.4" r="0" fill="#ffffff" stroke="#000000"></circle><path style="-webkit-tap-highlight-color: rgba(0, 0, 0, 0); opacity: 0;" fill="none" stroke="#000000" d="M101,278L261,278L261,294L101,294L101,278" stroke-dasharray="4,3" opacity="0"></path><rect style="-webkit-tap-highlight-color: rgba(0, 0, 0, 0);" x="101" y="278" width="0" height="0" r="0" rx="0" ry="0" fill="#ffffff" stroke="#000000" transform="matrix(1,0,0,1,0,0)"></rect><rect style="-webkit-tap-highlight-color: rgba(0, 0, 0, 0);" x="261" y="278" width="0" height="0" r="0" rx="0" ry="0" fill="#ffffff" stroke="#000000" transform="matrix(1,0,0,1,0,0)"></rect><rect style="-webkit-tap-highlight-color: rgba(0, 0, 0, 0);" x="261" y="294" width="0" height="0" r="0" rx="0" ry="0" fill="#ffffff" stroke="#000000" transform="matrix(1,0,0,1,0,0)"></rect><rect style="-webkit-tap-highlight-color: rgba(0, 0, 0, 0);" x="101" y="294" width="0" height="0" r="0" rx="0" ry="0" fill="#ffffff" stroke="#000000" transform="matrix(1,0,0,1,0,0)"></rect><circle style="-webkit-tap-highlight-color: rgba(0, 0, 0, 0);" cx="181" cy="286" r="0" fill="#ffffff" stroke="#000000"></circle><text style="-webkit-tap-highlight-color: rgba(0, 0, 0, 0); text-anchor: middle; font-style: normal; font-variant: normal; font-weight: normal; font-size: 13px; line-height: normal; font-family: Verdana, Helvetica, sans-serif; cursor: pointer;" x="420" y="50" text-anchor="middle" font="10px &quot;Arial&quot;" stroke="none" fill="#000000" font-size="13px" font-family="Verdana, Helvetica, sans-serif" transform="matrix(1,0,0,1,-255,343)"><tspan style="-webkit-tap-highlight-color: rgba(0, 0, 0, 0);" dy="5">.3475 = </tspan></text><rect style="-webkit-tap-highlight-color: rgba(0, 0, 0, 0); opacity: 0; cursor: nw-resize;" x="100" y="80" width="10" height="10" r="0" rx="0" ry="0" fill="#77bb44" stroke="#77bb44" opacity="0"></rect><path style="-webkit-tap-highlight-color: rgba(0, 0, 0, 0); opacity: 0;" fill="none" stroke="#000000" d="M165,393LNaN,393" stroke-dasharray="4,3" opacity="0"></path><circle style="-webkit-tap-highlight-color: rgba(0, 0, 0, 0);" cx="NaN" cy="393" r="0" fill="#ffffff" stroke="#000000"></circle><path style="-webkit-tap-highlight-color: rgba(0, 0, 0, 0); opacity: 0;" fill="none" stroke="#000000" d="M165,393LNaN,403.4" stroke-dasharray="4,3" opacity="0"></path><circle style="-webkit-tap-highlight-color: rgba(0, 0, 0, 0);" cx="NaN" cy="403.4" r="0" fill="#ffffff" stroke="#000000"></circle><path style="-webkit-tap-highlight-color: rgba(0, 0, 0, 0); opacity: 0;" fill="none" stroke="#000000" d="M85,385L245,385L245,401L85,401L85,385" stroke-dasharray="4,3" opacity="0"></path><rect style="-webkit-tap-highlight-color: rgba(0, 0, 0, 0);" x="85" y="385" width="0" height="0" r="0" rx="0" ry="0" fill="#ffffff" stroke="#000000" transform="matrix(1,0,0,1,0,0)"></rect><rect style="-webkit-tap-highlight-color: rgba(0, 0, 0, 0);" x="245" y="385" width="0" height="0" r="0" rx="0" ry="0" fill="#ffffff" stroke="#000000" transform="matrix(1,0,0,1,0,0)"></rect><rect style="-webkit-tap-highlight-color: rgba(0, 0, 0, 0);" x="245" y="401" width="0" height="0" r="0" rx="0" ry="0" fill="#ffffff" stroke="#000000" transform="matrix(1,0,0,1,0,0)"></rect><rect style="-webkit-tap-highlight-color: rgba(0, 0, 0, 0);" x="85" y="401" width="0" height="0" r="0" rx="0" ry="0" fill="#ffffff" stroke="#000000" transform="matrix(1,0,0,1,0,0)"></rect><circle style="-webkit-tap-highlight-color: rgba(0, 0, 0, 0);" cx="165" cy="393" r="0" fill="#ffffff" stroke="#000000"></circle><text style="-webkit-tap-highlight-color: rgba(0, 0, 0, 0); text-anchor: middle; font-style: normal; font-variant: normal; font-weight: normal; font-size: 13px; line-height: normal; font-family: Verdana, Helvetica, sans-serif; cursor: pointer;" x="420" y="50" text-anchor="middle" font="10px &quot;Arial&quot;" stroke="none" fill="#000000" font-size="13px" font-family="Verdana, Helvetica, sans-serif" transform="matrix(1,0,0,1,-184,331)"><tspan style="-webkit-tap-highlight-color: rgba(0, 0, 0, 0);" dy="5">3475</tspan></text><rect style="-webkit-tap-highlight-color: rgba(0, 0, 0, 0); opacity: 0; cursor: nw-resize;" x="100" y="80" width="10" height="10" r="0" rx="0" ry="0" fill="#77bb44" stroke="#77bb44" opacity="0"></rect><path style="-webkit-tap-highlight-color: rgba(0, 0, 0, 0); fill-opacity: 0;" fill="#ffffff" stroke="#000000" d="M211,396L211,396L275,395L275,395L275,395" fill-opacity="0"></path><text style="-webkit-tap-highlight-color: rgba(0, 0, 0, 0); text-anchor: middle; font-style: normal; font-variant: normal; font-weight: normal; font-size: 13px; line-height: normal; font-family: Verdana, Helvetica, sans-serif; cursor: pointer;" x="420" y="50" text-anchor="middle" font="10px &quot;Arial&quot;" stroke="none" fill="#000000" font-size="13px" font-family="Verdana, Helvetica, sans-serif" transform="matrix(1,0,0,1,-183,359)"><tspan style="-webkit-tap-highlight-color: rgba(0, 0, 0, 0);" dy="5">10000</tspan></text><rect style="-webkit-tap-highlight-color: rgba(0, 0, 0, 0); opacity: 0; cursor: nw-resize;" x="100" y="80" width="10" height="10" r="0" rx="0" ry="0" fill="#77bb44" stroke="#77bb44" opacity="0"></rect><path style="-webkit-tap-highlight-color: rgba(0, 0, 0, 0); opacity: 0;" fill="none" stroke="#000000" d="M236,381LNaN,381" stroke-dasharray="4,3" opacity="0"></path><circle style="-webkit-tap-highlight-color: rgba(0, 0, 0, 0);" cx="NaN" cy="381" r="0" fill="#ffffff" stroke="#000000"></circle><path style="-webkit-tap-highlight-color: rgba(0, 0, 0, 0); opacity: 0;" fill="none" stroke="#000000" d="M236,381LNaN,391.4" stroke-dasharray="4,3" opacity="0"></path><circle style="-webkit-tap-highlight-color: rgba(0, 0, 0, 0);" cx="NaN" cy="391.4" r="0" fill="#ffffff" stroke="#000000"></circle><path style="-webkit-tap-highlight-color: rgba(0, 0, 0, 0); opacity: 0;" fill="none" stroke="#000000" d="M156,373L316,373L316,389L156,389L156,373" stroke-dasharray="4,3" opacity="0"></path><rect style="-webkit-tap-highlight-color: rgba(0, 0, 0, 0);" x="156" y="373" width="0" height="0" r="0" rx="0" ry="0" fill="#ffffff" stroke="#000000" transform="matrix(1,0,0,1,0,0)"></rect><rect style="-webkit-tap-highlight-color: rgba(0, 0, 0, 0);" x="316" y="373" width="0" height="0" r="0" rx="0" ry="0" fill="#ffffff" stroke="#000000" transform="matrix(1,0,0,1,0,0)"></rect><rect style="-webkit-tap-highlight-color: rgba(0, 0, 0, 0);" x="316" y="389" width="0" height="0" r="0" rx="0" ry="0" fill="#ffffff" stroke="#000000" transform="matrix(1,0,0,1,0,0)"></rect><rect style="-webkit-tap-highlight-color: rgba(0, 0, 0, 0);" x="156" y="389" width="0" height="0" r="0" rx="0" ry="0" fill="#ffffff" stroke="#000000" transform="matrix(1,0,0,1,0,0)"></rect><circle style="-webkit-tap-highlight-color: rgba(0, 0, 0, 0);" cx="236" cy="381" r="0" fill="#ffffff" stroke="#000000"></circle><path style="-webkit-tap-highlight-color: rgba(0, 0, 0, 0); opacity: 0;" fill="none" stroke="#000000" d="M237,409LNaN,409" stroke-dasharray="4,3" opacity="0"></path><circle style="-webkit-tap-highlight-color: rgba(0, 0, 0, 0);" cx="NaN" cy="409" r="0" fill="#ffffff" stroke="#000000"></circle><path style="-webkit-tap-highlight-color: rgba(0, 0, 0, 0); opacity: 0;" fill="none" stroke="#000000" d="M237,409LNaN,419.4" stroke-dasharray="4,3" opacity="0"></path><circle style="-webkit-tap-highlight-color: rgba(0, 0, 0, 0);" cx="NaN" cy="419.4" r="0" fill="#ffffff" stroke="#000000"></circle><path style="-webkit-tap-highlight-color: rgba(0, 0, 0, 0); opacity: 0;" fill="none" stroke="#000000" d="M157,401L317,401L317,417L157,417L157,401" stroke-dasharray="4,3" opacity="0"></path><rect style="-webkit-tap-highlight-color: rgba(0, 0, 0, 0);" x="157" y="401" width="0" height="0" r="0" rx="0" ry="0" fill="#ffffff" stroke="#000000" transform="matrix(1,0,0,1,0,0)"></rect><rect style="-webkit-tap-highlight-color: rgba(0, 0, 0, 0);" x="317" y="401" width="0" height="0" r="0" rx="0" ry="0" fill="#ffffff" stroke="#000000" transform="matrix(1,0,0,1,0,0)"></rect><rect style="-webkit-tap-highlight-color: rgba(0, 0, 0, 0);" x="317" y="417" width="0" height="0" r="0" rx="0" ry="0" fill="#ffffff" stroke="#000000" transform="matrix(1,0,0,1,0,0)"></rect><rect style="-webkit-tap-highlight-color: rgba(0, 0, 0, 0);" x="157" y="417" width="0" height="0" r="0" rx="0" ry="0" fill="#ffffff" stroke="#000000" transform="matrix(1,0,0,1,0,0)"></rect><circle style="-webkit-tap-highlight-color: rgba(0, 0, 0, 0);" cx="237" cy="409" r="0" fill="#ffffff" stroke="#000000"></circle><path style="-webkit-tap-highlight-color: rgba(0, 0, 0, 0); opacity: 0;" fill="none" stroke="#000000" d="M274,30LNaN,30" stroke-dasharray="4,3" opacity="0"></path><circle style="-webkit-tap-highlight-color: rgba(0, 0, 0, 0);" cx="NaN" cy="30" r="0" fill="#ffffff" stroke="#000000"></circle><path style="-webkit-tap-highlight-color: rgba(0, 0, 0, 0); opacity: 0;" fill="none" stroke="#000000" d="M274,30LNaN,40.4" stroke-dasharray="4,3" opacity="0"></path><circle style="-webkit-tap-highlight-color: rgba(0, 0, 0, 0);" cx="NaN" cy="40.4" r="0" fill="#ffffff" stroke="#000000"></circle><path style="-webkit-tap-highlight-color: rgba(0, 0, 0, 0); opacity: 0;" fill="none" stroke="#000000" d="M194,22L354,22L354,38L194,38L194,22" stroke-dasharray="4,3" opacity="0"></path><rect style="-webkit-tap-highlight-color: rgba(0, 0, 0, 0);" x="194" y="22" width="0" height="0" r="0" rx="0" ry="0" fill="#ffffff" stroke="#000000" transform="matrix(1,0,0,1,0,0)"></rect><rect style="-webkit-tap-highlight-color: rgba(0, 0, 0, 0);" x="354" y="22" width="0" height="0" r="0" rx="0" ry="0" fill="#ffffff" stroke="#000000" transform="matrix(1,0,0,1,0,0)"></rect><rect style="-webkit-tap-highlight-color: rgba(0, 0, 0, 0);" x="354" y="38" width="0" height="0" r="0" rx="0" ry="0" fill="#ffffff" stroke="#000000" transform="matrix(1,0,0,1,0,0)"></rect><rect style="-webkit-tap-highlight-color: rgba(0, 0, 0, 0);" x="194" y="38" width="0" height="0" r="0" rx="0" ry="0" fill="#ffffff" stroke="#000000" transform="matrix(1,0,0,1,0,0)"></rect><circle style="-webkit-tap-highlight-color: rgba(0, 0, 0, 0);" cx="274" cy="30" r="0" fill="#ffffff" stroke="#000000"></circle><path style="-webkit-tap-highlight-color: rgba(0, 0, 0, 0); opacity: 0;" fill="none" stroke="#000000" d="M437,345LNaN,345" stroke-dasharray="4,3" opacity="0"></path><circle style="-webkit-tap-highlight-color: rgba(0, 0, 0, 0);" cx="NaN" cy="345" r="0" fill="#ffffff" stroke="#000000"></circle><path style="-webkit-tap-highlight-color: rgba(0, 0, 0, 0); opacity: 0;" fill="none" stroke="#000000" d="M437,345LNaN,355.4" stroke-dasharray="4,3" opacity="0"></path><circle style="-webkit-tap-highlight-color: rgba(0, 0, 0, 0);" cx="NaN" cy="355.4" r="0" fill="#ffffff" stroke="#000000"></circle><path style="-webkit-tap-highlight-color: rgba(0, 0, 0, 0); opacity: 0;" fill="none" stroke="#000000" d="M357,337L517,337L517,353L357,353L357,337" stroke-dasharray="4,3" opacity="0"></path><rect style="-webkit-tap-highlight-color: rgba(0, 0, 0, 0);" x="357" y="337" width="0" height="0" r="0" rx="0" ry="0" fill="#ffffff" stroke="#000000" transform="matrix(1,0,0,1,0,0)"></rect><rect style="-webkit-tap-highlight-color: rgba(0, 0, 0, 0);" x="517" y="337" width="0" height="0" r="0" rx="0" ry="0" fill="#ffffff" stroke="#000000" transform="matrix(1,0,0,1,0,0)"></rect><rect style="-webkit-tap-highlight-color: rgba(0, 0, 0, 0);" x="517" y="353" width="0" height="0" r="0" rx="0" ry="0" fill="#ffffff" stroke="#000000" transform="matrix(1,0,0,1,0,0)"></rect><rect style="-webkit-tap-highlight-color: rgba(0, 0, 0, 0);" x="357" y="353" width="0" height="0" r="0" rx="0" ry="0" fill="#ffffff" stroke="#000000" transform="matrix(1,0,0,1,0,0)"></rect><circle style="-webkit-tap-highlight-color: rgba(0, 0, 0, 0);" cx="437" cy="345" r="0" fill="#ffffff" stroke="#000000"></circle><text style="-webkit-tap-highlight-color: rgba(0, 0, 0, 0); text-anchor: middle; font-style: normal; font-variant: normal; font-weight: normal; font-size: 13px; line-height: normal; font-family: Verdana, Helvetica, sans-serif; cursor: pointer;" x="420" y="50" text-anchor="middle" font="10px &quot;Arial&quot;" stroke="none" fill="#000000" font-size="13px" font-family="Verdana, Helvetica, sans-serif" transform="matrix(1,0,0,1,-278,406)"><tspan style="-webkit-tap-highlight-color: rgba(0, 0, 0, 0);" dy="5">Reduced fraction = 139 /400</tspan></text><rect style="-webkit-tap-highlight-color: rgba(0, 0, 0, 0); opacity: 0; cursor: nw-resize;" x="100" y="80" width="10" height="10" r="0" rx="0" ry="0" fill="#77bb44" stroke="#77bb44" opacity="0"></rect><path style="-webkit-tap-highlight-color: rgba(0, 0, 0, 0); opacity: 0;" fill="none" stroke="#000000" d="M142,456LNaN,456" stroke-dasharray="4,3" opacity="0"></path><circle style="-webkit-tap-highlight-color: rgba(0, 0, 0, 0);" cx="NaN" cy="456" r="0" fill="#ffffff" stroke="#000000"></circle><path style="-webkit-tap-highlight-color: rgba(0, 0, 0, 0); opacity: 0;" fill="none" stroke="#000000" d="M142,456LNaN,466.4" stroke-dasharray="4,3" opacity="0"></path><circle style="-webkit-tap-highlight-color: rgba(0, 0, 0, 0);" cx="NaN" cy="466.4" r="0" fill="#ffffff" stroke="#000000"></circle><path style="-webkit-tap-highlight-color: rgba(0, 0, 0, 0); opacity: 0;" fill="none" stroke="#000000" d="M62,448L222,448L222,464L62,464L62,448" stroke-dasharray="4,3" opacity="0"></path><rect style="-webkit-tap-highlight-color: rgba(0, 0, 0, 0);" x="62" y="448" width="0" height="0" r="0" rx="0" ry="0" fill="#ffffff" stroke="#000000" transform="matrix(1,0,0,1,0,0)"></rect><rect style="-webkit-tap-highlight-color: rgba(0, 0, 0, 0);" x="222" y="448" width="0" height="0" r="0" rx="0" ry="0" fill="#ffffff" stroke="#000000" transform="matrix(1,0,0,1,0,0)"></rect><rect style="-webkit-tap-highlight-color: rgba(0, 0, 0, 0);" x="222" y="464" width="0" height="0" r="0" rx="0" ry="0" fill="#ffffff" stroke="#000000" transform="matrix(1,0,0,1,0,0)"></rect><rect style="-webkit-tap-highlight-color: rgba(0, 0, 0, 0);" x="62" y="464" width="0" height="0" r="0" rx="0" ry="0" fill="#ffffff" stroke="#000000" transform="matrix(1,0,0,1,0,0)"></rect><circle style="-webkit-tap-highlight-color: rgba(0, 0, 0, 0);" cx="142" cy="456" r="0" fill="#ffffff" stroke="#000000"></circle><path style="-webkit-tap-highlight-color: rgba(0, 0, 0, 0); opacity: 0;" fill="none" stroke="#000000" d="M254,283.5LNaN,283.5" stroke-dasharray="4,3" opacity="0"></path><circle style="-webkit-tap-highlight-color: rgba(0, 0, 0, 0);" cx="NaN" cy="283.5" r="0" fill="#ffffff" stroke="#000000" stroke-width="1"></circle><path style="-webkit-tap-highlight-color: rgba(0, 0, 0, 0); opacity: 0;" fill="none" stroke="#000000" d="M254,283.5LNaN,284.15" stroke-dasharray="4,3" opacity="0"></path><circle style="-webkit-tap-highlight-color: rgba(0, 0, 0, 0);" cx="NaN" cy="284.15" r="0" fill="#ffffff" stroke="#000000" stroke-width="1"></circle><path style="-webkit-tap-highlight-color: rgba(0, 0, 0, 0); opacity: 0;" fill="none" stroke="#000000" d="M222,283L286,283L286,284L222,284L222,283" stroke-dasharray="4,3" opacity="0"></path><rect style="-webkit-tap-highlight-color: rgba(0, 0, 0, 0);" x="222" y="283" width="0" height="0" r="0" rx="0" ry="0" fill="#ffffff" stroke="#000000" stroke-width="1" transform="matrix(1,0,0,1,0,0)"></rect><rect style="-webkit-tap-highlight-color: rgba(0, 0, 0, 0);" x="286" y="283" width="0" height="0" r="0" rx="0" ry="0" fill="#ffffff" stroke="#000000" stroke-width="1" transform="matrix(1,0,0,1,0,0)"></rect><rect style="-webkit-tap-highlight-color: rgba(0, 0, 0, 0);" x="286" y="284" width="0" height="0" r="0" rx="0" ry="0" fill="#ffffff" stroke="#000000" stroke-width="1" transform="matrix(1,0,0,1,0,0)"></rect><rect style="-webkit-tap-highlight-color: rgba(0, 0, 0, 0);" x="222" y="284" width="0" height="0" r="0" rx="0" ry="0" fill="#ffffff" stroke="#000000" stroke-width="1" transform="matrix(1,0,0,1,0,0)"></rect><circle style="-webkit-tap-highlight-color: rgba(0, 0, 0, 0);" cx="254" cy="283.5" r="0" fill="#ffffff" stroke="#000000" stroke-width="1"></circle><path style="-webkit-tap-highlight-color: rgba(0, 0, 0, 0); opacity: 0;" fill="none" stroke="#000000" d="M243,395.5LNaN,395.5" stroke-dasharray="4,3" opacity="0"></path><circle style="-webkit-tap-highlight-color: rgba(0, 0, 0, 0);" cx="NaN" cy="395.5" r="0" fill="#ffffff" stroke="#000000" stroke-width="1"></circle><path style="-webkit-tap-highlight-color: rgba(0, 0, 0, 0); opacity: 0;" fill="none" stroke="#000000" d="M243,395.5LNaN,396.15" stroke-dasharray="4,3" opacity="0"></path><circle style="-webkit-tap-highlight-color: rgba(0, 0, 0, 0);" cx="NaN" cy="396.15" r="0" fill="#ffffff" stroke="#000000" stroke-width="1"></circle><path style="-webkit-tap-highlight-color: rgba(0, 0, 0, 0); opacity: 0;" fill="none" stroke="#000000" d="M211,395L275,395L275,396L211,396L211,395" stroke-dasharray="4,3" opacity="0"></path><rect style="-webkit-tap-highlight-color: rgba(0, 0, 0, 0);" x="211" y="395" width="0" height="0" r="0" rx="0" ry="0" fill="#ffffff" stroke="#000000" stroke-width="1" transform="matrix(1,0,0,1,0,0)"></rect><rect style="-webkit-tap-highlight-color: rgba(0, 0, 0, 0);" x="275" y="395" width="0" height="0" r="0" rx="0" ry="0" fill="#ffffff" stroke="#000000" stroke-width="1" transform="matrix(1,0,0,1,0,0)"></rect><rect style="-webkit-tap-highlight-color: rgba(0, 0, 0, 0);" x="275" y="396" width="0" height="0" r="0" rx="0" ry="0" fill="#ffffff" stroke="#000000" stroke-width="1" transform="matrix(1,0,0,1,0,0)"></rect><rect style="-webkit-tap-highlight-color: rgba(0, 0, 0, 0);" x="211" y="396" width="0" height="0" r="0" rx="0" ry="0" fill="#ffffff" stroke="#000000" stroke-width="1" transform="matrix(1,0,0,1,0,0)"></rect><circle style="-webkit-tap-highlight-color: rgba(0, 0, 0, 0);" cx="243" cy="395.5" r="0" fill="#ffffff" stroke="#000000" stroke-width="1"></circle></svg>
