<svg style="overflow: hidden; position: relative;" height="500" version="1.1" width="1050" xmlns="http://www.w3.org/2000/svg"><rect style="-webkit-tap-highlight-color: rgba(0, 0, 0, 0);" x="0" y="0" width="100%" height="100%" r="0" rx="0" ry="0" fill="#3b5998" stroke="#eeeeee" stroke-width="1"></rect><desc style="-webkit-tap-highlight-color: rgba(0, 0, 0, 0);">Created with Raphaël 2.1.0</desc><defs style="-webkit-tap-highlight-color: rgba(0, 0, 0, 0);"></defs><text style="-webkit-tap-highlight-color: rgba(0, 0, 0, 0); text-anchor: middle; font-style: normal; font-variant: normal; font-weight: normal; font-size: 12px; line-height: normal; font-family: Verdana, Helvetica, sans-serif; cursor: pointer;" x="400" y="100" text-anchor="middle" font="10px &quot;Arial&quot;" stroke="none" fill="#000000" font-size="12px" font-family="Verdana, Helvetica, sans-serif" transform="matrix(1,0,0,1,83,93)"><tspan style="-webkit-tap-highlight-color: rgba(0, 0, 0, 0);" dy="5">Area of the given rectangle is 20 * 10 = 200 ; Area of square is 5*5 =  25   =&gt; Area R  =  8* Area S = &gt; Area S = 1/8 Area R</tspan></text><rect style="-webkit-tap-highlight-color: rgba(0, 0, 0, 0); opacity: 0; cursor: nw-resize;" x="100" y="80" width="10" height="10" r="0" rx="0" ry="0" fill="#77bb44" stroke="#77bb44" opacity="0"></rect><path style="-webkit-tap-highlight-color: rgba(0, 0, 0, 0); opacity: 0;" fill="none" stroke="#000000" d="M483,193L897.7,193" stroke-dasharray="4,3" opacity="0"></path><circle style="-webkit-tap-highlight-color: rgba(0, 0, 0, 0);" cx="897.7" cy="193" r="0" fill="#ffffff" stroke="#000000"></circle><path style="-webkit-tap-highlight-color: rgba(0, 0, 0, 0); opacity: 0;" fill="none" stroke="#000000" d="M483,193L483,202.1" stroke-dasharray="4,3" opacity="0"></path><circle style="-webkit-tap-highlight-color: rgba(0, 0, 0, 0);" cx="483" cy="202.1" r="0" fill="#ffffff" stroke="#000000"></circle><path style="-webkit-tap-highlight-color: rgba(0, 0, 0, 0); opacity: 0;" fill="none" stroke="#000000" d="M164,186L802,186L802,200L164,200L164,186" stroke-dasharray="4,3" opacity="0"></path><rect style="-webkit-tap-highlight-color: rgba(0, 0, 0, 0);" x="164" y="186" width="0" height="0" r="0" rx="0" ry="0" fill="#ffffff" stroke="#000000" transform="matrix(1,0,0,1,0,0)"></rect><rect style="-webkit-tap-highlight-color: rgba(0, 0, 0, 0);" x="802" y="186" width="0" height="0" r="0" rx="0" ry="0" fill="#ffffff" stroke="#000000" transform="matrix(1,0,0,1,0,0)"></rect><rect style="-webkit-tap-highlight-color: rgba(0, 0, 0, 0);" x="802" y="200" width="0" height="0" r="0" rx="0" ry="0" fill="#ffffff" stroke="#000000" transform="matrix(1,0,0,1,0,0)"></rect><rect style="-webkit-tap-highlight-color: rgba(0, 0, 0, 0);" x="164" y="200" width="0" height="0" r="0" rx="0" ry="0" fill="#ffffff" stroke="#000000" transform="matrix(1,0,0,1,0,0)"></rect><circle style="-webkit-tap-highlight-color: rgba(0, 0, 0, 0);" cx="483" cy="193" r="0" fill="#ffffff" stroke="#000000"></circle></svg>
