<svg height="504" version="1.1" width="100%" xmlns="http://www.w3.org/2000/svg" xml:space="preserve" style="overflow: hidden; position: relative;"><rect x="0" y="0" width="100%" height="100%" r="0" rx="0" ry="0" fill="#95cae4" stroke="#888888" stroke-width="1" style="-webkit-tap-highlight-color: rgba(0, 0, 0, 0);"></rect><desc style="-webkit-tap-highlight-color: rgba(0, 0, 0, 0);">Created with Raphaël 2.1.0</desc><defs style="-webkit-tap-highlight-color: rgba(0, 0, 0, 0);"></defs><text x="50" y="50" text-anchor="start" font="10px &quot;Arial&quot;" stroke="none" fill="#000000" font-size="15px" font-family="Georgia" style="-webkit-tap-highlight-color: rgba(0, 0, 0, 0); text-anchor: start; font-style: normal; font-variant: normal; font-weight: normal; font-size: 15px; line-height: normal; font-family: Georgia; cursor: pointer;"><tspan dy="-3.765625" style="-webkit-tap-highlight-color: rgba(0, 0, 0, 0);">8&gt;5</tspan><tspan dy="18" x="50" style="-webkit-tap-highlight-color: rgba(0, 0, 0, 0);">A is Greater</tspan></text><rect x="100" y="80" width="10" height="10" r="0" rx="0" ry="0" fill="#77bb44" stroke="#77bb44" opacity="0" style="-webkit-tap-highlight-color: rgba(0, 0, 0, 0); opacity: 0; cursor: nw-resize;"></rect><path fill="none" stroke="#000000" d="M99,50LNaN,50" stroke-dasharray="4,3" opacity="0" style="-webkit-tap-highlight-color: rgba(0, 0, 0, 0); opacity: 0;"></path><circle cx="NaN" cy="50" r="0" fill="#ffffff" stroke="#000000" style="-webkit-tap-highlight-color: rgba(0, 0, 0, 0);"></circle><path fill="none" stroke="#000000" d="M99,50LNaN,61.090625" stroke-dasharray="4,3" opacity="0" style="-webkit-tap-highlight-color: rgba(0, 0, 0, 0); opacity: 0;"></path><circle cx="NaN" cy="61.090625" r="0" fill="#ffffff" stroke="#000000" style="-webkit-tap-highlight-color: rgba(0, 0, 0, 0);"></circle><path fill="none" stroke="#000000" d="M50,41.46875L148,41.46875L148,58.53125L50,58.53125L50,41.46875" stroke-dasharray="4,3" opacity="0" style="-webkit-tap-highlight-color: rgba(0, 0, 0, 0); opacity: 0;"></path><rect x="50" y="41.46875" width="0" height="0" r="0" rx="0" ry="0" fill="#ffffff" stroke="#000000" transform="matrix(1,0,0,1,0,0)" style="-webkit-tap-highlight-color: rgba(0, 0, 0, 0);"></rect><rect x="148" y="41.46875" width="0" height="0" r="0" rx="0" ry="0" fill="#ffffff" stroke="#000000" transform="matrix(1,0,0,1,0,0)" style="-webkit-tap-highlight-color: rgba(0, 0, 0, 0);"></rect><rect x="148" y="58.53125" width="0" height="0" r="0" rx="0" ry="0" fill="#ffffff" stroke="#000000" transform="matrix(1,0,0,1,0,0)" style="-webkit-tap-highlight-color: rgba(0, 0, 0, 0);"></rect><rect x="50" y="58.53125" width="0" height="0" r="0" rx="0" ry="0" fill="#ffffff" stroke="#000000" transform="matrix(1,0,0,1,0,0)" style="-webkit-tap-highlight-color: rgba(0, 0, 0, 0);"></rect><circle cx="99" cy="50" r="0" fill="#ffffff" stroke="#000000" style="-webkit-tap-highlight-color: rgba(0, 0, 0, 0);"></circle></svg>
