<svg height="306" version="1.1" width="100%" xmlns="http://www.w3.org/2000/svg" xml:space="preserve" style="overflow: hidden; position: relative; left: -0.5px;"><rect x="0" y="0" width="100%" height="100%" r="0" rx="0" ry="0" fill="#ffffff" stroke="#eeeeee" stroke-width="1" style="-webkit-tap-highlight-color: rgba(0, 0, 0, 0);"></rect><desc style="-webkit-tap-highlight-color: rgba(0, 0, 0, 0);">Created with Raphaël 2.1.0</desc><defs style="-webkit-tap-highlight-color: rgba(0, 0, 0, 0);"></defs><path fill="none" stroke="#000000" d="M322,78L321,83L320,91L318,100L317,111L317,123L317,137L316,153L316,165L316,174L316,180L316,186L316,189L317,189L318,189L320,189L330,189L364,185L398,184L426,184L440,184L444,184L444,183L444,182L444,179L444,177L444,165L444,140L444,123L444,111L444,104L444,102L444,101L443,101L441,101L437,101L430,101L408,101L375,101L332,101L274,101L258,101L254,101" stroke-width="1" style="-webkit-tap-highlight-color: rgba(0, 0, 0, 0);"></path></svg>
