<svg height="303" version="1.1" width="800" xmlns="http://www.w3.org/2000/svg" xml:space="preserve" style="overflow: hidden; position: relative; left: -0.5px;"><rect x="0" y="0" width="100%" height="100%" r="0" rx="0" ry="0" fill="#ffffff" stroke="#eeeeee" stroke-width="1" style="-webkit-tap-highlight-color: rgba(0, 0, 0, 0);"></rect><desc style="-webkit-tap-highlight-color: rgba(0, 0, 0, 0);">Created with Raphaël 2.1.0</desc><defs style="-webkit-tap-highlight-color: rgba(0, 0, 0, 0);"></defs><path fill="none" stroke="#000000" d="M656,37L657,37L658,37L659,37L660,37L661,37L662,37L663,37L664,37L665,37L666,37L667,37L668,37L669,37L669,37L670,38L671,39L672,39L672,40L673,40L674,40L675,40L675,41L677,42L678,42L679,42L679,43L679,44L680,44L681,45L681,46L682,47L683,48L683,49L684,50L684,51L684,52L685,52L685,53L686,53L686,54L687,55L688,56L688,56L688,57L689,57L689,58L689,59L690,60L690,61L690,62L691,62L691,63L692,64L693,65L693,66L693,67L693,68L694,68L694,70L694,71L694,74L694,75L694,76L694,77L694,78L695,79L695,80L695,81L695,82L696,83L696,84L696,85L696,86L696,87L696,88L696,89L696,90L696,91L696,92L696,93L696,94L696,95L696,96L696,97L696,98L695,98L695,99L695,100L695,101L695,101L695,102L695,103L695,104L695,105L695,106L694,106L694,107L694,108L694,109L694,110L694,111L694,112L694,113L694,114L693,114L693,115L693,116L693,117L692,117L692,117L692,118L692,119L691,119L691,121L690,122L690,123L690,124L689,124L689,125L689,126L688,127L688,128L687,128L687,129L687,130L686,130L685,131L684,131L683,131L682,131L682,132L681,132L680,132L680,133L680,134L679,134L679,135L677,137L676,138L674,141L674,142L672,143L671,143L671,144L670,144L669,145L668,146L667,146L666,146L665,147L664,147L661,148L658,148L656,149L654,149L651,149L650,149L648,149L643,149L636,149L633,147L631,147L630,147L627,147L624,147L622,147L620,147L618,147L614,147L611,145L610,144L607,141L603,138L601,136L600,135L596,133L595,133L594,132L593,131L591,129L590,127L589,125L588,117L588,117L588,116L588,115L587,114L587,112L587,106L587,103L587,98L588,95L588,92L588,91L588,90L589,88L589,82L589,82L589,81L589,80L590,79L590,78L591,76L591,75L591,74L592,72L592,71L592,70L594,68L595,67L596,65L597,64L598,63L598,62L600,62L603,61L604,60L607,58L609,56L611,55L615,53L618,50L621,48L623,47L625,47L626,47L627,47L627,47L628,47L634,44L638,43L640,43L641,42L644,40L645,39L648,38L650,36L651,35L652,35L653,35L654,35L655,35L655,34L656,34L657,34L658,34L661,34L663,34L664,34L665,34L666,34" stroke-width="1" style="-webkit-tap-highlight-color: rgba(0, 0, 0, 0);"></path><path fill="none" stroke="#000000" d="M590,90L591,90L592,90L593,90L594,90L595,90L596,90L597,90L598,90L599,90L600,90L601,90L602,90L603,90L604,90L605,90L606,90L607,90L608,90L609,90L610,90L611,90L612,90L613,90L614,90L616,90L617,90L618,90L619,90L620,90L621,90L622,90L624,91L627,91L632,91L636,91L637,90L638,90L639,90L640,90L641,89L642,89L643,89L643,89L644,89L645,89L646,89L647,89L648,89L649,89L650,89L651,89L652,89L653,89L656,89L660,89L662,89L666,88L668,88L669,88L671,88L672,88L675,89L677,89L678,89L679,89L680,89L681,89L682,89L683,89L684,89L685,90L685,91L686,91L687,91L688,91L689,91L691,91L692,91L693,91L694,91L695,91L695,91L697,92" stroke-width="1" style="-webkit-tap-highlight-color: rgba(0, 0, 0, 0);"></path><path fill="none" stroke="#000000" d="M557,99L557,98L558,98L558,97L558,96L558,95L559,95L559,93L560,93L560,92L560,91L560,90L560,89L560,88L561,88L561,87L561,86L561,85L562,85L562,84L563,84L563,83L563,82L564,81L564,80L564,79L565,79L566,78L566,77L567,77L567,76L568,76L568,76L568,75L568,75L569,77L570,77L571,79L571,81L572,81L573,83L573,84L573,85L574,85L574,86L574,87L574,88L574,89L574,90L574,91L575,91L575,92L576,92L576,93L576,94L576,95L576,96L576,97L576,97" stroke-width="1" style="-webkit-tap-highlight-color: rgba(0, 0, 0, 0);"></path><path fill="none" stroke="#000000" d="M559,88L559,88L559,87L559,86L560,86L562,86L565,86L567,86L568,86L569,86L570,86L571,86L572,86L572,85L572,85L572,85" stroke-width="1" style="-webkit-tap-highlight-color: rgba(0, 0, 0, 0);"></path><path fill="none" stroke="#000000" d="M713,83L713,84L713,85L713,86L713,87L713,89L713,90L713,91L713,94L713,96L713,99L713,100L713,101L713,102L713,103L713,103L713,104L713,105L713,106L712,106L712,105L711,105L710,104L709,102L709,100L709,99L709,98L709,97L709,96L709,95L709,94L709,93L709,92L710,92L710,91L710,90L710,89L711,88L711,87L712,87L712,86L712,85L712,84L712,84L713,82L713,81L714,81L715,81L715,80L716,80L716,79L717,79L718,79L719,79L720,79L721,79L722,79L722,79L722,80L723,80L723,81L723,82L723,83L723,84L723,85L723,86L723,87L723,88L722,88L722,89L720,90L720,91L719,91L718,91L717,91L716,92L715,92L714,92L714,92L714,92L714,94L716,94L722,95L724,96L726,97L727,97L728,97L728,98L728,99L728,100L728,101L728,102L727,102L727,103L725,104L724,104L724,105L722,105L721,105L721,105L720,105L719,105L718,105L717,105L716,105L714,105L714,105L714,105L714,105L710,105" stroke-width="1" style="-webkit-tap-highlight-color: rgba(0, 0, 0, 0);"></path><path fill="none" stroke="#000000" d="M601,140L602,140L603,140L603,140L603,140L607,140L608,140L612,139L615,139L619,139L621,139L625,139L627,139L630,139L631,139L632,139L633,139L635,139L637,139L642,141L644,142L647,142L649,142L651,142L655,142L656,142L658,142L659,142L659,142L660,141L661,141L662,140L665,139L666,139L667,139L668,139L669,138L670,138L670,137L671,136L672,136L673,136L675,136L676,136L676,136L679,136L680,136L681,136L682,136L683,136L684,136L685,137L686,137L686,138" stroke-width="1" style="-webkit-tap-highlight-color: rgba(0, 0, 0, 0);"></path><path fill="none" stroke="#000000" d="M591,146L590,147L588,148L586,152L585,153L584,154L583,155L583,156L582,157L582,158L581,158L581,159L582,159L582,160L583,160L584,160L584,161L585,161L586,161L587,161L587,162L588,162L589,162L590,162L595,163L596,163L597,163L598,163L599,163" stroke-width="1" style="-webkit-tap-highlight-color: rgba(0, 0, 0, 0);"></path><path fill="none" stroke="#000000" d="M700,151L700,152L700,153L700,154L700,155L700,156L700,157L700,158L700,159L700,160L700,160L700,160L700,160L700,160L700,149L700,147L700,146L700,145L700,143L700,142L700,141L700,140L700,139L701,139L702,137L703,137L704,137L705,137L707,138L708,138L709,139L709,140L709,141L710,142L711,144L711,145L711,146L711,147L711,148L711,149L711,150L711,151L710,151L710,152L710,153L710,154L709,154L708,154L708,155L707,155L707,156L706,156L705,156L705,157L704,157L703,158L703,158L702,158L701,158L701,158" stroke-width="1" style="-webkit-tap-highlight-color: rgba(0, 0, 0, 0);"></path><path fill="none" stroke="#000000" d="M637,40L637,41L639,41L640,41L640,41L642,42L646,43L647,43L648,43L649,43L650,43L651,43L651,44L653,44L654,44L656,45L658,46L661,47L664,48L665,48L665,49L666,50L666,51L667,52L668,53L673,56L678,57L681,58L682,58L684,59L685,59L687,60L689,60L689,60L689,60L689,60L693,64L694,65L694,66L695,66L695,67L696,68" stroke-width="1" style="-webkit-tap-highlight-color: rgba(0, 0, 0, 0);"></path><path fill="none" stroke="#000000" d="M618,8L617,9L616,10L616,11L616,12L615,12L615,13L614,14L614,18L613,19L613,20L613,20L613,21L613,22L613,23L613,24L613,25L614,25L615,26L616,26L617,26L618,26L619,25L621,25L623,23L624,22L625,22L626,21L627,21L627,20L629,19L630,19" stroke-width="1" style="-webkit-tap-highlight-color: rgba(0, 0, 0, 0);"></path><path fill="none" stroke="#000000" d="M616,18L616,17L617,17L618,16L618,14L619,13L620,12L621,12L622,12" stroke-width="1" style="-webkit-tap-highlight-color: rgba(0, 0, 0, 0);"></path><path fill="none" stroke="#000000" d="M698,56L698,57L698,58L698,59L698,60L698,61L698,62L698,65L698,66L698,67" stroke-width="1" style="-webkit-tap-highlight-color: rgba(0, 0, 0, 0);"></path><path fill="none" stroke="#000000" d="M696,59L696,59L696,58L696,57L696,56L696,55L696,53L697,52L697,51L698,50L698,49L698,48L699,48L700,48L700,47L701,46L702,46L703,46L704,45L705,45L706,45L706,44L707,44" stroke-width="1" style="-webkit-tap-highlight-color: rgba(0, 0, 0, 0);"></path><path fill="none" stroke="#000000" d="M695,57L697,57L697,57L699,56L700,56L700,55L701,55L702,55L702,54L703,54L704,54L705,54L705,54L705,53L706,53L707,53L707,52L708,52" stroke-width="1" style="-webkit-tap-highlight-color: rgba(0, 0, 0, 0);"></path><text x="50" y="50" text-anchor="start" font="10px &quot;Arial&quot;" stroke="none" fill="#000000" font-size="13px" font-family="verdana" transform="matrix(1,0,0,1,-47,24)" style="-webkit-tap-highlight-color: rgba(0, 0, 0, 0); text-anchor: start; font-style: normal; font-variant: normal; font-weight: normal; font-size: 13px; line-height: normal; font-family: verdana; cursor: move;"><tspan dy="-49.6015625" style="-webkit-tap-highlight-color: rgba(0, 0, 0, 0); white-space: pre; line-height: 10;">Area of circle = (pi*d^2)/2, where d is the the diameter of the circle</tspan><tspan dy="15.6" x="50" style="-webkit-tap-highlight-color: rgba(0, 0, 0, 0); white-space: pre; line-height: 10;">=&gt; Circle with larger diameter has more area</tspan><tspan dy="15.6" x="50" style="-webkit-tap-highlight-color: rgba(0, 0, 0, 0); white-space: pre; line-height: 10;">A chord of a circle is a geometric line segment whose endpoints both lie on the circle </tspan><tspan dy="15.6" x="50" style="-webkit-tap-highlight-color: rgba(0, 0, 0, 0); white-space: pre; line-height: 10;">=&gt; The diameter is simply put , the largest chord of the circle.</tspan><tspan dy="15.6" x="50" style="-webkit-tap-highlight-color: rgba(0, 0, 0, 0); white-space: pre; line-height: 10;">=&gt; Circle B with chord length 8 will have a diameter of at least length 8</tspan><tspan dy="15.6" x="50" style="-webkit-tap-highlight-color: rgba(0, 0, 0, 0); white-space: pre; line-height: 10;">=&gt;  diameter of circle B &gt;= diameter of circle A</tspan><tspan dy="15.6" x="50" style="-webkit-tap-highlight-color: rgba(0, 0, 0, 0); white-space: pre; line-height: 10;">=&gt; Area of circle B &gt;= Area of circle A</tspan><tspan dy="15.6" x="50" style="-webkit-tap-highlight-color: rgba(0, 0, 0, 0); white-space: pre; line-height: 10;">=&gt; The relationship cannot be determined from the given information </tspan></text><rect x="100" y="80" width="10" height="10" r="0" rx="0" ry="0" fill="#77bb44" stroke="#77bb44" opacity="0" style="-webkit-tap-highlight-color: rgba(0, 0, 0, 0); opacity: 0; cursor: nw-resize;"></rect><path fill="none" stroke="#000000" d="M51.5,74L114.55000000000001,74" stroke-dasharray="1,3" opacity="0" style="-webkit-tap-highlight-color: rgba(0, 0, 0, 0); opacity: 0;"></path><circle cx="114.55000000000001" cy="74" r="0" fill="#ffffff" stroke="#000000" style="-webkit-tap-highlight-color: rgba(0, 0, 0, 0);"></circle><path fill="none" stroke="#000000" d="M51.5,74L51.5,84.4" stroke-dasharray="1,3" opacity="0" style="-webkit-tap-highlight-color: rgba(0, 0, 0, 0); opacity: 0;"></path><circle cx="51.5" cy="84.4" r="0" fill="#ffffff" stroke="#000000" style="-webkit-tap-highlight-color: rgba(0, 0, 0, 0);"></circle><circle cx="-8.5" cy="64" r="0" fill="#ffffff" stroke="#000000" style="-webkit-tap-highlight-color: rgba(0, 0, 0, 0);"></circle></svg>
