<svg height="303" version="1.1" width="100%" xmlns="http://www.w3.org/2000/svg" style="overflow: hidden; position: relative;" xml:space="preserve"><rect x="0" y="0" width="100%" height="100%" r="0" rx="0" ry="0" fill="#ffffff" stroke="#eeeeee" stroke-width="1" style="-webkit-tap-highlight-color: rgba(0, 0, 0, 0);"></rect><desc style="-webkit-tap-highlight-color: rgba(0, 0, 0, 0);">Created with Raphaël 2.1.0</desc><defs style="-webkit-tap-highlight-color: rgba(0, 0, 0, 0);"></defs><path fill="none" stroke="#000000" d="M193,177L193,177L193,177L193,177L200,183L200,183L200,183L200,183L207,189L207,189L207,189L207,189L227,206L227,206L227,206L227,206L235,212L235,212L235,212L235,212L244,216L244,216L244,216L244,216L252,219L252,219L252,219L252,219L275,221L275,221L275,221L275,221L284,221L284,221L284,221L284,221L291,221L291,221L291,221L291,221L299,217L299,217L299,217L299,217L300,217L300,217L300,217L300,217" stroke-width="1" style="-webkit-tap-highlight-color: rgba(0, 0, 0, 0);"></path><path fill="none" stroke="#000000" d="M305,167L305,167L305,167L305,167L308,167L308,167L308,167L308,167L312,168L312,168L312,168L312,168L323,177L323,177L323,177L323,177L325,182L325,182L325,182L325,182L325,187L325,187L325,187L325,187L316,217L316,217L316,217L316,217L304,234L304,234L304,234L304,234L294,252L294,252L294,252L294,252L285,267L285,267L285,267L285,267L285,267L285,267L285,267L285,267L285,267L285,267L285,267L285,267L285,267L285,267L285,267L285,267L242,295L242,295L242,295L242,295L255,252L255,252L255,252L255,252L275,244L275,244L275,244L275,244L279,244L279,244L279,244L279,244L291,247L291,247L291,247L291,247L295,252L295,252L295,252L295,252L291,209L291,209L291,209L291,209L292,179L292,179L292,179L292,179L292,166L292,166L292,166L292,166" stroke-width="1" style="-webkit-tap-highlight-color: rgba(0, 0, 0, 0);"></path><text x="50" y="50" text-anchor="start" font="10px &quot;Arial&quot;" stroke="none" fill="#000000" style="-webkit-tap-highlight-color: rgba(0, 0, 0, 0); text-anchor: start; font-style: normal; font-variant: normal; font-weight: normal; font-size: 13px; line-height: normal; font-family: verdana; cursor: move;" font-size="13px" font-family="verdana" transform="matrix(1,0,0,1,88,40)"><tspan dy="5" style="-webkit-tap-highlight-color: rgba(0, 0, 0, 0); white-space: pre; line-height: 10;">Math Practice! jksjdksdklsd</tspan></text><rect x="100" y="80" width="10" height="10" r="0" rx="0" ry="0" fill="#77bb44" stroke="#77bb44" opacity="0" style="-webkit-tap-highlight-color: rgba(0, 0, 0, 0); opacity: 0; cursor: nw-resize;"></rect><path fill="none" stroke="#000000" d="M186.5,90L249.55,90" stroke-dasharray="1,3" opacity="0" style="-webkit-tap-highlight-color: rgba(0, 0, 0, 0); opacity: 0;"></path><circle cx="249.55" cy="90" r="0" fill="#ffffff" stroke="#000000" style="-webkit-tap-highlight-color: rgba(0, 0, 0, 0);"></circle><path fill="none" stroke="#000000" d="M186.5,90L186.5,100.4" stroke-dasharray="1,3" opacity="0" style="-webkit-tap-highlight-color: rgba(0, 0, 0, 0); opacity: 0;"></path><circle cx="186.5" cy="100.4" r="0" fill="#ffffff" stroke="#000000" style="-webkit-tap-highlight-color: rgba(0, 0, 0, 0);"></circle><circle cx="126.5" cy="80" r="0" fill="#ffffff" stroke="#000000" style="-webkit-tap-highlight-color: rgba(0, 0, 0, 0);"></circle></svg>
