<svg style="overflow: hidden; position: relative;" height="500" version="1.1" width="100%" xmlns="http://www.w3.org/2000/svg"><rect style="-webkit-tap-highlight-color: rgba(0, 0, 0, 0);" x="0" y="0" width="100%" height="100%" r="0" rx="0" ry="0" fill="#ffffff" stroke="#eeeeee" stroke-width="1"></rect><desc style="-webkit-tap-highlight-color: rgba(0, 0, 0, 0);">Created with Raphaël 2.1.0</desc><defs style="-webkit-tap-highlight-color: rgba(0, 0, 0, 0);"></defs><text style="-webkit-tap-highlight-color: rgba(0, 0, 0, 0); text-anchor: middle; font-style: normal; font-variant: normal; font-weight: normal; font-size: 12px; line-height: normal; font-family: Verdana, Helvetica, sans-serif; cursor: pointer;" x="400" y="100" text-anchor="middle" font="10px &quot;Arial&quot;" stroke="none" fill="#000000" font-size="12px" font-family="Verdana, Helvetica, sans-serif" transform="matrix(1,0,0,1,2,30)"><tspan style="-webkit-tap-highlight-color: rgba(0, 0, 0, 0);" dy="5">you can drag this text....to edit this ...type in the text area above..click on the 'T' symbol to get new text.</tspan></text><rect style="-webkit-tap-highlight-color: rgba(0, 0, 0, 0); opacity: 0; cursor: nw-resize;" x="100" y="80" width="10" height="10" r="0" rx="0" ry="0" fill="#77bb44" stroke="#77bb44" opacity="0"></rect><circle style="-webkit-tap-highlight-color: rgba(0, 0, 0, 0); fill-opacity: 1;" cx="100" cy="100" r="50" fill="#c80000" stroke="#000" fill-opacity="1" transform="matrix(1,0,0,1,152,-22)"></circle><path style="-webkit-tap-highlight-color: rgba(0, 0, 0, 0); opacity: 0;" fill="none" stroke="#000000" d="M402,130LNaN,130" stroke-dasharray="4,3" opacity="0"></path><circle style="-webkit-tap-highlight-color: rgba(0, 0, 0, 0);" cx="NaN" cy="130" r="0" fill="#ffffff" stroke="#000000"></circle><path style="-webkit-tap-highlight-color: rgba(0, 0, 0, 0); opacity: 0;" fill="none" stroke="#000000" d="M402,130LNaN,139.1" stroke-dasharray="4,3" opacity="0"></path><circle style="-webkit-tap-highlight-color: rgba(0, 0, 0, 0);" cx="NaN" cy="139.1" r="0" fill="#ffffff" stroke="#000000"></circle><path style="-webkit-tap-highlight-color: rgba(0, 0, 0, 0); opacity: 0;" fill="none" stroke="#000000" d="M72,123L732,123L732,137L72,137L72,123" stroke-dasharray="4,3" opacity="0"></path><rect style="-webkit-tap-highlight-color: rgba(0, 0, 0, 0);" x="72" y="123" width="0" height="0" r="0" rx="0" ry="0" fill="#ffffff" stroke="#000000" transform="matrix(1,0,0,1,0,0)"></rect><rect style="-webkit-tap-highlight-color: rgba(0, 0, 0, 0);" x="732" y="123" width="0" height="0" r="0" rx="0" ry="0" fill="#ffffff" stroke="#000000" transform="matrix(1,0,0,1,0,0)"></rect><rect style="-webkit-tap-highlight-color: rgba(0, 0, 0, 0);" x="732" y="137" width="0" height="0" r="0" rx="0" ry="0" fill="#ffffff" stroke="#000000" transform="matrix(1,0,0,1,0,0)"></rect><rect style="-webkit-tap-highlight-color: rgba(0, 0, 0, 0);" x="72" y="137" width="0" height="0" r="0" rx="0" ry="0" fill="#ffffff" stroke="#000000" transform="matrix(1,0,0,1,0,0)"></rect><circle style="-webkit-tap-highlight-color: rgba(0, 0, 0, 0);" cx="402" cy="130" r="0" fill="#ffffff" stroke="#000000"></circle><path style="-webkit-tap-highlight-color: rgba(0, 0, 0, 0); opacity: 0;" fill="none" stroke="#000000" d="M252,78LNaN,78" stroke-dasharray="4,3" opacity="0"></path><circle style="-webkit-tap-highlight-color: rgba(0, 0, 0, 0);" cx="NaN" cy="78" r="0" fill="#ffffff" stroke="#000000" stroke-width="1"></circle><path style="-webkit-tap-highlight-color: rgba(0, 0, 0, 0); opacity: 0;" fill="none" stroke="#000000" d="M252,78LNaN,143" stroke-dasharray="4,3" opacity="0"></path><circle style="-webkit-tap-highlight-color: rgba(0, 0, 0, 0);" cx="NaN" cy="143" r="0" fill="#ffffff" stroke="#000000" stroke-width="1"></circle><path style="-webkit-tap-highlight-color: rgba(0, 0, 0, 0); opacity: 0;" fill="none" stroke="#000000" d="M201.92540538484292,28L302.0745946151571,28L302.0745946151571,128L201.92540538484292,128L201.92540538484292,28" stroke-dasharray="4,3" opacity="0"></path><rect style="-webkit-tap-highlight-color: rgba(0, 0, 0, 0);" x="197.92540538484292" y="24" width="8" height="8" r="0" rx="0" ry="0" fill="#ffffff" stroke="#000000" stroke-width="1" transform="matrix(1,0,0,1,0,0)"></rect><rect style="-webkit-tap-highlight-color: rgba(0, 0, 0, 0);" x="298.0745946151571" y="24" width="8" height="8" r="0" rx="0" ry="0" fill="#ffffff" stroke="#000000" stroke-width="1" transform="matrix(1,0,0,1,0,0)"></rect><rect style="-webkit-tap-highlight-color: rgba(0, 0, 0, 0);" x="298.0745946151571" y="124" width="8" height="8" r="0" rx="0" ry="0" fill="#ffffff" stroke="#000000" stroke-width="1" transform="matrix(1,0,0,1,0,0)"></rect><rect style="-webkit-tap-highlight-color: rgba(0, 0, 0, 0);" x="197.92540538484292" y="124" width="8" height="8" r="0" rx="0" ry="0" fill="#ffffff" stroke="#000000" stroke-width="1" transform="matrix(1,0,0,1,0,0)"></rect><circle style="-webkit-tap-highlight-color: rgba(0, 0, 0, 0);" cx="252" cy="78" r="0" fill="#ffffff" stroke="#000000" stroke-width="1"></circle></svg>
