<svg height="504" version="1.1" width="100%" xmlns="http://www.w3.org/2000/svg" style="overflow: hidden; position: relative; left: -0.5px;" xml:space="preserve"><rect x="0" y="0" width="100%" height="100%" r="0" rx="0" ry="0" fill="#ffffff" stroke="#888888" stroke-width="1" style="-webkit-tap-highlight-color: rgba(0, 0, 0, 0);"></rect><desc style="-webkit-tap-highlight-color: rgba(0, 0, 0, 0);">Created with Raphaël 2.1.0</desc><defs style="-webkit-tap-highlight-color: rgba(0, 0, 0, 0);"></defs><text x="50" y="50" text-anchor="start" font="10px &quot;Arial&quot;" stroke="none" fill="#000000" style="-webkit-tap-highlight-color: rgba(0, 0, 0, 0); text-anchor: start; font-style: normal; font-variant: normal; font-weight: normal; font-size: 15px; line-height: normal; font-family: Georgia; cursor: pointer;" font-size="15px" font-family="Georgia" transform="matrix(1,0,0,1,-50,-21)"><tspan style="-webkit-tap-highlight-color: rgba(0, 0, 0, 0);" dy="-30">The question says half of the police all corrupt and half of all police are thieves but it doesn't specify  the relation between </tspan><tspan dy="18" x="50" style="-webkit-tap-highlight-color: rgba(0, 0, 0, 0);">them. </tspan><tspan dy="18" x="50" style="-webkit-tap-highlight-color: rgba(0, 0, 0, 0);">i.e., whether same police officers are both corrupt and thieves or whether they are different</tspan><tspan dy="18" x="50" style="-webkit-tap-highlight-color: rgba(0, 0, 0, 0);"></tspan><tspan dy="18" x="50" style="-webkit-tap-highlight-color: rgba(0, 0, 0, 0);">As the relationship cannot be determined from the given information, </tspan><tspan dy="18" x="50" style="-webkit-tap-highlight-color: rgba(0, 0, 0, 0);">The answer is D </tspan></text><rect x="100" y="80" width="10" height="10" r="0" rx="0" ry="0" fill="#77bb44" stroke="#77bb44" opacity="0" style="-webkit-tap-highlight-color: rgba(0, 0, 0, 0); opacity: 0; cursor: nw-resize;"></rect><path fill="none" stroke="#000000" d="M49,29LNaN,29" stroke-dasharray="4,3" opacity="0" style="-webkit-tap-highlight-color: rgba(0, 0, 0, 0); opacity: 0;"></path><circle cx="NaN" cy="29" r="0" fill="#ffffff" stroke="#000000" style="-webkit-tap-highlight-color: rgba(0, 0, 0, 0);"></circle><path fill="none" stroke="#000000" d="M49,29LNaN,40.7" stroke-dasharray="4,3" opacity="0" style="-webkit-tap-highlight-color: rgba(0, 0, 0, 0); opacity: 0;"></path><circle cx="NaN" cy="40.7" r="0" fill="#ffffff" stroke="#000000" style="-webkit-tap-highlight-color: rgba(0, 0, 0, 0);"></circle><path fill="none" stroke="#000000" d="M-5.510728592200698e-16,20L98,20L98,38L5.510728592200698e-16,38L-5.510728592200698e-16,20" stroke-dasharray="4,3" opacity="0" style="-webkit-tap-highlight-color: rgba(0, 0, 0, 0); opacity: 0;"></path><rect x="-5.510728592200698e-16" y="20" width="0" height="0" r="0" rx="0" ry="0" fill="#ffffff" stroke="#000000" transform="matrix(1,0,0,1,0,0)" style="-webkit-tap-highlight-color: rgba(0, 0, 0, 0);"></rect><rect x="98" y="20" width="0" height="0" r="0" rx="0" ry="0" fill="#ffffff" stroke="#000000" transform="matrix(1,0,0,1,0,0)" style="-webkit-tap-highlight-color: rgba(0, 0, 0, 0);"></rect><rect x="98" y="38" width="0" height="0" r="0" rx="0" ry="0" fill="#ffffff" stroke="#000000" transform="matrix(1,0,0,1,0,0)" style="-webkit-tap-highlight-color: rgba(0, 0, 0, 0);"></rect><rect x="5.510728592200698e-16" y="38" width="0" height="0" r="0" rx="0" ry="0" fill="#ffffff" stroke="#000000" transform="matrix(1,0,0,1,0,0)" style="-webkit-tap-highlight-color: rgba(0, 0, 0, 0);"></rect><circle cx="49" cy="29" r="0" fill="#ffffff" stroke="#000000" style="-webkit-tap-highlight-color: rgba(0, 0, 0, 0);"></circle></svg>
