<svg height="133" version="1.1" width="100%" xmlns="http://www.w3.org/2000/svg" xml:space="preserve" style="overflow: hidden; position: relative;"><desc style="-webkit-tap-highlight-color: rgba(0, 0, 0, 0);">Created with Raphaël 2.1.0</desc><defs style="-webkit-tap-highlight-color: rgba(0, 0, 0, 0);"></defs><rect x="0" y="0" width="100%" height="100%" r="0" rx="0" ry="0" fill="#ffffff" stroke="#eeeeee" stroke-width="1" style="-webkit-tap-highlight-color: rgba(0, 0, 0, 0);"></rect><text x="50" y="50" text-anchor="start" font="10px &quot;Arial&quot;" stroke="none" fill="#000000" font-size="16px" font-family="  Trebuchet MS" transform="matrix(1,0,0,1,-43,23)" style="-webkit-tap-highlight-color: rgba(0, 0, 0, 0); text-anchor: start; font-style: normal; font-variant: normal; font-weight: normal; font-size: 16px; line-height: normal; font-family: 'Trebuchet MS'; cursor: pointer;"><tspan dy="-3.6015625" style="-webkit-tap-highlight-color: rgba(0, 0, 0, 0); white-space: pre; line-height: 10;">Quantity A: 4⁻¹/5⁻¹ = (1/4¹)/(1/5¹) = 5/4 = 1.25</tspan><tspan dy="19.2" x="50" style="-webkit-tap-highlight-color: rgba(0, 0, 0, 0); white-space: pre; line-height: 10;">Quantity B = 4/5 = 0.8</tspan><tspan dy="19.2" x="50" style="-webkit-tap-highlight-color: rgba(0, 0, 0, 0); white-space: pre; line-height: 10;"></tspan></text><rect x="100" y="80" width="10" height="10" r="0" rx="0" ry="0" fill="#77bb44" stroke="#77bb44" opacity="0" style="-webkit-tap-highlight-color: rgba(0, 0, 0, 0); opacity: 0; cursor: nw-resize;"></rect><rect x="200" y="200" width="100" height="100" r="0" rx="0" ry="0" fill="#77bb44" stroke="#000000" fill-opacity="0.5" stroke-width="0.11990407673860912" transform="matrix(8.34,0,0,0.88,-1676,-220)" style="-webkit-tap-highlight-color: rgba(0, 0, 0, 0); fill-opacity: 0.5;"></rect><text x="50" y="50" text-anchor="start" font="10px &quot;Arial&quot;" stroke="none" fill="#000000" font-size="16px" font-family="  Trebuchet MS" transform="matrix(1,0,0,1,-44,-30)" style="-webkit-tap-highlight-color: rgba(0, 0, 0, 0); text-anchor: start; font-style: normal; font-variant: normal; font-weight: normal; font-size: 16px; line-height: normal; font-family: 'Trebuchet MS'; cursor: pointer;"><tspan dy="-3.6015625" style="-webkit-tap-highlight-color: rgba(0, 0, 0, 0); white-space: pre; line-height: 10;">Theory: x⁻ⁿ = 1/xⁿ </tspan><tspan dy="19.2" x="50" style="-webkit-tap-highlight-color: rgba(0, 0, 0, 0); white-space: pre; line-height: 10;">1/(1/x) = x   i.e, (1/y)/(1/x) = x/y == y⁻¹/x⁻¹</tspan></text><rect x="100" y="80" width="10" height="10" r="0" rx="0" ry="0" fill="#77bb44" stroke="#77bb44" opacity="0" style="-webkit-tap-highlight-color: rgba(0, 0, 0, 0); opacity: 0; cursor: nw-resize;"></rect><text x="50" y="50" text-anchor="start" font="10px &quot;Arial&quot;" stroke="none" fill="#000000" font-size="16px" font-family="  Trebuchet MS" transform="matrix(1,0,0,1,-45,59)" style="-webkit-tap-highlight-color: rgba(0, 0, 0, 0); text-anchor: start; font-style: normal; font-variant: normal; font-weight: normal; font-size: 16px; line-height: normal; font-family: 'Trebuchet MS'; cursor: pointer;"><tspan dy="6" style="-webkit-tap-highlight-color: rgba(0, 0, 0, 0); white-space: pre; line-height: 10;">∴ Quantity A is greater</tspan></text><rect x="100" y="80" width="10" height="10" r="0" rx="0" ry="0" fill="#77bb44" stroke="#77bb44" opacity="0" style="-webkit-tap-highlight-color: rgba(0, 0, 0, 0); opacity: 0; cursor: nw-resize;"></rect><path fill="none" stroke="#000000" d="M409,0L800,0" stroke-dasharray="1,3" opacity="0" style="-webkit-tap-highlight-color: rgba(0, 0, 0, 0); opacity: 0;"></path><circle cx="800" cy="0" r="0" fill="#ffffff" stroke="#000000" stroke-width="1" style="-webkit-tap-highlight-color: rgba(0, 0, 0, 0);"></circle><path fill="none" stroke="#000000" d="M409,0L409,57.2" stroke-dasharray="1,3" opacity="0" style="-webkit-tap-highlight-color: rgba(0, 0, 0, 0); opacity: 0;"></path><circle cx="409" cy="57.2" r="0" fill="#ffffff" stroke="#000000" stroke-width="1" style="-webkit-tap-highlight-color: rgba(0, 0, 0, 0);"></circle><path fill="none" stroke="#000000" d="M0,0" stroke-dasharray="4,3" opacity="0.5" style="-webkit-tap-highlight-color: rgba(0, 0, 0, 0); opacity: 0.5;"></path><rect x="-12.000000000000004" y="-48" width="8" height="8" r="0" rx="0" ry="0" fill="#ffffff" stroke="#000000" stroke-width="1" transform="matrix(1,0,0,1,0,0)" style="-webkit-tap-highlight-color: rgba(0, 0, 0, 0);"></rect><rect x="822" y="-48" width="8" height="8" r="0" rx="0" ry="0" fill="#ffffff" stroke="#000000" stroke-width="1" transform="matrix(1,0,0,1,0,0)" style="-webkit-tap-highlight-color: rgba(0, 0, 0, 0);"></rect><rect x="822" y="40" width="8" height="8" r="0" rx="0" ry="0" fill="#ffffff" stroke="#000000" stroke-width="1" transform="matrix(1,0,0,1,0,0)" style="-webkit-tap-highlight-color: rgba(0, 0, 0, 0);"></rect><rect x="-11.999999999999996" y="40" width="8" height="8" r="0" rx="0" ry="0" fill="#ffffff" stroke="#000000" stroke-width="1" transform="matrix(1,0,0,1,0,0)" style="-webkit-tap-highlight-color: rgba(0, 0, 0, 0);"></rect><circle cx="349" cy="-10" r="4" fill="#ffffff" stroke="#000000" stroke-width="1" style="-webkit-tap-highlight-color: rgba(0, 0, 0, 0);"></circle><path fill="none" stroke="#000000" d="M58,20L125.60000000000001,20" stroke-dasharray="1,3" opacity="0" style="-webkit-tap-highlight-color: rgba(0, 0, 0, 0); opacity: 0;"></path><circle cx="125.60000000000001" cy="20" r="0" fill="#ffffff" stroke="#000000" style="-webkit-tap-highlight-color: rgba(0, 0, 0, 0);"></circle><path fill="none" stroke="#000000" d="M58,20L58,34.3" stroke-dasharray="1,3" opacity="0" style="-webkit-tap-highlight-color: rgba(0, 0, 0, 0); opacity: 0;"></path><circle cx="58" cy="34.3" r="0" fill="#ffffff" stroke="#000000" style="-webkit-tap-highlight-color: rgba(0, 0, 0, 0);"></circle><circle cx="-2" cy="10" r="0" fill="#ffffff" stroke="#000000" style="-webkit-tap-highlight-color: rgba(0, 0, 0, 0);"></circle><path fill="none" stroke="#000000" d="M59,73L126.60000000000001,73" stroke-dasharray="1,3" opacity="0" style="-webkit-tap-highlight-color: rgba(0, 0, 0, 0); opacity: 0;"></path><circle cx="126.60000000000001" cy="73" r="0" fill="#ffffff" stroke="#000000" style="-webkit-tap-highlight-color: rgba(0, 0, 0, 0);"></circle><path fill="none" stroke="#000000" d="M59,73L59,87.3" stroke-dasharray="1,3" opacity="0" style="-webkit-tap-highlight-color: rgba(0, 0, 0, 0); opacity: 0;"></path><circle cx="59" cy="87.3" r="0" fill="#ffffff" stroke="#000000" style="-webkit-tap-highlight-color: rgba(0, 0, 0, 0);"></circle><circle cx="-1" cy="63" r="0" fill="#ffffff" stroke="#000000" style="-webkit-tap-highlight-color: rgba(0, 0, 0, 0);"></circle><path fill="none" stroke="#000000" d="M57,109L124.60000000000001,109" stroke-dasharray="1,3" opacity="0" style="-webkit-tap-highlight-color: rgba(0, 0, 0, 0); opacity: 0;"></path><circle cx="124.60000000000001" cy="109" r="0" fill="#ffffff" stroke="#000000" style="-webkit-tap-highlight-color: rgba(0, 0, 0, 0);"></circle><path fill="none" stroke="#000000" d="M57,109L57,123.3" stroke-dasharray="1,3" opacity="0" style="-webkit-tap-highlight-color: rgba(0, 0, 0, 0); opacity: 0;"></path><circle cx="57" cy="123.3" r="0" fill="#ffffff" stroke="#000000" style="-webkit-tap-highlight-color: rgba(0, 0, 0, 0);"></circle><circle cx="-3" cy="99" r="0" fill="#ffffff" stroke="#000000" style="-webkit-tap-highlight-color: rgba(0, 0, 0, 0);"></circle></svg>
