<svg height="434" version="1.1" width="100%" xmlns="http://www.w3.org/2000/svg" xml:space="preserve" style="overflow: hidden; position: relative;"><rect x="0" y="0" width="100%" height="100%" r="0" rx="0" ry="0" fill="#ffffff" stroke="#eeeeee" stroke-width="1" style="-webkit-tap-highlight-color: rgba(0, 0, 0, 0);"></rect><desc style="-webkit-tap-highlight-color: rgba(0, 0, 0, 0);">Created with Raphaël 2.1.0</desc><defs style="-webkit-tap-highlight-color: rgba(0, 0, 0, 0);"></defs><path fill="none" stroke="#000000" d="M206,33L205,34L201,35L197,37L190,40L188,41L180,47L176,51L173,54L169,58L169,60L167,62L165,65L164,68L162,71L161,74L160,76L158,78L158,81L157,84L156,87L156,91L154,96L153,100L153,106L152,109L152,112L152,114L152,116L152,119L152,122L152,129L152,133L152,136L153,139L154,141L154,144L155,147L157,150L158,152L159,155L161,158L163,162L164,165L166,167L167,170L168,172L169,174L171,175L172,177L174,179L176,181L177,182L178,183L182,186L185,189L188,191L191,192L192,193L193,193L194,194L197,196L200,197L202,198L203,198L205,199L210,201L216,202L220,202L224,202L227,202L228,202L231,202L236,202L246,202L255,202L263,202L267,202L275,198L280,196L287,194L293,190L299,187L306,185L311,181L315,180L317,179L318,177L320,174L322,171L326,166L327,163L328,160L330,158L331,155L333,151L333,147L334,142L335,139L335,134L335,130L335,123L335,119L335,115L334,110L334,106L334,101L332,97L331,92L331,88L329,84L327,81L323,74L321,71L319,68L316,65L313,62L308,58L303,54L297,51L290,48L284,44L278,41L273,40L266,36L262,34L259,34L257,33L254,32L249,32L244,30L238,29L233,29L229,29L228,29L227,29L224,29L220,29L215,29L213,29L212,30L210,30L208,30L207,31L206,31L205,31L204,31L203,31L203,31" stroke-width="1" style="-webkit-tap-highlight-color: rgba(0, 0, 0, 0);"></path><path fill="none" stroke="#000000" d="M230,125L230,124L231,123L234,119L239,113L246,106L253,99L254,98L257,94L259,90L261,87L263,84L265,81L267,79L269,77L271,74L273,73L275,71L278,69L279,67L280,66L282,64L283,63L284,62L285,61L287,60L288,60L288,59L289,59L290,59L290,58L291,57L292,57L293,56L294,55L293,55L291,55" stroke-width="1" style="-webkit-tap-highlight-color: rgba(0, 0, 0, 0);"></path><path fill="none" stroke="#000000" d="M234,64L234,63L234,62L235,61L236,61L239,60L243,59L247,59L248,59L249,60L250,63L251,66L251,68L251,71L250,74L248,76L247,76L247,75L247,74L247,72L247,71L248,68L248,68L251,62L252,61L252,60L252,59L252,58L251,58L250,58L249,59L249,59L249,62L249,64L249,64L249,68L250,69L253,71L255,73L257,73L261,73L265,71L269,68L271,66L271,65L270,65L268,65" stroke-width="1" style="-webkit-tap-highlight-color: rgba(0, 0, 0, 0);"></path><path fill="none" stroke="#000000" d="M227,122L227,123L227,124L227,127L228,131L229,134L230,137L232,143L232,144L234,148L234,150L236,153L236,155L236,156L237,158L237,159L238,161L238,162L239,164L239,165L239,168L240,169L240,170L240,172L241,174L242,175L243,177L243,178L243,179L243,180L242,180L241,180L239,181L236,181L234,181L229,182L227,183L223,183L219,184L216,184L214,184L212,185L211,185L209,185L207,185L206,185L205,185L203,186L202,186L200,186L198,187L197,187L196,187L195,187L194,187L193,188L192,188L191,188L190,188L189,188L188,189L187,189L187,188L189,184L191,179L193,175L194,174L196,171L198,168L199,165L201,163L202,161L204,157L206,155L207,152L208,152L210,149L211,148L212,147L212,146L214,144L215,143L217,140L217,138L218,137L219,136L221,134L222,132L223,129L225,128L225,126L226,126L226,125L226,124L226,123L226,122L226,122L227,121L227,120L228,119L229,119L229,118L229,117L230,117" stroke-width="1" style="-webkit-tap-highlight-color: rgba(0, 0, 0, 0);"></path><path fill="none" stroke="#000000" d="M213,102L213,103L212,103L211,103L211,104L211,105L211,106L210,107L210,108L210,109L210,110L210,111L210,112L210,113L210,114L210,115L210,116L211,116L212,116L213,116L214,116L215,116L216,115L216,114L217,113L217,112L218,111L219,110L219,109L219,108L219,107L219,106L219,105L219,104L219,103L218,103L217,102L216,102L215,102L214,102L214,102L212,102L211,102L210,102L209,102L209,102" stroke-width="1" style="-webkit-tap-highlight-color: rgba(0, 0, 0, 0);"></path><path fill="none" stroke="#000000" d="M263,137L261,137L259,135L254,134L252,134L251,134L249,134L248,134L247,134L247,135L247,136L247,137L247,138L247,139L247,140L248,141L248,142L249,142L251,143L252,143L253,144L254,144L256,144L258,143L259,138L259,137L259,137L260,137L260,138L260,142L260,146L260,147L260,151L261,154L261,155" stroke-width="1" style="-webkit-tap-highlight-color: rgba(0, 0, 0, 0);"></path><path fill="none" stroke="#000000" d="M221,190L222,191L222,192L222,193L223,194L223,195L224,196L224,197L224,198L225,198" stroke-width="1" style="-webkit-tap-highlight-color: rgba(0, 0, 0, 0);"></path><path fill="none" stroke="#000000" d="M228,188L228,187L228,186L228,185L228,184L229,183L229,183L232,182L235,182L235,183L236,183L236,184L236,185L236,187L236,188L236,190L236,191L235,193L234,194L235,194L236,194L237,194L242,193L246,192L248,191L249,190L248,190" stroke-width="1" style="-webkit-tap-highlight-color: rgba(0, 0, 0, 0);"></path><path fill="none" stroke="#000000" d="M163,184L163,186L163,190L163,194L163,196L163,199L163,200L163,201L163,201L163,201L163,201L163,201L162,184L160,179L160,178L161,178L161,179L162,180L164,182L166,184L168,187L170,190L172,193L173,196L175,197L176,198L177,199L177,198L177,197L177,197" stroke-width="1" style="-webkit-tap-highlight-color: rgba(0, 0, 0, 0);"></path><path fill="none" stroke="#000000" d="M156,195L157,194L159,193L161,192L161,192L168,189L171,188L171,187" stroke-width="1" style="-webkit-tap-highlight-color: rgba(0, 0, 0, 0);"></path><path fill="none" stroke="#000000" d="M251,177L251,178L251,179L251,182L252,184L252,187L252,188L252,190L253,191L253,192L253,193L253,194L253,194L253,194L253,190L253,190L253,190L253,190L250,185L250,184L250,182L249,181L249,180L249,179L249,178L250,178L250,177L253,176L254,175L255,175L257,175L259,176L259,177L259,179L259,181L259,183L258,184L256,186L253,187L253,187L253,187L250,187L250,186L250,186L253,185L255,184L257,184L257,184L261,183L262,183L263,183L263,184L263,186L263,187L263,188L263,189L263,190L262,191L259,191L257,191L254,191L252,191L251,191L250,191L250,190" stroke-width="1" style="-webkit-tap-highlight-color: rgba(0, 0, 0, 0);"></path><text x="50" y="50" text-anchor="start" font="10px &quot;Arial&quot;" stroke="none" fill="#000000" font-size="15px" font-family="Georgia" transform="matrix(1,0,0,1,-24,201)" style="-webkit-tap-highlight-color: rgba(0, 0, 0, 0); text-anchor: start; font-style: normal; font-variant: normal; font-weight: normal; font-size: 15px; line-height: normal; font-family: Georgia; cursor: pointer;"><tspan dy="6" style="-webkit-tap-highlight-color: rgba(0, 0, 0, 0); white-space: pre; line-height: 10;">From the figure OA  = x = radius and OAB is also RIGHT ANGLED TRIANGLE therfore OA² = AB² + OB²</tspan></text><rect x="100" y="80" width="10" height="10" r="0" rx="0" ry="0" fill="#77bb44" stroke="#77bb44" opacity="0" style="-webkit-tap-highlight-color: rgba(0, 0, 0, 0); opacity: 0; cursor: nw-resize;"></rect><path fill="none" stroke="#000000" d="M235,162L234,162L233,162L232,162L231,162L230,162L229,162L226,162L224,162L223,162L222,162L222,163L222,164L222,165L222,167L222,168L222,172L222,175L222,176L222,177L222,178L222,179L222,181L222,182L222,182" stroke-width="1" style="-webkit-tap-highlight-color: rgba(0, 0, 0, 0);"></path><text x="50" y="50" text-anchor="start" font="10px &quot;Arial&quot;" stroke="none" fill="#000000" font-size="15px" font-family="Georgia" transform="matrix(1,0,0,1,172,275)" style="-webkit-tap-highlight-color: rgba(0, 0, 0, 0); text-anchor: start; font-style: normal; font-variant: normal; font-weight: normal; font-size: 15px; line-height: normal; font-family: Georgia; cursor: pointer;"><tspan dy="-3" style="-webkit-tap-highlight-color: rgba(0, 0, 0, 0); white-space: pre; line-height: 10;">OA² = 12² + 9² = 144 + 81 =&gt; OA = 15</tspan><tspan dy="18" x="50" style="-webkit-tap-highlight-color: rgba(0, 0, 0, 0); white-space: pre; line-height: 10;">              The two quantities are equal</tspan></text><rect x="100" y="80" width="10" height="10" r="0" rx="0" ry="0" fill="#77bb44" stroke="#77bb44" opacity="0" style="-webkit-tap-highlight-color: rgba(0, 0, 0, 0); opacity: 0; cursor: nw-resize;"></rect><path fill="none" stroke="#000000" d="M419,310" stroke-width="1" style="-webkit-tap-highlight-color: rgba(0, 0, 0, 0);"></path><path fill="none" stroke="#000000" d="M421,344L421,344L421,344L421,344L421,344L421,344L421,344L421,344" stroke-width="1" style="-webkit-tap-highlight-color: rgba(0, 0, 0, 0);"></path><path fill="none" stroke="#000000" d="M75,251L138.7,251" stroke-dasharray="1,3" opacity="0" style="-webkit-tap-highlight-color: rgba(0, 0, 0, 0); opacity: 0;"></path><circle cx="138.7" cy="251" r="0" fill="#ffffff" stroke="#000000" style="-webkit-tap-highlight-color: rgba(0, 0, 0, 0);"></circle><path fill="none" stroke="#000000" d="M75,251L75,262.7" stroke-dasharray="1,3" opacity="0" style="-webkit-tap-highlight-color: rgba(0, 0, 0, 0); opacity: 0;"></path><circle cx="75" cy="262.7" r="0" fill="#ffffff" stroke="#000000" style="-webkit-tap-highlight-color: rgba(0, 0, 0, 0);"></circle><circle cx="15" cy="241" r="0" fill="#ffffff" stroke="#000000" style="-webkit-tap-highlight-color: rgba(0, 0, 0, 0);"></circle><path fill="none" stroke="#000000" d="M271,325L334.7,325" stroke-dasharray="1,3" opacity="0" style="-webkit-tap-highlight-color: rgba(0, 0, 0, 0); opacity: 0;"></path><circle cx="334.7" cy="325" r="0" fill="#ffffff" stroke="#000000" style="-webkit-tap-highlight-color: rgba(0, 0, 0, 0);"></circle><path fill="none" stroke="#000000" d="M271,325L271,336.7" stroke-dasharray="1,3" opacity="0" style="-webkit-tap-highlight-color: rgba(0, 0, 0, 0); opacity: 0;"></path><circle cx="271" cy="336.7" r="0" fill="#ffffff" stroke="#000000" style="-webkit-tap-highlight-color: rgba(0, 0, 0, 0);"></circle><circle cx="211" cy="315" r="0" fill="#ffffff" stroke="#000000" style="-webkit-tap-highlight-color: rgba(0, 0, 0, 0);"></circle></svg>
