<svg height="151" version="1.1" width="100%" xmlns="http://www.w3.org/2000/svg" style="overflow: hidden; position: relative; left: -0.5px;"><rect x="0" y="0" width="100%" height="100%" r="0" rx="0" ry="0" fill="#c80000" stroke="#888888" stroke-width="1" style="-webkit-tap-highlight-color: rgba(0, 0, 0, 0);"></rect><desc style="-webkit-tap-highlight-color: rgba(0, 0, 0, 0);">Created with Raphaël 2.1.0</desc><defs style="-webkit-tap-highlight-color: rgba(0, 0, 0, 0);"></defs><text x="420" y="50" text-anchor="middle" font="10px &quot;Arial&quot;" stroke="none" fill="#ffffff" font-size="13px" font-family="Verdana, Helvetica, sans-serif" transform="matrix(1,0,0,1,-63,-2)" style="-webkit-tap-highlight-color: rgba(0, 0, 0, 0); text-anchor: middle; font-style: normal; font-variant: normal; font-weight: normal; font-size: 13px; line-height: normal; font-family: Verdana, Helvetica, sans-serif; cursor: pointer;"><tspan dy="-2.8046875" style="-webkit-tap-highlight-color: rgba(0, 0, 0, 0);">The diameter of the Circle that has the Chord of length 8  is greater than 8 as Diameter is always g</tspan><tspan dy="15.6" x="420" style="-webkit-tap-highlight-color: rgba(0, 0, 0, 0);">Greater than any Chord of a given circle </tspan></text><rect x="100" y="80" width="10" height="10" r="0" rx="0" ry="0" fill="#77bb44" stroke="#77bb44" opacity="0" style="-webkit-tap-highlight-color: rgba(0, 0, 0, 0); opacity: 0; cursor: nw-resize;"></rect><text x="420" y="50" text-anchor="middle" font="10px &quot;Arial&quot;" stroke="none" fill="#ffffff" font-size="13px" font-family="Verdana, Helvetica, sans-serif" transform="matrix(1,0,0,1,-129,61)" style="-webkit-tap-highlight-color: rgba(0, 0, 0, 0); text-anchor: middle; font-style: normal; font-variant: normal; font-weight: normal; font-size: 13px; line-height: normal; font-family: Verdana, Helvetica, sans-serif; cursor: pointer;"><tspan dy="5" style="-webkit-tap-highlight-color: rgba(0, 0, 0, 0);">Since area is proportional to diameter ..Quantity A  is Greater than B</tspan></text><rect x="100" y="80" width="10" height="10" r="0" rx="0" ry="0" fill="#77bb44" stroke="#77bb44" opacity="0" style="-webkit-tap-highlight-color: rgba(0, 0, 0, 0); opacity: 0; cursor: nw-resize;"></rect><path fill="none" stroke="#000000" d="M357,48LNaN,48" stroke-dasharray="4,3" opacity="0" style="-webkit-tap-highlight-color: rgba(0, 0, 0, 0); opacity: 0;"></path><circle cx="NaN" cy="48" r="0" fill="#ffffff" stroke="#000000" style="-webkit-tap-highlight-color: rgba(0, 0, 0, 0);"></circle><path fill="none" stroke="#000000" d="M357,48LNaN,58.4" stroke-dasharray="4,3" opacity="0" style="-webkit-tap-highlight-color: rgba(0, 0, 0, 0); opacity: 0;"></path><circle cx="NaN" cy="58.4" r="0" fill="#ffffff" stroke="#000000" style="-webkit-tap-highlight-color: rgba(0, 0, 0, 0);"></circle><path fill="none" stroke="#000000" d="M277,40L437,40L437,56L277,56L277,40" stroke-dasharray="4,3" opacity="0" style="-webkit-tap-highlight-color: rgba(0, 0, 0, 0); opacity: 0;"></path><rect x="277" y="40" width="0" height="0" r="0" rx="0" ry="0" fill="#ffffff" stroke="#000000" transform="matrix(1,0,0,1,0,0)" style="-webkit-tap-highlight-color: rgba(0, 0, 0, 0);"></rect><rect x="437" y="40" width="0" height="0" r="0" rx="0" ry="0" fill="#ffffff" stroke="#000000" transform="matrix(1,0,0,1,0,0)" style="-webkit-tap-highlight-color: rgba(0, 0, 0, 0);"></rect><rect x="437" y="56" width="0" height="0" r="0" rx="0" ry="0" fill="#ffffff" stroke="#000000" transform="matrix(1,0,0,1,0,0)" style="-webkit-tap-highlight-color: rgba(0, 0, 0, 0);"></rect><rect x="277" y="56" width="0" height="0" r="0" rx="0" ry="0" fill="#ffffff" stroke="#000000" transform="matrix(1,0,0,1,0,0)" style="-webkit-tap-highlight-color: rgba(0, 0, 0, 0);"></rect><circle cx="357" cy="48" r="0" fill="#ffffff" stroke="#000000" style="-webkit-tap-highlight-color: rgba(0, 0, 0, 0);"></circle><path fill="none" stroke="#000000" d="M291,111LNaN,111" stroke-dasharray="4,3" opacity="0" style="-webkit-tap-highlight-color: rgba(0, 0, 0, 0); opacity: 0;"></path><circle cx="NaN" cy="111" r="0" fill="#ffffff" stroke="#000000" style="-webkit-tap-highlight-color: rgba(0, 0, 0, 0);"></circle><path fill="none" stroke="#000000" d="M291,111LNaN,121.4" stroke-dasharray="4,3" opacity="0" style="-webkit-tap-highlight-color: rgba(0, 0, 0, 0); opacity: 0;"></path><circle cx="NaN" cy="121.4" r="0" fill="#ffffff" stroke="#000000" style="-webkit-tap-highlight-color: rgba(0, 0, 0, 0);"></circle><path fill="none" stroke="#000000" d="M211,103L371,103L371,119L211,119L211,103" stroke-dasharray="4,3" opacity="0" style="-webkit-tap-highlight-color: rgba(0, 0, 0, 0); opacity: 0;"></path><rect x="211" y="103" width="0" height="0" r="0" rx="0" ry="0" fill="#ffffff" stroke="#000000" transform="matrix(1,0,0,1,0,0)" style="-webkit-tap-highlight-color: rgba(0, 0, 0, 0);"></rect><rect x="371" y="103" width="0" height="0" r="0" rx="0" ry="0" fill="#ffffff" stroke="#000000" transform="matrix(1,0,0,1,0,0)" style="-webkit-tap-highlight-color: rgba(0, 0, 0, 0);"></rect><rect x="371" y="119" width="0" height="0" r="0" rx="0" ry="0" fill="#ffffff" stroke="#000000" transform="matrix(1,0,0,1,0,0)" style="-webkit-tap-highlight-color: rgba(0, 0, 0, 0);"></rect><rect x="211" y="119" width="0" height="0" r="0" rx="0" ry="0" fill="#ffffff" stroke="#000000" transform="matrix(1,0,0,1,0,0)" style="-webkit-tap-highlight-color: rgba(0, 0, 0, 0);"></rect><circle cx="291" cy="111" r="0" fill="#ffffff" stroke="#000000" style="-webkit-tap-highlight-color: rgba(0, 0, 0, 0);"></circle></svg>
