<svg height="257" version="1.1" width="100%" xmlns="http://www.w3.org/2000/svg" style="overflow: hidden; position: relative; left: -0.5px;"><rect x="0" y="0" width="100%" height="100%" r="0" rx="0" ry="0" fill="#ffffff" stroke="#888888" stroke-width="1" style="-webkit-tap-highlight-color: rgba(0, 0, 0, 0);"></rect><desc style="-webkit-tap-highlight-color: rgba(0, 0, 0, 0);">Created with Raphaël 2.1.0</desc><defs style="-webkit-tap-highlight-color: rgba(0, 0, 0, 0);"></defs><text x="420" y="50" text-anchor="middle" font="10px &quot;Arial&quot;" stroke="none" fill="#000000" font-size="13px" font-family="Verdana, Helvetica, sans-serif" transform="matrix(1,0,0,1,-121,13)" style="-webkit-tap-highlight-color: rgba(0, 0, 0, 0); text-anchor: middle; font-style: normal; font-variant: normal; font-weight: normal; font-size: 13px; line-height: normal; font-family: Verdana, Helvetica, sans-serif; cursor: pointer;"><tspan dy="5" style="-webkit-tap-highlight-color: rgba(0, 0, 0, 0);">Math has to be praticed</tspan></text><rect x="100" y="80" width="10" height="10" r="0" rx="0" ry="0" fill="#77bb44" stroke="#77bb44" opacity="0" style="-webkit-tap-highlight-color: rgba(0, 0, 0, 0); opacity: 0; cursor: nw-resize;"></rect><path fill="#ffffff" stroke="#888888" d="M181,115L180,115L175,115L172,116L164,118L157,125L151,134L147,142L146,152L144,164L143,174L143,184L143,189L145,194L147,195L151,195L155,195L160,195L167,192L171,189L173,186L174,185L174,183L174,182L174,181L174,180L175,179L177,178L178,177L178,176L178,176L178,176L178,176L177,181L176,184L176,188L176,192L176,195L177,196L177,197L177,197L179,197L180,197L183,197L186,196L189,193L190,191L191,190L191,188L191,187L191,186L191,185L191,184L191,183L190,181L188,178L185,175L184,175L183,175L181,175L180,175L178,175L178,175L178,175L178,175L178,175L178,175L178,175L178,175L178,175L179,194L182,195L182,195L187,197L189,197L190,197L191,197L192,197L193,194L194,190L194,187L194,186L194,184L194,183L194,183L194,183L194,183L194,183L196,190L198,191L201,191L204,191L207,191L210,187L212,184L212,181L212,176L211,172L210,169L208,168L207,168L205,168L203,168L202,168L202,171L202,174L202,175L205,176L207,176L207,176L215,173L217,172L219,171L220,171L220,173L221,175L221,177L221,179L221,184L221,189L221,192L222,194L222,195L224,195L225,195L230,195L235,194L242,190L247,184L251,177L252,168L252,154L250,147L249,145L248,145L247,145L246,148L246,152L246,159L247,169L248,179L251,193L252,198L252,199L253,200L254,200L254,200L255,196L255,191L255,184L255,184L249,173L249,173L246,173L245,173L245,173L245,173L245,173L245,173L250,171L250,171L256,169L259,168L266,166L267,166L267,166L265,168L265,171L264,176L264,182L264,185L264,190L264,191L264,192L264,192L264,192L264,192L269,170L275,163L279,162L284,159L287,159L290,163L294,169L299,181L300,184L300,184L301,177L302,173L304,162L307,154L310,150L312,149L314,150L317,158L321,170L325,181L328,189L328,191L328,191L331,191L333,189L341,183L351,177L359,176L364,176L368,179L374,181L380,183L390,183L398,181L404,175L406,167L407,160L407,155L405,154L400,158L395,164L390,173L388,181L388,187L388,191L388,191L392,190L399,184L407,176L415,164L416,164L417,165L418,167L428,176L435,180L440,181L446,178L453,168L457,159L458,154L459,154L460,155L462,157L464,159L466,161L467,161L474,151L478,144L480,141L480,140L487,157L494,169L501,177L507,177L521,171L544,156L556,147" stroke-width="2" fill-opacity="0" style="-webkit-tap-highlight-color: rgba(0, 0, 0, 0); fill-opacity: 0;"></path><path fill="none" stroke="#000000" d="M349.5,157.5LNaN,157.5" stroke-dasharray="4,3" opacity="0" style="-webkit-tap-highlight-color: rgba(0, 0, 0, 0); opacity: 0;"></path><circle cx="NaN" cy="157.5" r="0" fill="#ffffff" stroke="#000000" stroke-width="1" style="-webkit-tap-highlight-color: rgba(0, 0, 0, 0);"></circle><path fill="none" stroke="#000000" d="M349.5,157.5LNaN,212.75" stroke-dasharray="4,3" opacity="0" style="-webkit-tap-highlight-color: rgba(0, 0, 0, 0); opacity: 0;"></path><circle cx="NaN" cy="212.75" r="0" fill="#ffffff" stroke="#000000" stroke-width="1" style="-webkit-tap-highlight-color: rgba(0, 0, 0, 0);"></circle><path fill="none" stroke="#000000" d="M143,115L556,115L556,200L143,200L143,115" stroke-dasharray="4,3" opacity="0" style="-webkit-tap-highlight-color: rgba(0, 0, 0, 0); opacity: 0;"></path><rect x="143" y="115" width="0" height="0" r="0" rx="0" ry="0" fill="#ffffff" stroke="#000000" stroke-width="1" transform="matrix(1,0,0,1,0,0)" style="-webkit-tap-highlight-color: rgba(0, 0, 0, 0);"></rect><rect x="556" y="115" width="0" height="0" r="0" rx="0" ry="0" fill="#ffffff" stroke="#000000" stroke-width="1" transform="matrix(1,0,0,1,0,0)" style="-webkit-tap-highlight-color: rgba(0, 0, 0, 0);"></rect><rect x="556" y="200" width="0" height="0" r="0" rx="0" ry="0" fill="#ffffff" stroke="#000000" stroke-width="1" transform="matrix(1,0,0,1,0,0)" style="-webkit-tap-highlight-color: rgba(0, 0, 0, 0);"></rect><rect x="143" y="200" width="0" height="0" r="0" rx="0" ry="0" fill="#ffffff" stroke="#000000" stroke-width="1" transform="matrix(1,0,0,1,0,0)" style="-webkit-tap-highlight-color: rgba(0, 0, 0, 0);"></rect><circle cx="349.5" cy="157.5" r="0" fill="#ffffff" stroke="#000000" stroke-width="1" style="-webkit-tap-highlight-color: rgba(0, 0, 0, 0);"></circle><path fill="none" stroke="#000000" d="M299,63LNaN,63" stroke-dasharray="4,3" opacity="0" style="-webkit-tap-highlight-color: rgba(0, 0, 0, 0); opacity: 0;"></path><circle cx="NaN" cy="63" r="0" fill="#ffffff" stroke="#000000" style="-webkit-tap-highlight-color: rgba(0, 0, 0, 0);"></circle><path fill="none" stroke="#000000" d="M299,63LNaN,73.4" stroke-dasharray="4,3" opacity="0" style="-webkit-tap-highlight-color: rgba(0, 0, 0, 0); opacity: 0;"></path><circle cx="NaN" cy="73.4" r="0" fill="#ffffff" stroke="#000000" style="-webkit-tap-highlight-color: rgba(0, 0, 0, 0);"></circle><path fill="none" stroke="#000000" d="M219,55L379,55L379,71L219,71L219,55" stroke-dasharray="4,3" opacity="0" style="-webkit-tap-highlight-color: rgba(0, 0, 0, 0); opacity: 0;"></path><rect x="219" y="55" width="0" height="0" r="0" rx="0" ry="0" fill="#ffffff" stroke="#000000" transform="matrix(1,0,0,1,0,0)" style="-webkit-tap-highlight-color: rgba(0, 0, 0, 0);"></rect><rect x="379" y="55" width="0" height="0" r="0" rx="0" ry="0" fill="#ffffff" stroke="#000000" transform="matrix(1,0,0,1,0,0)" style="-webkit-tap-highlight-color: rgba(0, 0, 0, 0);"></rect><rect x="379" y="71" width="0" height="0" r="0" rx="0" ry="0" fill="#ffffff" stroke="#000000" transform="matrix(1,0,0,1,0,0)" style="-webkit-tap-highlight-color: rgba(0, 0, 0, 0);"></rect><rect x="219" y="71" width="0" height="0" r="0" rx="0" ry="0" fill="#ffffff" stroke="#000000" transform="matrix(1,0,0,1,0,0)" style="-webkit-tap-highlight-color: rgba(0, 0, 0, 0);"></rect><circle cx="299" cy="63" r="0" fill="#ffffff" stroke="#000000" style="-webkit-tap-highlight-color: rgba(0, 0, 0, 0);"></circle></svg>
